<?xml version="1.0" encoding="utf-8"?>
<!-- Generator: Adobe Illustrator 23.0.3, SVG Export Plug-In . SVG Version: 6.00 Build 0)  -->
<svg version="1.1" id="Layer_1_copy" xmlns="http://www.w3.org/2000/svg" xmlns:xlink="http://www.w3.org/1999/xlink" x="0px"
	 y="0px" viewBox="0 0 480 352" style="enable-background:new 0 0 480 352;" xml:space="preserve">
<g>
	<g>
		<path d="M240,60.3c52.3,0,94.7,42.4,94.7,94.7c0,52.3-42.4,94.7-94.7,94.7s-94.7-42.4-94.7-94.7C145.3,102.7,187.7,60.3,240,60.3
			 M240,30c-68.93,0-125,56.07-125,125s56.07,125,125,125s125-56.07,125-125S308.93,30,240,30L240,30z"/>
		<path d="M171.17,117.12h31.7c0.7,0,1.35,0.39,1.68,1.01l33.78,64.58c0.71,1.35,2.64,1.35,3.35,0l33.78-64.58
			c0.33-0.62,0.97-1.01,1.68-1.01h31.7c1.42,0,2.34,1.51,1.67,2.77l-51.98,98.49c-0.33,0.62-0.97,1.01-1.67,1.01h-33.71
			c-0.7,0-1.34-0.39-1.67-1.01l-51.98-98.49C168.83,118.64,169.74,117.12,171.17,117.12z"/>
	</g>
</g>
<g>
	<path d="M44.27,300.8c-2.57,0-3.7,0.99-3.71,2.34c-0.07,1.47,1.23,2.32,4.13,2.93l2.52,0.54c6.77,1.45,9.55,4.73,9.58,9.4
		c-0.03,6.05-4.69,9.4-12.45,9.4c-7.99,0-13.2-3.44-13.23-11.14H39c0.13,2.81,2.02,4.31,5.21,4.31c2.66,0,4.04-1.06,4.07-2.57
		c-0.03-1.39-1.2-2.25-4.61-2.99l-3.05-0.66c-5.43-1.17-8.76-3.83-8.74-8.62c-0.04-5.84,5.1-9.76,12.39-9.76
		c7.42,0,12.06,3.98,12.09,10H48.4C48.24,301.98,46.96,300.8,44.27,300.8z"/>
	<path d="M58.11,313.61c0-7.07,4.43-11.86,11.92-11.86c6.77,0,11.03,3.89,11.08,9.88h-7.66c-0.22-2.41-1.47-3.71-3.29-3.71
		c-2.17,0-3.59,1.86-3.59,5.63s1.42,5.63,3.59,5.63c1.81,0,3.11-1.3,3.29-3.71h7.66c-0.09,6.09-4.27,10-11.08,10
		C62.54,325.47,58.11,320.68,58.11,313.61z"/>
	<path d="M82.02,313.61c0-7.07,4.43-11.86,11.92-11.86c7.48,0,11.92,4.79,11.92,11.86s-4.43,11.86-11.92,11.86
		C86.45,325.47,82.02,320.68,82.02,313.61z M97.41,313.55c0-3.61-1.32-5.81-3.41-5.81c-2.22,0-3.53,2.2-3.53,5.81
		s1.32,5.81,3.53,5.81C96.09,319.36,97.41,317.16,97.41,313.55z"/>
	<path d="M121.18,308.05h-3.95v9.61c0,0.96,0.48,1.44,1.56,1.44c0.49,0,1.3-0.16,1.62-0.24l1.2,5.81c-0.75,0.22-2.14,0.61-4.01,0.72
		c-5.7,0.31-8.68-2.12-8.62-6.95v-10.39h-2.93v-5.99h2.93v-5.51h8.26v5.51h3.95V308.05z"/>
	<path d="M136.98,308.05h-3.95v9.61c0,0.96,0.48,1.44,1.56,1.44c0.49,0,1.3-0.16,1.62-0.24l1.2,5.81c-0.75,0.22-2.14,0.61-4.01,0.72
		c-5.7,0.31-8.68-2.12-8.62-6.95v-10.39h-2.93v-5.99h2.93v-5.51h8.26v5.51h3.95V308.05z"/>
	<path d="M160.74,316.01h0.24l6.29-21.62h9.4l-10.12,30.66h-11.38l-10.12-30.66h9.4L160.74,316.01z"/>
	<path d="M178,302.06h8.26v22.99H178V302.06z M178.06,295.89c0-2.08,1.83-3.77,4.07-3.77s4.07,1.69,4.07,3.77
		c0,2.08-1.83,3.77-4.07,3.77S178.06,297.97,178.06,295.89z"/>
	<path d="M197.56,325.05h-8.26v-22.99h7.84v4.37h0.24c1-2.9,3.68-4.67,7.07-4.67c4.88,0,8.04,3.62,8.02,8.62v14.67h-8.26v-12.93
		c0.01-2.27-1.21-3.65-3.29-3.65c-2.05,0-3.34,1.38-3.35,3.65V325.05z"/>
	<path d="M214.25,313.61c0-7.07,4.43-11.86,11.92-11.86c6.77,0,11.03,3.89,11.08,9.88h-7.66c-0.22-2.41-1.47-3.71-3.29-3.71
		c-2.17,0-3.59,1.86-3.59,5.63s1.42,5.63,3.59,5.63c1.81,0,3.11-1.3,3.29-3.71h7.66c-0.09,6.09-4.27,10-11.08,10
		C218.68,325.47,214.25,320.68,214.25,313.61z"/>
	<path d="M238.16,313.61c0-7.12,4.55-11.86,11.68-11.86c6.95,0,11.44,4.48,11.44,11.8v1.92H246.3v0.36c0,2.21,1.44,3.83,3.89,3.83
		c1.69,0,3.05-0.73,3.53-2.04h7.54c-0.78,4.79-4.88,7.84-11.26,7.84C242.65,325.47,238.16,321.05,238.16,313.61z M253.67,310.92
		c-0.04-1.98-1.6-3.35-3.65-3.35c-2.02,0-3.67,1.36-3.71,3.35H253.67z"/>
	<path d="M271.6,325.05h-8.26v-22.99h7.84v4.37h0.24c1-2.9,3.68-4.67,7.07-4.67c4.88,0,8.04,3.62,8.02,8.62v14.67h-8.26v-12.93
		c0.01-2.27-1.21-3.65-3.29-3.65c-2.05,0-3.34,1.38-3.35,3.65V325.05z"/>
	<path d="M302.6,308.05h-3.95v9.61c0,0.96,0.48,1.44,1.56,1.44c0.49,0,1.3-0.16,1.62-0.24l1.2,5.81c-0.75,0.22-2.14,0.61-4.01,0.72
		c-5.7,0.31-8.68-2.12-8.62-6.95v-10.39h-2.93v-5.99h2.93v-5.51h8.26v5.51h3.95V308.05z"/>
	<path d="M311.69,325.05v-30.66h11.68c9.46,0,15.39,5.75,15.39,15.33s-5.93,15.33-15.27,15.33H311.69z M323.19,317.98
		c4.55,0,7.19-1.86,7.19-8.26s-2.63-8.26-7.42-8.26h-2.93v16.53H323.19z"/>
	<path d="M340.25,313.61c0-7.12,4.55-11.86,11.67-11.86c6.95,0,11.44,4.48,11.44,11.8v1.92H348.4v0.36c0,2.21,1.44,3.83,3.89,3.83
		c1.69,0,3.05-0.73,3.53-2.04h7.54c-0.78,4.79-4.88,7.84-11.26,7.84C344.75,325.47,340.25,321.05,340.25,313.61z M355.76,310.92
		c-0.04-1.98-1.6-3.35-3.65-3.35c-2.02,0-3.67,1.36-3.71,3.35H355.76z"/>
	<path d="M378.6,309.54c-0.12-1.41-1.48-2.28-3.11-2.28c-1.42,0-2.6,0.54-2.58,1.5c-0.03,0.67,0.46,1.3,2.22,1.62l4.67,0.84
		c4.7,0.85,6.98,2.83,7.01,6.23c-0.03,4.92-4.72,8.02-11.08,8.02c-7.04,0-11.11-3.13-11.56-7.84h8.2c0.22,1.47,1.54,2.28,3.41,2.28
		c1.51,0,2.6-0.54,2.63-1.5c-0.03-0.87-0.84-1.35-2.63-1.68l-4.07-0.72c-4.69-0.82-7.04-3.14-7.01-6.77
		c-0.03-4.79,4.03-7.49,10.6-7.49c6.65,0,10.69,2.92,10.9,7.78H378.6z"/>
	<path d="M388.71,302.06h8.26v22.99h-8.26V302.06z M388.77,295.89c0-2.08,1.83-3.77,4.07-3.77c2.25,0,4.07,1.69,4.07,3.77
		c0,2.08-1.83,3.77-4.07,3.77C390.59,299.66,388.77,297.97,388.77,295.89z"/>
	<path d="M399.7,326.55h7.96c0.24,1.23,1.63,1.8,3.53,1.8c2.14,0,3.71-0.88,3.71-3.35v-3.89h-0.24c-0.9,2.34-3.35,3.65-6.47,3.65
		c-4.91,0-9.04-3.23-9.04-11.2c0-8.32,4.43-11.8,8.98-11.8c3.41,0,5.57,1.98,6.47,4.31h0.18v-4.01h8.26v22.93
		c0,5.6-4.82,8.92-12.09,8.92C404.04,333.91,400.02,330.74,399.7,326.55z M414.91,313.55c0-3.41-1.38-5.45-3.65-5.45
		s-3.59,2.04-3.59,5.45s1.32,5.33,3.59,5.33S414.91,316.91,414.91,313.55z"/>
	<path d="M434.27,325.05h-8.26v-22.99h7.84v4.37h0.24c1-2.9,3.68-4.67,7.07-4.67c4.88,0,8.04,3.62,8.02,8.62v14.67h-8.26v-12.93
		c0.01-2.27-1.21-3.65-3.29-3.65c-2.05,0-3.34,1.38-3.35,3.65V325.05z"/>
</g>
</svg>
