<svg enable-background="new 0 0 720 420" viewBox="0 0 720 420" xmlns="http://www.w3.org/2000/svg"><path d="m180.13 238.93v-61.69h37.85c4.35 0 7.87 3.52 7.87 7.87v13.45c-.06 4.7-3.41 8.7-8.03 9.6 4.75.65 8.41 4.51 8.81 9.28v13.61c0 4.35-3.52 7.87-7.87 7.87h-38.63zm30.85-48.23c.04-.52-.34-.98-.86-1.02-.03 0-.05 0-.08 0h-14.16v12.43h14.16c.48.05.9-.29.95-.77.01-.09.01-.17-.01-.26zm0 24c.04-.52-.34-.98-.86-1.02-.03 0-.05 0-.08 0h-14.16v13.53h14.16c.48.05.9-.3.94-.78.01-.05.01-.11 0-.17z"/><path d="m290.21 238.93h-15.74v-15.74h-14.16v15.74h-15.74v-54.53c-.18-3.78 2.74-6.98 6.52-7.16.21-.01.43-.01.64 0h31.47c3.78-.18 6.98 2.74 7.16 6.52.01.21.01.43 0 .64zm-15.74-28.56v-18.65c0-1.1-.94-1.81-2.2-1.81h-9.84c-.98-.17-1.92.48-2.1 1.47-.02.11-.03.23-.03.34v18.33z"/><path d="m324.67 238.93h-15.74v-61.69h15.74z"/><path d="m384.55 177.24v13.22h-14.08v48.47h-15.74v-48.47h-13.85v-13.22z"/><path d="m445.61 215.32v15.74c-.04 3.91-3.25 7.05-7.16 7h-30.85c-3.82.04-6.96-3.02-7-6.84 0-.05 0-.11 0-.16v-47.21c.04-3.84 3.17-6.92 7-6.92h30.84c3.86 0 7.03 3.06 7.16 6.92v15.74h-15.74v-7.87c.01-.48-.32-.91-.79-1.02h-11.41c-.56 0-1.02.46-1.02 1.02v33.05c0 .52.42.95.94.95h.08 11.57c.48-.04.83-.46.79-.94 0 0 0 0 0-.01v-9.44h15.59z"/><path d="m463.55 177.16h15.74v48.15h19.59v13.61h-35.33z"/><path d="m531.68 238.93h-15.74v-61.77h15.74z"/><path d="m595.26 215.72v15.74c-.04 3.91-3.25 7.05-7.16 7h-30.92c-3.82.04-6.96-3.02-7-6.84 0-.05 0-.11 0-.16v-47.6c.04-3.84 3.17-6.92 7-6.92h30.84c3.86 0 7.03 3.06 7.16 6.92v15.74h-15.74v-7.87c.01-.48-.32-.91-.79-1.02h-11.49c-.56 0-1.02.46-1.02 1.02v33.05c0 .52.42.95.94.95h.08 11.57c.48-.04.83-.46.79-.94 0 0 0 0 0-.01v-9.05h15.74z"/><path d="m645.85 238.93-11.88-23.6-5.04 7.87v15.74h-15.73v-61.69h15.74v25.49l15.74-25.57h17.62l-17.47 26.67 18.41 35.09z"/><path d="m671.66 254.35h-.32-491.13v15.74h499.79z"/><path d="m89.18 268.75c8.78 15 28.05 20.05 43.06 11.27 13.63-7.97 19.24-24.81 13.12-39.36l-14.01-28.09v35.09l6.14-5.27.87 1.73c5.25 11.93-.17 25.86-12.11 31.11-11.11 4.88-24.11.55-30.06-10.02l-17.55-35.09c-.97-1.93-.2-4.29 1.73-5.27l-14.01-28.09 15.74-3.54-42.1-31.56v52.72l12.27-10.62 14.08 28.09c1.93-.97 4.29-.2 5.27 1.73z"/></svg>