<svg enable-background="new 0 0 720 420" viewBox="0 0 720 420" xmlns="http://www.w3.org/2000/svg"><path d="m197.85 100.61c-47.67 0-87.36 29.82-87.36 62 0 15.97 9.63 21.84 25.13 21.84-.23-2.12-3.29-3.99-3.29-15.97 0-35.7 26.54-57.07 61.53-57.07 20.43 0 34.29 12.45 34.29 44.38 0 47.44-17.14 103.33-45.09 103.33-4.46 0-8.92-1.41-13.39-4.7l28.18-131.74-34.76 4.7-31.94 149.36h33.82l1.88-9.4c10.1 8.69 19.73 12.45 28.65 12.45 34.76 0 65.05-57.54 65.05-111.55.01-35.93-17.14-67.63-62.7-67.63zm-48.2 163.38-.03.15-.03.15-1.34 6.84h-2.48-7.3l1.53-7.14 27.15-126.96.87-4.06 4.12-.56 5.77-.78-.87 4.06zm75.98-28.42c-9.22 16.35-20.76 26.51-30.13 26.51-.03 0-.07 0-.1 0 10.38-5.15 19.19-16.79 26.18-34.67 7.93-20.28 12.47-46.37 12.47-71.6 0-10.47-1.48-19.46-4.36-26.77.98.95 1.92 1.94 2.79 3.02 8.56 10.65 10.36 25.56 10.36 36.19 0 23.04-6.43 48.21-17.21 67.32z"/><path d="m315.11 158.15-16.91 79.84c-.71 3.06-.94 5.4-.94 7.52 0 6.58 3.05 8.69 9.63 8.69 4.23 0 6.11-.7 7.51-1.41-1.17 16.67-13.15 24.19-25.83 24.19-14.09 0-25.13-8.46-25.13-28.18 0-4.46.71-9.63 1.88-15.26l15.97-75.38h33.82zm-11.94-48.32c10.17 0 18.49 8.32 18.49 18.49s-8.32 18.26-18.49 18.26-18.26-8.09-18.26-18.26 8.09-18.49 18.26-18.49z"/><path d="m380.66 149.46-3.76 17.61c6.81-5.87 15.73-10.1 27.47-10.1 15.97 0 28.65 9.16 28.65 37.11 0 31.7-12.21 82.9-57.77 82.9-11.74 0-17.38-3.99-19.96-8.46l-12.21 57.3-35.46 8.45 39.22-184.82zm20.2 43.92c0-18.08-7.51-19.49-11.74-19.49-5.17 0-11.74 3.99-16.2 11.51l-13.85 65.76c.94 2.58 3.52 5.4 8.92 5.4 24.65-.01 32.87-41.11 32.87-63.18z"/><path d="m575.6 158.88-15.9 75.07c-3.51 11.69-9.59 20.58-18.7 20.58-5.38 0-7.02-4.91-7.02-10.29 0-1.87.23-3.98.7-5.85l16.84-79.51h-33.68l-15.9 75.07c0 .01-.01.02-.01.04-3.52 11.67-11.92 20.54-21.04 20.54-6.55 0-9.59-2.11-9.59-8.65 0-2.1.24-4.45.94-7.49l26.89-126.28-34.61 4.67-25.02 117.17c-1.17 5.61-1.87 10.76-1.87 15.2 0 19.64 10.99 28.06 25.02 28.06 9.56 0 25.16-2.97 37.96-20.96 2.37 14.58 12.27 20.96 24.47 20.96 7.95 0 18.48-2.11 28.53-13.56l-2.34 10.29c-22.22 6.55-40.46 13.33-40.46 35.08 0 15.2 13.33 25.26 27.6 25.26 15.43 0 35.54-6.32 42.56-39.76l28.53-135.64zm-28.77 136.34c-3.04 13.8-9.12 18.24-13.8 18.24-5.15 0-9.36-4.44-9.36-7.71 0-12.63 11.23-19.41 25.96-24.32z"/></svg>