<svg enable-background="new 0 0 720 420" viewBox="0 0 720 420" xmlns="http://www.w3.org/2000/svg"><path d="m340 172.96h95.55v-41.48h-98.43.01c-5.56.08-9.71.55-13.11 1.35-3.62.86-7.2 1.82-10.75 3.41-9.16 4.12-16.53 9.44-21.68 16.95-5.15 7.45-7.72 16.22-7.72 26.33 0 1.7-.23 3.8 0 5.28h42.25c1.07-7.39 6.87-11.84 13.88-11.84z"/><path d="m433.84 235.19h-40.3c-1.07 6.71-6.87 11.85-13.88 11.85h-95.22v41.48h96.14c5.56-.08 9.71-.55 13.11-1.35 3.62-.86 7.21-1.82 10.75-3.41 9.16-4.12 16.53-9.44 21.68-16.95 5.15-7.45 7.72-16.22 7.72-26.33 0-1.71.23-3.48 0-5.29z"/><path d="m445.93 131.48h53.33v53.33h-53.33z"/><path d="m543.7 131.48h53.33v53.33h-53.33z"/><path d="m543.7 235.19h53.33v53.33h-53.33z"/><path d="m445.93 235.19h53.33v53.33h-53.33z"/><path d="m274.07 179.53c0-10.1-2.58-18.88-7.75-26.33-5.17-7.51-12.56-12.83-21.76-16.95-3.56-1.59-7.16-2.55-10.79-3.41-3.41-.8-7.58-1.28-13.16-1.35h.01-97.66v53.33h33.17 2.6 5.7v-11.85h54.07c7.01 0 12.81 4.44 13.88 11.85h41.67c.25-1.49.02-3.59.02-5.29z"/><path d="m272.93 235.19h-40.53c-1.07 6.71-6.87 11.85-13.88 11.85h-54.07v-11.85h-6.85-2.6-32.03v53.33h96.51-.01c5.58-.08 9.75-.55 13.16-1.35 3.63-.86 7.23-1.82 10.79-3.41 9.19-4.12 16.59-9.44 21.76-16.95 5.16-7.45 7.75-16.22 7.75-26.33 0-1.71.23-3.48 0-5.29z"/><path d="m374.32 199.44c-.32-.55-.75-.93-1.3-1.15s-1.24-.33-2.09-.33h-1.19v24.2h1.19c.85 0 1.54-.11 2.09-.33s.98-.6 1.3-1.15.54-1.3.66-2.24c.12-.95.18-2.14.18-3.59v-9.59c0-1.45-.06-2.64-.18-3.59-.12-.94-.34-1.68-.66-2.23z"/><path d="m132.23 199.44c-.32-.55-.75-.93-1.3-1.15s-1.25-.33-2.09-.33h-1.19v24.2h1.19c.84 0 1.54-.11 2.09-.33s.98-.6 1.3-1.15.54-1.3.66-2.24c.12-.95.18-2.14.18-3.59v-9.59c0-1.45-.06-2.64-.18-3.59-.12-.94-.34-1.68-.66-2.23z"/><path d="m674.07 190.74v-2.5-57.66c0-4.82-4.65-7.98-9.47-7.98h-3.87-34.07-5.35c-4.82 0-7.98 3.17-7.98 7.98v57.66 2.5h-506.66v-2.5-57.66c0-4.82-3.17-7.98-7.98-7.98h-5.35-34.08-3.87c-4.82 0-9.47 3.17-9.47 7.98v57.66 2.5h-5.92v38.52h5.93v.63 58.05c0 4.82 4.65 9.46 9.47 9.46h3.87 34.07 5.35c4.82 0 7.98-4.65 7.98-9.46v-57.83-.86h506.66v.86 57.82c0 4.82 3.17 9.46 7.98 9.46h5.35 34.07 3.87c4.82 0 9.47-4.65 9.47-9.46v-58.05-.63h5.93v-38.52h-5.93zm-614.81 64.24v1.84 34.66h-3.87c-1.54 0-3.54-2-3.54-3.54v-52.74c1.87 2.17 3.48 4.65 4.72 7.42.94 2.09 1.86 4.09 2.36 6.22.41 1.71.33 4.4.33 6.14zm-.18-85.69c-.5 2.13-1.65 4.13-2.59 6.22-1.24 2.75-2.81 5.22-4.64 7.38v-52.31c0-1.54 2-2.06 3.54-2.06h3.87v32.79 1.84c0 1.74.22 4.43-.18 6.14zm41.66 118.65c0 1.54-.52 3.54-2.06 3.54h-5.35v-34.44-1.84c0-1.74.52-4.43.92-6.14.5-2.13 1.28-4.13 2.22-6.22 1.08-2.39 2.62-4.55 4.27-6.5zm0-106.14c-1.52-1.89-2.94-3.99-3.98-6.29-.94-2.09-2.23-4.09-2.73-6.22-.41-1.71-.7-4.4-.7-6.14v-1.84-32.79h5.35c1.54 0 2.06.52 2.06 2.06zm37.23 32.68c0 1.78-.15 3.3-.44 4.54-.3 1.24-.7 2.27-1.2 3.08-.51.81-1.09 1.43-1.76 1.89-.67.45-1.38.79-2.13 1-.75.22-1.53.34-2.31.39-.79.04-1.55.06-2.29.06h-4.86v-30.89h4.86c.74 0 1.5.02 2.29.06s1.56.17 2.31.39 1.46.55 2.13 1 1.26 1.09 1.76 1.9c.51.81.91 1.84 1.2 3.07.29 1.24.44 2.75.44 4.53zm23.42 1.46c0 1.51-.12 2.8-.36 3.87s-.56 1.97-.96 2.69-.85 1.3-1.37 1.72c-.51.42-1.04.74-1.59.97s-1.09.37-1.64.43c-.54.06-1.04.09-1.48.09-.45 0-.94-.03-1.47-.09-.54-.06-1.08-.2-1.62-.43-.54-.22-1.07-.54-1.57-.97-.51-.42-.96-1-1.36-1.72s-.71-1.62-.95-2.68c-.23-1.07-.35-2.36-.35-3.88v-21.39h4.72v22.64c0 .96.05 1.77.14 2.4.1.64.25 1.15.46 1.53s.48.65.81.81.73.25 1.18.25c.46 0 .86-.08 1.2-.25.34-.16.63-.43.85-.81s.39-.89.51-1.53c.11-.64.17-1.44.17-2.4v-22.64h4.67zm21.43 9.5h-11.62v-30.89h11.45v3.69h-6.76v9.24h5.23v3.69h-5.23v10.58h6.94zm19.08 0h-11.07v-30.89h4.68v27.2h6.38v3.69zm18.67 0h-11.07v-30.89h4.68v27.2h6.38v3.69zm12.28 0h-4.68v-30.89h4.68zm25.01 0h-3.83l-7.45-20.13h-.14c.04.54.08 1.13.14 1.76s.11 1.38.16 2.23c.05.86.09 1.85.13 2.99s.05 2.49.05 4.06v9.08h-4.16v-30.89h3.8l7.49 20.67h.11c-.04-.48-.09-1.02-.14-1.61-.06-.59-.12-1.26-.16-2.02-.05-.75-.09-1.61-.13-2.56s-.05-2.03-.05-3.22v-11.27h4.2v30.91zm24.52 0h-3.11l-.51-2.93c-.59 1.15-1.27 1.97-2.04 2.47s-1.67.75-2.72.75c-.36 0-.78-.04-1.27-.12-.48-.08-.98-.24-1.49-.5-.51-.25-1.02-.61-1.51-1.08-.5-.46-.94-1.08-1.33-1.84-.39-.77-.71-1.71-.95-2.82s-.36-2.44-.36-3.99v-10.94c0-1.56.13-2.88.38-3.99.25-1.1.59-2.03 1.01-2.79.42-.75.91-1.35 1.46-1.8s1.12-.79 1.71-1.02 1.18-.39 1.75-.46c.58-.07 1.11-.11 1.61-.11 1.25 0 2.31.17 3.17.52.86.34 1.56.81 2.1 1.41s.92 1.29 1.16 2.09c.23.8.35 1.64.35 2.53 0 .66-.04 1.28-.12 1.84s-.18 1.18-.32 1.85h-3.74v-1.46c0-3.39-.91-5.08-2.73-5.08-.5 0-.92.09-1.28.25-.36.17-.66.46-.9.86s-.42.94-.53 1.6-.17 1.49-.17 2.48v14c0 .96.06 1.77.17 2.41.12.64.29 1.15.53 1.54.23.39.53.66.89.82s.78.25 1.28.25c.52 0 .96-.14 1.34-.41.37-.27.68-.64.92-1.11s.42-1.03.53-1.66c.11-.64.17-1.33.17-2.08v-4.03h-2.41v-3.08h6.96zm35.28-3.88c-.34.88-.84 1.63-1.47 2.24-.64.62-1.41 1.09-2.31 1.42s-1.92.5-3.06.5c-1.4 0-2.56-.19-3.48-.56s-1.66-.87-2.21-1.48c-.55-.62-.93-1.32-1.16-2.1-.22-.78-.33-1.59-.33-2.41 0-.66.04-1.27.12-1.84.08-.56.2-1.17.35-1.82h3.63v1.5c0 .83.05 1.57.15 2.21s.27 1.18.51 1.62c.23.44.55.77.94 1 .39.22.87.33 1.44.33.89 0 1.57-.25 2.04-.73.47-.49.71-1.2.71-2.14 0-.48-.03-.92-.1-1.33-.07-.4-.18-.8-.34-1.2s-.38-.82-.66-1.26-.63-.93-1.07-1.47l-4.88-5.81c-.87-1.11-1.54-2.23-2.01-3.35-.47-1.13-.7-2.33-.7-3.61 0-1.02.16-1.96.48-2.82s.78-1.59 1.38-2.21 1.35-1.1 2.23-1.45c.89-.34 1.89-.52 3.01-.52 1.36 0 2.5.19 3.41.58s1.64.89 2.18 1.52.93 1.33 1.15 2.11.33 1.56.33 2.34c0 .66-.05 1.28-.15 1.84s-.22 1.18-.35 1.85h-3.62v-1.46c0-1.64-.24-2.9-.71-3.77-.47-.88-1.24-1.31-2.3-1.31-.88 0-1.54.25-1.97.73-.43.49-.65 1.14-.65 1.96 0 .43.03.83.1 1.17.07.35.16.67.29.97.13.29.28.58.46.86s.38.57.61.87l5.44 6.58c.99 1.29 1.75 2.53 2.28 3.72s.8 2.44.8 3.77c0 1.1-.17 2.08-.51 2.96zm20.15 3.88h-11.07v-30.89h4.68v27.2h6.38v3.69zm19.23 0h-11.63v-30.89h11.45v3.69h-6.76v9.24h5.23v3.69h-5.23v10.58h6.94zm23.02-10.96c0 1.78-.15 3.3-.44 4.54-.3 1.24-.7 2.27-1.2 3.08-.51.81-1.1 1.43-1.76 1.89-.67.45-1.38.79-2.13 1-.75.22-1.53.34-2.31.39-.79.04-1.55.06-2.29.06h-4.86v-30.89h4.86c.74 0 1.5.02 2.29.06s1.56.17 2.31.39 1.46.55 2.13 1 1.26 1.09 1.76 1.9c.51.81.91 1.84 1.2 3.07.3 1.24.44 2.75.44 4.53zm23.42 10.96h-3.11l-.51-2.93c-.59 1.15-1.27 1.97-2.03 2.47-.77.5-1.67.75-2.72.75-.36 0-.79-.04-1.27-.12s-.98-.24-1.49-.5c-.51-.25-1.02-.61-1.51-1.08-.49-.46-.94-1.08-1.33-1.84-.39-.77-.71-1.71-.95-2.82s-.36-2.44-.36-3.99v-10.94c0-1.56.13-2.88.38-3.99.25-1.1.59-2.03 1.01-2.79.42-.75.91-1.35 1.46-1.8s1.12-.79 1.71-1.02 1.18-.39 1.75-.46c.58-.07 1.12-.11 1.61-.11 1.25 0 2.31.17 3.17.52.86.34 1.56.81 2.1 1.41s.92 1.29 1.16 2.09.35 1.64.35 2.53c0 .66-.04 1.28-.12 1.84s-.18 1.18-.32 1.85h-3.74v-1.46c0-3.39-.91-5.08-2.73-5.08-.49 0-.92.09-1.28.25-.36.17-.66.46-.9.86s-.42.94-.53 1.6c-.12.66-.17 1.49-.17 2.48v14c0 .96.06 1.77.17 2.41s.29 1.15.52 1.54c.24.39.53.66.89.82s.78.25 1.27.25c.52 0 .97-.14 1.34-.41s.68-.64.92-1.11.42-1.03.53-1.66c.11-.64.17-1.33.17-2.08v-4.03h-2.41v-3.08h6.96zm20.58 0h-11.63v-30.89h11.45v3.69h-6.76v9.24h5.23v3.69h-5.23v10.58h6.94zm22.93 0h-4.69v-14.27h-5.55v14.27h-4.68v-30.89h4.68v12.93h5.55v-12.93h4.69zm19.71 0-.85-5.53h-5.64l-.81 5.53h-4.76l5.7-30.89h5.39l5.71 30.89zm33.15 0h-4.38v-10.22c0-1.57.01-3.07.04-4.52s.07-2.77.12-3.99c.05-1.21.1-2.28.16-3.21s.11-1.66.16-2.21h-.34l-4.67 20.16h-2.97l-4.7-20.16h-.34c.05.54.1 1.28.16 2.21s.11 2 .16 3.21.09 2.54.12 3.99.05 2.96.05 4.52v10.22h-4.38v-30.89h6.11l2.97 11.95c.31 1.33.56 2.59.74 3.79s.35 2.33.52 3.39h.14c.17-1.06.35-2.19.52-3.39.18-1.2.43-2.46.74-3.79l3.06-11.95h5.98zm30.71 0h-4.38v-10.22c0-1.57.01-3.07.05-4.52.03-1.45.07-2.77.12-3.99.05-1.21.1-2.28.16-3.21s.11-1.66.16-2.21h-.34l-4.67 20.16h-2.97l-4.7-20.16h-.34c.05.54.1 1.28.16 2.21s.11 2 .16 3.21.09 2.54.12 3.99.05 2.96.05 4.52v10.22h-4.38v-30.89h6.11l2.97 11.95c.31 1.33.56 2.59.74 3.79s.36 2.33.53 3.39h.14c.17-1.06.34-2.19.52-3.39s.43-2.46.74-3.79l3.06-11.95h5.99zm21.54 0h-11.63v-30.89h11.45v3.69h-6.76v9.24h5.23v3.69h-5.23v10.58h6.94zm18.46 0-4.11-11.56h-1.75v11.56h-4.59v-30.89h5.08c.58 0 1.21.03 1.91.07.69.05 1.39.16 2.08.35s1.36.47 2.01.84c.64.37 1.22.89 1.72 1.54s.9 1.47 1.2 2.45.45 2.17.45 3.57v.78c0 2.35-.34 4.27-1.01 5.74-.68 1.48-1.67 2.54-2.98 3.19l4.95 12.35zm25.96-3.88c-.34.88-.83 1.63-1.47 2.24-.64.62-1.41 1.09-2.31 1.42s-1.92.5-3.06.5c-1.4 0-2.56-.19-3.48-.56s-1.66-.87-2.21-1.48c-.55-.62-.94-1.32-1.16-2.1s-.33-1.59-.33-2.41c0-.66.04-1.27.12-1.84.08-.56.2-1.17.35-1.82h3.64v1.5c0 .83.05 1.57.15 2.21s.27 1.18.51 1.62c.23.44.55.77.94 1 .39.22.87.33 1.44.33.89 0 1.57-.25 2.04-.73.47-.49.71-1.2.71-2.14 0-.48-.04-.92-.1-1.33-.07-.4-.18-.8-.34-1.2s-.38-.82-.66-1.26-.63-.93-1.07-1.47l-4.88-5.81c-.87-1.11-1.54-2.23-2.01-3.35-.47-1.13-.7-2.33-.7-3.61 0-1.02.16-1.96.48-2.82s.78-1.59 1.38-2.21 1.35-1.1 2.23-1.45c.89-.34 1.89-.52 3.01-.52 1.36 0 2.5.19 3.41.58s1.64.89 2.18 1.52.92 1.33 1.15 2.11c.22.78.34 1.56.34 2.34 0 .66-.05 1.28-.16 1.84-.1.56-.22 1.18-.35 1.85h-3.62v-1.46c0-1.64-.24-2.9-.71-3.77-.47-.88-1.24-1.31-2.3-1.31-.88 0-1.54.25-1.97.73-.43.49-.65 1.14-.65 1.96 0 .43.03.83.1 1.17.06.35.16.67.29.97.13.29.28.58.46.86s.38.57.61.87l5.44 6.58c.99 1.29 1.75 2.53 2.28 3.72s.8 2.44.8 3.77c0 1.1-.18 2.08-.52 2.96zm30.14 35.49v34.44h-5.35c-1.54 0-2.06-2-2.06-3.54v-51.6c1.64 1.94 3.19 4.11 4.27 6.5.94 2.09 1.72 4.09 2.22 6.22.41 1.72.92 4.4.92 6.14zm0-95.74v1.84c0 1.74-.29 4.43-.7 6.14-.5 2.13-1.79 4.13-2.73 6.22-1.04 2.31-2.46 4.4-3.98 6.29v-51.23c0-1.54.52-2.06 2.06-2.06h5.35zm41.49 126.63c0 1.54-2 3.54-3.54 3.54h-3.87v-34.66-1.84c0-1.74-.08-4.43.32-6.14.51-2.13 1.43-4.13 2.36-6.22 1.25-2.77 2.85-5.25 4.72-7.42zm0-105.05c-1.83-2.16-3.4-4.62-4.64-7.38-.94-2.09-2.08-4.09-2.59-6.22-.41-1.71-.18-4.4-.18-6.14v-1.84-32.79h3.87c1.54 0 3.54.52 3.54 2.06z"/><path d="m462.94 200.98-2.19 15.4h4.56l-2.17-15.4z"/><path d="m568.9 199.07c-.34-.37-.8-.65-1.37-.83s-1.28-.27-2.13-.27h-.71v12.53h.71c.82 0 1.51-.09 2.08-.27s1.02-.49 1.37-.91c.35-.43.6-.99.76-1.7.16-.7.23-1.58.23-2.61v-2.44c0-.8-.07-1.48-.22-2.06-.13-.59-.37-1.07-.72-1.44z"/></svg>