<svg enable-background="new 0 0 720 420" viewBox="0 0 720 420" xmlns="http://www.w3.org/2000/svg"><path d="m649.37 215.8c1.19 0 2.46-.87 2.85-1.94l2.82-7.73c.39-1.07-.26-1.94-1.44-1.94h-35.44c-.59 0-.91-.43-.72-.96l7.04-19.33v-.01c.2-.53.83-.96 1.42-.96h48.33c1.19 0 2.46-.87 2.85-1.93l2.82-7.74c.39-1.07-.26-1.93-1.44-1.93h-60.15c-1.19 0-2.46.87-2.85 1.93l-26.74 73.47c-.39 1.07.26 1.93 1.44 1.93h60.15c1.19 0 2.46-.87 2.85-1.93l2.81-7.73c.39-1.07-.26-1.94-1.44-1.94h-48.33c-.59 0-.92-.43-.72-.96v-.01l7.04-19.35c.2-.52.83-.95 1.42-.95"/><path d="m596.81 171.33h-8.59c-1.19 0-2.46.87-2.85 1.93l-19.78 54.36c-.19.53-.83.96-1.43.96-.3 0-.53-.12-.66-.3l-19.67-55.02c-.38-1.07-1.65-1.93-2.84-1.93h-.03-8.57-.03c-1.19 0-2.46.87-2.85 1.93l-26.74 73.47c-.39 1.07.26 1.93 1.44 1.93h8.59c1.19 0 2.46-.87 2.85-1.93l19.78-54.34c.19-.53.83-.96 1.43-.96.32 0 .56.13.68.33l19.66 54.97c.38 1.07 1.65 1.93 2.84 1.93h.03 8.57.03c1.19 0 2.46-.87 2.85-1.93l26.74-73.47c.38-1.06-.26-1.93-1.45-1.93z"/><path d="m510.88 171.33h-8.59-51.56c-1.19 0-2.46.87-2.85 1.93l-26.74 73.47c-.39 1.07.26 1.93 1.44 1.93h60.15c1.19 0 2.46-.87 2.85-1.93l26.74-73.47c.39-1.06-.25-1.93-1.44-1.93zm-15.31 12.57-19 52.2m-.01 0c-.2.53-.83.96-1.42.96h-36.52c-.58 0-.9-.41-.73-.93l19.02-52.27c.21-.52.83-.93 1.41-.93h36.52c.59 0 .92.43.72.96"/><path d="m382.9 213.87c-.39 1.07.26 1.94 1.44 1.94h25.8c1.19 0 2.46-.87 2.85-1.94l2.82-7.73c.39-1.07-.26-1.93-1.44-1.93h-25.8c-1.19 0-2.46.87-2.85 1.93z"/><path d="m356.67 199.84c-.29.25-.67.42-1.04.42s-.63-.17-.73-.42l-9.5-26.58c-.38-1.07-1.65-1.93-2.84-1.93h-8.59c-1.19 0-1.84.87-1.46 1.93l12.99 36.32c.07.21.14.43.04.7l-13.26 36.44c-.39 1.07.26 1.93 1.45 1.93h8.59c1.19 0 2.46-.87 2.85-1.93l13.26-36.44c.1-.28.33-.5.55-.7l39.43-36.32c1.16-1.07 1.14-1.93-.05-1.93h-8.59c-1.19 0-3.09.87-4.25 1.93"/><path d="m323.2 171.33h-25.78-8.59-25.78c-1.19 0-2.46.87-2.85 1.93l-2.82 7.73c-.39 1.07.26 1.94 1.44 1.94h22.59c.57.02.88.44.69.96l-22.87 62.84c-.39 1.07.26 1.93 1.44 1.93h8.59c1.19 0 2.46-.87 2.85-1.93l22.87-62.84c.19-.52.81-.94 1.39-.96h22.59c1.19 0 2.46-.87 2.85-1.94l2.82-7.73c.4-1.06-.25-1.93-1.43-1.93z"/><path d="m245.86 171.33h-51.56-8.59c-1.19 0-2.46.87-2.85 1.93l-2.82 7.73-9.15 25.13-2.82 7.73-11.96 32.87c-.39 1.07.26 1.93 1.44 1.93h8.59c1.19 0 2.46-.87 2.85-1.93l10.92-30c.21-.52.83-.93 1.41-.93h35.45c1.19 0 2.46-.87 2.85-1.94l2.82-7.73c.39-1.07-.26-1.93-1.44-1.93h-35.33-.12c-.58 0-.9-.42-.72-.95l7.04-19.35v-.01c.19-.53.83-.96 1.42-.96h48.33c1.19 0 2.46-.87 2.85-1.94l2.82-7.73c.4-1.05-.24-1.92-1.43-1.92z"/><path d="m121.75 246.74c-.39 1.07.26 1.93 1.44 1.93h8.59c1.19 0 2.46-.87 2.85-1.93l26.74-73.47c.39-1.07-.26-1.93-1.44-1.93h-8.59c-1.19 0-2.46.87-2.85 1.93z"/><path d="m129.86 171.33h-51.56-8.59c-1.19 0-2.46.87-2.85 1.93l-2.82 7.74-9.15 25.13-2.82 7.73-11.96 32.87c-.39 1.07.26 1.93 1.44 1.93h8.59c1.19 0 2.46-.87 2.85-1.93l10.92-30c.21-.52.83-.93 1.41-.93h35.45c1.19 0 2.46-.87 2.85-1.94l2.81-7.73c.39-1.07-.26-1.93-1.44-1.93h-35.32-.12c-.58 0-.9-.42-.72-.95l7.04-19.35v-.01c.2-.53.83-.96 1.43-.96h48.33c1.19 0 2.46-.87 2.85-1.94l2.81-7.73c.4-1.06-.25-1.93-1.43-1.93z"/></svg>