<svg enable-background="new 0 0 720 420" viewBox="0 0 720 420" xmlns="http://www.w3.org/2000/svg"><path d="m311.37 135.16c8.39-4.8 17.54-6.33 27.46-4.58 11.29 1.99 20.3 7.73 27.04 17.22 3.32 4.69 5.57 9.65 6.71 14.89 1.15 5.24 1.23 10.71.23 16.4-2.03 11.49-7.77 20.5-17.22 27.04-9.57 6.61-20 8.93-31.3 6.93-11.4-2.01-20.41-7.75-27.04-17.22s-8.95-19.91-6.94-31.3l13.51-76.61 15.4 2.72zm15.63 62.53c3.58.63 7.07.54 10.46-.29 3.38-.82 6.45-2.2 9.2-4.15s5.07-4.36 6.97-7.23c1.9-2.88 3.16-6.09 3.79-9.62.62-3.54.53-6.98-.27-10.34-.8-3.35-2.16-6.42-4.08-9.18-1.92-2.77-4.33-5.12-7.23-7.05s-6.14-3.21-9.73-3.84c-3.63-.64-7.14-.55-10.53.27s-6.44 2.2-9.16 4.12c-2.72 1.93-5.03 4.34-6.93 7.24-1.9 2.91-3.17 6.13-3.79 9.66s-.54 6.99.26 10.37 2.14 6.44 4.04 9.18 4.29 5.07 7.2 7c2.9 1.93 6.17 3.22 9.8 3.86z"/><path d="m339.6 304.33c-9.87 1.74-19.02.24-27.45-4.5l7.83 44.39-15.39 2.71-13.5-76.58c-2.01-11.39.3-21.83 6.93-31.3s15.64-15.21 27.04-17.22c11.29-1.99 21.72.32 31.3 6.94 4.73 3.27 8.53 7.17 11.4 11.7s4.81 9.65 5.82 15.34c2.03 11.49-.29 21.92-6.93 31.3-3.41 4.8-7.35 8.63-11.84 11.47-4.5 2.83-9.57 4.75-15.21 5.75zm-33.13-36.69c.62 3.53 1.89 6.76 3.79 9.66 1.9 2.91 4.21 5.32 6.94 7.25 2.72 1.92 5.77 3.29 9.16 4.12 3.39.82 6.89.91 10.53.27 3.59-.63 6.83-1.92 9.73-3.84 2.9-1.93 5.31-4.28 7.22-7.05 1.92-2.77 3.28-5.84 4.08-9.18.8-3.36.89-6.81.26-10.34-.62-3.54-1.89-6.74-3.79-9.63-1.9-2.87-4.22-5.29-6.97-7.24s-5.82-3.33-9.2-4.15c-3.39-.82-6.87-.92-10.45-.29-3.63.64-6.9 1.93-9.8 3.86s-5.3 4.26-7.19 7c-1.9 2.74-3.24 5.8-4.04 9.18-.8 3.39-.89 6.84-.27 10.38z"/><path d="m132.06 214.55h-15.63v-119.67h15.63v43.77c6.63-5.13 14.44-7.7 23.41-7.7 5.23 0 10.21 1.02 14.92 3.07 4.71 2.04 8.87 4.82 12.46 8.34s6.43 7.65 8.53 12.42c2.09 4.76 3.14 9.84 3.14 15.22v44.56h-15.63v-44.56c0-3.19-.62-6.21-1.87-9.05s-2.93-5.32-5.05-7.44-4.6-3.8-7.44-5.05c-2.84-1.24-5.86-1.87-9.05-1.87-3.24 0-6.27.61-9.09 1.83s-5.3 2.9-7.44 5.05c-2.14 2.14-3.83 4.63-5.05 7.48-1.22 2.84-1.83 5.86-1.83 9.05z"/><path d="m265.56 130.88v44.72c0 3.24-.61 6.28-1.83 9.12s-2.89 5.33-5.01 7.44c-2.12 2.12-4.6 3.79-7.44 5.01s-5.88 1.83-9.13 1.83c-3.24 0-6.28-.61-9.12-1.83s-5.32-2.89-7.44-5.01-3.79-4.6-5.01-7.44c-1.23-2.84-1.83-5.88-1.83-9.12v-44.74h-15.65v44.74c0 5.34 1.04 10.37 3.1 15.11 2.07 4.74 4.87 8.88 8.42 12.42 3.54 3.54 7.68 6.35 12.41 8.41 4.74 2.07 9.77 3.1 15.11 3.1s10.37-1.03 15.11-3.1 8.87-4.87 12.42-8.41c3.54-3.54 6.34-7.68 8.41-12.42 2.07-4.73 3.1-9.77 3.1-15.11v-44.72z"/><path d="m277.2 267.89c-.56-.74-1.16-1.46-1.84-2.14h.07c-1.07-1.14-2.79-2.29-5.14-3.47-1.29-.65-2.77-1.3-4.42-1.94-.11-.04-.2-.08-.31-.13l-1.77-.58-33.16-10.94c-1.33-.55-2-1.52-2.01-2.89 0-.32.02-.62.07-.89.14-.83.49-1.57 1.05-2.2 3.56-3.68 8.07-5.82 13.5-6.48.38-.05.75-.11 1.13-.14.35-.03.71-.03 1.06-.05.52-.03 1.04-.06 1.58-.06 7.28 0 13.46 2.55 18.55 7.64 1.04 1.05 4.05 3.95 4.05 3.95l11.16-10.22s-.63-.67-1.67-1.97c-8.93-10.02-19.62-15.03-32.09-15.03-.03 0-.05 0-.07 0-4.09 0-8.15.58-12.19 1.72-4.04 1.15-7.68 2.81-10.92 4.98s-5.87 4.78-7.89 7.81c-2.02 3.04-3.03 6.48-3.03 10.32 0 4.24 1.29 8.02 3.82 11.37.56.74 1.17 1.47 1.86 2.17h-.08c1.07 1.14 2.79 2.3 5.14 3.47 1.29.65 2.77 1.3 4.42 1.94.11.04.2.09.31.13l1.77.58 33.16 10.94c1.33.55 2.01 1.51 2.02 2.89 0 .31-.03.61-.07.89-.14.84-.49 1.57-1.05 2.2l-.02.08c-.02.02-.04.05-.05.07-4.29 4.39-10.02 6.58-17.21 6.58-7.28 0-13.46-2.54-18.55-7.63-1.05-1.05-4.05-3.96-4.05-3.96l-11.16 10.22s.62.67 1.67 1.97c8.93 10.02 19.62 15.03 32.09 15.03 4.09 0 8.17-.59 12.23-1.76.01-.01.03-.01.05-.02l-.02.06c4.04-1.15 7.68-2.81 10.92-4.97 3.24-2.17 5.87-4.78 7.89-7.82s3.03-6.48 3.03-10.32c.02-4.26-1.28-8.05-3.83-11.4z"/><path d="m464.49 262.23c0 11.66-4.09 21.54-12.26 29.62-8.28 8.18-18.15 12.27-29.62 12.27-11.57 0-21.44-4.08-29.62-12.27-8.18-8.18-12.27-18.05-12.27-29.62s4.09-21.45 12.27-29.62c8.18-8.18 18.05-12.27 29.62-12.27 11.47 0 21.34 4.09 29.62 12.27 4.09 4.09 7.14 8.6 9.16 13.54 2.01 4.93 3.05 10.29 3.1 16.08zm-41.89-26.26c-3.69 0-7.13.7-10.32 2.1s-5.96 3.27-8.3 5.64-4.2 5.15-5.57 8.34-2.05 6.58-2.05 10.17.69 6.98 2.05 10.17c1.37 3.19 3.23 5.97 5.57 8.34s5.11 4.25 8.3 5.65 6.63 2.1 10.32 2.1c3.64 0 7.06-.7 10.25-2.1s5.97-3.29 8.33-5.68c2.37-2.39 4.24-5.17 5.61-8.34 1.38-3.16 2.06-6.54 2.06-10.13 0-3.6-.68-6.97-2.06-10.14-1.37-3.17-3.24-5.95-5.61-8.34-2.37-2.4-5.14-4.29-8.33-5.68-3.19-1.4-6.61-2.1-10.25-2.1z"/><path d="m535.75 220.34v44.72c0 3.25-.61 6.29-1.83 9.13s-2.89 5.33-5.01 7.44c-2.12 2.12-4.6 3.79-7.44 5.01s-5.88 1.84-9.12 1.84-6.28-.62-9.12-1.84-5.32-2.89-7.44-5.01c-2.12-2.11-3.79-4.6-5.01-7.44s-1.83-5.88-1.83-9.13v-44.73h-15.65v44.73c0 5.34 1.03 10.38 3.11 15.12 2.07 4.73 4.87 8.87 8.41 12.41s7.68 6.35 12.41 8.42c4.74 2.07 9.77 3.1 15.11 3.1 5.33 0 10.38-1.03 15.11-3.1s8.87-4.88 12.41-8.42 6.35-7.68 8.41-12.41c2.07-4.74 3.1-9.77 3.1-15.12v-44.72z"/><path d="m570.88 220.26h-11.23v15.63h11.23v68.25h15.63v-30.63h.01v-37.62h17.05v-15.63h-17.05v-35.9h-15.64z"/></svg>