<svg enable-background="new 0 0 720 420" viewBox="0 0 720 420" xmlns="http://www.w3.org/2000/svg"><path d="m40 164.87h23.89v113.49h-23.89z"/><path d="m385.03 246.96h10.9v22.07c-6.1 6.71-14.81 10.07-26.14 10.07-9.54 0-17.53-3.14-23.97-9.42-6.43-6.28-9.65-14.22-9.65-23.83s3.28-17.61 9.83-24.01c6.56-6.4 14.48-9.61 23.78-9.61 9.29 0 17.02 2.71 23.18 8.13l-5.82 8.31c-2.53-2.15-5.07-3.65-7.62-4.48-2.56-.83-5.53-1.25-8.91-1.25-6.53 0-12.01 2.11-16.44 6.33s-6.65 9.76-6.65 16.62c0 6.87 2.15 12.37 6.46 16.53s9.53 6.23 15.65 6.23c6.13 0 11.25-1.32 15.38-3.97v-17.72z"/><path d="m462.7 234.77c0 10.65-4.65 17.36-13.95 20.13l16.9 23.46h-13.85l-15.42-21.7h-14.31v21.7h-10.9v-64.55h24.01c9.85 0 16.9 1.66 21.15 4.99 4.24 3.32 6.37 8.65 6.37 15.97zm-14.5 9.15c2.22-1.91 3.32-4.97 3.32-9.19s-1.14-7.11-3.42-8.68-6.34-2.36-12.19-2.36h-13.85v23.09h13.58c6.15 0 10.34-.95 12.56-2.86z"/><path d="m533.35 269.45c-6.53 6.37-14.59 9.56-24.2 9.56s-17.67-3.19-24.2-9.56-9.79-14.31-9.79-23.83 3.26-17.45 9.79-23.83c6.52-6.37 14.59-9.56 24.2-9.56s17.67 3.19 24.2 9.56c6.52 6.37 9.79 14.31 9.79 23.83s-3.27 17.46-9.79 23.83zm-7.99-40.4c-4.4-4.56-9.8-6.83-16.21-6.83-6.4 0-11.81 2.28-16.21 6.83-4.4 4.56-6.6 10.08-6.6 16.58s2.2 12.02 6.6 16.58 9.8 6.84 16.21 6.84c6.4 0 11.8-2.28 16.21-6.84 4.4-4.55 6.6-10.08 6.6-16.58s-2.2-12.02-6.6-16.58z"/><path d="m572.32 263.59c2.96 3.45 6.96 5.17 12.01 5.17s9.05-1.72 12.01-5.17 4.43-8.13 4.43-14.04v-35.74h10.9v36.2c0 9.3-2.56 16.45-7.67 21.47s-11.67 7.53-19.67 7.53-14.56-2.51-19.67-7.53-7.67-12.17-7.67-21.47v-36.2h10.9v35.74c-.01 5.91 1.47 10.59 4.43 14.04z"/><path d="m673.26 219.44c4.49 3.76 6.74 9.54 6.74 17.36s-2.29 13.55-6.88 17.18-11.62 5.45-21.1 5.45h-11.45v18.93h-10.9v-64.55h22.16c9.79 0 16.93 1.88 21.43 5.63zm-7.72 26.65c2.18-2.31 3.28-5.69 3.28-10.16 0-4.46-1.39-7.62-4.16-9.47s-7.11-2.77-13.02-2.77h-11.08v25.86h12.65c6.04 0 10.15-1.15 12.33-3.46z"/><path d="m173.55 232.07h30.5v-16.43c0-16.35-5.41-29.19-16.21-38.51-10.81-9.31-23.93-13.97-39.36-13.97-12.49 0-23.65 3.45-33.49 10.35l15.11 15.11c5.79-3.31 12.13-4.98 19.02-4.98 8.75 0 16.11 2.56 22.08 7.68s8.96 12.45 8.96 21.97h-25.38z"/><path d="m175.32 252.87c-6.64 4.47-14.98 6.72-25.03 6.72-8.96 0-16.93-2.52-23.89-7.57-6.97-5.05-10.74-11.7-11.31-19.95h39.43l-18.77-18.77h-20.66c0-6.15 1.6-11.44 4.78-15.87l-15.01-15.01c-9.1 10.11-13.67 23.13-13.67 39.1 0 17.85 5.58 32.07 16.75 42.67 11.16 10.6 24.71 15.89 40.64 15.89 16.19 0 29.85-4.32 41.01-12.93z"/><path d="m268.48 164.38c-13.09 0-23.72 3.17-31.89 9.49-8.18 6.33-12.27 14.76-12.27 25.28 0 11.93 7.54 21.14 22.61 27.62l17.93-17.93c-.4-.1-.78-.2-1.19-.3-4.62-1.14-8.21-2.35-10.77-3.63-3.7-1.71-5.55-4.41-5.55-8.11 0-4.12 1.78-7.22 5.33-9.28s8.18-3.09 13.87-3.09c6.7 0 13.09 1.18 19.19 3.53l15-15c-10.22-5.71-20.98-8.58-32.26-8.58z"/><path d="m297.06 221.77c-3.84-2.56-7.43-4.55-10.77-5.97-2.2-.93-4.46-1.79-6.76-2.6l-18.4 18.4c.35.12.72.25 1.15.42 15.07 4.55 22.61 9.67 22.61 15.36 0 3.84-1.57 7.01-4.69 9.49-3.13 2.49-7.4 3.73-12.8 3.73-8.94 0-18.09-2.61-27.47-7.8l-15.98 15.98c5.2 3.27 10.89 5.95 17.1 8.04 8.89 2.99 17.46 4.48 25.71 4.48 12.23 0 22.26-3.23 30.08-9.71 7.82-6.47 11.73-15.11 11.73-25.92.01-10.82-3.83-18.78-11.51-23.9z"/><path d="m40 98.53v19.02l23.9 23.89v-19.02z"/></svg>