<svg enable-background="new 0 0 720 420" viewBox="0 0 720 420" xmlns="http://www.w3.org/2000/svg"><path d="m277.3 124.48c.74 1.01 1.6 1.91 2.66 2.66 1.97 1.44 4.47 2.13 7.45 2.13 2.13 0 4.58-.38 7.23-1.07 3.56-.96 6.65-2.34 9.21-4.1s4.69-3.78 6.39-6.01c1.71-2.24 2.98-4.69 3.78-7.19s1.17-5 1.17-7.4c.05-2.93-.48-5.32-1.6-7.23-.85-1.44-1.91-2.61-3.2-3.46-1.07-1.6-2.5-2.76-4.2-3.51-1.76-.8-3.83-1.17-6.12-1.17h-.22c-2.18 0-4.58.38-6.97 1.01-3.89 1.07-7.19 2.56-9.85 4.52-2.61 1.91-4.74 4.05-6.34 6.28s-2.76 4.52-3.51 6.81-1.07 4.31-1.07 6.07c.03 5.32 1.73 9.21 5.19 11.66zm-1.54-16.99c.64-2.02 1.71-4.05 3.14-6.07 1.44-2.02 3.36-3.89 5.74-5.65 2.4-1.76 5.38-3.14 8.99-4.1 2.24-.58 4.36-.91 6.34-.91h.16.27.38c1.65.05 3.09.38 4.36.96 1.38.64 2.56 1.65 3.36 3.03.05.05.11.11.11.22.85 1.49 1.27 3.41 1.27 5.8 0 2.18-.38 4.36-1.07 6.6s-1.81 4.36-3.36 6.39c-1.54 2.03-3.46 3.83-5.8 5.43s-5.11 2.87-8.41 3.73c-5.54 1.49-9.69 1.27-12.4-.64-2.66-1.91-4.05-5.11-4.05-9.52.01-1.49.33-3.19.97-5.27z"/><path d="m383.7 193.99c3.36.8 6.92 1.17 10.65 1.17 13.3 0 26.4-5.16 34.97-9.48 8.78-4.42 16.13-9.52 20.22-13.15 3.83 1.81 8.09 2.71 12.72 2.71 8.14 0 17.04-2.82 25.12-7.98 6.12-3.94 11.18-8.83 14.26-13.89 2.66 2.5 6.07 3.83 10.12 3.83 10.65 0 23.15-9.37 26.4-15.7 3.94-7.56 2.76-15.75-.16-20.49-.91-1.49-1.97-2.61-3.09-3.36-1.65-2.4-3.78-3.67-5.96-3.67-1.49 0-4.31.64-6.23 5-3.56 8.09-5.48 10.97-7.4 12.08-.32-2.56-.42-6.97.42-14.69 1.07-9.63 3.14-20.71 4.42-27.25.85-4.58 1.17-6.18 1.17-6.97 0-3.83-.91-6.71-2.82-8.63-.42-.48-.96-.85-1.49-1.17-.32-.53-.74-1.07-1.17-1.49-1.6-1.6-3.78-2.4-6.49-2.4-3.03 0-6.23 1.01-8.83 1.81-.58.16-1.22.38-1.81.53-.38-.32-.8-.64-1.33-.85-.64-1.22-1.91-3.03-4.52-3.03-.91 0-1.87.22-2.93.64-11.77 4.85-21.93 12.24-30.23 21.93-3.03 3.56-5.8 7.4-8.36 11.55.27-2.76-.48-5.54-2.24-8.14-.48-.75-1.22-1.54-2.34-2.13-.11-.16-.22-.32-.32-.53-.96-1.44-2.87-3.14-6.34-3.14-3.78 0-8.3 2.02-12.72 3.94-2.5 1.12-5.11 2.24-7.29 2.87-.74.22-1.44.32-2.02.32-1.27 0-2.29-.48-3.67-1.12-1.91-.91-4.25-2.02-7.88-2.02-1.44 0-2.93.16-4.58.53-8.03 1.71-14.8 6.87-19.59 14.85-1.6 2.66-2.82 5.43-3.83 8.2-.42-.48-.96-.91-1.65-1.27-.11-.16-.22-.32-.32-.53-.96-1.44-2.87-3.14-6.34-3.14-3.78 0-8.3 2.02-12.72 3.94-2.5 1.12-5.11 2.24-7.29 2.87-.74.22-1.44.32-2.02.32-1.27 0-2.29-.48-3.67-1.12-1.91-.91-4.25-2.02-7.88-2.02-1.44 0-2.93.16-4.58.53-8.03 1.71-14.8 6.87-19.59 14.85-6.39 10.75-7.67 23.9-6.12 29.23.64 2.24 1.91 3.03 2.93 3.36 1.01 2.56 2.93 2.82 3.78 2.82 2.56 0 4.52-2.4 6.39-4.9l.11-.11c.48-.64.96-1.6 1.65-2.87 1.65-3.14 4.16-7.93 7.88-11.12 1.01-.91 3.14-2.71 7.72-2.71.42 0 .85 0 1.27.05-2.71 5.69-7.67 15.55-14.37 26.14-8.72 13.84-22.09 31.35-36.83 38.06.11-9.16 3.99-22.67 7.5-34.81 5-17.35 7.88-28.27 4.85-33.16-.58-.96-1.38-1.65-2.34-2.13-.11-.22-.22-.38-.32-.53-.85-1.38-2.18-2.29-3.78-2.56-1.17-.22-2.29-.32-3.46-.32-5.48 0-11.01 2.56-16.34 7.61-4.05 3.83-10.22 22.2-14 37.53-3.14 12.83-7.77 36.19-3.36 48.43 1.22 3.3 2.87 5.38 4.69 6.6 2.4 3.3 5.43 4.31 7.88 4.42.58.05 1.22.05 1.87.05 7.23 0 16.61-2.5 26.29-7.03 8.63-4.05 16.44-9.16 21.77-14.26 3.09.64 6.28.96 9.63.96 11.71 0 24.65-3.99 38.43-11.81 8.51-4.86 14.9-9.87 17.51-12.05zm-85.91-49.51c0-.38-.05-.75-.05-1.12.05.38.05.7.05 1.12zm81.39-5.32c1.01 2.56 2.93 2.82 3.78 2.82 2.56 0 4.52-2.4 6.39-4.9l.11-.11c.48-.64.96-1.6 1.65-2.87 1.65-3.14 4.16-7.93 7.88-11.12 1.01-.91 3.14-2.71 7.72-2.71h.85c-3.73 6.65-11.01 18.84-20.33 30.92-19 24.65-33.96 32.79-44.29 34.76 6.07-8.52 16.77-24.69 29.43-49.07 1.33-.96 2.5-1.97 3.56-2.98.11.69.22 1.38.38 1.91.58 2.18 1.85 3.04 2.87 3.35zm-64.51 72.18c-10.75 11.12-34.49 22.4-48.92 21.51-14.16-.91-9.58-33.96-2.56-59.77 0-.05.05-.11.05-.16.38-1.27.69-2.56 1.07-3.78 0-.05.05-.11.05-.22.11-.38.22-.74.32-1.12.05-.11.05-.22.11-.38.32-1.12.69-2.24 1.01-3.3.05-.16.11-.38.16-.53.11-.32.22-.58.27-.91.05-.22.11-.38.16-.58.16-.48.32-.96.48-1.38.05-.22.16-.42.22-.64.11-.27.16-.48.27-.74.11-.22.16-.48.27-.69.11-.27.16-.53.27-.8.11-.38.27-.69.38-1.07.05-.22.16-.38.22-.58.11-.27.16-.48.27-.75.05-.16.11-.38.22-.53.16-.38.27-.75.42-1.12.05-.11.11-.27.16-.38.11-.27.22-.53.32-.8.05-.16.11-.32.16-.42.11-.27.22-.58.32-.85.05-.11.05-.16.11-.27.16-.38.27-.69.42-1.01.05-.11.11-.22.16-.32.11-.27.22-.48.32-.75.05-.11.11-.22.11-.27.16-.32.27-.58.42-.91.05-.05.05-.11.11-.22.11-.22.22-.48.32-.69.05-.11.11-.16.11-.27.11-.27.27-.48.38-.69 0 0 0-.05.05-.05.11-.27.27-.48.38-.69.05-.05.05-.11.11-.16.11-.16.22-.32.27-.48.05-.05.05-.11.11-.16.11-.16.22-.38.32-.53 0-.05.05-.05.05-.11.11-.11.16-.22.27-.32l.11-.11.32-.32c.32-.32.64-.58.96-.85.05-.05.16-.11.22-.16.32-.27.64-.53.91-.75.05-.05.11-.05.11-.11.27-.22.53-.42.8-.64l.16-.16c.32-.22.58-.42.85-.64.05-.05.11-.05.16-.11.27-.16.53-.32.8-.48.05-.05.11-.05.11-.11.27-.16.58-.32.85-.48.05-.05.11-.05.22-.11.27-.16.53-.27.8-.42h.05c.27-.16.53-.27.8-.38.05-.05.11-.05.16-.11.27-.11.53-.22.8-.32.05 0 .05 0 .11-.05.22-.11.48-.16.69-.22.05 0 .11-.05.16-.05.27-.05.48-.16.74-.22.05 0 .11 0 .16-.05.22-.05.42-.11.64-.16h.11c.22-.05.48-.11.69-.11h.16c.22-.05.42-.05.64-.11h.05c.22 0 .48-.05.69-.05h.16.64.05c1.07 0 2.02.11 2.93.27 11.01 1.97-13.68 52.37-10.43 72.45.22 1.22 1.22 1.87 2.56 1.81.42 0 .91-.11 1.38-.32.42-.16.8-.32 1.22-.48.32-.16.64-.27 1.01-.42l.32-.16c.32-.16.64-.32.96-.42l.32-.16.96-.48c.05-.05.16-.11.22-.11 1.12-.58 2.18-1.27 3.3-1.97.05 0 .05-.05.11-.05.32-.22.64-.42 1.01-.64.11-.05.16-.11.27-.16.32-.22.64-.42.96-.69.11-.05.16-.11.27-.22.32-.22.64-.48.96-.75l.05-.05c1.12-.85 2.18-1.71 3.25-2.61.05-.05.11-.05.16-.11.32-.27.64-.53.96-.85.05-.05.16-.16.22-.22.32-.27.64-.58.96-.85.05-.05.11-.11.22-.16 1.38-1.27 2.71-2.61 4.1-4.05.05-.05.11-.11.16-.16.32-.32.58-.64.91-.96.05-.11.16-.16.22-.27.32-.32.58-.64.91-.96.05-.05.11-.11.16-.16 1.27-1.44 2.56-2.93 3.83-4.47.05-.11.16-.16.22-.27.27-.32.53-.69.8-1.01.05-.11.16-.16.22-.27.27-.38.53-.69.8-1.07l.11-.11c.91-1.17 1.81-2.34 2.66-3.51.05-.05.11-.11.11-.16.27-.38.48-.69.74-1.07.05-.11.16-.22.22-.32.27-.32.48-.69.74-1.01.05-.11.16-.22.22-.32.27-.38.48-.69.74-1.07l.05-.05c.8-1.17 1.6-2.34 2.4-3.51.05-.11.16-.22.22-.32.22-.32.42-.64.64-.96.11-.16.16-.27.27-.42.22-.32.42-.64.64-.96.11-.11.16-.27.27-.38.69-1.12 1.38-2.18 2.02-3.3.05-.11.11-.16.16-.27.22-.32.38-.64.58-.91.11-.16.16-.32.27-.42.16-.27.38-.58.53-.85.11-.16.22-.32.27-.48.16-.27.32-.58.48-.85.11-.16.16-.32.27-.48.58-.96 1.12-1.91 1.65-2.82.11-.16.16-.32.27-.48.16-.27.27-.53.42-.75.11-.16.22-.32.27-.53.16-.27.27-.48.42-.75.11-.16.22-.38.27-.53.11-.22.27-.48.38-.69.11-.16.22-.38.27-.53.22-.42.48-.85.69-1.22.11-.16.16-.32.27-.48.11-.22.22-.42.32-.64.11-.16.16-.38.27-.53.11-.22.22-.42.32-.64.11-.16.16-.38.27-.53.11-.22.22-.38.32-.58.11-.16.16-.32.27-.53.11-.22.22-.38.32-.58.11-.16.16-.38.27-.53.16-.32.32-.64.48-.96.11-.16.16-.32.27-.53.11-.16.16-.38.27-.53.05-.16.16-.32.22-.42.11-.16.16-.32.27-.53.05-.16.16-.27.22-.42.11-.16.16-.32.27-.48.05-.11.11-.27.16-.38.05-.16.16-.32.22-.48.05-.11.11-.16.11-.27.16-.32.32-.64.42-.96.05-.11.11-.22.16-.32.05-.16.16-.32.22-.42 1.27-2.76 1.97-4.36 2.02-4.42-11.18-3.51-15.91 0-18.1 1.87-5.54 4.79-8.57 12.61-9.95 14.42-1.33 1.81-4.63 6.34-5.8 2.34-.32-1.07-.48-2.45-.53-4.16v-.05c0-.32 0-.69 0-1.07v-.05c0-1.12.11-2.29.27-3.51v-.05c.05-.38.11-.8.16-1.22 0-.05 0-.11 0-.11.05-.42.11-.8.22-1.22 0-.05 0-.05 0-.11.05-.42.16-.85.27-1.33.11-.42.22-.91.32-1.38v-.05c.11-.42.22-.85.32-1.33 0-.05.05-.11.05-.16.11-.42.22-.85.38-1.27 0-.05.05-.11.05-.22.11-.42.27-.85.42-1.27 0-.05.05-.11.05-.16.16-.42.32-.91.48-1.33.15-.42.32-.91.53-1.33 0-.05.05-.11.05-.16.16-.42.38-.85.53-1.27.05-.05.05-.16.11-.22.22-.42.38-.85.58-1.22.05-.05.05-.16.11-.22.22-.42.42-.85.64-1.22.05-.05.05-.11.11-.16.22-.42.48-.85.69-1.27 0 0 0 0 0-.05.27-.42.53-.85.8-1.22.05-.05.05-.11.11-.16.27-.38.53-.75.8-1.17.05-.05.11-.16.16-.22.27-.38.53-.75.85-1.12.05-.05.11-.11.16-.22.32-.38.58-.75.91-1.12.05-.05.05-.05.11-.11.32-.38.64-.69.96-1.07.05-.05.05-.05.11-.11.32-.32.69-.69 1.07-1.01.05-.05.11-.11.16-.16.38-.32.69-.64 1.07-.91.05-.05.16-.11.22-.16.38-.32.74-.58 1.12-.85.05-.05.11-.11.16-.11.42-.27.8-.53 1.22-.8l.05-.05c.42-.27.85-.48 1.27-.75.05 0 .11-.05.16-.05.42-.22.91-.42 1.33-.64.05-.05.16-.05.22-.11.42-.22.91-.38 1.38-.53.11-.05.16-.05.27-.11.48-.16.96-.32 1.44-.48.05 0 .11-.05.22-.05.53-.16 1.07-.27 1.6-.42.38-.05.69-.16 1.07-.22.11 0 .22-.05.32-.05.22-.05.42-.05.64-.11.11 0 .22 0 .38-.05.22 0 .38-.05.58-.05h.32.53.22.11.48.11c5.7.27 7.4 3.89 12.4 3.03.42-.05.85-.16 1.27-.32.32-.11.69-.22 1.01-.32.11-.05.16-.05.27-.11.69-.27 1.44-.53 2.18-.8.11-.05.16-.05.27-.11.74-.32 1.49-.64 2.29-.96.11-.05.22-.11.27-.11.38-.16.74-.32 1.07-.48.38-.16.69-.32 1.07-.48.11-.05.22-.11.38-.16.38-.16.74-.32 1.12-.48h.05c.38-.16.74-.32 1.12-.48.11-.05.22-.05.27-.11.38-.16.74-.32 1.12-.42.38-.16.74-.27 1.07-.42.11-.05.16-.05.27-.11.38-.11.69-.27 1.07-.38s.69-.22 1.01-.32c.11 0 .16-.05.27-.05.32-.11.69-.16 1.01-.22s.64-.11.96-.16h.22c.32-.05.58-.05.91-.05h.32.27c.22 0 .38.05.58.05 1.22.22 2.24.8 2.98 1.87 4.85 7.14-.74 13.68-6.76 17.99-19.59 37.84-34.76 56.32-34.76 56.32 2.61.48 5.27.53 7.88.27 31.19-3.09 61.37-53.39 69.67-68.34 1.49-2.66 2.24-4.2 2.24-4.2-11.18-3.51-15.91 0-18.1 1.87-5.54 4.79-8.57 12.61-9.95 14.42-1.33 1.81-4.63 6.34-5.8 2.34-.27-1.01-.48-2.34-.53-3.89-.11-4.25.8-10.32 3.03-16.29 0-.05 0-.05.05-.11.11-.27.22-.53.32-.8 0-.05.05-.11.05-.16.11-.27.22-.53.32-.75 0-.05.05-.11.05-.16.11-.27.22-.53.38-.8 0-.05.05-.05.05-.11.42-.91.85-1.81 1.33-2.71.05-.05.05-.11.11-.16.11-.22.27-.48.38-.69.05-.05.11-.16.11-.22.11-.22.27-.42.38-.64.05-.05.11-.16.16-.22.16-.22.27-.42.42-.64.05-.05.11-.11.11-.22.16-.27.32-.48.53-.75l.05-.05c.22-.27.38-.53.58-.85 0 0 0 0 .05-.05.16-.27.38-.48.58-.75.05-.05.11-.16.16-.22.16-.16.32-.38.48-.53.05-.11.16-.16.22-.27.16-.16.27-.32.42-.48.05-.11.16-.16.22-.27.16-.16.32-.32.48-.48.05-.05.16-.16.22-.22.16-.16.38-.38.53-.53.05-.05.11-.11.16-.16.27-.22.48-.48.74-.69.05 0 .05-.05.11-.05.22-.22.42-.38.69-.58.11-.05.16-.11.27-.22.16-.16.38-.27.53-.42.11-.05.22-.16.32-.22.16-.11.32-.27.53-.38.11-.05.22-.16.32-.22.16-.11.38-.22.53-.38.11-.05.22-.16.32-.22.22-.11.42-.27.58-.38.11-.05.16-.11.27-.16.27-.16.58-.32.91-.48.05 0 .05-.05.11-.05.27-.16.53-.27.85-.42.11-.05.22-.11.32-.16.22-.11.42-.22.64-.27.11-.05.27-.11.38-.16.22-.11.42-.16.58-.22.11-.05.27-.11.38-.16.22-.05.42-.16.64-.22.11-.05.27-.11.38-.11.22-.05.48-.16.69-.22.11-.05.22-.05.32-.11.38-.11.69-.16 1.07-.27.38-.05.69-.16 1.07-.22.11 0 .22-.05.32-.05.22-.05.42-.05.64-.11.11 0 .22 0 .38-.05.22 0 .38-.05.58-.05h.32.53.22.11.48.11c5.69.27 7.4 3.89 12.4 3.03.42-.05.85-.16 1.27-.32.32-.11.69-.22 1.01-.32.11-.05.16-.05.27-.11.69-.27 1.44-.53 2.18-.8.11-.05.22-.05.27-.11.74-.32 1.49-.64 2.24-.96.11-.05.22-.11.32-.16.38-.16.69-.32 1.07-.48s.69-.32 1.07-.48c.11-.05.22-.11.38-.16.38-.16.74-.32 1.17-.48.38-.16.74-.32 1.12-.48.11-.05.22-.05.27-.11.38-.16.74-.32 1.12-.42.38-.16.74-.27 1.07-.42.11-.05.16-.05.27-.11.38-.11.69-.27 1.07-.38s.69-.22 1.01-.32c.11 0 .16-.05.27-.05.32-.11.69-.16 1.01-.22.32-.05.64-.11.96-.16h.22c.32-.05.58-.05.91-.05h.32.27c.22 0 .38.05.58.05 1.22.22 2.23.8 2.98 1.87 4.85 7.14-.74 13.68-6.76 17.99-11.97 25.18-38.43 60.46-38.43 60.46 2.71.27 5.38.16 8.09-.22.27-.05.48-.05.74-.11.16 0 .32-.05.53-.11.22-.05.48-.11.69-.11.16-.05.32-.05.53-.11.22-.05.48-.11.69-.16.16-.05.32-.05.48-.11.27-.05.48-.11.74-.16.11-.05.27-.05.38-.11.48-.11.96-.27 1.44-.42.16-.05.32-.11.48-.16.22-.05.48-.16.69-.22.16-.05.32-.11.53-.16.22-.05.48-.16.69-.27.16-.05.32-.11.53-.22.22-.11.42-.16.69-.27.16-.05.32-.16.53-.22.38-.16.8-.32 1.17-.48.16-.11.38-.16.53-.27.22-.11.42-.22.64-.32.16-.11.38-.16.53-.27.22-.11.42-.22.64-.32.16-.11.38-.22.53-.27.22-.11.42-.22.58-.32.22-.11.38-.22.58-.32.16-.11.38-.22.53-.32.32-.22.64-.38.96-.58.16-.11.38-.22.53-.32.22-.11.42-.27.64-.42.16-.11.32-.22.53-.32.21-.11.42-.27.58-.38s.32-.22.53-.38c.22-.16.42-.27.64-.42.16-.11.32-.22.48-.32.27-.22.53-.38.74-.58.11-.11.27-.16.38-.27.32-.27.64-.48.96-.75.11-.11.27-.22.38-.32.22-.16.42-.38.64-.53.16-.11.27-.22.42-.38.22-.16.42-.38.64-.53.11-.11.27-.22.38-.38.22-.22.48-.42.69-.64.11-.11.22-.16.27-.27.32-.32.64-.64.96-.91.11-.05.16-.16.22-.27.27-.27.48-.48.69-.74.11-.11.22-.22.32-.38.22-.22.42-.42.58-.64.11-.11.22-.27.32-.38.22-.22.42-.48.64-.69.11-.11.22-.22.27-.32.32-.32.58-.69.85-1.01-.05-.22 0-3.3.69-8.09.05-.32.11-.69.16-1.07.53-3.36 1.33-7.45 2.56-12.03.22-.69.38-1.44.58-2.18.11-.32.16-.58.27-.91.38-1.22.74-2.45 1.17-3.73.85-2.5 1.81-5.11 2.93-7.77.27-.64.53-1.27.8-1.91.74-1.65 1.54-3.3 2.4-5 .42-.85.85-1.71 1.33-2.5 1.97-3.62 4.25-7.23 6.92-10.75.48-.64.96-1.22 1.44-1.87.64-.8 1.22-1.54 1.91-2.34.48-.53.91-1.07 1.38-1.6 1.87-2.07 3.94-4.1 6.12-6.07.53-.48 1.12-.96 1.65-1.44 1.01-.85 2.02-1.65 3.09-2.45 2.56-1.91 5.27-3.73 8.2-5.38 2.76-1.54 5.7-2.98 8.78-4.25.16-.05.32-.11.48-.22.05 0 .11-.05.16-.05.11-.05.22-.05.32-.11.05 0 .11 0 .16-.05.11 0 .22-.05.32-.05h.11.38.11.22.05c2.29.27 1.91 3.73 4.05 4.1.64.11 1.71-.16 3.09-.58.32-.11.69-.22 1.07-.32.32-.11.58-.22.91-.27.05 0 .11 0 .11-.05.32-.11.69-.22 1.01-.32h.11c.38-.11.69-.22 1.07-.32h.05c.38-.11.75-.22 1.12-.27h.05c.38-.11.75-.16 1.17-.22h.05c.38-.05.8-.11 1.17-.16.38-.05.75-.05 1.12-.05h.58c3.36.22 6.07 2.13 6.01 8.36 0 3.09-12.77 56.74-1.81 54.77.64-.11 1.22-.27 1.81-.53.16-.11.38-.16.53-.27 0 0 .05 0 .05-.05.16-.11.32-.22.53-.32 0 0 .05 0 .05-.05.32-.22.69-.53 1.01-.8l.05-.05c.16-.16.32-.32.48-.48l.05-.05c.32-.38.64-.75.96-1.22l.05-.05c.16-.22.32-.42.48-.69 0-.05.05-.05.05-.11.16-.27.32-.48.48-.8 0 0 0-.05.05-.05.16-.27.32-.53.48-.85 0-.05.05-.05.05-.11.16-.32.32-.58.53-.91.05-.05.05-.11.11-.16.16-.32.32-.64.53-1.01 0-.05.05-.11.05-.16.16-.38.38-.69.53-1.07 0 0 0-.05.05-.05.16-.38.38-.8.58-1.22.05-.05.05-.16.11-.22.22-.42.38-.85.58-1.27.05-.05.05-.16.11-.22.22-.48.42-.91.64-1.38.05-.16.16-.32.22-.42 0-.05.05-.11.05-.16.05-.11.11-.22.16-.27s.05-.11.11-.16c.05-.11.11-.16.16-.22.05-.05.05-.11.11-.16.05-.05.11-.16.16-.22.05-.05.05-.11.11-.11.05-.05.11-.11.16-.22.05-.05.05-.11.11-.11.05-.05.11-.11.16-.16s.05-.05.11-.11c.05-.05.11-.11.16-.16s.05-.05.11-.11c.05-.05.11-.11.16-.11.05-.05.05-.05.11-.11.05-.05.11-.05.16-.11.05 0 .05-.05.11-.05.05-.05.11-.05.16-.11.05 0 .05-.05.11-.05.05-.05.11-.05.16-.11.05 0 .05-.05.11-.05s.11-.05.16-.05.05 0 .11-.05c.05 0 .16-.05.22-.05h.05c.16-.05.38-.05.53-.05 4.31.58 9.05 11.66 3.99 21.61-4.1 7.98-26.34 22.51-34.59 8.25-6.39 15.28-33.79 30.92-51.95 20.87-.05-.05-.11-.11-.16-.11-7.5 7.5-39.92 28.96-66.11 21.71-2.37 2.19-36.27 30.72-66.23 23.27zm-30.4-6.02c0 .38-.05.69-.05 1.07 0-.38 0-.74.05-1.07zm161.86-94.47c-.91 2.02-1.81 4.05-2.66 6.18-3.67 9.42-5.54 18.04-6.49 23.58-.53 3.36-1.01 7.4-1.07 9.74-7.45 8.73-16.98 14.64-26.61 16.66 8.36-11.66 24.11-34.49 32.9-52.75 1.54-1.17 2.82-2.3 3.93-3.41z"/><path d="m468.17 149.6c.42-.05.85-.16 1.27-.27.11 0 .22-.05.32-.05.16-.05.32-.11.48-.11.32-.11.64-.16 1.01-.32.22-.05.48-.16.69-.27.05-.05.16-.05.22-.11.16-.05.32-.16.48-.22.05-.05.16-.05.22-.11.16-.11.38-.22.53-.32.05 0 .05-.05.11-.05.22-.16.42-.27.64-.42.05-.05.11-.11.16-.16.16-.11.32-.27.48-.38.05-.05.16-.11.22-.16.16-.16.32-.27.48-.42.05-.05.11-.11.16-.16.22-.22.42-.42.58-.64.05-.05.11-.11.11-.16.16-.16.32-.38.48-.53.05-.05.11-.16.16-.22.16-.16.27-.38.42-.53.05-.05.11-.16.16-.22.22-.27.38-.48.58-.75l.05-.05c.16-.27.32-.48.48-.75.05-.11.11-.16.16-.27.16-.22.27-.42.38-.64.05-.11.11-.16.16-.27.16-.27.32-.53.48-.8l.05-.05c.16-.32.38-.64.53-.96.05-.11.11-.16.16-.27.11-.22.27-.48.38-.75.05-.11.11-.22.16-.32.16-.27.27-.53.42-.8.05-.05.05-.11.11-.22.16-.32.32-.69.48-1.07.05-.11.05-.16.11-.27.11-.27.27-.53.38-.85.05-.11.11-.22.16-.32.11-.27.22-.53.38-.85.05-.11.05-.16.11-.27.16-.38.32-.75.42-1.12 0-.05.05-.11.05-.16.11-.32.27-.64.38-.96.05-.11.11-.22.11-.32.11-.27.22-.58.32-.85.05-.11.05-.22.11-.32.27-.8.53-1.6.8-2.4.05-.11.05-.22.11-.32.11-.32.22-.58.27-.91.05-.11.05-.22.11-.38.11-.38.22-.69.32-1.07 0-.05.05-.11.05-.16.11-.42.27-.8.38-1.22.05-.11.05-.22.11-.32.11-.32.16-.64.27-.96.05-.11.05-.27.11-.38.11-.32.16-.64.27-.96 0-.11.05-.22.05-.27.11-.42.22-.85.32-1.22 0-.11.05-.16.05-.27.11-.32.16-.64.27-1.01.05-.11.05-.27.11-.38.05-.32.16-.64.22-.91.05-.11.05-.22.11-.32.11-.42.22-.85.32-1.22 0-.05 0-.11.05-.16.11-.38.16-.75.27-1.12.05-.11.05-.27.11-.38.05-.32.16-.58.22-.91.05-.11.05-.27.11-.38.11-.38.16-.75.22-1.12 0-.05 0-.05 0-.11.11-.42.16-.8.27-1.17 0-.11.05-.27.05-.38.05-.27.11-.53.16-.85.05-.16.05-.27.11-.42.05-.32.11-.58.16-.91 0-.11.05-.16.05-.27.05-.38.16-.75.22-1.12 0-.11.05-.22.05-.32.05-.27.11-.53.16-.85 0-.11.05-.27.05-.38.05-.27.11-.53.16-.8 0-.11.05-.22.05-.32.05-.38.11-.69.16-1.07 0-.11.05-.16.05-.27.05-.27.11-.53.16-.8 0-.11.05-.27.05-.38.05-.22.05-.42.11-.69 0-.11.05-.27.05-.38.05-.27.11-.53.16-.8 0-.11.05-.22.05-.38.05-.27.05-.48.11-.75 0-.11.05-.27.05-.38.05-.16.05-.38.11-.53 0-.11.05-.27.05-.38.05-.22.05-.38.11-.58 0-.11.05-.22.05-.27.69-4.74 1.01-7.77 1.01-7.77-22.72 9.53-46.36 65.04-25.49 62.17zm6.22-32.15c4.52-8.3 9.85-15.12 15.12-19.64-.8 5.05-1.97 11.39-3.51 17.84-5.85 24.16-12.24 29.65-15.55 30.72-1.44.48-2.71.75-3.73.75-.27 0-.58 0-.85-.05-.05-.22-.11-.42-.16-.69-1.16-5.99 2.3-17.59 8.68-28.93z"/><path d="m246.42 263.98c-.32-.22-.69-.38-1.07-.53-.32-.91-.85-1.65-1.6-2.13-.75-.53-1.65-.8-2.66-.8-.75 0-1.54.16-2.45.42l-25.23 7.72c-9.05 2.76-15.91 6.76-20.38 11.87-4.58 5.22-6.92 11.87-6.92 19.64v32.15c0 7.23 2.02 12.4 6.01 15.33 1.17 1.54 2.61 2.82 4.31 3.67 2.24 1.17 5.05 1.76 8.25 1.76 3.62 0 7.98-.74 12.93-2.29l25.23-7.72c1.87-.58 3.25-1.44 4.16-2.66.96-1.22 1.44-2.82 1.44-4.74v-12.3c0-2.23-.69-3.83-2.02-4.74-.32-.22-.69-.38-1.07-.53-.32-.91-.85-1.65-1.6-2.13-.74-.53-1.65-.8-2.71-.8-.75 0-1.54.16-2.45.42l-20.76 6.41c-.05 0-.16.05-.22.05v-22.51c.05-1.07.32-1.87.91-2.61.69-.8 1.87-1.44 3.51-1.97l20.82-6.34c1.87-.58 3.25-1.49 4.16-2.66.96-1.22 1.44-2.82 1.44-4.74v-12.51c0-2.22-.69-3.82-2.03-4.73zm-3.29 14.64c0 1.33-.32 2.34-.91 3.09s-1.54 1.33-2.82 1.76l-20.82 6.34c-2.13.64-3.73 1.54-4.74 2.76-1.01 1.17-1.54 2.61-1.54 4.36v24.59c.05 1.71.53 2.82 1.6 3.3.91.42 2.18.42 3.89 0 .27-.05.58-.16.91-.27l20.82-6.34h.11c.11-.05.27-.05.38-.11.05 0 .11 0 .16-.05.11 0 .16-.05.27-.05h.16c.05 0 .16 0 .22-.05h.16.22c.16 0 .38 0 .48.05h.05c.22.05.42.11.58.27.58.42.91 1.27.91 2.56v12.3c0 1.33-.32 2.34-.91 3.09s-1.54 1.33-2.82 1.76l-25.23 7.72c-8.63 2.66-15.01 2.87-19.16.69s-6.23-6.81-6.28-13.89c0-.05 0-.05 0-.11v-32.21c0-7.19 2.07-13.15 6.28-17.88 4.16-4.74 10.54-8.46 19.16-11.07l25.23-7.72h.11c.11-.05.27-.05.38-.11.05 0 .11 0 .16-.05.11 0 .16-.05.27-.05h.16s.16 0 .22-.05h.16.22c.16 0 .38 0 .48.05h.05c.22.05.42.11.58.27.58.42.91 1.27.91 2.56v12.49zm1.8 5.75c.16-.22.27-.42.38-.64-.11.21-.22.42-.38.64z"/><path d="m324.61 240.08c-.32-.22-.69-.38-1.07-.53-.32-.91-.85-1.65-1.6-2.13-.74-.53-1.65-.8-2.66-.8-.74 0-1.54.16-2.45.42l-15.7 4.79c-1.87.58-3.25 1.49-4.2 2.66-.96 1.22-1.44 2.82-1.44 4.74v47.16c0 .74-.32 1.49-.96 2.24-.27.27-1.38 1.38-5.74 2.71-.96.27-1.76.48-2.4.64v-44.87c0-2.24-.69-3.83-2.02-4.74-.32-.22-.69-.38-1.07-.53-.32-.91-.85-1.65-1.6-2.13-.74-.53-1.65-.8-2.66-.8-.74 0-1.54.16-2.45.42l-16.24 4.95c-1.87.58-3.25 1.49-4.2 2.66-.96 1.22-1.44 2.82-1.44 4.74v51.21c0 3.51.53 6.6 1.6 9.21.85 2.13 2.24 3.89 4.1 5.22 1.22 1.71 2.82 3.03 4.9 3.99 2.34 1.07 5.22 1.6 8.83 1.6.69 0 1.44 0 2.23-.05 4.31-.27 9.85-1.38 16.44-3.41 6.54-2.02 12.03-4.2 16.34-6.6 4.36-2.45 7.88-5.05 10.43-7.77 2.61-2.82 4.47-5.91 5.54-9.1 1.01-3.14 1.54-6.44 1.54-9.9v-51.25c-.02-2.25-.66-3.84-2.05-4.75zm-3.35 53.28c0 3.2-.48 6.18-1.38 9.05-.96 2.87-2.61 5.59-4.95 8.14-2.4 2.56-5.65 5-9.79 7.29-4.16 2.29-9.42 4.42-15.81 6.39s-11.71 3.03-15.81 3.3c-4.1.22-7.34-.22-9.74-1.33-2.4-1.12-4.05-2.82-4.95-5.11-.91-2.29-1.38-4.95-1.38-8.09 0-.05 0-.05 0-.11v-51.21c0-1.33.32-2.34.91-3.09s1.54-1.33 2.82-1.76l16.24-4.95h.11c.11-.05.27-.05.38-.11.05 0 .11 0 .16-.05.11 0 .16-.05.27-.05h.16c.05 0 .16 0 .22-.05h.16.22c.16 0 .38 0 .48.05h.05c.22.05.42.11.58.27.58.42.91 1.27.91 2.56v47.16c0 1.38.53 2.4 1.54 2.98.74.42 2.24.42 4.36-.05.05 0 .11 0 .16-.05.32-.05.64-.16 1.01-.27.11 0 .22-.05.27-.05.38-.11.74-.22 1.12-.32 3.67-1.12 6.01-2.29 7.03-3.56 1.01-1.22 1.54-2.56 1.54-3.94v-47.16c0-1.33.32-2.34.91-3.09.58-.75 1.54-1.33 2.82-1.76l15.7-4.79c.05 0 .05 0 .11-.05.11-.05.27-.05.38-.11.05 0 .11-.05.22-.05s.16-.05.27-.05h.16c.05 0 .16 0 .22-.05h.16.22c.16 0 .38 0 .48.05h.05c.22.05.42.11.58.27.58.42.91 1.27.91 2.56v51.21h-.08z"/><path d="m399.29 217.24c-.32-.22-.69-.38-1.07-.53-.32-.91-.85-1.65-1.6-2.13-.74-.53-1.65-.8-2.66-.8-.74 0-1.54.16-2.45.42l-54.61 16.71c-1.87.58-3.25 1.49-4.2 2.66-.96 1.22-1.44 2.82-1.44 4.74v12.51c0 2.24.69 3.83 2.02 4.74.32.22.69.38 1.07.53.32.91.85 1.65 1.6 2.13.74.53 1.65.8 2.66.8.74 0 1.54-.16 2.45-.42l9.1-2.76v43.7c0 2.24.69 3.83 2.02 4.74.32.22.69.38 1.07.53.32.91.85 1.65 1.6 2.13.74.53 1.65.8 2.66.8.74 0 1.54-.16 2.45-.42l16.77-5.11c1.87-.58 3.25-1.44 4.16-2.66.96-1.22 1.44-2.82 1.44-4.74v-48.81l13.3-4.05c1.87-.58 3.25-1.49 4.2-2.66.96-1.22 1.44-2.82 1.44-4.74v-12.51c.04-2.29-.65-3.89-1.98-4.8zm-3.3 14.59c0 1.33-.32 2.34-.91 3.09-.58.75-1.54 1.33-2.82 1.76l-15.22 4.63v50.78c0 1.33-.32 2.34-.91 3.09-.58.74-1.54 1.33-2.82 1.76l-16.77 5.11c-1.33.42-2.24.38-2.82 0s-.85-1.22-.85-2.5v-.05-44.49-6.28l-15.22 4.63c-1.33.42-2.23.42-2.82 0-.58-.38-.85-1.22-.85-2.5v-.05-12.51c0-1.33.32-2.34.91-3.09.58-.75 1.54-1.33 2.82-1.76l54.61-16.71h.11c.11-.05.27-.05.38-.11.05 0 .11 0 .16-.05.11 0 .16-.05.27-.05h.16c.05 0 .16 0 .22-.05h.16.22c.16 0 .38 0 .48.05h.05c.22.05.42.11.58.27.58.42.91 1.27.91 2.56v12.51z"/><path d="m470.25 195.53c-.32-.22-.69-.38-1.07-.53-.32-.91-.85-1.65-1.6-2.13-.74-.53-1.65-.8-2.66-.8-.74 0-1.54.16-2.45.42l-54.61 16.71c-1.87.58-3.25 1.44-4.16 2.66-.96 1.22-1.44 2.82-1.44 4.74v12.51c0 2.24.69 3.83 2.02 4.79.32.22.69.38 1.07.53.32.91.85 1.65 1.6 2.13.74.53 1.65.8 2.66.8.74 0 1.54-.16 2.45-.42l9.1-2.76v43.65c0 2.24.69 3.83 2.02 4.74.32.22.69.38 1.07.53.32.91.85 1.65 1.6 2.13.74.53 1.65.8 2.66.8.74 0 1.54-.16 2.45-.42l16.77-5.11c1.87-.58 3.25-1.44 4.16-2.66.96-1.22 1.44-2.82 1.44-4.74v-48.81l13.3-4.05c1.87-.58 3.25-1.49 4.16-2.66.96-1.22 1.44-2.82 1.44-4.74v-12.51c.04-2.24-.65-3.84-1.98-4.8zm-3.25 14.64h-.05c0 1.33-.32 2.34-.91 3.09-.58.75-1.54 1.33-2.82 1.76l-15.22 4.63v50.78c0 1.33-.32 2.34-.91 3.09s-1.54 1.33-2.82 1.76l-16.77 5.11c-1.33.42-2.24.38-2.82 0s-.85-1.22-.85-2.5v-.05-44.49-6.28l-15.22 4.63c-1.33.42-2.23.42-2.82 0-.58-.38-.85-1.22-.85-2.5v-.05-12.51c0-1.33.27-2.34.91-3.09.58-.75 1.54-1.33 2.82-1.76l54.61-16.71c.16-.05.32-.11.48-.11.05 0 .11 0 .16-.05.11 0 .22-.05.32-.05h.16c.05 0 .16 0 .22-.05h.16.22c.16 0 .38 0 .48.05h.05c.22.05.42.11.58.27.58.42.91 1.27.91 2.56z"/><path d="m538.8 174.62c-.32-.22-.69-.38-1.07-.53-.32-.91-.85-1.65-1.6-2.13-.74-.53-1.65-.8-2.71-.8-.75 0-1.54.16-2.45.42l-48.01 14.69c-1.87.58-3.25 1.44-4.16 2.66-.96 1.22-1.44 2.82-1.44 4.74v67.01c0 2.24.69 3.83 2.02 4.74.32.22.69.38 1.07.53.32.91.85 1.65 1.6 2.13.74.53 1.65.8 2.66.8.74 0 1.54-.16 2.45-.42l48.01-14.69c1.87-.58 3.25-1.44 4.16-2.66.96-1.22 1.44-2.82 1.44-4.74v-12.08c0-2.24-.69-3.83-2.02-4.74-.32-.22-.69-.38-1.07-.53-.32-.91-.85-1.65-1.6-2.13-.75-.53-1.65-.8-2.71-.8-.75 0-1.54.16-2.45.42l-2.5.75c1.07-.53 1.91-1.22 2.56-2.02.96-1.22 1.44-2.82 1.44-4.74v-11.07c0-2.24-.69-3.83-2.02-4.74-.32-.22-.69-.38-1.07-.53-.32-.91-.85-1.65-1.6-2.13-.32-.22-.69-.42-1.12-.53l8.52-2.61c1.91-.58 3.36-1.49 4.25-2.71.96-1.22 1.44-2.82 1.44-4.74v-12.08c.01-2.25-.69-3.85-2.02-4.74zm-3.3 14.15c0 1.33-.32 2.34-.91 3.14-.53.75-1.49 1.33-2.82 1.71l-28.53 8.72v7.98l20.17-6.18c.16-.05.32-.11.48-.11.05 0 .11 0 .16-.05.11 0 .16-.05.27-.05h.16c.05 0 .16 0 .22-.05h.16.22c.16 0 .38 0 .48.05h.05c.22.05.42.11.58.27.58.42.85 1.27.85 2.56v11.07c0 1.33-.32 2.34-.85 3.09-.58.75-1.54 1.33-2.82 1.76l-20.12 6.18v8.89l28.53-8.73c.05 0 .05 0 .11-.05.11-.05.27-.05.38-.11.05 0 .11 0 .22-.05.11 0 .16-.05.27-.05h.16s.16 0 .22-.05h.16.22c.16 0 .38 0 .48.05h.05c.22.05.42.11.58.27.58.42.91 1.27.91 2.56v12.08c0 1.33-.32 2.34-.91 3.09-.58.75-1.54 1.33-2.82 1.76l-48.01 14.69c-1.33.42-2.24.38-2.82 0s-.85-1.22-.85-2.5v-.05-67.01c0-1.33.27-2.34.91-3.09.58-.75 1.54-1.33 2.82-1.76l48.01-14.69c.16-.05.32-.11.48-.11.05 0 .11 0 .16-.05.11 0 .22-.05.27-.05h.16c.05 0 .16 0 .22-.05h.16.22c.16 0 .38 0 .48.05h.05c.22.05.42.11.58.27.58.42.91 1.27.91 2.56v12.09z"/><path d="m616.93 188.35c-.22-.22-.48-.38-.69-.53-.53-.8-1.22-1.49-1.97-2.13-.48-.38-.96-.75-1.49-1.01.11-.27.27-.58.38-.91.96-2.61 1.44-5.54 1.44-8.73v-4.74c0-5.91-1.81-10.38-5.43-13.2-.11-.05-.16-.11-.27-.22-.69-.91-1.49-1.76-2.4-2.45-1.91-1.49-4.52-2.29-7.77-2.29-2.98 0-6.44.64-10.65 1.91l-34.44 10.54c-1.87.58-3.25 1.49-4.2 2.66-.96 1.22-1.44 2.82-1.44 4.74v67.01c0 2.24.69 3.83 2.02 4.79.32.22.69.38 1.07.53.32.91.85 1.65 1.6 2.13.75.53 1.65.8 2.66.8.75 0 1.54-.16 2.45-.42l15.91-4.85c1.87-.58 3.25-1.44 4.16-2.66.96-1.22 1.44-2.82 1.44-4.74v-18.29l10.43-3.2v13.2c0 2.24.69 3.83 2.02 4.79.32.22.69.38 1.07.53.32.91.85 1.65 1.6 2.13.74.53 1.65.8 2.66.8.74 0 1.54-.16 2.45-.42l16.02-4.9c1.87-.58 3.25-1.44 4.2-2.66.96-1.22 1.44-2.82 1.44-4.74v-21.92c.2-5.28-1.29-9.11-4.27-11.55zm-.8 30.71h-.05c0 1.33-.32 2.34-.91 3.09-.58.74-1.54 1.33-2.82 1.76l-16.02 4.9c-1.33.42-2.23.38-2.82 0-.58-.38-.85-1.22-.91-2.5v-.05-13.3-2.5c0-1.49-.27-2.56-.85-3.09s-1.6-.58-3.03-.16l-14.48 4.42v20.28c0 1.33-.32 2.34-.91 3.09-.58.75-1.54 1.33-2.82 1.76l-15.91 4.85c-1.33.42-2.23.38-2.82 0-.58-.38-.85-1.22-.91-2.5v-.05-67.06c0-1.33.32-2.34.91-3.09.58-.75 1.54-1.33 2.82-1.76l34.44-10.54c.48-.16.96-.27 1.44-.42.16-.05.27-.05.42-.11.32-.11.64-.16.96-.27.16-.05.32-.05.53-.11.27-.05.53-.11.8-.22.16-.05.32-.05.48-.11.27-.05.53-.11.75-.16.16-.05.32-.05.48-.11.22-.05.48-.11.69-.11.16 0 .32-.05.53-.05.22-.05.42-.05.64-.05.16 0 .32 0 .48-.05.22 0 .38-.05.58-.05h.48.53.05.69c.16 0 .32 0 .53.05h.05c2.02.16 3.67.69 4.85 1.65 2.93 2.29 4.42 6.01 4.42 11.12v4.74c0 2.87-.42 5.48-1.27 7.77s-2.34 4.2-4.52 5.74c3.73-.75 6.76-.11 9.05 1.81 2.29 1.91 3.46 5.05 3.46 9.37v21.99z"/><path d="m581.96 177.44-7.77 2.4v13.26l5.32-1.71 2.45-.75c1.81-.53 2.98-1.38 3.62-2.5s.91-2.34.91-3.73v-.91-2.61c0-1.38-.32-2.45-.91-3.2-.63-.73-1.8-.84-3.62-.25zm1.87 6.86c0 .91-.22 1.76-.58 2.45-.27.48-1.01.91-2.07 1.22l-1.65.48v-4.1l4.31-1.33v1.28z"/><path d="m189.32 165.14c1.27-.53 2.66-.91 4.1-1.17.27-.05.58-.11.91-.16.58-.11 1.17-.16 1.81-.16.32 0 .58-.05.91-.05h.11.58c.16 0 .27 0 .42.05h.05c.75.11 1.44.27 2.07.53.96.42 1.76 1.07 2.34 1.97.16.22.27.48.42.75.32.8.42 1.76.38 2.98-.05.42-.05.74-.11.91-.05.16-.05.38-.11.64l-7.67 25.76-1.38 7.72c1.17-.69 2.29-1.12 3.41-1.49 1.01-.38 1.97-.75 2.93-1.17.42-.16.91-.38 1.33-.58.11-.05.27-.11.38-.16.69-.32 1.33-.58 1.97-.91.22-.11.42-.22.64-.32.32-.16.58-.32.91-.48.38-.16.69-.38 1.07-.53.27-.11.48-.27.75-.38.48-.27.96-.53 1.38-.8.16-.11.32-.16.48-.27.53-.32 1.07-.64 1.6-.96 1.17-.75 2.34-1.49 3.41-2.29 2.71-1.97 5.16-3.99 7.29-6.12.42-.42.85-.85 1.22-1.27.64-.69 1.22-1.33 1.76-2.02.32-.38.64-.8.96-1.17 1.22-1.6 2.34-3.2 3.25-4.79.53-.91 1.01-1.87 1.44-2.76.85-1.87 1.54-3.73 2.02-5.54.48-1.87.8-3.67.91-5.48.27-3.56-.22-7.08-1.33-10.54-1.12-3.46-3.3-6.39-6.54-8.78-3.25-2.4-7.67-3.99-13.3-4.9-5.65-.85-12.88-.42-21.61 1.27-6.54 1.27-12.61 3.67-18.1 7.14-5.48 3.51-10.48 7.77-14.95 12.77s-8.41 10.65-11.87 16.82c-3.46 6.23-6.39 12.67-8.83 19.42-2.45 6.76-4.36 13.57-5.74 20.49-1.44 6.92-2.34 13.57-2.82 19.96-.16 2.61-.42 6.12-.69 10.59-.27 4.42-.42 9.16-.48 14.1-.05 5 .11 10.01.48 15.01.38 5 1.07 9.48 2.18 13.41 1.12 3.89 2.61 6.97 4.52 9.21 1.81 2.13 4.25 2.98 7.19 2.5 0 0 0 0-.05 0 .16 0 .32-.05.48-.05 1.22-.27 2.45-.64 3.56-1.17 1.49-.69 2.93-1.71 4.2-2.93l.96-.96c.48-.53.96-1.07 1.44-1.65 1.6-2.02 3.09-4.31 4.36-6.87.22-.48.48-.96.69-1.44.69-1.49 1.33-2.98 1.91-4.58 1.01-2.66 1.87-5.43 2.66-8.41.32-1.17.58-2.34.91-3.56.27-1.17.53-2.34.8-3.51.48-2.34.96-4.69 1.33-7.03.8-4.69 1.38-9.1 1.81-13.3.05-.53.11-1.01.16-1.49.05-.32.05-.58.11-.85 0-.22.05-.38.05-.58.05-.32.05-.64.11-1.01 0-.11 0-.27.05-.42.05-.42.05-.8.11-1.17 0-.05 0-.11 0-.16.05-.42.05-.8.11-1.22v-.05c.05-.85.16-1.6.22-2.4.05-.38.05-.75.05-1.07 0-.11 0-.22 0-.27l.32-4.52c-5.27-1.07-9.37-2.07-12.35-3.09-2.98-1.01-5.22-2.07-6.65-3.25-1.44-1.17-2.34-2.5-2.66-4.05-.16-.69-.22-1.49-.27-2.29 0-.22 0-.42 0-.58 0-.32 0-.64 0-.96 0-.11 0-.27 0-.38 0-.42.05-.85.05-1.33.05-.58.11-1.17.16-1.71.05-.53.11-1.12.22-1.71.16-1.12.38-2.13.75-3.09.16-.38.32-.75.48-1.07.11-.16.22-.32.32-.48.22-.27.38-.53.58-.8.32-.32.64-.58 1.01-.8.22-.11.42-.22.64-.27s.42-.16.69-.16c.16-.05.32-.05.48-.05h.16.27.05.32.16c.16 0 .27.05.42.11.53.16 1.22.38 2.02.64 2.07.75 3.94 1.27 5.65 1.71 1.71.38 3.14.69 4.36.91 1.38.22 2.66.38 3.83.38 0-.05 0-.16 0-.27s0-.22 0-.32c0-.05 0-.05 0-.11 0-.11 0-.22 0-.32 0-.05 0-.11 0-.11 0-.11 0-.22 0-.32 0-.05 0-.16 0-.22 0-.11 0-.22.05-.32 0-.11 0-.16 0-.27s0-.22.05-.32c0-.11 0-.27.05-.38 0-.11 0-.22 0-.32 0-.16 0-.32.05-.48 0-.11 0-.22 0-.32s0-.27.05-.38c0-.16 0-.32.05-.48.05-.64.11-1.27.22-1.91.05-.64.16-1.33.27-2.07.11-.69.22-1.44.32-2.18s.27-1.54.42-2.34c.58-3.25 1.44-6.65 2.5-10.27.27-.91.58-1.81.91-2.66.32-.85.64-1.76 1.01-2.61.32-.69.64-1.44.96-2.13.16-.38.32-.69.53-1.01.32-.58.64-1.22.96-1.81.69-1.17 1.44-2.34 2.24-3.41.53-.74 1.12-1.44 1.71-2.07.91-1.01 1.87-1.97 2.87-2.87.32-.32.69-.58 1.07-.85.69-.53 1.49-1.07 2.24-1.49.73-.4 1.52-.82 2.38-1.14zm-55.15 53.92c-.16.85-.32 1.76-.53 2.61.16-.85.38-1.71.53-2.61zm47.74-52.65c-2.93 2.56-5.43 5.59-7.4 9.05-1.91 3.36-3.46 6.97-4.63 10.75-1.12 3.67-1.97 7.23-2.56 10.54-.58 3.3-1.01 6.23-1.22 8.78-.05.85-.16 1.6-.22 2.29-.32-.05-.64-.11-.96-.16-1.12-.22-2.56-.48-4.2-.85-1.6-.38-3.41-.91-5.38-1.6-.91-.32-1.6-.53-2.18-.69-.53-.16-1.07-.22-1.65-.22-.42 0-.91.05-1.38.16-1.54.32-2.82 1.01-3.83 2.07-.8.91-1.44 1.97-1.91 3.2-.42 1.12-.75 2.34-.91 3.67-.16 1.17-.27 2.34-.38 3.56-.16 2.45-.11 4.47.27 6.28.42 2.18 1.65 4.05 3.62 5.65.16.11.32.27.48.38.58.8 1.27 1.6 2.18 2.29 1.71 1.38 4.16 2.56 7.45 3.67 2.02.69 4.52 1.38 7.56 2.07v.16c-.22 2.87-.53 6.44-.96 10.65-.42 4.16-1.01 8.57-1.76 13.15s-1.76 9.26-2.98 13.89c-1.17 4.58-2.66 8.78-4.42 12.51-1.71 3.62-3.73 6.76-6.01 9.26-2.13 2.29-4.52 3.67-7.29 4.25-.53.11-1.01.16-1.49.16-.75 0-1.44-.16-2.02-.42-1.17-1.81-2.18-4.05-2.98-6.81-1.07-3.73-1.76-8.03-2.07-12.88-.38-4.95-.53-9.95-.48-14.8.05-4.9.16-9.58.48-13.95.27-4.2.48-7.77.69-10.54.42-6.23 1.38-12.83 2.76-19.59s3.3-13.52 5.65-20.12c2.4-6.54 5.27-12.99 8.63-19s7.23-11.5 11.55-16.34c4.25-4.79 9.1-8.94 14.37-12.3 5.22-3.3 10.97-5.59 17.19-6.76 5.65-1.12 10.65-1.65 14.95-1.65 2.07 0 4.05.16 5.8.38 5.16.8 9.26 2.24 12.14 4.36.22.16.42.32.64.48 1.01 1.33 1.81 2.76 2.34 4.31 1.01 3.14 1.44 6.34 1.22 9.52-.22 3.3-1.12 6.71-2.71 10.12-1.6 3.46-3.89 6.87-6.92 10.06-3.03 3.3-6.92 6.39-11.44 9.26-2.5 1.6-5.32 3.09-8.36 4.42l7.29-24.49.11-.27v-.32c0-.11 0-.16 0-.16.11-.38.16-.8.22-1.38.16-2.18-.27-4.05-1.22-5.43-.69-.96-1.49-1.76-2.5-2.34-.05-.11-.11-.22-.22-.32-.85-1.38-2.02-2.34-3.46-2.93-1.27-.53-2.66-.8-4.2-.8h-.16c-1.38 0-2.71.16-4.05.42-4.31.88-8.04 2.64-11.08 5.35zm24.01 7.35c0-.11 0-.27.05-.38.01.17.01.28-.05.38z"/><path d="m191.66 273.03c1.33-5.11 2.18-10.01 2.66-14.64v-.05-.05c0-.27.05-.8.22-2.02.11-1.01.22-2.24.38-3.62.11-1.38.27-2.87.48-4.52.11-1.12.22-2.18.38-3.3l.22-1.76c.32-3.36.74-7.03 1.22-11.23 9.85-3.46 18.68-7.83 26.24-12.88 7.98-5.32 14.85-11.23 20.28-17.51 5.48-6.28 9.79-12.99 12.77-19.8 3.03-6.87 4.79-13.63 5.22-20.17.48-7.03-.48-13.73-2.98-19.8-2.02-5-5.05-9.32-9.1-12.93-1.65-1.87-3.56-3.56-5.65-5.05-5.43-3.99-12.46-6.71-20.87-8.09-3.2-.53-6.65-.8-10.22-.8-5.8 0-12.24.69-19.11 2.02-8.57 1.65-16.82 4.63-24.59 8.83-7.72 4.16-15.06 9.42-21.82 15.59-6.71 6.18-12.93 13.26-18.47 21.13-5.54 7.83-10.48 16.34-14.59 25.34-4.16 8.99-7.56 18.53-10.12 28.37-2.56 9.85-4.25 20.02-4.95 30.23-.42 5.96-.53 12.3-.38 18.84.16 6.6.69 13.15 1.6 19.48.91 6.39 2.29 12.51 4.1 18.2 1.81 5.8 4.25 10.91 7.23 15.06 1.44 2.07 3.09 3.89 4.85 5.43 2.61 2.98 5.65 5.32 9.05 6.92 2.93 1.38 6.23 2.07 9.74 2.07 1.87 0 3.89-.22 5.91-.58 5.27-1.01 10.32-2.98 14.9-5.74 4.52-2.76 8.72-6.12 12.51-10.01 3.73-3.89 7.14-8.25 10.06-12.99 2.93-4.69 5.48-9.63 7.61-14.69s3.88-10.23 5.22-15.28zm-.38-11.07c.16-1.27.32-2.61.48-3.83-.1 1.27-.26 2.55-.48 3.83zm.72-6.76c.05-.56.12-1.17.18-1.81-.06.65-.12 1.25-.18 1.81zm-26.48 60.36c.42-.48.91-.96 1.38-1.38-.47.47-.9.9-1.38 1.38zm8.36-16.72c-2.87 4.63-6.12 8.78-9.74 12.56s-7.61 6.97-11.97 9.58c-4.36 2.66-9.05 4.42-14.05 5.43-5.32 1.01-10.01.58-14-1.27-3.99-1.91-7.4-4.85-10.27-8.83-2.71-3.89-5-8.68-6.76-14.26-1.76-5.59-3.09-11.5-3.99-17.78-.91-6.28-1.44-12.67-1.6-19.16-.11-3.83-.05-7.56.05-11.12 0-.05 0-.11 0-.16.05-1.17.05-2.29.16-3.41 0-.16 0-.38.05-.53.05-1.12.11-2.18.22-3.3.69-10.06 2.34-20.02 4.9-29.76.96-3.67 2.02-7.23 3.2-10.81 1.97-5.91 4.2-11.61 6.76-17.14 1.54-3.36 3.14-6.6 4.9-9.74 2.29-4.2 4.79-8.3 7.45-12.24.64-1.01 1.33-1.97 2.02-2.93s1.38-1.91 2.07-2.87c1.38-1.87 2.82-3.73 4.31-5.48.75-.91 1.49-1.76 2.24-2.61 1.49-1.71 3.03-3.41 4.63-5 1.6-1.6 3.2-3.2 4.85-4.69 2.5-2.29 5-4.42 7.67-6.39 1.76-1.33 3.51-2.61 5.32-3.78s3.62-2.34 5.48-3.41c.91-.53 1.87-1.07 2.82-1.6 3.78-2.02 7.67-3.78 11.61-5.22 1.97-.69 3.99-1.33 6.01-1.91s4.1-1.07 6.18-1.44c.8-.16 1.54-.27 2.29-.42.22-.05.48-.05.69-.11.53-.11 1.07-.16 1.6-.27.27-.05.53-.11.8-.11.53-.05 1.01-.16 1.49-.22.27-.05.48-.05.69-.11.64-.05 1.22-.16 1.87-.22.11 0 .22 0 .32-.05.69-.05 1.44-.16 2.13-.22.22 0 .38-.05.58-.05.48-.05 1.01-.05 1.49-.11.22 0 .48 0 .69-.05.48 0 .91-.05 1.38-.05h.69 1.54.38.05c.91 0 1.76 0 2.61.05 2.5.11 4.9.32 7.14.69 8.03 1.33 14.59 3.83 19.69 7.61 5.11 3.78 8.83 8.52 11.18 14.21 2.24 5.59 3.2 11.77 2.71 18.47-.42 6.28-2.13 12.67-5 19.27-2.93 6.6-7.03 12.99-12.35 19.11s-11.92 11.81-19.75 17.04c-7.83 5.22-16.93 9.58-27.25 13.1-.53 4.69-1.01 8.99-1.38 12.93-.16 1.65-.38 3.36-.53 5-.16 1.65-.32 3.2-.48 4.58-.11 1.38-.27 2.61-.38 3.62s-.16 1.76-.22 2.13c-.42 4.47-1.33 9.26-2.61 14.21-1.27 5-2.98 9.95-5.11 14.9-2.15 4.97-4.6 9.77-7.47 14.34z"/></svg>