<svg enable-background="new 0 0 720 420" viewBox="0 0 720 420" xmlns="http://www.w3.org/2000/svg"><path d="m513.42 249.24c-2.52 1.1-16.78 7.07-20.35 8.62-5.23 2.27-11.83 4.78-20.14 7.51-21.88 7.17-45.51 12.48-54.4 14.47l-.6.14c-15.26 3.43-160.66 32.03-197.01 39.17l-11.45 2.05-1.69 5.8c-.53 1.81 1 3.56 2.86 3.29l3.86-.56s187.76-36.86 205.45-40.83c17.53-3.94 100.68-22.39 102.11-43.04-.01-.01-5.99 2.15-8.64 3.38z"/><path d="m230.34 348.05c-1.88 6.39-5.35 11.02-10.4 13.87-.28.16-.41.5-.29.8l4.68 11.68c.15.38-.08.81-.48.88l-9.01 1.7c-.31.06-.62-.11-.73-.41l-4.08-10.56c-.11-.29-.42-.46-.73-.41l-4.88.92c-.24.05-.44.22-.5.46l-3.64 12.38c-.07.23-.26.41-.5.46l-6.95 1.31c-.48.09-.88-.36-.75-.82l11.69-39.81c.07-.23.26-.41.5-.46l13.85-2.62c5.84-1.1 9.69-.81 11.54.88 1.86 1.71 2.08 4.96.68 9.75zm-11.54 6.81c1.34-1.22 2.33-2.94 2.99-5.16.65-2.22.56-3.64-.27-4.27-.83-.62-2.59-.68-5.28-.17l-5.9 1.12c-.24.05-.44.22-.5.46l-3.17 10.8c-.14.47.27.91.75.82l5.08-.96c2.85-.54 4.96-1.42 6.3-2.64z"/><path d="m257.92 368.34-.73-6.88c-.04-.37-.38-.62-.75-.55l-14.8 2.8c-.17.03-.32.13-.42.28l-5.81 9.1c-.09.15-.24.25-.42.28l-7.21 1.36c-.55.1-.95-.5-.65-.96l27.39-42.82c.09-.15.24-.25.42-.28l7.18-1.36c.36-.07.71.19.75.55l3.99 36.88c.04.33-.19.63-.51.69l-7.67 1.45c-.38.08-.73-.17-.76-.54zm-3.75-24.6-6.48 10.11c-.3.47.1 1.07.65.96l7.39-1.4c.32-.06.55-.36.51-.69l-.91-8.71c-.06-.59-.83-.78-1.16-.27z"/><path d="m309.7 325.16c2.53 2.92 2.85 7.58.97 13.99s-5.12 11.81-9.71 16.2c-4.59 4.4-10.47 7.27-17.63 8.62l-11.78 2.23c-.49.09-.9-.36-.76-.84l11.68-39.78c.07-.24.27-.42.51-.46l12.88-2.43c6.7-1.27 11.31-.45 13.84 2.47zm-13.35 25.66c2.68-2.51 4.62-5.79 5.81-9.84s1.07-6.97-.35-8.76-4.26-2.28-8.53-1.48l-4.28.81c-.24.05-.44.23-.51.46l-6.94 23.63c-.14.47.27.93.76.84l4.26-.81c3.84-.72 7.1-2.34 9.78-4.85z"/><path d="m327.4 355.64-15.4 2.91c-.48.09-.89-.36-.75-.83l11.69-39.8c.07-.24.27-.41.51-.46l14.22-2.69c2.54-.48 4.64-.56 6.29-.24s2.77.96 3.37 1.92c1.06 1.81 1.2 4.04.41 6.71-.95 3.22-2.6 5.8-4.96 7.73-.81.67-1.35 1.1-1.64 1.29s-.81.5-1.54.93c2.17.11 3.68.91 4.55 2.4s.92 3.53.16 6.12c-.84 2.87-2.48 5.57-4.92 8.11-2.84 2.97-6.83 4.93-11.99 5.9zm-5.48-7.28c-.14.47.27.92.75.83l4.7-.89c2.4-.45 4.3-1.12 5.69-1.99 1.39-.88 2.36-2.27 2.93-4.17.56-1.9.29-3.04-.8-3.41s-3.04-.29-5.83.24l-4.55.86c-.24.05-.44.22-.51.46zm4.92-16.74c-.14.47.27.92.75.83l2.92-.55c2.33-.44 4.14-1.04 5.43-1.81 1.29-.76 2.2-2.06 2.74-3.89s.37-2.94-.49-3.33c-.87-.39-2.54-.36-5.01.11l-3.64.69c-.24.05-.44.22-.51.46z"/><path d="m380.39 340.25c-4.99 4.79-10.27 7.7-15.82 8.75s-9.63-.1-12.24-3.45c-2.6-3.35-3.02-8.05-1.24-14.1s5.16-11.47 10.15-16.26 10.27-7.7 15.82-8.75 9.63.1 12.24 3.45c2.6 3.35 3.02 8.05 1.24 14.1-1.77 6.06-5.16 11.47-10.15 16.26zm1.6-14.61c1.08-3.67.92-6.61-.46-8.79-1.39-2.19-3.65-2.98-6.79-2.39-3.13.59-6.16 2.39-9.07 5.39s-4.91 6.34-5.99 10.01-.92 6.6.47 8.77 3.66 2.96 6.79 2.36c3.14-.59 6.16-2.38 9.06-5.36 2.92-2.99 4.91-6.32 5.99-9.99z"/><path d="m424.83 332.04c-4.99 4.79-10.26 7.7-15.82 8.75-5.55 1.05-9.63-.1-12.24-3.45-2.6-3.35-3.02-8.05-1.24-14.1s5.16-11.47 10.15-16.26 10.26-7.71 15.82-8.76c5.55-1.05 9.63.1 12.24 3.45 2.6 3.35 3.02 8.05 1.24 14.1-1.77 6.07-5.16 11.48-10.15 16.27zm1.6-14.61c1.08-3.68.92-6.61-.46-8.79-1.39-2.19-3.65-2.99-6.79-2.39s-6.16 2.39-9.07 5.39-4.91 6.34-5.99 10.01c-1.08 3.68-.92 6.6.47 8.77s3.66 2.96 6.79 2.36 6.16-2.38 9.06-5.36c2.92-2.99 4.91-6.32 5.99-9.99z"/><path d="m460.71 299.4-9.54 32.48c-.07.24-.27.41-.51.46l-6.93 1.31c-.48.09-.89-.36-.75-.83l9.16-31.19c.14-.47-.27-.92-.75-.83l-8.53 1.61c-.48.09-.89-.36-.75-.83l1.92-6.54c.07-.24.27-.41.51-.46l28.21-5.33c.48-.09.89.36.75.83l-1.92 6.54c-.07.24-.27.42-.51.46l-9.85 1.86c-.24.04-.44.22-.51.46z"/><path d="m486.65 294.64c-1.02.88-1.7 1.92-2.06 3.12s-.14 2.06.64 2.58 2.81.93 6.09 1.21c3.28.29 5.63 1.21 7.03 2.76s1.56 4.18.48 7.87c-1.09 3.7-3.23 6.93-6.43 9.71s-6.86 4.55-10.98 5.33c-5.71 1.08-10.23-.17-13.54-3.76-.23-.25-.23-.65 0-.9l6.1-6.71c.25-.28.69-.28.95-.01 2.77 2.75 5.78 3.82 9.03 3.21 1.54-.29 2.86-.88 3.95-1.78 1.09-.89 1.82-1.96 2.18-3.2s.19-2.13-.53-2.68-2.35-.94-4.89-1.16c-4.04-.31-6.8-1.19-8.29-2.64s-1.66-4.12-.51-8.03 3.31-7.17 6.5-9.78c3.18-2.61 6.69-4.27 10.53-5 2.51-.47 4.88-.48 7.11-.01 1.99.42 3.63 1.2 4.93 2.34.26.23.28.64.06.91l-5.41 6.55c-.23.27-.62.31-.91.09-2.36-1.78-5.17-2.37-8.41-1.76-1.39.29-2.6.86-3.62 1.74z"/><path d="m513.06 284.7c.46-1.55 1.24-2.86 2.35-3.92s2.3-1.71 3.57-1.96c1.27-.24 2.2-.01 2.79.7s.68 1.75.28 3.12c-.4 1.38-1.2 2.81-2.37 4.29l-5.61 6.81c-.09.12-.23.19-.37.22l-3.09.58c-.48.09-.88-.38-.72-.84z"/><path d="m434.78 112.88c-5.79 19.71-17.11 34.14-33.96 43.3-1.23.67-1.74 2.16-1.13 3.42l16.56 34.44c.74 1.53-.18 3.35-1.85 3.67l-30.05 5.68c-1.16.22-2.33-.38-2.83-1.45l-14.82-31.89c-.5-1.07-1.66-1.67-2.83-1.45l-16.34 3.09c-.96.18-1.73.88-2 1.81l-11.13 37.9c-.27.93-1.05 1.63-2 1.81l-23 4.35c-1.9.36-3.51-1.42-2.97-3.27l36.04-122.73c.27-.93 1.05-1.63 2-1.81l47.22-8.93c20-3.78 33.28-3.11 39.83 2 6.56 5.11 7.65 15.13 3.26 30.06zm-39.08 21.78c4.49-3.85 7.76-9.24 9.79-16.15s1.58-11.31-1.35-13.18-8.99-1.94-18.2-.2l-19.98 3.78c-.96.18-1.73.88-2 1.81l-9.52 32.42c-.55 1.86 1.06 3.63 2.97 3.27l16.83-3.18c9.81-1.86 16.97-4.71 21.46-8.57z"/><path d="m333.67 219.95-23 4.35c-.58.11-1.18.17-1.77.17-2.95 0-5.78-1.42-7.56-3.79-1.8-2.4-2.35-5.44-1.5-8.32l36.04-122.73c1-3.42 3.81-5.96 7.31-6.62l47.22-8.93c7.28-1.38 13.81-2.19 19.5-2.44 1.94-12.85-.38-21.87-6.99-27.04-8.54-6.67-25.83-7.54-51.89-2.61l-63.54 12.01-3.1 10.57c-.45 1.52.57 3.08 2.14 3.29l36.61 4.82h-41.13-38.16-19.93l14.93 22.98c.38.59.98.99 1.67 1.13l31.77 6.25h-28.65l16.05 24.71c.48.73 1.29 1.17 2.16 1.17h50.77l-48.68 5.32h-.03l.01.02-10.82 36.87c-.45 1.52.57 3.08 2.14 3.29l36.64 4.82h-41.16-38.13-18.97l14.93 22.98c.38.59.98.99 1.67 1.13l31.77 6.25h-28.65l15.5 23.86c.48.74 1.3 1.19 2.18 1.19h50.75l-48.68 5.32h-.03v.01l-19.75 67.89c-.54 1.85 1.07 3.61 2.95 3.24 27.93-5.49 108.6-21.36 157.59-31.15 28.98-23.41 104.38-79.96 140.83-66.4 5.27 1.96 9.46 6.2 12.92 11.75 1.52-24.02-2.67-40.08-12.54-48.2-.61-.5-.99-1.24-.99-2.03l-.04-41.39-47.35 41.59c-.27.24-.59.42-.94.52-8.28 2.47-17.42 5.85-27.48 10.16l-15.34 6.58c.68 2.29.48 4.75-.62 6.93-1.34 2.64-3.77 4.47-6.68 5.02"/></svg>