<svg enable-background="new 0 0 720 420" viewBox="0 0 720 420" xmlns="http://www.w3.org/2000/svg"><path d="m73.08 252.1-.61-1.45c-.7.37-1.42.55-2.16.55-.49 0-.99-.08-1.5-.24l3.43 8.24h1.14c.05-1.12.41-2.08 1.07-2.9-1.01-1.02-1.47-2.42-1.37-4.2z"/><path d="m296.17 234.32h3.82v-2.67l-.92.15c-.97 0-1.83-.25-2.59-.76l-1.14.08c.65.91.93 1.98.83 3.2z"/><path d="m295.33 258.28c-1.37-.71-2.34-1.12-2.9-1.22-.81.51-2.06 1.25-3.74 2.21h9.54c-.76-.05-1.73-.38-2.9-.99z"/><path d="m293.66 248.52c.92-.15 1.7-.23 2.37-.23h1.37c.76 0 1.53.13 2.29.38.87-.3 1.55-.46 2.06-.46v-1.37h-12.36c.56.3 1.07.64 1.53.99.75.1 1.67.33 2.74.69z"/><path d="m101.01 196.94h-.39l-.91 3.13 1.3-1.83z"/><path d="m83.84 228.83c.76-1.32 1.83-3.69 3.2-7.1 1.27-3.1 2.42-5.44 3.43-7.02.31-2.39.84-5.14 1.6-8.24-2.49 5.8-6.1 14.5-10.83 26.09.61-.81 1.48-2.05 2.6-3.73z"/><path d="m237.5 259.27h7.4c-1.17-.87-1.81-2.01-1.91-3.43l-.99.31.76-.23c-.68.42-1.53.64-2.56.64-.21 0-.42-.01-.64-.03l-2.06 2.14z"/><path d="m299.38 197.09h-7.63c.76.25 1.98 1.07 3.66 2.44.86-1.57 2.19-2.39 3.97-2.44z"/><path d="m307.46 196.94v1.53c.71-.71 1.58-1.22 2.6-1.53z"/><path d="m278.85 257.59-.46.15.38-.3-.08-.16c-1.63.36-3.23.54-4.81.54-1.88 0-3.28-.79-4.2-2.37-.81-.56-1.63-1.25-2.44-2.06v5.88h12.76c-.51-.46-.89-1.01-1.15-1.68z"/><path d="m49.2 196.94h-2.75l3.89 9.46c-.05-1.22.05-2.97.31-5.26-.61-1.48-1.1-2.88-1.45-4.2z"/><path d="m271.15 197.09h-3.89v4.27c.86-1.88 2.16-3.3 3.89-4.27z"/><path d="m63.01 196.94h-1.14c1.27 3.05 2.54 6.08 3.82 9.08 1.47 3.46 2.92 6.41 4.35 8.85z"/><path d="m256.8 254.01c-.82.51-1.81 1.41-2.97 2.71-1.17 1.3-2.11 2.15-2.82 2.56h5.8z"/><path d="m162.65 216.01c-1.37.87-2.59 1.96-3.66 3.28.1.51.33 1.3.69 2.36.66-2.08 1.65-3.96 2.97-5.64z"/><path d="m102.99 214.87c-1.32 4.17-3.43 10.4-6.33 18.69l8.93-20.98z"/><path d="m133.66 199.38v-2.29h-2.29c.87.56 1.63 1.32 2.29 2.29z"/><path d="m161.36 253.55c-6-2.03-9.61-5.77-10.83-11.22-3.41-4.17-5.93-8.29-7.55-12.36.35 7.27 2.67 13.49 6.94 18.65s9.94 8.69 17.01 10.57c-1.28-1.01-3.13-2.89-5.57-5.64z"/><path d="m133.66 217.92c-.97 1.27-1.81 2.34-2.52 3.2l2.52 1.22z"/><path d="m120 238.75c1.17-.76 1.75-1.37 1.75-1.83 0-.51-.58-1.18-1.75-2.02s-1.83-1.46-1.98-1.87v7.55c.15-.46.81-1.07 1.98-1.83z"/><path d="m133.66 245.54c-.36 1.02-.82 3.36-1.37 7.02-.51 2.9-1.25 5.14-2.21 6.72h3.59z"/><path d="m177.53 210.9c-4.78 0-8.8 1.63-12.06 4.88s-4.88 7.27-4.88 12.05c0 5.19 1.53 9.35 4.58 12.48s7.17 4.69 12.36 4.69c4.93 0 8.95-1.58 12.06-4.73 3.1-3.15 4.66-7.22 4.66-12.21 0-4.58-1.64-8.59-4.92-12.02-3.29-3.42-7.22-5.14-11.8-5.14zm9.42 26.78c-2.4 2.44-5.48 3.62-9.41 3.62-4.19 0-7.36-1.17-9.71-3.57-2.37-2.43-3.53-5.67-3.53-9.89 0-3.79 1.24-6.88 3.8-9.44 2.56-2.55 5.64-3.8 9.44-3.8 3.56 0 6.54 1.31 9.11 4.01 2.62 2.74 3.89 5.84 3.89 9.46 0 4.01-1.18 7.15-3.59 9.61z"/><path d="m233.15 197.78c1.47 1.78 2.21 4.15 2.21 7.1 0 1.02-.1 2.34-.3 3.97.56 0 1.09.1 1.6.3v-12.06h-5.26z"/><path d="m208.89 221.43c.1 1.78 1.04 4.91 2.82 9.38.05-.91.08-1.83.08-2.75 0-6.66-1.7-12.59-5.11-17.78 1.07 2.09 1.7 3.92 1.91 5.49.04.37.15 2.25.3 5.66z"/><path d="m222.55 208.46c-.26-.15-.64-.36-1.14-.61l-.39-.15v11.22c.92-3.71 2.16-7.17 3.74-10.38h-.46c-.41-.01-.99-.03-1.75-.08z"/><path d="m120.77 197.09h-2.75v2.59c.56-1.27 1.47-2.13 2.75-2.59z"/><path d="m221.02 257.98v1.3h1.3c-.56-.36-.99-.8-1.3-1.3z"/><path d="m307.46 208.61v.91h9.23l-.08-.15c-3.6-.2-6.65-.45-9.15-.76z"/><path d="m608.15 252.56h-.38l-.68.76 1.67.08-.07-1.15z"/><path d="m590 242.33c1.52.87 3.84 2.04 6.94 3.51l.99-.38c-2.24-.86-4.73-2.21-7.48-4.04z"/><path d="m583.96 253.63c1.32.86 2.62 1.63 3.89 2.29.25-1.27.87-2.26 1.83-2.98l-4.35-1.98z"/><path d="m594.57 225.85c-.46.51-1.22 1.17-2.29 1.98 1.99 1.58 5.67 3.41 11.07 5.49l.76-.76c-4.68-.6-7.86-2.84-9.54-6.71z"/><path d="m606.78 218.99c.81 1.48 1.68 2.75 2.59 3.81l5.42-.08c-1.83-.71-4.5-1.95-8.01-3.73z"/><path d="m626.16 202.28.61-1.07c-5.04-3.25-10.99-5.09-17.85-5.49 1.02.51 4.02 1.4 9 2.67 3.86 1.01 6.61 2.31 8.24 3.89z"/><path d="m610.75 243.25c-.3.66-.74 1.25-1.3 1.75.97 1.02 1.4 2.26 1.3 3.74 1.52-1.12 2.52-1.91 2.98-2.37.3-.36 1.01-1.37 2.14-3.05-.69.02-1.35.02-1.96.02-1.23.01-2.28-.02-3.16-.09z"/><path d="m610.82 207.08c-.51.21-.97.51-1.37.92 4.07.1 7.83 1.5 11.29 4.2l.38-.69c-.92-.15-1.73-.56-2.44-1.22-2.29-.81-4.91-1.88-7.86-3.21z"/><path d="m586.56 218.15c.24 1.43.39 2.15.45 2.15 0 0 .01 0 .01-.01l.3.76 2.75-2.9-1.22-.3c-.31.2-1.07.3-2.29.3z"/><path d="m600.98 202.74c-1.63-.66-3.16-1.25-4.58-1.76l1.83 5.04c.87-1.22 1.78-2.32 2.75-3.28z"/><path d="m667.97 258.28c-1.37-.71-2.34-1.12-2.9-1.22-.82.51-2.06 1.25-3.74 2.21h9.53c-.76-.05-1.72-.38-2.89-.99z"/><path d="m323.26 254.77.08-.69.3-3.97c-.81-2.8-1.27-5.8-1.37-9l-1.07-.61v18.69l6.87-.08c-1.22-.15-2.29-.61-3.2-1.37-1.08-.81-1.61-1.8-1.61-2.97z"/><path d="m651.49 257.59-.46.15.38-.3-.07-.16c-1.63.36-3.23.54-4.81.54-1.88 0-3.28-.79-4.19-2.37-.82-.56-1.63-1.25-2.44-2.06v5.88h12.74c-.52-.46-.9-1.01-1.15-1.68z"/><path d="m624.86 247.45c.61.26 1.4.74 2.37 1.45.61-1.37 1.09-2.82 1.45-4.35l-.84-.23c-1.02.71-2.03 1.75-3.05 3.13z"/><path d="m679.99 195.14-.01-.15c-.1-1.97-1.73-3.51-3.7-3.51h-38.3c-2.05 0-3.7 1.66-3.7 3.7v39.66c-.98-4.64-3.52-8.6-7.57-11.82-2.39-1.86-6.72-4.14-13.26-6.98-2.56-1.15-3.72-1.99-4.21-2.44 2.91.03 5.6 1.05 8.26 3.14l1.41 1.18c.67.56 1.52.87 2.38.87.23 0 .46-.02.68-.06 1.09-.2 2.03-.88 2.57-1.86l7.01-12.74.92-1.69c.88-1.62.44-3.64-1.03-4.74l-1.53-1.14c-.07-.05-.14-.1-.21-.15-6.13-3.95-13.35-6.09-21.48-6.36 2.69-.52 5.29-1.07 7.76-1.66 19.69-4.73 30.08-11.29 30.88-19.49 1.09-11.23-21.22-17.84-55.37-26.64-5.15-1.33-10.02-2.58-14.06-3.72-30.94-8.74-58.63-13.17-82.31-13.17-19.91 0-36.72 3.07-49.98 9.13-7.55 3.45-12.11 7.07-14.49 9.33-3.45-1.12-8.71-2.59-12.35-2.59-1.47 0-2.65.24-3.62.72-3.23 1.62-5.53 6.02-7.72 14.97-30.12 2.36-39.23 7.27-46.59 11.24-3.49 1.88-6.24 3.37-10.94 4.2-7.85 1.39-16.07 2.1-24.44 2.1-29.85 0-56.99-8.81-76.82-15.24-10.89-3.53-19.49-6.32-25.67-6.75l-4.06-.29c-8.85-.63-15.25-1.08-21.22-1.08-15.44 0-26.9 3.04-62.73 13.48-.74-.74-1.52-1.18-2.19-1.43-.1-.04-.2-.07-.3-.1-.44-1.17-.92-2.26-1.37-3.3-.68-1.54-1.31-3-1.77-4.56-.39-1.33-1.49-2.33-2.85-2.6-.23-.05-.47-.07-.7-.07-1.12 0-2.2.51-2.91 1.42-1.56 1.98-1.84 4.2-1.7 6.24-.6-.38-1.29-.58-1.99-.58-.45 0-.9.08-1.33.25-1.51.58-2.46 2.08-2.36 3.69.1 1.51.56 2.87 1.01 4.08-.05 0-.09 0-.14 0h-.01c-1.09 0-2.12.48-2.82 1.3-.7.83-1.01 1.93-.83 3l.08.49c.05.29.13.76.21 1.29-.33 0-.68.03-1.02.09-.99.17-1.88.73-2.45 1.57-.57.83-.77 1.86-.56 2.85l.02.09c.89 4.21 1.97 9.32 4.86 13.02h-18.56c-1.53 0-2.9.94-3.45 2.36l-.73 1.86-11.43 27.35-10.68-27.31c-.03-.09-.07-.17-.11-.25l-.88-1.83c-.61-1.28-1.9-2.09-3.32-2.1l-20.49-.11h-.02c-1.2 0-2.32.58-3.02 1.55-.7.98-.88 2.24-.48 3.38l.69 1.94c.02.06.05.12.07.18l25.79 62.26c.01.02.02.05.03.07l.84 1.91c.57 1.3 1.83 2.15 3.25 2.21l.79.03h.14.09l1.22-.03h11.68l.4.01h.08.11l.82-.03.58.02h.1.13c1.55 0 2.94-.97 3.47-2.42l.67-1.82 21.24-49.51v50.13c0 2.04 1.66 3.7 3.7 3.7h19.46c2.05 0 3.7-1.66 3.7-3.7v-20.17c1.92 5.76 5.24 10.78 9.92 14.99 7.54 6.76 17.13 10.18 28.5 10.18 11.34 0 20.88-3.5 28.34-10.41 4.4-4.07 7.53-8.93 9.38-14.54v19.95c0 2.04 1.66 3.7 3.7 3.7h39.6c1.45 0 2.71-.84 3.32-2.06.6 1.22 1.86 2.06 3.32 2.06h38.3c2.05 0 3.7-1.66 3.7-3.7v-16.25c0-2.05-1.66-3.7-3.7-3.7h-16.67v-1.29h14.91c2.05 0 3.7-1.66 3.7-3.7v-15.64c0-2.05-1.66-3.7-3.7-3.7h-14.91v-1.6h16.63c.44 0 .86-.08 1.25-.22.22.04.45.06.69.06h10.03v45.97c0 2.04 1.66 3.7 3.7 3.7h19.38c2.05 0 3.7-1.66 3.7-3.7v-45.97h6.77c-3.95 16.02-1.77 33.54 7.47 48.71 5.83 9.57 14.07 17.46 23.84 22.83 9.47 5.2 20.19 7.96 31 7.96 11.73 0 23.25-3.24 33.31-9.37 11.88-7.24 20.58-17.75 25.63-29.67v5.59c0 2.04 1.66 3.7 3.7 3.7h1.94 13.98c.24.05.49.07.75.07h1.91c2.05 0 3.7-1.66 3.7-3.7v-22.08h14.46c2.05 0 3.7-1.66 3.7-3.7v-16.02c0-2.04-1.66-3.7-3.7-3.7h-14.46v-.45h15.6c1.78 0 3.26-1.25 3.62-2.92v25.16c0 9.48 3.29 16.93 9.79 22.12 5.72 4.63 13.38 6.99 22.76 6.99 10.48 0 18.68-3.06 24.37-9.1 5.48-5.83 8.26-14.07 8.26-24.51v-16.25c.48 6.2 3.08 11.28 7.75 15.12 2.46 2 6.72 4.2 13.02 6.75 2.39.98 3.49 1.73 3.98 2.14-.02.01-.04.03-.06.04-.45.3-1.05.44-1.83.44-.91 0-3.72-.45-10.19-4.66l-1.57-1.05c-.61-.41-1.33-.62-2.05-.62-.3 0-.6.03-.89.11-1.01.25-1.86.91-2.36 1.82l-.91 1.68-7.34 13.77c-.84 1.57-.44 3.51.95 4.63l1.52 1.22c.09.08.19.15.3.22 7.9 5.16 16.9 7.77 26.74 7.77 7.84 0 14.36-2.5 19.38-7.43 3.8-3.73 6.18-8.34 7.13-13.75v16.18c0 2.04 1.66 3.7 3.7 3.7h38.3c2.05 0 3.7-1.66 3.7-3.7v-16.25c0-2.05-1.66-3.7-3.7-3.7h-16.67v-1.29h14.91c1.17 0 2.27-.55 2.97-1.49.63-.84.87-1.9.67-2.92v-.49c.04-.23.07-.47.07-.71v-11.83c0-.24-.02-.48-.07-.71v-.49c.18-.93 0-1.91-.53-2.72-.68-1.05-1.85-1.69-3.11-1.69h-14.91v-1.6h15.68c.26 0 .51-.03.76-.08h.23c2.05 0 3.7-1.66 3.7-3.7v-14.02c.01-.08.01-.16.01-.25v-1.91c-.02-.06-.02-.13-.03-.19zm-565.56 1.8-26.7 62.26-.71 1.91h-.13l-.69-.02-.93.03-.45-.01h-11.74l-1.27.03-.79-.03-.84-1.91-25.79-62.26-.69-1.94 20.49.11.88 1.83 13.43 34.34c.2.51.41 1.14.61 1.91.2-.76.41-1.4.61-1.91l14.35-34.34.74-1.91h20.39zm21.14 64.24h-19.46v-66h19.46zm-9.65-71.67c.13-.08.25-.17.36-.27.52-.44.9-1.02 1.11-1.64.02 0 .04.01.06.01-.19.39-.41.79-.65 1.23-.19.35-.4.72-.6 1.12-.09-.16-.18-.31-.28-.45zm77.59 63.54c-6.79 6.28-15.4 9.42-25.83 9.42-10.48 0-19.15-3.08-26.02-9.23-7.12-6.41-10.68-14.8-10.68-25.18 0-10.17 3.61-18.49 10.84-24.95 6.92-6.26 15.54-9.39 25.87-9.39 10.12 0 18.62 3.18 25.48 9.54 7.02 6.51 10.53 14.78 10.53 24.8 0 10.38-3.4 18.71-10.19 24.99zm55.2 8.13h-39.6v-64.09l-.04-1.91h19.49v49.44h20.14zm44.94-64.09-.04 14.5h-20.34v9h18.62v15.64h-18.62v8.7h20.37v16.25h-38.3v-66h38.3v1.91zm.89-5.5c-.29-.07-.58-.11-.89-.11h-38.3c-2.04 0-3.7 1.66-3.7 3.7v47.18c-.68-.88-1.74-1.44-2.93-1.44h-16.44v-45.74c0-2.05-1.66-3.7-3.7-3.7h-19.49c-.99 0-1.95.4-2.64 1.11-.7.71-1.08 1.67-1.06 2.66l.04 1.86v18.25c-1.9-5.61-5.15-10.57-9.72-14.81-7.55-6.99-16.97-10.53-28-10.53-11.23 0-20.76 3.48-28.35 10.34-4.76 4.25-8.12 9.28-10.06 15.01v-20.2c0-1.04-.43-1.98-1.11-2.65.34-.33.67-.69.99-1.06 2.89-3.44 4.16-8.38 3.5-13.55-.09-.74-.4-1.41-.86-1.94 0-.03.01-.06.01-.09 12.45-4.7 30.87-11.15 59.41-11.15 7.52 0 15.44.46 23.53 1.36 4.24.47 11.25 2.69 20.13 5.5 19.96 6.32 50.12 15.86 82.85 15.86 9.25 0 18.3-.77 26.87-2.29 6.05-1.07 9.15-3.15 12.44-5.35 3.38-2.27 7.27-4.87 16.36-7.02-1.85.87-3.63 1.84-5.35 2.89-9.31 5.67-16.66 13.35-21.84 22.14v-2.7c0-2.04-1.66-3.7-3.7-3.7h-46.92c-.41.02-.75.07-1.07.17zm34.13 19.84v49.67h-19.38v-49.67h-13.73v-16.29h46.92v16.29zm131.19 34.38c-6.98 9.77-46.4 60.06-98.19 30.24-4.55-3.97-8.59-8.7-11.9-14.13-17.36-28.51-8.33-65.7 20.18-83.06 8.7-5.3 18.26-7.63 27.72-8.72.25-.03.63-1.83 1.16-4.45-46.43 3.22-39.48 13.11-54.89 15.84-8.85 1.57-17.63 2.24-26.23 2.24-46.71 0-87.82-19.7-102.57-21.34-8.67-.97-16.63-1.38-23.94-1.38-31.13 0-50.53 7.52-63.13 12.31.47 2.38-.85 5.94-.98 7.87.58-1 1.78-1.37 1.89-2.83.9 7.03-2.54 13.81-9.9 14.15 1.05-2.41 2.7-4.21 2.83-7.55-.05-.11-.08-.19-.09-.25-.81-.57-2.2-1-2.26-2.11-.63.31-.75 1.34-1.25 1.34-.16 0-.37-.11-.64-.4.67-3.06.87-7.13-1.42-8.49-1.53 1.93 1.1 4.93 0 6.6-.2.05-.36.08-.5.08-1.28 0-.45-2.1-1.39-2.44-1.5 1.35-.93 5.03-.47 7.07-1.8-.72-2.64-2.39-2.83-4.72-1.1.73.25 3.91-1.59 3.91-.21 0-.47-.04-.77-.14 1.06 2.87 3.41 4.45 4.72 7.07-8.28-.52-9.79-7.82-11.32-15.09.18-.03.34-.04.48-.04 1.58 0 1.57 1.6 2.82 1.93 1.75-1.33.82-5.91.47-8.02 1.73.01 2.53.93 3.3 1.89 3.32-2.85-.25-6.44-.47-9.91 1.6 2.01 4.71 2.52 5.66 5.19 2.55-2.96-1.79-8.78.94-12.26 1.37 4.68 3.97 8.12 4.58 13.56.34-.1.68-.2 1.02-.3.03-1.27-.18-2.61.06-2.88.91.35 1.52 1.21 1.9 2.31 37.96-11.08 49.27-14.11 64.36-14.11 6.7 0 14.16.6 25.02 1.36 16.55 1.16 56.23 22 102.74 22 8.18 0 16.58-.65 25.09-2.16 15.73-2.79 12.43-12.27 59.88-15.6 1.41-6.33 3.46-13.68 6.38-15.15.45-.23 1.12-.33 1.97-.33 3.02 0 8.25 1.34 13.39 3.14 1.59-1.89 17.23-19.02 63.43-19.01 20.56 0 47.18 3.39 81.3 13.03 22.41 6.33 67.81 15.53 66.75 26.45-1.36 14.08-47.45 21.94-77.98 21.94-9.6 0-17.67-.78-22.31-2.39-34.62-11.99-37.6-23.38-98.69-23.43l-3.09 13.08c-.1.19-.15.43-.15.73 0 5.97-24.09 2.61-24.09 2.61s33.9 16.46 37.87 16.26c1.6-.09 3.26.4 4.2-2.43.17-.51.17-1.1.03-1.75 1.45 1.85 2.81 3.81 4.06 5.87 8.88 14.62 10.85 31.49 6.84 46.8zm42.08-34.22h-19.3v7.86h18.16v16.02h-18.16v25.79h-1.91v-.07h-14.73-1.91v-64.09h-.07v-1.91h37.92zm3.65-17.04c-.3-1.75-1.82-3.08-3.65-3.08h-37.92c-2.04 0-3.7 1.66-3.7 3.7v1.91c0 .25.03.5.07.74v7.48c-1.19-2.79-2.6-5.52-4.22-8.19-5.22-8.58-12.4-15.82-20.86-21.09l1.8-7.64c41.62.29 54.24 5.99 71.55 13.81 6.37 2.88 13.59 6.14 23 9.4 3.39 1.17 7.94 1.84 12.56 2.2-.14.38-.21.8-.21 1.23v39.45c0 5.88-2.26 7.05-5.91 7.05-3.1 0-4.26-.71-4.68-1.14-.43-.44-1.15-1.64-1.15-4.77v-40.59c0-2.05-1.66-3.7-3.7-3.7h-19.31c-1.88.01-3.43 1.41-3.67 3.23zm61.43 38.48c0 9.51-2.42 16.84-7.25 21.97-4.99 5.29-12.21 7.93-21.67 7.93-8.55 0-15.36-2.06-20.45-6.18-5.6-4.48-8.4-10.89-8.4-19.23v-42.5h19.31v40.59c0 3.41.74 5.86 2.21 7.36s3.91 2.25 7.32 2.25c6.41 0 9.61-3.58 9.61-10.76v-39.45h19.3v38.02zm3.43-39.41c5.24-.37 10.55-.92 15.72-1.61-2.8 1.17-5.39 2.84-7.77 5.03-4.62 4.25-7.19 9.45-7.68 15.5v-17.5c.01-.51-.09-.98-.27-1.42zm44.11 62.49c-4.32 4.25-9.92 6.37-16.79 6.37-9.15 0-17.39-2.39-24.72-7.17l-1.52-1.22 7.32-13.73.92-1.68 1.6 1.07c5.39 3.51 9.46 5.27 12.21 5.27 1.52 0 2.82-.36 3.89-1.07 1.27-.81 1.91-1.96 1.91-3.43 0-1.73-2.16-3.48-6.48-5.26-5.9-2.39-9.92-4.45-12.06-6.18-4.32-3.56-6.48-8.37-6.48-14.42 0-5.9 2.19-10.86 6.56-14.88s9.54-6.03 15.49-6.03c8.19 0 15.29 1.94 21.29 5.8l1.53 1.14-.92 1.68-7.01 12.74-1.46-1.22c-3.36-2.64-6.92-3.97-10.68-3.97-1.07 0-1.97.41-2.7 1.22-.74.81-1.11 1.73-1.11 2.75 0 1.73 2.21 3.59 6.64 5.57 6.21 2.7 10.35 4.86 12.44 6.49 4.42 3.51 6.64 8.01 6.64 13.5-.03 6.85-2.19 12.41-6.51 16.66zm51.73-58.87-.01-.15v14.42h-.99v.08h-19.38v9h18.61l-.07.15v1.91l.07-.15v11.83l-.07-.23v1.9l.07.23h-18.61v8.7h20.37v16.25h-38.3v-66h38.3l.01.15z"/><path d="m668.81 234.32h3.81v-2.67l-.91.15c-.97 0-1.83-.25-2.6-.76l-1.14.08c.66.91.94 1.98.84 3.2z"/><path d="m666.29 248.52c.91-.15 1.7-.23 2.37-.23h1.37c.76 0 1.53.13 2.29.38.86-.3 1.55-.46 2.06-.46v-1.37h-12.36c.56.3 1.06.64 1.52.99.77.1 1.69.33 2.75.69z"/><path d="m643.78 197.09h-3.89v4.27c.87-1.88 2.16-3.3 3.89-4.27z"/><path d="m563.97 201.51h.16l-.31-2.14c-.81-.61-1.37-1.42-1.68-2.44h-2.52v7.17c1-1.72 2.44-2.59 4.35-2.59z"/><path d="m668.05 199.53c.87-1.58 2.19-2.39 3.97-2.44h-7.63c.76.25 1.98 1.07 3.66 2.44z"/><path d="m510.03 197.78v-.69h-7.63c.41.46.94 1.22 1.6 2.29 2.55-.87 4.56-1.4 6.03-1.6z"/><path d="m348.51 197.78-.15.99c1.07 1.07 1.6 2.26 1.6 3.58 0 .61-.1 1.22-.3 1.83.1.41.15.81.15 1.22 0 1.32-.58 2.55-1.75 3.66l-3.66.15.07.31h6.1v-12.59h-2.82z"/><path d="m446.31 155.65-.85 3.61h.5c56.02 0 61.24 9.9 94.82 21.52 5.54 1.92 15.65 2.84 27.31 2.84 29.18 0 68.01-5.75 68.8-15.97.3-3.88-43.3-13.5-65.66-20-34.47-10.02-60.35-13.46-79.65-13.46-42.19 0-52.88 16.44-52.88 16.44l.01.31c4.9 2.02 6.5 3.11 7.6 4.71zm45.27-17.75c21.78 0 48.23 4.48 78.61 13.31 6.71 1.95 15.11 4.13 24.01 6.43 13.04 3.38 31.99 8.28 38.09 11.02-1.92 1.75-7.3 4.63-19.88 7.17-12.66 2.55-29.23 4.08-44.32 4.08-11.76 0-21.27-.96-26.1-2.63-8.15-2.82-14.48-5.49-20.6-8.06-18.24-7.68-31.58-13.3-71.38-13.65-.02-.72-.24-1.42-.65-2.02-.81-1.18-2.36-2.43-4.63-3.76 5.31-4.3 18.67-11.89 46.85-11.89z"/><path d="m508.89 232.72c-.24.04-.49.06-.74.06-.38 0-.77-.04-1.17-.14l-.69.92h2.59v-.84z"/><path d="m132.84 176.51c.03 0 .07.01.11.01.77 0 1.89-.95 2.69-2.25-.87.33-1.7.63-2.51.91-.08.48-.17.92-.29 1.33z"/><path d="m315.17 197.55 2.67-.08c.26-.01.54-.01.85-.01 1.24 0 2.84.08 4.8.24 2.64.26 4.55.38 5.72.38l.46.54c1.78-.36 4.45-.76 8.01-1.22l.38-.46h-24.34c.51.15.99.35 1.45.61z"/><path d="m333.56 259.19h3.2v-3.2c-.4 1.27-1.47 2.34-3.2 3.2z"/><path d="m336.76 246.99v-5.11l-.68.45z"/><path d="m483.18 197.93c.51 0 .99.05 1.45.15.15-.26.56-.51 1.22-.76l-.38.23 1.07-.46h-10.54v4.5c1.38-2.44 3.77-3.66 7.18-3.66z"/><path d="m536.51 258.2c-.92.3-1.45.48-1.6.53 2.54 1.02 5.37 1.68 8.47 1.99-1.98-1.93-3.71-2.9-5.19-2.9-.46 0-1.02.13-1.68.38z"/><path d="m510.03 207.46-9.38 2.22h9.38z"/><path d="m527.81 251.49c0-.46.05-.96.15-1.53-2.55-.41-4.12-2.49-4.73-6.26-.31-2.95-.61-5.9-.92-8.85-.25-.71-.64-1.78-1.14-3.2v5.88c0 8.75 3.23 15.16 9.69 19.23-.71-.86-1.4-1.73-2.06-2.6-.66-.86-.99-1.75-.99-2.67z"/><path d="m574.12 223.26.99 3.51v-29.83h-1.99c.96 6.41 1.45 12.28 1.45 17.63.01 3.04-.14 5.94-.45 8.69z"/><path d="m536.66 201.52v-4.58h-3.51c.81 1.99 1.3 4.43 1.45 7.33.36-1.18 1.05-2.09 2.06-2.75z"/><path d="m574.58 240.2c-1.83 2.95-4.07 5.52-6.71 7.71l4.12.69c1.22-2.45 2.09-5.25 2.59-8.4z"/><path d="m480.43 255.99c-1.06-.46-1.83-.97-2.29-1.52l.15.23c-1.42-1.88-2.14-3.51-2.14-4.89 0-.51.05-1.12.15-1.83l-.3-.08v11.37h4.88c-.4-.81-.55-1.91-.45-3.28z"/><path d="m521.55 203.5 1.53-2.67c.35-.31.78-.56 1.3-.76-1.48-.92-2.37-1.96-2.67-3.13h-.53v7.33l.31-.54z"/></svg>