<svg enable-background="new 0 0 2466.14 1162.2" viewBox="0 0 2466.14 1162.2" xmlns="http://www.w3.org/2000/svg" xmlns:xlink="http://www.w3.org/1999/xlink"><pattern id="a" height="6.22" overflow="visible" patternUnits="userSpaceOnUse" viewBox="0 -6.22 6.22 6.22" width="6.22" x="-97.95" y="-167.6"><path d="m0-6.22h6.22v6.22h-6.22z" fill="none"/><path d="m6.22-.75v-4.81l-5.56 5.56h4.81z" fill="none"/><path d="m.66-6.22-.66.66v4.81l5.47-5.47z" fill="none"/><path d="m0-6.22v.66l.66-.66z" fill="#d5d5d5"/><path d="m6.22-6.22h-.75l-5.47 5.47v.75h.66l5.56-5.56z" fill="#d5d5d5"/><path d="m6.22 0v-.75l-.75.75z" fill="#d5d5d5"/></pattern><pattern id="b" height="6.22" overflow="visible" patternUnits="userSpaceOnUse" viewBox="0 -6.22 6.22 6.22" width="6.22" x="-97.95" y="-167.6"><path d="m0-6.22h6.22v6.22h-6.22z" fill="none"/><path d="m6.22-.75v-4.81l-5.56 5.56h4.81z" fill="none"/><path d="m.66-6.22-.66.66v4.81l5.47-5.47z" fill="none"/><path d="m0-6.22v.66l.66-.66z" fill="#00b432" opacity=".5"/><path d="m6.22-6.22h-.75l-5.47 5.47v.75h.66l5.56-5.56z" fill="#00b432" opacity=".5"/><path d="m6.22 0v-.75l-.75.75z" fill="#00b432" opacity=".5"/></pattern><pattern id="c" patternTransform="translate(-.5981)" xlink:href="#a"/><pattern id="d" patternTransform="translate(8.7595)" xlink:href="#a"/><pattern id="e" patternTransform="translate(7.0742)" xlink:href="#a"/><pattern id="f" patternTransform="translate(6.647)" xlink:href="#a"/><pattern id="g" patternTransform="translate(0 .3342)" xlink:href="#a"/><pattern id="h" patternTransform="translate(0 1.0564)" xlink:href="#a"/><pattern id="i" patternTransform="translate(0 1.5569)" xlink:href="#a"/><path d="m778.87 161.44h1458.59v836.63h-1458.59z" fill="#fff"/><path d="m778.55 242.9h1459" fill="none" stroke="#d5d5d5" stroke-miterlimit="10"/><path d="m1088.63 356.31v8.46h-2.86v-20.69h7.53c.95 0 1.82.16 2.61.47s1.46.74 2.01 1.3c.55.55.99 1.2 1.3 1.94s.47 1.55.47 2.42c0 .88-.16 1.69-.47 2.44s-.74 1.39-1.3 1.93c-.55.54-1.22.96-2.01 1.27s-1.66.47-2.61.47h-4.67zm4.14-2.57c1.25 0 2.22-.32 2.93-.95s1.06-1.48 1.06-2.55c0-1.11-.35-1.98-1.06-2.63-.71-.64-1.69-.96-2.93-.96h-4.14v7.09z" fill="#4b4b4b"/><path d="m1110.28 353.51c-.41-.06-.81-.09-1.2-.09-1.15 0-2.08.34-2.79 1.01s-1.06 1.78-1.06 3.31v7.03h-2.74v-14.03h2.68v2.45c.25-.54.55-.99.89-1.33s.7-.61 1.07-.82c.37-.2.75-.35 1.14-.42.39-.08.76-.12 1.11-.12.19 0 .37.01.54.03s.29.04.36.06z" fill="#4b4b4b"/><path d="m1118.77 350.3c1.05 0 2.01.19 2.89.57s1.63.9 2.28 1.56c.64.66 1.14 1.44 1.49 2.35.35.9.52 1.89.52 2.96s-.17 2.06-.52 2.98c-.35.91-.85 1.7-1.49 2.36s-1.4 1.18-2.28 1.56-1.84.57-2.89.57-2.01-.19-2.89-.57-1.63-.9-2.28-1.56c-.64-.66-1.14-1.45-1.49-2.36s-.52-1.91-.52-2.98.17-2.06.52-2.96.85-1.69 1.49-2.35 1.4-1.18 2.28-1.56 1.84-.57 2.89-.57zm0 12.46c.58 0 1.14-.11 1.66-.32.53-.21.99-.53 1.4-.96s.73-.95.96-1.58.35-1.34.35-2.16-.12-1.53-.35-2.14-.55-1.13-.96-1.56-.88-.75-1.4-.96c-.53-.21-1.08-.32-1.66-.32s-1.14.11-1.66.32c-.53.21-.99.54-1.4.96s-.73.95-.96 1.56-.35 1.33-.35 2.14.12 1.54.35 2.16.55 1.15.96 1.58.88.75 1.4.96 1.07.32 1.66.32z" fill="#4b4b4b"/><path d="m1130.91 365.12c.04.43.16.84.35 1.23s.45.73.77 1.04c.32.3.71.54 1.17.71s.97.26 1.53.26c1.32 0 2.36-.37 3.11-1.12s1.12-1.91 1.12-3.49v-1.96c-.33.64-.87 1.19-1.6 1.63-.74.45-1.63.67-2.68.67-.93 0-1.79-.17-2.58-.51s-1.47-.81-2.04-1.4-1.02-1.31-1.34-2.14c-.32-.84-.48-1.75-.48-2.74 0-.95.16-1.84.47-2.67s.75-1.55 1.31-2.16 1.24-1.1 2.03-1.46 1.67-.54 2.64-.54c1.09 0 1.99.19 2.71.58s1.25.93 1.61 1.63v-1.95h2.71v12.92c0 .9-.12 1.77-.36 2.61-.24.85-.64 1.6-1.18 2.26s-1.26 1.2-2.14 1.6c-.89.41-1.97.61-3.25.61-.93 0-1.79-.13-2.55-.39-.77-.26-1.43-.62-1.98-1.06s-1-.98-1.34-1.59-.55-1.26-.63-1.94zm4.17-3.33c1.19 0 2.15-.41 2.89-1.23s1.11-1.91 1.11-3.27-.37-2.45-1.11-3.27-1.7-1.23-2.89-1.23c-1.22 0-2.21.41-2.95 1.23s-1.11 1.91-1.11 3.27c0 1.38.36 2.48 1.09 3.28s1.72 1.22 2.97 1.22z" fill="#4b4b4b"/><path d="m1153.63 353.51c-.41-.06-.81-.09-1.2-.09-1.15 0-2.08.34-2.79 1.01s-1.06 1.78-1.06 3.31v7.03h-2.74v-14.03h2.68v2.45c.25-.54.55-.99.89-1.33s.7-.61 1.07-.82c.37-.2.75-.35 1.14-.42.39-.08.76-.12 1.11-.12.19 0 .37.01.54.03s.29.04.36.06z" fill="#4b4b4b"/><path d="m1155.21 361.01c0-.62.11-1.18.32-1.68s.51-.92.89-1.27.83-.63 1.36-.85c.52-.21 1.09-.37 1.69-.47l3.79-.55c.43-.06.71-.18.86-.38.15-.19.22-.42.22-.67 0-.68-.24-1.27-.71-1.77-.48-.5-1.25-.74-2.32-.74-.97 0-1.72.27-2.25.8s-.84 1.21-.93 2.03l-2.63-.61c.08-.66.28-1.27.6-1.84.32-.56.73-1.05 1.24-1.44s1.09-.71 1.77-.93c.67-.22 1.39-.34 2.14-.34 1.05 0 1.94.14 2.68.42s1.34.66 1.81 1.12.81 1.01 1.02 1.63.32 1.27.32 1.96v7.03c0 .62.02 1.12.06 1.49s.08.64.12.82h-2.68c-.04-.18-.07-.41-.1-.7s-.04-.69-.04-1.2c-.16.25-.36.52-.61.79s-.56.53-.93.76-.8.42-1.3.57-1.05.22-1.68.22c-.72 0-1.37-.12-1.94-.35s-1.07-.54-1.47-.92-.72-.82-.95-1.33c-.24-.5-.35-1.04-.35-1.6zm5.07 1.89c.56 0 1.09-.07 1.59-.22s.92-.38 1.28-.7.65-.75.86-1.28.32-1.18.32-1.94v-.64l-4.29.64c-.58.1-1.07.32-1.46.66s-.58.82-.58 1.44c0 .53.2 1 .61 1.42.42.41.97.62 1.67.62z" fill="#4b4b4b"/><path d="m1171.11 364.77v-14.03h2.62v1.87c.45-.78 1.07-1.35 1.85-1.72.79-.37 1.59-.55 2.41-.55.88 0 1.7.21 2.47.64s1.35 1.1 1.74 2.01c.56-1.01 1.26-1.71 2.1-2.09s1.7-.57 2.6-.57c.6 0 1.2.11 1.78.32s1.1.54 1.56.98.82.99 1.09 1.66.41 1.46.41 2.38v9.1h-2.71v-8.81c0-.91-.24-1.68-.71-2.29-.48-.61-1.23-.92-2.26-.92-.97 0-1.76.34-2.35 1.01s-.89 1.51-.89 2.52v8.49h-2.74v-8.81c0-.91-.23-1.68-.7-2.29s-1.22-.92-2.28-.92c-.99 0-1.78.33-2.38.99-.59.66-.89 1.52-.89 2.57v8.46z" fill="#4b4b4b"/><path d="m1197.1 360.25c.1.74.42 1.36.96 1.87s1.31.76 2.3.76c.78 0 1.37-.18 1.78-.55s.61-.81.61-1.31c0-.45-.16-.83-.47-1.14s-.76-.53-1.34-.67l-2.39-.53c-1.11-.23-1.97-.7-2.58-1.4s-.92-1.55-.92-2.54c0-.6.13-1.17.39-1.71.26-.53.62-1.01 1.06-1.42.45-.41.98-.73 1.59-.96s1.26-.35 1.94-.35c.95 0 1.75.14 2.41.41.65.27 1.18.61 1.59 1.01s.71.81.92 1.24.35.8.42 1.11l-2.42.9c-.04-.18-.11-.4-.2-.67-.1-.27-.25-.53-.47-.77-.21-.24-.51-.45-.88-.63-.37-.17-.83-.26-1.37-.26-.7 0-1.26.19-1.69.57s-.64.81-.64 1.3c0 .89.54 1.46 1.6 1.69l2.28.5c1.28.27 2.25.77 2.9 1.5s.98 1.62.98 2.67c0 .51-.11 1.01-.32 1.52s-.53.97-.95 1.4-.95.77-1.59 1.04c-.64.26-1.4.39-2.28.39-.97 0-1.8-.14-2.49-.41s-1.26-.61-1.72-1.02-.81-.85-1.05-1.33-.39-.92-.45-1.33z" fill="#4b4b4b"/><path d="m1214.96 355.52c0-1.59.14-3.07.42-4.42s.67-2.6 1.17-3.73c.5-1.14 1.08-2.18 1.77-3.14.68-.95 1.41-1.83 2.19-2.63l1.66 1.46c-1.5 1.67-2.68 3.53-3.54 5.56-.87 2.03-1.3 4.33-1.3 6.9s.43 4.87 1.3 6.91 2.05 3.89 3.54 5.54l-1.66 1.46c-.78-.8-1.51-1.67-2.19-2.63-.68-.95-1.27-2-1.77-3.14s-.88-2.38-1.17-3.73c-.28-1.34-.42-2.81-.42-4.41z" fill="#4b4b4b"/><path d="m1227.45 364.77v-14.97h-4.73v-2.01c.66-.02 1.27-.13 1.84-.32.56-.19 1.06-.46 1.5-.79s.8-.72 1.08-1.17.48-.92.6-1.43h2.51v20.69z" fill="#4b4b4b"/><path d="m1237.66 364.77v-14.97h-4.73v-2.01c.66-.02 1.27-.13 1.84-.32.56-.19 1.06-.46 1.5-.79s.8-.72 1.08-1.17.48-.92.6-1.43h2.51v20.69z" fill="#4b4b4b"/><path d="m1250.06 355.52c0 1.6-.14 3.07-.42 4.42s-.67 2.6-1.17 3.73c-.5 1.14-1.08 2.18-1.76 3.14-.68.95-1.41 1.83-2.19 2.63l-1.66-1.46c1.48-1.65 2.66-3.5 3.53-5.54.88-2.04 1.31-4.35 1.31-6.91 0-1.28-.11-2.5-.33-3.65s-.54-2.24-.96-3.27-.93-2-1.53-2.92c-.6-.91-1.27-1.79-2.01-2.63l1.66-1.46c.78.8 1.51 1.67 2.19 2.63.68.95 1.27 2 1.76 3.14.5 1.14.88 2.38 1.17 3.73s.41 2.83.41 4.42z" fill="#4b4b4b"/><path d="m2194.69 375.89h-55.85c-9.49 0-17.18-7.69-17.18-17.18 0-9.49 7.69-17.18 17.18-17.18h55.85c9.49 0 17.18 7.69 17.18 17.18 0 9.49-7.69 17.18-17.18 17.18z" fill="#d4d4d4"/><path d="m2194.69 375.89h-10.74c-9.49 0-17.18-7.69-17.18-17.18 0-9.49 7.69-17.18 17.18-17.18h10.74c9.49 0 17.18 7.69 17.18 17.18 0 9.49-7.69 17.18-17.18 17.18z"/><path d="m2187.75 357.68h-6.89c-.31 0-.54-.24-.54-.54v-6.87c0-.31.24-.54.54-.54h6.87c.31 0 .54.24.54.54v6.87c.03.29-.23.54-.52.54zm-6.35-1.08h5.79v-5.79h-5.79zm16.38 1.08h-6.87c-.31 0-.54-.24-.54-.54v-6.87c0-.31.24-.54.54-.54h6.87c.31 0 .54.24.54.54v6.87c0 .29-.26.54-.54.54zm-6.34-1.08h5.79v-5.79h-5.79zm-3.69 11.1h-6.89c-.31 0-.54-.24-.54-.54v-6.87c0-.31.24-.54.54-.54h6.87c.31 0 .54.24.54.54v6.87c.03.31-.23.54-.52.54zm-6.35-1.08h5.79v-5.79h-5.79zm16.38 1.08h-6.87c-.31 0-.54-.24-.54-.54v-6.87c0-.31.24-.54.54-.54h6.87c.31 0 .54.24.54.54v6.87c0 .31-.26.54-.54.54zm-6.34-1.08h5.79v-5.79h-5.79z" fill="#fff"/><path d="m2136.62 355.03c-1.2 0-2.19-.99-2.19-2.21s.99-2.19 2.19-2.19c1.22 0 2.19.99 2.19 2.19.02 1.23-.97 2.21-2.19 2.21zm0-3.13c-.5 0-.93.42-.93.92s.42.92.93.92c.5 0 .92-.42.92-.92.02-.5-.4-.92-.92-.92zm18.18 1.56h-13.98c-.36 0-.63-.27-.63-.63s.27-.63.63-.63h13.98c.36 0 .63.27.63.63s-.27.63-.63.63zm-18.18 7.44c-1.2 0-2.19-.99-2.19-2.21s.99-2.19 2.19-2.19c1.22 0 2.19.99 2.19 2.19.02 1.22-.97 2.21-2.19 2.21zm0-3.13c-.5 0-.93.42-.93.92 0 .53.42.95.93.95.5 0 .92-.42.92-.92.02-.53-.4-.95-.92-.95zm18.18 1.55h-13.98c-.36 0-.63-.27-.63-.63s.27-.63.63-.63h13.98c.36 0 .63.27.63.63s-.27.63-.63.63zm-18.18 7.47c-1.2 0-2.19-.99-2.19-2.21s.99-2.19 2.19-2.19c1.22 0 2.19.99 2.19 2.19.02 1.22-.97 2.21-2.19 2.21zm0-3.14c-.5 0-.93.42-.93.92 0 .53.42.95.93.95.5 0 .92-.42.92-.92.02-.53-.4-.95-.92-.95zm18.18 1.56h-13.98c-.36 0-.63-.27-.63-.63s.27-.63.63-.63h13.98c.36 0 .63.27.63.63s-.27.63-.63.63z"/><path d="m1057.55 242.9h1180v58.95h-1180z" fill="url(#b)"/><path d="m1065.27 251.3h1163.61v43.45h-1163.61z" fill="#fff"/><path d="m1142.2 266.71h203.52v13.3h-203.52z" fill="#4b4b4b"/><path d="m1361.01 266.71h64.51v13.3h-64.51z" fill="#4b4b4b"/><path d="m1057.55 301.85h1180" fill="none" stroke="#00b432" stroke-miterlimit="10" stroke-width="3"/><path d="m1103.03 283.98h-12.17c-.33 0-.59-.26-.59-.59v-15.45c0-.33.26-.59.59-.59h12.17c.33 0 .59.26.59.59v15.45c0 .33-.26.59-.59.59zm-11.58-1.17h10.99v-14.27h-10.99zm8.54-9.13h-6.09c-.33 0-.59-.26-.59-.59s.26-.59.59-.59h6.09c.33 0 .59.26.59.59s-.27.59-.59.59zm0 2.43h-6.09c-.33 0-.59-.26-.59-.59s.26-.59.59-.59h6.09c.33 0 .59.26.59.59s-.27.59-.59.59zm5.94 4.12c-.33 0-.59-.26-.59-.59v-13.8h-10.75c-.33 0-.59-.26-.59-.59s.26-.59.59-.59h11.34c.33 0 .59.26.59.59v14.39c-.01.32-.27.59-.59.59zm2.75-2.59c-.33 0-.59-.26-.59-.59v-13.8h-10.75c-.33 0-.59-.26-.59-.59s.26-.59.59-.59h11.34c.33 0 .59.26.59.59v14.39c0 .33-.26.59-.59.59z" fill="#00b432"/><path d="m2208.14 278.08-3.46-3.45 3.45-3.46c.5-.5.5-1.31 0-1.81s-1.31-.5-1.81 0l-3.45 3.46-3.46-3.45c-.5-.5-1.31-.5-1.81 0s-.5 1.31 0 1.81l3.46 3.45-3.45 3.46c-.5.5-.5 1.31 0 1.81.23.23.53.36.83.37.35.02.71-.11.97-.37l3.45-3.46 3.46 3.45c.23.23.53.36.84.37.35.02.71-.11.97-.37.51-.5.51-1.31.01-1.81z" fill="#4c4e4d"/><path d="m778.55 242.9h279v755h-279z" fill="url(#a)" opacity=".5"/><path d="m778.55 309.9h279" fill="none" stroke="#d5d5d5" stroke-miterlimit="10"/><path d="m778.55 378.9h279" fill="none" stroke="#d5d5d5" stroke-miterlimit="10"/><path d="m778.55 467.9h279" fill="none" stroke="#d5d5d5" stroke-miterlimit="10"/><path d="m778.55 555.9h279" fill="none" stroke="#d5d5d5" stroke-miterlimit="10"/><path d="m778.55 644.9h279" fill="none" stroke="#d5d5d5" stroke-miterlimit="10"/><path d="m811.65 271.03h92.45v12.3h-92.45z"/><path d="m811.65 340.2h94.86v12.3h-94.86z"/><path d="m811.65 409.37h140.48v12.3h-140.48z"/><path d="m811.65 428.32h121.3v12.3h-121.3z"/><path d="m811.65 497.16h165.62v12.3h-165.62z"/><path d="m811.65 516.78h203.77v12.3h-203.77z"/><path d="m811.65 585.44h124.06v12.3h-124.06z"/><path d="m851.85 955.74h104.87v12.3h-104.87z"/><path d="m811.65 605.06h94.86v12.3h-94.86z"/><path d="m812.01 955.78v12.22h17.48v-12.22zm15.46.96-1.29.87-5.42 3.69-6.73-4.56zm1.08.87v9l-5.59-3.81-.86.58 5.37 3.65h-13.43l5.37-3.65-.86-.58-5.59 3.81v-9.46l.66.45 7.13 4.86 7.8-5.32z"/><path d="m1311.79 688.78h182.23v13.89h-182.23z" fill="#4b4b4b"/><path d="m1311.79 404.71h204.85v265.37h-204.85z" fill="#5b5b5b"/><path d="m1311.79 404.71h204.85v265.37h-204.85z" fill="url(#c)" opacity=".25"/><path d="m1311.79 706.99h182.24" fill="none" stroke="#d5d5d5" stroke-miterlimit="10"/><path d="m1311.79 712.39h142.44v13.89h-142.44z" fill="#4b4b4b"/><path d="m1311.79 730.6h142.44" fill="none" stroke="#d5d5d5" stroke-miterlimit="10" stroke-width=".8841"/><path d="m1312.9 744.57h47.89v7.32h-47.89z" fill="#d5d5d5"/><path d="m1364.87 744.57h55.02v7.32h-55.02z"/><path d="m1311.79 761.64h99.33v7.32h-99.33z"/><path d="m1408.23 637.87h69.17v24.94h-69.17z" fill="#5b5b5b"/><path d="m1497.99 663.43h-3.93c-6.6 0-12-5.4-12-12v-.94c0-6.6 5.4-12 12-12h3.93c6.6 0 12 5.4 12 12v.94c0 6.6-5.4 12-12 12z" fill="#ed2024"/><path d="m1489.37 654.7c.02-.63.16-1.23.43-1.79s.73-1.05 1.38-1.46l1.55-.98c.42-.26.73-.53.94-.82s.32-.62.32-1.01c0-.22-.04-.42-.11-.61-.08-.19-.19-.36-.33-.5s-.32-.25-.52-.34-.43-.13-.68-.13c-.56 0-1 .17-1.33.5-.32.34-.49.78-.49 1.33 0 .06 0 .14.01.24s.02.18.04.24l-1.12-.11c-.02-.06-.03-.14-.04-.22s-.01-.18-.01-.29c0-.37.06-.72.19-1.05s.32-.62.56-.87.55-.45.91-.59c.36-.15.77-.22 1.24-.22.42 0 .81.07 1.16.2s.64.31.89.55c.24.23.43.51.57.82.14.32.2.65.2 1.01 0 .55-.14 1.03-.41 1.45-.28.41-.68.79-1.22 1.12l-1.75 1.09c-.25.16-.47.35-.65.58-.19.23-.31.48-.37.76h4.49v1.08h-5.85z" fill="#fff"/><path d="m1496.23 651.42 3.78-5.23h1.49v5.47h1.4v1.08h-1.4v1.96h-1.15v-1.96h-4.12zm4.12-3.97-3.04 4.21h3.04z" fill="#fff"/><path d="m1308.97 412.53h49.38v28.6h-49.38z" fill="#00b432"/><path d="m1324.55 431.08-3.86-6.04v6.04h-1.66v-8.51h2.06l3.54 5.63v-5.63h1.66v8.51z" fill="#fff"/><path d="m1329.18 431.08v-8.51h5.33v1.56h-3.67v1.94h3.32v1.48h-3.32v1.97h3.67v1.56z" fill="#fff"/><path d="m1346.59 422.57h1.69l-2.35 8.51h-1.7l-1.94-6.06-1.94 6.06h-1.73l-2.36-8.51h1.75l1.56 5.86 1.88-5.86h1.72l1.9 5.88z" fill="#fff"/><path d="m1417 645.95h51.62v8.77h-51.62z" fill="#fff"/><path d="m1082.25 404.71h204.85v265.37h-204.85z" fill="#5b5b5b"/><path d="m1082.25 404.71h204.85v265.37h-204.85z" fill="url(#a)" opacity=".25"/><path d="m1082.25 688.78h182.23v13.89h-182.23z" fill="#4b4b4b"/><path d="m1082.25 706.99h182.23" fill="none" stroke="#d5d5d5" stroke-miterlimit="10"/><path d="m1082.25 712.39h53.07v13.89h-53.07z" fill="#4b4b4b"/><path d="m1082.25 730.6h53.07" fill="none" stroke="#d5d5d5" stroke-miterlimit="10" stroke-width=".5397"/><path d="m1083.36 744.57h47.89v7.32h-47.89z" fill="#d5d5d5"/><path d="m1135.32 744.57h55.02v7.32h-55.02z"/><path d="m1178.69 637.87h69.17v24.94h-69.17z" fill="#5b5b5b"/><path d="m1268.44 663.43h-3.93c-6.6 0-12-5.4-12-12v-.94c0-6.6 5.4-12 12-12h3.93c6.6 0 12 5.4 12 12v.94c0 6.6-5.4 12-12 12z" fill="#ed2024"/><path d="m1262.64 654.7v-6.16h-1.94v-.83c.27-.01.52-.05.76-.13.23-.08.44-.19.62-.32.18-.14.33-.3.44-.48s.2-.38.25-.59h1.03v8.51z" fill="#fff"/><path d="m1265.35 650.45c0-.5.05-1.02.15-1.54s.27-1 .52-1.42.58-.77 1.01-1.04c.42-.27.96-.41 1.61-.41s1.18.14 1.61.41c.42.27.76.62 1.01 1.04s.42.9.52 1.42.15 1.04.15 1.54-.05 1.01-.14 1.53c-.1.52-.27 1-.52 1.42s-.58.77-1.01 1.04-.96.41-1.62.41-1.2-.14-1.62-.41-.76-.62-1.01-1.05-.42-.9-.52-1.42c-.09-.52-.14-1.03-.14-1.52zm5.41 0c0-.42-.03-.84-.1-1.24-.06-.4-.18-.76-.34-1.07s-.38-.56-.65-.76c-.27-.19-.62-.29-1.03-.29-.42 0-.77.09-1.04.28s-.49.44-.64.75c-.16.31-.27.67-.33 1.07s-.1.82-.1 1.25c0 .42.03.84.1 1.24s.18.76.34 1.07.38.56.65.76c.27.19.62.29 1.03.29s.76-.1 1.03-.29.49-.44.65-.76c.16-.31.28-.67.34-1.07s.09-.81.09-1.23z" fill="#fff"/><path d="m1079.42 412.53h49.38v28.6h-49.38z" fill="#00b432"/><path d="m1095 431.08-3.86-6.04v6.04h-1.66v-8.51h2.06l3.54 5.63v-5.63h1.66v8.51z" fill="#fff"/><path d="m1099.64 431.08v-8.51h5.33v1.56h-3.67v1.94h3.32v1.48h-3.32v1.97h3.67v1.56z" fill="#fff"/><path d="m1117.05 422.57h1.69l-2.35 8.51h-1.7l-1.94-6.06-1.94 6.06h-1.73l-2.36-8.51h1.75l1.56 5.86 1.88-5.86h1.72l1.9 5.88z" fill="#fff"/><path d="m1187.46 645.95h51.62v8.77h-51.62z" fill="#fff"/><path d="m1538.85 404.71h204.85v265.37h-204.85z" fill="#5b5b5b"/><path d="m1538.85 404.71h204.85v265.37h-204.85z" fill="url(#d)" opacity=".25"/><path d="m1538.85 688.78h88.52v13.89h-88.52z" fill="#4b4b4b"/><path d="m1538.85 706.99h88.53" fill="none" stroke="#d5d5d5" stroke-miterlimit="10" stroke-width=".697"/><path d="m1539.96 720.63h47.89v7.32h-47.89z" fill="#d5d5d5"/><path d="m1591.93 720.63h28.3v7.32h-28.3z"/><path d="m1635.29 637.87h69.17v24.94h-69.17z" fill="#5b5b5b"/><path d="m1725.05 663.43h-3.93c-6.6 0-12-5.4-12-12v-.94c0-6.6 5.4-12 12-12h3.93c6.6 0 12 5.4 12 12v.94c0 6.6-5.4 12-12 12z" fill="#ed2024"/><path d="m1719.91 647.05c-.46 0-.85.11-1.15.33s-.54.5-.71.85c-.18.35-.3.74-.37 1.16-.07.43-.11.85-.11 1.28.07-.2.18-.39.33-.58s.33-.35.54-.49.45-.25.72-.33.56-.13.87-.13c.39 0 .76.07 1.1.2s.64.32.9.56.46.54.61.88.22.72.22 1.13c0 .44-.08.84-.24 1.2s-.38.67-.65.92c-.28.26-.6.45-.97.59s-.77.21-1.19.21c-.44 0-.86-.08-1.26-.25s-.75-.43-1.06-.79-.55-.82-.73-1.37c-.18-.56-.27-1.22-.27-1.99 0-.73.09-1.37.26-1.92s.41-1.01.72-1.39c.31-.37.67-.65 1.09-.84s.87-.28 1.36-.28c.43 0 .81.06 1.15.18s.62.28.85.47c.24.2.43.43.57.69s.24.54.3.83l-1.13.26c-.03-.19-.09-.37-.18-.54s-.2-.32-.35-.44-.32-.23-.52-.31c-.22-.05-.45-.09-.7-.09zm-2.01 4.93c0 .28.05.54.16.77.1.23.24.43.41.59s.37.28.61.37c.23.09.48.13.73.13s.49-.04.71-.13c.23-.09.43-.21.61-.38.18-.16.31-.36.41-.59s.15-.48.15-.76-.05-.53-.14-.76c-.1-.23-.23-.42-.4-.58s-.36-.28-.58-.37-.45-.13-.7-.13-.49.04-.73.13c-.24.08-.45.2-.63.36s-.33.35-.44.58-.17.49-.17.77z" fill="#fff"/><path d="m1724.98 652.1c.02.24.09.47.19.68s.24.39.41.55c.17.15.37.27.59.36.23.09.48.13.76.13.27 0 .52-.04.75-.13s.43-.21.59-.38.3-.36.39-.58.14-.47.14-.73c0-.3-.05-.56-.14-.79-.1-.23-.23-.42-.4-.58s-.37-.28-.61-.37-.48-.13-.76-.13c-.36 0-.69.07-1 .22s-.55.34-.73.58l-1.03-.4.82-4.36h4.68v1.08h-3.89l-.47 2.6c.1-.12.23-.22.38-.31s.3-.16.47-.22c.16-.06.33-.1.5-.13s.34-.04.5-.04c.42 0 .81.07 1.16.2s.65.32.9.56.45.54.58.89c.14.35.2.74.2 1.17 0 .39-.07.76-.21 1.11s-.34.65-.6.91-.58.47-.95.62c-.38.15-.8.23-1.27.23-.42 0-.82-.07-1.18-.2s-.67-.31-.94-.53c-.26-.22-.47-.49-.63-.79s-.25-.62-.28-.97z" fill="#fff"/><path d="m1644.07 645.95h51.62v8.77h-51.62z" fill="#fff"/><path d="m1767.31 404.71h204.85v265.37h-204.85z" fill="#5b5b5b"/><path d="m1767.31 404.71h204.85v265.37h-204.85z" fill="url(#e)" opacity=".25"/><path d="m1767.31 688.78h108.1v13.89h-108.1z" fill="#4b4b4b"/><path d="m1767.31 706.99h108.1" fill="none" stroke="#d5d5d5" stroke-miterlimit="10" stroke-width=".7702"/><path d="m1767.31 712.39h178.97v13.89h-178.97z" fill="#4b4b4b"/><path d="m1767.31 730.6h178.97" fill="none" stroke="#d5d5d5" stroke-miterlimit="10" stroke-width=".991"/><path d="m1768.42 744.57h47.89v7.32h-47.89z" fill="#d5d5d5"/><path d="m1820.39 744.57h33.24v7.32h-33.24z"/><path d="m1860.07 744.57h50.27v7.32h-50.27z"/><path d="m1767.31 761.64h69.7v7.32h-69.7z"/><path d="m1843.13 761.64h49.13v7.32h-49.13z"/><path d="m1863.75 637.87h69.17v24.94h-69.17z" fill="#5b5b5b"/><path d="m1953.51 663.43h-3.93c-6.6 0-12-5.4-12-12v-.94c0-6.6 5.4-12 12-12h3.93c6.6 0 12 5.4 12 12v.94c0 6.6-5.4 12-12 12z" fill="#ed2024"/><path d="m1944.89 654.7c.02-.63.16-1.23.43-1.79s.73-1.05 1.38-1.46l1.55-.98c.42-.26.73-.53.94-.82s.32-.62.32-1.01c0-.22-.04-.42-.11-.61-.08-.19-.19-.36-.33-.5s-.32-.25-.52-.34-.43-.13-.68-.13c-.56 0-1 .17-1.33.5-.32.34-.49.78-.49 1.33 0 .06 0 .14.01.24s.02.18.04.24l-1.12-.11c-.02-.06-.03-.14-.04-.22s-.01-.18-.01-.29c0-.37.06-.72.19-1.05s.32-.62.56-.87.55-.45.91-.59c.36-.15.77-.22 1.24-.22.42 0 .81.07 1.16.2s.64.31.89.55c.24.23.43.51.57.82.14.32.2.65.2 1.01 0 .55-.14 1.03-.41 1.45-.28.41-.68.79-1.22 1.12l-1.75 1.09c-.25.16-.47.35-.65.58-.19.23-.31.48-.37.76h4.49v1.08h-5.85z" fill="#fff"/><path d="m1951.75 651.42 3.78-5.23h1.49v5.47h1.4v1.08h-1.4v1.96h-1.15v-1.96h-4.12zm4.12-3.97-3.04 4.21h3.04z" fill="#fff"/><path d="m1872.52 645.95h51.62v8.77h-51.62z" fill="#fff"/><path d="m1997.03 404.71h204.85v265.37h-204.85z" fill="#5b5b5b"/><path d="m1997.03 404.71h204.85v265.37h-204.85z" fill="url(#f)" opacity=".25"/><path d="m1997.03 688.78h151.22v13.89h-151.22z" fill="#4b4b4b"/><path d="m1997.03 706.99h151.22" fill="none" stroke="#d5d5d5" stroke-miterlimit="10" stroke-width=".9109"/><path d="m1997.03 735.46h108.43v13.89h-108.43z" fill="#4b4b4b"/><path d="m1997.03 753.68h108.43" fill="none" stroke="#d5d5d5" stroke-miterlimit="10" stroke-width=".7714"/><path d="m1997.03 712.39h170.26v13.89h-170.26z" fill="#4b4b4b"/><path d="m1997.03 730.6h170.26" fill="none" stroke="#d5d5d5" stroke-miterlimit="10" stroke-width=".9666"/><path d="m1997.16 767.96h47.89v7.32h-47.89z" fill="#d5d5d5"/><path d="m2049.13 767.96h55.02v7.32h-55.02z"/><path d="m2110.03 767.96h52.6v7.32h-52.6z"/><path d="m1996.05 785.03h70.99v7.32h-70.99z"/><path d="m2073.43 785.03h61.56v7.32h-61.56z"/><path d="m2093.47 637.87h69.17v24.94h-69.17z" fill="#5b5b5b"/><path d="m2183.22 663.43h-3.93c-6.6 0-12-5.4-12-12v-.94c0-6.6 5.4-12 12-12h3.93c6.6 0 12 5.4 12 12v.94c0 6.6-5.4 12-12 12z" fill="#ed2024"/><path d="m2174.6 654.7c.02-.63.16-1.23.43-1.79s.73-1.05 1.38-1.46l1.55-.98c.42-.26.73-.53.94-.82s.32-.62.32-1.01c0-.22-.04-.42-.11-.61-.08-.19-.19-.36-.33-.5s-.32-.25-.52-.34-.43-.13-.68-.13c-.56 0-1 .17-1.33.5-.32.34-.49.78-.49 1.33 0 .06 0 .14.01.24s.02.18.04.24l-1.12-.11c-.02-.06-.03-.14-.04-.22s-.01-.18-.01-.29c0-.37.06-.72.19-1.05s.32-.62.56-.87.55-.45.91-.59c.36-.15.77-.22 1.24-.22.42 0 .81.07 1.16.2s.64.31.89.55c.24.23.43.51.57.82.14.32.2.65.2 1.01 0 .55-.14 1.03-.41 1.45-.28.41-.68.79-1.22 1.12l-1.75 1.09c-.25.16-.47.35-.65.58-.19.23-.31.48-.37.76h4.49v1.08h-5.85z" fill="#fff"/><path d="m2185.19 647.05c-.46 0-.85.11-1.15.33s-.54.5-.71.85c-.18.35-.3.74-.37 1.16-.07.43-.11.85-.11 1.28.07-.2.18-.39.33-.58s.33-.35.54-.49.45-.25.72-.33.56-.13.87-.13c.39 0 .76.07 1.1.2s.64.32.9.56.46.54.61.88.22.72.22 1.13c0 .44-.08.84-.24 1.2s-.38.67-.65.92c-.28.26-.6.45-.97.59s-.77.21-1.19.21c-.44 0-.86-.08-1.26-.25s-.75-.43-1.06-.79-.55-.82-.73-1.37c-.18-.56-.27-1.22-.27-1.99 0-.73.09-1.37.26-1.92s.41-1.01.72-1.39c.31-.37.67-.65 1.09-.84s.87-.28 1.36-.28c.43 0 .81.06 1.15.18s.62.28.85.47c.24.2.43.43.57.69s.24.54.3.83l-1.13.26c-.03-.19-.09-.37-.18-.54s-.2-.32-.35-.44-.32-.23-.52-.31c-.22-.05-.45-.09-.7-.09zm-2.01 4.93c0 .28.05.54.16.77.1.23.24.43.41.59s.37.28.61.37c.23.09.48.13.73.13s.49-.04.71-.13c.23-.09.43-.21.61-.38.18-.16.31-.36.41-.59s.15-.48.15-.76-.05-.53-.14-.76c-.1-.23-.23-.42-.4-.58s-.36-.28-.58-.37-.45-.13-.7-.13-.49.04-.73.13c-.24.08-.45.2-.63.36s-.33.35-.44.58-.17.49-.17.77z" fill="#fff"/><path d="m2102.24 645.95h51.62v8.77h-51.62z" fill="#fff"/><path d="m1311.79 828.07h204.85v170h-204.85z" fill="#5b5b5b"/><path d="m1082.25 828.07h204.85v170h-204.85z" fill="#5b5b5b"/><path d="m1538.85 828.07h204.85v170h-204.85z" fill="#5b5b5b"/><path d="m1767.31 828.07h204.85v170h-204.85z" fill="#5b5b5b"/><path d="m1997.03 828.07h204.85v170h-204.85z" fill="#5b5b5b"/><path d="m2085.55 160.9v82" fill="none" stroke="#d5d5d5" stroke-miterlimit="10"/><path d="m1977.55 160.9v82" fill="none" stroke="#d5d5d5" stroke-miterlimit="10"/><path d="m1057.55 161.9v836" fill="none" stroke="#d5d5d5" stroke-miterlimit="10"/><path d="m2118.55 197.9h78v11h-78z" fill="#080808"/><path d="m2224.99 206.57 4.33-7.5h-8.66z"/><path d="m861.95 185.78-4.7 19.14-4.72-19.14h-13.85v7.06c-1.65-6.19-7.51-7.74-12.95-7.83-6.62-.08-13.56 2.78-13.81 11.54h9.14c0-2.64 2.05-4.15 4.31-4.1 2.8 0 4.1 1.17 4.16 3.04-.1 1.62-1.03 2.74-4.14 2.74h-3.08v6.33h2.8c1.58 0 3.8.86 3.88 3.12.11 2.69-1.77 3.88-4.07 3.9-4.1-.15-4.79-3.32-4.79-6.04h-9.48c.04 1.83-.41 13.77 14.48 13.69 7.13.06 12.11-2.93 13.58-7.07v6.34h9.38v-20.65l5.07 20.65h8.21l5.09-20.63v20.65h9.35v-32.75h-13.86zm-23.23 19.09c-1.16-2.42-2.81-3.47-3.73-3.81 1.94-.86 2.96-2.05 3.73-4.36z" fill="#d33820"/><g fill="#231f20"><path d="m893.47 189.73c-.19-1.11-1.19-1.89-2.31-1.8-1.21 0-2 .77-2 1.62 0 .7.45 1.26 1.38 1.43l1.77.34c2.32.45 3.55 1.96 3.55 3.75 0 1.96-1.63 3.93-4.62 3.93-3.37 0-4.86-2.17-5.06-3.99l2.3-.61c.11 1.26.98 2.39 2.78 2.39 1.33 0 2.05-.66 2.05-1.54 0-.73-.55-1.31-1.54-1.51l-1.78-.36c-2-.44-3.3-1.74-3.3-3.67 0-2.26 2.03-3.99 4.43-3.99 3.08 0 4.27 1.87 4.56 3.31z"/><path d="m899.36 194.33c0 1.6 1.03 2.5 2.26 2.5.95.05 1.81-.57 2.05-1.49l2.07.71c-.52 1.82-2.21 3.05-4.1 2.98-2.52.06-4.61-1.93-4.67-4.45 0-.08 0-.16 0-.24-.09-2.49 1.86-4.59 4.35-4.68h.22c2.41 0 3.77 1.49 4.14 2.97l-2.13.72c-.21-.91-1.04-1.53-1.97-1.49-1.19-.01-2.22.87-2.22 2.47z"/><path d="m908.53 185.54c.81 0 1.47.66 1.47 1.47s-.66 1.47-1.47 1.47-1.46-.65-1.47-1.46.64-1.48 1.45-1.49c.01.01.01.01.02.01zm-1.18 13.2v-8.83h2.38v8.83z"/><path d="m920.11 196.21c-.54 1.74-2.2 2.9-4.02 2.8-2.42 0-4.56-1.74-4.56-4.72 0-2.82 2.08-4.65 4.34-4.65 2.73 0 4.36 1.74 4.36 4.57 0 .34-.04.7-.04.74h-6.3c.08 1.16 1.06 2.05 2.23 2.01.9.07 1.73-.48 2.01-1.34zm-2.23-2.89c-.04-.88-.61-1.74-1.97-1.74-1.02-.04-1.88.73-1.97 1.74z"/><path d="m924.3 198.74h-2.38v-8.83h2.32v1.09c.56-.86 1.54-1.37 2.56-1.33 2.18 0 3.19 1.54 3.19 3.5v5.56h-2.4v-5.15c0-.98-.48-1.75-1.64-1.75-1.03 0-1.65.81-1.65 1.83z"/><path d="m933.85 194.33c0 1.6 1.03 2.5 2.26 2.5.94.04 1.78-.58 2.03-1.49l2.1.7c-.52 1.83-2.23 3.06-4.13 2.98-2.52.05-4.6-1.96-4.65-4.48 0-.07 0-.13 0-.2-.09-2.49 1.86-4.59 4.35-4.68h.22c2.41 0 3.77 1.49 4.14 2.97l-2.13.72c-.21-.9-1.03-1.53-1.95-1.49-1.21-.01-2.24.87-2.24 2.47z"/><path d="m949.8 196.21c-.54 1.74-2.2 2.9-4.02 2.8-2.43 0-4.56-1.74-4.56-4.72 0-2.82 2.08-4.65 4.34-4.65 2.73 0 4.36 1.74 4.36 4.57 0 .34-.04.7-.04.74h-6.34c.08 1.16 1.07 2.05 2.23 2.01.9.07 1.73-.48 2.01-1.34zm-2.23-2.89c-.04-.88-.61-1.74-1.97-1.74-1.02-.04-1.88.73-1.97 1.74z"/><path d="m952.98 195.6c.9.01 1.63.74 1.63 1.65-.01.9-.74 1.63-1.65 1.63-.9-.01-1.63-.74-1.63-1.64.01-.91.75-1.64 1.65-1.64z"/><path d="m894.72 215.6h-5.17l-1.06 2.9h-2.62l4.88-12.72h2.87l4.85 12.72h-2.69zm-4.35-2.26h3.52l-1.76-4.81z"/><path d="m899.79 221.92v-12.24h2.31v1.08c.62-.87 1.65-1.35 2.71-1.27 2.56 0 4.07 1.97 4.07 4.62 0 2.64-1.67 4.65-4.16 4.65-.98.06-1.93-.33-2.56-1.08v4.27zm4.56-10.3c-1.22 0-2.21.91-2.21 2.48 0 1.56.99 2.49 2.21 2.49s2.18-.91 2.18-2.49-.96-2.48-2.18-2.48z"/><path d="m910.47 221.92v-12.24h2.31v1.08c.62-.87 1.65-1.35 2.71-1.27 2.56 0 4.07 1.97 4.07 4.62 0 2.64-1.67 4.65-4.16 4.65-.98.06-1.93-.33-2.56-1.08v4.27zm4.56-10.3c-1.22 0-2.21.91-2.21 2.48 0 1.56.99 2.49 2.21 2.49s2.19-.91 2.19-2.49-.97-2.48-2.19-2.48z"/><path d="m921.19 218.5v-12.99h2.38v12.99z"/><path d="m927.23 205.3c.81.01 1.46.68 1.45 1.49s-.68 1.46-1.49 1.45c-.79-.01-1.43-.64-1.45-1.43-.02-.81.62-1.49 1.43-1.51zm-1.18 13.2v-8.83h2.38v8.83z"/><path d="m938.86 215.98c-.45 1.54-1.85 2.8-4.02 2.8-2.42 0-4.55-1.74-4.55-4.72 0-2.82 2.08-4.65 4.34-4.65 2.72 0 4.36 1.74 4.36 4.58 0 .34-.04.7-.04.73h-6.32c.07 1.16 1.06 2.05 2.23 2.01.9.07 1.73-.48 2.01-1.34zm-2.22-2.89c-.02-.99-.83-1.77-1.82-1.75-.05 0-.11 0-.16.01-1.02-.04-1.89.73-1.97 1.74z"/><path d="m949.29 216.91c0 .59.04 1.24.07 1.6h-2.28c-.06-.34-.09-.68-.09-1.03-.55.83-1.49 1.3-2.48 1.24-2.51 0-4.31-1.97-4.31-4.65 0-2.56 1.74-4.62 4.24-4.62 1.54 0 2.24.63 2.49 1.1v-5.04h2.35v11.4zm-4.49-.32c1.22 0 2.17-.93 2.17-2.53s-.95-2.46-2.17-2.46-2.18.9-2.18 2.48.91 2.51 2.16 2.51z"/><path d="m958.66 209.68h1.77v2.12h-1.77v3.7c0 .77.36 1.03 1.03 1.03.25 0 .49-.02.73-.07v1.97c-.43.16-.89.23-1.34.22-1.72 0-2.8-1.03-2.8-2.73v-4.1h-1.6v-2.13h.45c.7.05 1.31-.47 1.37-1.17.01-.08.01-.15 0-.23v-1.24h2.15z"/><path d="m970.88 214.09c-.04 2.55-2.14 4.58-4.69 4.54s-4.58-2.14-4.54-4.69c.04-2.52 2.09-4.54 4.61-4.54 2.5-.05 4.57 1.94 4.62 4.45zm-2.39 0c0-1.67-1.08-2.51-2.25-2.51s-2.24.84-2.24 2.51 1.07 2.51 2.24 2.51c1.18 0 2.25-.84 2.25-2.51z"/><path d="m976.12 218.5v-12.72h2.48v10.35h5.67v2.37z"/><path d="m987.09 205.3c.81 0 1.47.66 1.47 1.48 0 .81-.66 1.47-1.48 1.47-.79 0-1.44-.64-1.47-1.43-.01-.82.64-1.5 1.46-1.51.01-.01.01-.01.02-.01zm-1.19 13.2v-8.83h2.37v8.83z"/><path d="m993.91 208.71v.97h2v2.05h-2v6.78h-2.4v-6.78h-1.47v-2.05h1.47v-1.03c0-2 1.25-3.28 3.21-3.28.4-.01.8.05 1.18.18v2.04c-.25-.07-.5-.1-.75-.09-.62-.06-1.17.39-1.24 1.01-.01.05-.01.13 0 .2z"/><path d="m1005.05 215.98c-.54 1.75-2.2 2.9-4.02 2.8-2.42 0-4.56-1.74-4.56-4.72 0-2.82 2.08-4.65 4.34-4.65 2.73 0 4.36 1.74 4.36 4.58 0 .34-.04.7-.04.73h-6.32c.08 1.16 1.06 2.05 2.23 2.01.9.07 1.73-.48 2.01-1.34zm-2.23-2.89c-.04-.88-.61-1.74-1.97-1.74-1.02-.04-1.89.73-1.97 1.74z"/><path d="m1008.27 215.37c.9 0 1.63.73 1.63 1.63s-.73 1.63-1.63 1.63-1.63-.73-1.63-1.63c0-.9.73-1.62 1.63-1.63z"/><path d="m1013.83 209.67v-3.89h1.04l1.13 2.82 1.12-2.82h1.03v3.89h-.74v-2.7l-1.09 2.7h-.65l-1.1-2.7v2.7z"/><path d="m1009.91 205.78h3.22v.73h-1.23v3.16h-.76v-3.16h-1.23z"/></g><path d="m1104.13 193.97c-1.48 1.48-2.29 3.42-2.29 5.52s.81 4.05 2.29 5.52c2.61 2.61 6.66 2.98 9.67 1.09l7 7 2.23-2.23-6.96-6.93c.9-1.31 1.39-2.83 1.39-4.45 0-2.1-.81-4.05-2.29-5.52-3.03-3.04-8-3.04-11.04 0zm17.25 16.91-.58.58-6.06-6.06c.15-.13.3-.26.43-.41.06-.06.11-.11.17-.17zm-7.02-16.1c1.26 1.26 1.95 2.93 1.95 4.71s-.68 3.45-1.95 4.71c-2.59 2.59-6.81 2.59-9.42 0-1.26-1.26-1.95-2.93-1.95-4.71s.68-3.45 1.95-4.71c2.62-2.59 6.83-2.59 9.42 0z"/><path d="m1155.35 199.44c-.03-.21-.11-.44-.22-.68s-.27-.46-.47-.66-.45-.37-.76-.5c-.3-.13-.66-.19-1.08-.19-.34 0-.65.05-.92.15-.28.1-.52.24-.73.42s-.37.39-.48.63-.17.5-.17.78c0 .43.13.79.39 1.1s.64.52 1.14.63l1.78.39c1 .22 1.76.63 2.3 1.21.53.58.8 1.29.8 2.14 0 .46-.1.9-.29 1.33s-.47.8-.82 1.13c-.36.33-.79.59-1.29.78-.5.2-1.08.29-1.72.29-.72 0-1.34-.11-1.88-.32s-.98-.49-1.34-.82c-.37-.34-.65-.71-.85-1.14s-.33-.84-.39-1.27l1.58-.5c.03.34.11.66.24.97s.31.58.56.82c.24.24.53.42.87.56s.74.21 1.19.21c.82 0 1.43-.19 1.84-.55.41-.37.61-.82.61-1.35 0-.43-.15-.81-.44-1.15s-.74-.57-1.35-.7l-1.7-.37c-.85-.19-1.55-.56-2.09-1.1s-.82-1.26-.82-2.16c0-.47.1-.92.3-1.35s.48-.8.83-1.13.77-.59 1.25-.78c.48-.2 1-.29 1.55-.29.67 0 1.25.09 1.72.28.48.18.88.42 1.19.71.32.29.57.61.75.96s.3.68.37 1.01z" fill="#4b4b4b"/><path d="m1166.08 205.99c-.11.34-.27.65-.47.94s-.45.55-.76.77c-.3.22-.65.39-1.04.51s-.84.19-1.33.19c-.55 0-1.07-.1-1.55-.29-.48-.2-.91-.48-1.27-.85s-.65-.82-.87-1.36-.32-1.14-.32-1.82c0-.65.11-1.24.32-1.77s.5-.98.87-1.35c.36-.37.78-.66 1.24-.86s.95-.3 1.46-.3c.62 0 1.17.11 1.65.32s.89.51 1.21.88.57.82.75 1.34c.17.52.26 1.08.26 1.7 0 .1 0 .2-.01.29s-.01.16-.03.22h-6.09c0 .37.06.71.19 1.01s.3.56.51.77.46.38.75.5.59.18.92.18c.62 0 1.1-.14 1.44-.43s.59-.64.75-1.07zm-1.5-2.73c-.01-.28-.06-.55-.16-.8-.09-.25-.24-.47-.42-.66-.19-.19-.41-.33-.68-.45-.27-.11-.59-.17-.96-.17-.33 0-.62.06-.89.18s-.5.28-.69.47-.34.41-.45.66-.17.5-.18.75h4.43z" fill="#4b4b4b"/><path d="m1167.68 205.97c0-.36.06-.68.18-.97s.29-.53.51-.73.48-.36.78-.49.63-.21.98-.27l2.19-.32c.25-.03.41-.11.5-.22.08-.11.13-.24.13-.39 0-.39-.14-.73-.41-1.02-.28-.29-.72-.43-1.34-.43-.56 0-.99.15-1.29.46s-.48.7-.54 1.17l-1.51-.35c.04-.38.16-.73.34-1.06s.42-.6.71-.83.63-.41 1.02-.54.8-.19 1.24-.19c.61 0 1.12.08 1.55.24s.77.38 1.04.65.47.58.59.94.19.73.19 1.13v4.05c0 .36.01.65.03.86s.04.37.07.47h-1.55c-.02-.1-.04-.24-.06-.4-.02-.17-.03-.4-.03-.69-.09.15-.21.3-.35.45-.15.16-.33.3-.54.44-.21.13-.46.24-.75.33-.29.08-.61.13-.97.13-.42 0-.79-.07-1.12-.2s-.61-.31-.85-.53-.42-.47-.55-.77c-.13-.29-.19-.6-.19-.92zm2.92 1.09c.33 0 .63-.04.92-.13.29-.08.53-.22.74-.4.21-.19.37-.43.5-.74.12-.31.19-.68.19-1.12v-.37l-2.47.37c-.34.06-.62.18-.84.38s-.34.47-.34.83c0 .3.12.57.35.82.23.24.55.36.95.36z" fill="#4b4b4b"/><path d="m1181.5 201.65c-.24-.03-.47-.05-.69-.05-.66 0-1.2.19-1.61.58s-.61 1.02-.61 1.91v4.05h-1.58v-8.09h1.55v1.41c.15-.31.32-.57.51-.77s.4-.35.61-.47.43-.2.66-.24c.22-.04.44-.07.64-.07.11 0 .22.01.31.02.1.01.17.02.21.03z" fill="#4b4b4b"/><path d="m1186.64 201.26c-.33 0-.63.06-.92.18s-.55.29-.78.53-.41.53-.55.88c-.13.35-.2.77-.2 1.24 0 .46.07.87.2 1.22s.31.65.54.89c.22.24.49.42.79.55.3.12.62.19.94.19.38 0 .7-.06.97-.17.26-.11.48-.25.66-.42.17-.17.31-.35.41-.55s.17-.37.22-.53l1.4.61c-.1.29-.25.59-.44.88-.19.3-.44.57-.74.82s-.66.45-1.07.6-.88.23-1.4.23c-.59 0-1.14-.11-1.64-.33s-.93-.52-1.29-.91-.64-.84-.85-1.36-.31-1.09-.31-1.71c0-.63.1-1.21.31-1.73.21-.53.49-.98.86-1.35.36-.38.8-.67 1.29-.88.5-.21 1.03-.32 1.61-.32.54 0 1.01.08 1.42.23s.76.35 1.06.6.54.52.71.83c.18.31.31.61.4.92l-1.43.6c-.06-.2-.13-.4-.24-.6-.1-.2-.24-.38-.41-.55-.17-.16-.38-.3-.63-.4-.24-.14-.54-.19-.89-.19z" fill="#4b4b4b"/><path d="m1193.76 208.14h-1.58v-12.18h1.58v5.03c.29-.43.66-.73 1.09-.91.44-.18.89-.27 1.36-.27.48 0 .91.08 1.27.24s.67.39.91.67c.24.29.42.63.54 1.02s.18.81.18 1.26v5.13h-1.58v-4.86c0-.28-.03-.54-.09-.79s-.17-.46-.32-.65-.35-.33-.59-.44-.54-.16-.88-.16c-.3 0-.57.06-.8.17s-.42.26-.58.45-.28.42-.36.67-.13.54-.14.84v4.78z" fill="#4b4b4b"/><path d="m2012.05 213.4h40v8h-40z" fill="#080808"/><path d="m2044.14 185.85h-1.7v1.31h.93l3.02 5.43v.49h-8.16l-1.97 1.97h-8.66l-1.97-1.97h-8.16v-.49l3.02-5.43h.93v-1.31h-1.7l-3.56 6.4v14.63h31.56v-14.63zm2.25 19.72h-28.93v-11.17h7.62l1.97 1.97h9.75l1.97-1.97h7.62zm-3.29-13.15v-3.94h-22.35v3.94h1.31v-2.63h19.73v2.63zm-19.06-5.91h15.78v1.31h1.31v-2.63h-18.41v2.63h1.31v-1.31zm1.31-3.29h13.15v1.31h1.31v-2.63h-15.78v2.63h1.31v-1.31zm2.63 18.41c0 .72.59 1.31 1.31 1.31h5.26c.72 0 1.31-.59 1.31-1.31v-3.29h-7.89v3.29zm1.31-1.98h5.26v1.97h-5.26z"/><circle cx="2041.05" cy="178.4" fill="#d33820" r="11"/><path d="m1997.03 828.07h204.85v169.83h-204.85z" fill="url(#a)" opacity=".25"/><path d="m1767.31 828.07h204.85v169.83h-204.85z" fill="url(#a)" opacity=".25"/><path d="m1539.55 828.07h204.85v169.83h-204.85z" fill="url(#a)" opacity=".25"/><path d="m1311.79 828.07h204.85v169.83h-204.85z" fill="url(#a)" opacity=".25"/><path d="m1082.25 828.07h204.85v169.83h-204.85z" fill="url(#a)" opacity=".25"/><path d="m242.44 354.73h270.92v468.79h-270.92z" fill="#fff"/><path d="m262.1 810.07h22.51v4.5h-22.51z" fill="#080808"/><path d="m472.23 810.07h19.52v4.5h-19.52z" fill="#080808"/><path d="m280.16 794.57h-.96v.74h.52l1.7 3.05v.27h-4.59l-1.11 1.11h-4.87l-1.11-1.11h-4.59v-.27l1.7-3.05h.52v-.74h-.96l-2 3.6v8.23h17.76v-8.23zm1.26 11.09h-16.28v-6.29h4.29l1.11 1.11h5.48l1.11-1.11h4.29zm-1.85-7.39v-2.22h-12.57v2.22h.74v-1.48h11.1v1.48zm-10.73-3.33h8.88v.74h.74v-1.48h-10.36v1.48h.74zm.74-1.85h7.4v.74h.74v-1.48h-8.88v1.48h.74zm1.48 10.36c0 .41.33.74.74.74h2.96c.41 0 .74-.33.74-.74v-1.85h-4.44zm.74-1.11h2.96v1.11h-2.96z"/><circle cx="278.42" cy="790.38" fill="#d33820" r="6.19"/><path d="m349.39 793-2.33 9.47-2.34-9.47h-6.85v3.49c-.82-3.06-3.72-3.83-6.41-3.87-3.27-.04-6.71 1.38-6.84 5.71h4.52c0-1.31 1.02-2.06 2.13-2.03 1.39 0 2.03.58 2.06 1.51-.05.8-.51 1.36-2.05 1.36h-1.52v3.13h1.38c.78 0 1.88.43 1.92 1.55.05 1.33-.88 1.92-2.02 1.93-2.03-.08-2.37-1.64-2.37-2.99h-4.67c.02.91-.2 6.82 7.17 6.77 3.53.03 5.99-1.45 6.72-3.5v3.14h4.64v-10.22l2.51 10.22h4.06l2.52-10.21v10.22h4.63v-16.21zm-11.5 9.44c-.58-1.2-1.39-1.72-1.85-1.88.96-.43 1.46-1.02 1.85-2.16z" fill="#d33820"/><path d="m364.99 794.95c-.09-.55-.59-.93-1.14-.89-.6 0-.99.38-.99.8 0 .35.22.62.69.71l.88.17c1.15.22 1.76.97 1.76 1.86 0 .97-.81 1.94-2.28 1.94-1.67 0-2.41-1.07-2.51-1.97l1.14-.3c.05.62.49 1.18 1.38 1.18.66 0 1.02-.33 1.02-.76 0-.36-.27-.65-.76-.75l-.88-.18c-.99-.22-1.63-.86-1.63-1.81 0-1.12 1-1.97 2.19-1.97 1.52 0 2.11.92 2.26 1.64z" fill="#231f20"/><path d="m367.91 797.23c0 .79.51 1.24 1.12 1.24.47.02.89-.28 1.02-.74l1.03.35c-.26.9-1.09 1.51-2.03 1.47-1.25.03-2.28-.96-2.31-2.2 0-.04 0-.08 0-.12-.04-1.23.92-2.27 2.15-2.32h.11c1.19 0 1.87.74 2.05 1.47l-1.06.36c-.1-.45-.51-.76-.97-.74-.61 0-1.11.44-1.11 1.23z" fill="#231f20"/><path d="m372.44 792.88c.4 0 .73.33.73.73s-.33.73-.73.73-.72-.32-.73-.72.31-.73.72-.74zm-.58 6.53v-4.37h1.18v4.37z" fill="#231f20"/><path d="m378.17 798.16c-.27.86-1.09 1.43-1.99 1.38-1.2 0-2.26-.86-2.26-2.34 0-1.39 1.03-2.3 2.15-2.3 1.35 0 2.16.86 2.16 2.26 0 .17-.02.35-.02.37h-3.12c.04.57.53 1.01 1.1.99.45.04.86-.24 1-.67zm-1.1-1.43c-.02-.43-.3-.86-.98-.86-.5-.02-.93.36-.98.86z" fill="#231f20"/><path d="m380.25 799.41h-1.18v-4.37h1.15v.54c.28-.43.76-.68 1.27-.66 1.08 0 1.58.76 1.58 1.73v2.75h-1.19v-2.55c0-.48-.24-.87-.81-.87-.51 0-.82.4-.82.91z" fill="#231f20"/><path d="m384.98 797.23c0 .79.51 1.24 1.12 1.24.47.02.88-.29 1-.74l1.04.35c-.26.91-1.1 1.52-2.04 1.47-1.25.02-2.28-.97-2.3-2.22 0-.03 0-.07 0-.1-.04-1.23.92-2.27 2.15-2.32h.11c1.19 0 1.87.74 2.05 1.47l-1.06.36c-.1-.45-.51-.76-.97-.74-.6 0-1.1.44-1.1 1.23z" fill="#231f20"/><path d="m392.87 798.16c-.27.86-1.09 1.43-1.99 1.38-1.2 0-2.26-.86-2.26-2.34 0-1.39 1.03-2.3 2.15-2.3 1.35 0 2.16.86 2.16 2.26 0 .17-.02.35-.02.37h-3.14c.04.57.53 1.01 1.1.99.45.04.86-.24.99-.67zm-1.1-1.43c-.02-.43-.3-.86-.98-.86-.5-.02-.93.36-.98.86z" fill="#231f20"/><path d="m394.44 797.86c.45 0 .81.37.8.81 0 .45-.37.81-.81.8-.45 0-.8-.36-.8-.81 0-.44.37-.8.81-.8z" fill="#231f20"/><path d="m365.61 807.76h-2.56l-.53 1.44h-1.29l2.41-6.3h1.42l2.4 6.3h-1.33zm-2.15-1.12h1.74l-.87-2.38z" fill="#231f20"/><path d="m368.12 810.88v-6.06h1.14v.53c.31-.43.82-.67 1.34-.63 1.27 0 2.02.98 2.02 2.28 0 1.31-.83 2.3-2.06 2.3-.48.03-.95-.17-1.27-.53v2.11zm2.26-5.1c-.6 0-1.09.45-1.09 1.23 0 .77.49 1.23 1.09 1.23s1.08-.45 1.08-1.23-.48-1.23-1.08-1.23z" fill="#231f20"/><path d="m373.4 810.88v-6.06h1.14v.53c.31-.43.82-.67 1.34-.63 1.27 0 2.02.98 2.02 2.28 0 1.31-.83 2.3-2.06 2.3-.48.03-.95-.17-1.27-.53v2.11zm2.26-5.1c-.6 0-1.09.45-1.09 1.23 0 .77.49 1.23 1.09 1.23s1.08-.45 1.08-1.23-.48-1.23-1.08-1.23z" fill="#231f20"/><path d="m378.71 809.19v-6.43h1.18v6.43z" fill="#231f20"/><path d="m381.7 802.66c.4.01.72.34.72.74s-.34.72-.74.72c-.39-.01-.71-.32-.72-.71-.01-.4.31-.74.71-.75zm-.58 6.53v-4.37h1.18v4.37z" fill="#231f20"/><path d="m387.45 807.94c-.22.76-.91 1.39-1.99 1.39-1.2 0-2.25-.86-2.25-2.34 0-1.4 1.03-2.3 2.15-2.3 1.35 0 2.16.86 2.16 2.27 0 .17-.02.35-.02.36h-3.13c.04.58.53 1.02 1.1.99.45.04.86-.24 1-.67zm-1.1-1.43c-.01-.49-.41-.88-.9-.87-.03 0-.05 0-.08 0-.5-.02-.93.36-.98.86h1.96z" fill="#231f20"/><path d="m392.61 808.4c0 .29.02.61.04.79h-1.13c-.03-.17-.04-.34-.04-.51-.27.41-.74.64-1.23.61-1.24 0-2.13-.98-2.13-2.3 0-1.27.86-2.28 2.1-2.28.76 0 1.11.31 1.23.54v-2.49h1.17v5.64zm-2.22-.16c.6 0 1.08-.46 1.08-1.25s-.47-1.22-1.08-1.22-1.08.44-1.08 1.23c0 .78.45 1.24 1.08 1.24z" fill="#231f20"/><path d="m397.25 804.82h.88v1.05h-.88v1.83c0 .38.18.51.51.51.12 0 .24-.01.36-.04v.98c-.21.08-.44.11-.67.11-.85 0-1.39-.51-1.39-1.35v-2.03h-.79v-1.05h.22c.35.03.65-.23.68-.58 0-.04 0-.08 0-.11v-.61h1.07z" fill="#231f20"/><path d="m403.3 807.01c-.02 1.26-1.06 2.27-2.32 2.25s-2.27-1.06-2.25-2.32c.02-1.25 1.04-2.25 2.28-2.25 1.24-.02 2.26.96 2.29 2.2zm-1.18 0c0-.83-.53-1.24-1.11-1.24s-1.11.42-1.11 1.24.53 1.24 1.11 1.24 1.11-.42 1.11-1.24z" fill="#231f20"/><path d="m405.9 809.19v-6.3h1.23v5.12h2.8v1.17h-4.03z" fill="#231f20"/><path d="m411.32 802.66c.4 0 .73.33.73.73s-.33.73-.73.73c-.39 0-.71-.32-.73-.71-.01-.41.32-.75.73-.75zm-.59 6.53v-4.37h1.17v4.37z" fill="#231f20"/><path d="m414.7 804.34v.48h.99v1.02h-.99v3.35h-1.19v-3.36h-.73v-1.02h.73v-.51c0-.99.62-1.62 1.59-1.62.2-.01.4.02.59.09v1.01c-.12-.03-.25-.05-.37-.05-.31-.03-.58.19-.61.5-.01.04-.02.08-.01.11z" fill="#231f20"/><path d="m420.21 807.94c-.27.86-1.09 1.44-1.99 1.39-1.2 0-2.26-.86-2.26-2.34 0-1.4 1.03-2.3 2.15-2.3 1.35 0 2.16.86 2.16 2.27 0 .17-.02.35-.02.36h-3.13c.04.57.53 1.02 1.1.99.45.04.86-.24 1-.67zm-1.1-1.43c-.02-.44-.3-.86-.98-.86-.5-.02-.93.36-.98.86z" fill="#231f20"/><path d="m421.81 807.64c.45 0 .81.36.81.81s-.36.81-.81.81-.81-.36-.81-.81c0-.45.36-.81.81-.81z" fill="#231f20"/><path d="m424.56 804.82v-1.92h.51l.56 1.39.55-1.39h.52v1.92h-.37v-1.34l-.54 1.34h-.32l-.54-1.33v1.33z" fill="#231f20"/><path d="m422.62 802.9h1.59v.36h-.61v1.56h-.38v-1.56h-.6z" fill="#231f20"/><path d="m473.11 792.46h17.76v2.01h-17.76zm0 5.6h17.76v2.01h-17.76zm0 5.58h17.76v2.01h-17.76z"/><path d="m242.44 394.07h270.92" fill="none" stroke="#d5d5d5" stroke-miterlimit="10"/><path d="m258.68 369.69c-.97.97-1.51 2.25-1.51 3.63s.53 2.66 1.51 3.63c1.72 1.72 4.37 1.96 6.36.72l4.6 4.6 1.46-1.46-4.57-4.56c.59-.86.91-1.86.91-2.93 0-1.38-.53-2.66-1.51-3.63-1.99-1.99-5.25-1.99-7.25 0zm11.34 11.11-.38.38-3.98-3.98c.1-.08.2-.17.28-.27.04-.04.07-.07.11-.11zm-4.61-10.57c.83.83 1.28 1.93 1.28 3.09s-.45 2.26-1.28 3.09c-1.7 1.7-4.47 1.7-6.19 0-.83-.83-1.28-1.93-1.28-3.09s.45-2.26 1.28-3.09c1.71-1.7 4.48-1.7 6.19 0z"/><path d="m294.34 373.29c-.02-.14-.07-.29-.14-.45s-.18-.3-.31-.44c-.13-.13-.3-.24-.5-.33-.2-.08-.44-.13-.71-.13-.22 0-.42.03-.61.1-.18.07-.34.16-.48.28s-.24.26-.31.41c-.07.16-.11.33-.11.51 0 .28.08.52.25.72s.42.34.75.41l1.17.25c.66.15 1.16.41 1.51.8.35.38.52.85.52 1.4 0 .3-.06.59-.19.87s-.31.53-.54.74c-.24.21-.52.39-.85.51-.33.13-.71.19-1.13.19-.47 0-.88-.07-1.23-.21s-.64-.32-.88-.54-.43-.47-.56-.75-.22-.55-.25-.83l1.04-.33c.02.22.08.43.16.64.08.2.21.38.37.54.16.15.35.28.57.37s.48.14.78.14c.54 0 .94-.12 1.21-.36s.4-.54.4-.88c0-.28-.1-.53-.29-.76-.19-.22-.49-.38-.88-.46l-1.12-.24c-.56-.13-1.02-.37-1.38-.72-.36-.36-.54-.83-.54-1.42 0-.31.07-.6.2-.88s.31-.53.55-.74c.23-.21.51-.39.82-.51.32-.13.66-.19 1.02-.19.44 0 .82.06 1.13.18s.58.28.78.47c.21.19.37.4.49.63s.2.45.24.66z" fill="#4b4b4b"/><path d="m301.39 377.59c-.07.22-.18.43-.31.62s-.3.36-.5.5-.43.26-.68.34c-.26.08-.55.12-.87.12-.36 0-.7-.06-1.02-.19s-.59-.32-.83-.56-.43-.54-.57-.9c-.14-.35-.21-.75-.21-1.19 0-.43.07-.81.21-1.16s.33-.64.57-.88.51-.43.82-.56.62-.2.96-.2c.4 0 .77.07 1.08.21.32.14.58.33.8.58s.38.54.49.88.17.71.17 1.12c0 .07 0 .13-.01.19 0 .06-.01.11-.02.14h-4c0 .24.04.46.13.66.08.2.2.37.34.51s.3.25.49.33.39.12.6.12c.41 0 .72-.09.95-.28.22-.19.39-.42.49-.7zm-.98-1.79c-.01-.18-.04-.36-.11-.52-.06-.17-.15-.31-.28-.43-.12-.12-.27-.22-.45-.29s-.39-.11-.63-.11c-.21 0-.41.04-.59.12s-.33.18-.45.31c-.13.13-.22.27-.3.44-.07.17-.11.33-.12.49h2.93z" fill="#4b4b4b"/><path d="m302.44 377.58c0-.24.04-.45.12-.64s.19-.35.34-.48c.14-.13.32-.24.51-.32.2-.08.41-.14.64-.18l1.44-.21c.16-.02.27-.07.33-.14s.08-.16.08-.25c0-.26-.09-.48-.27-.67s-.47-.28-.88-.28c-.37 0-.65.1-.85.3s-.32.46-.35.77l-.99-.23c.03-.25.11-.48.23-.7.12-.21.28-.4.47-.55s.41-.27.67-.35c.25-.08.52-.13.81-.13.4 0 .74.05 1.02.16s.51.25.68.43c.18.18.31.38.39.62s.12.48.12.74v2.66c0 .24.01.42.02.56s.03.24.04.31h-1.02c-.02-.07-.03-.15-.04-.27-.01-.11-.02-.26-.02-.45-.06.1-.14.2-.23.3-.1.1-.21.2-.35.29s-.3.16-.49.22-.4.08-.64.08c-.27 0-.52-.04-.73-.13-.22-.09-.4-.2-.56-.35-.15-.14-.27-.31-.36-.5s-.13-.4-.13-.61zm1.92.72c.21 0 .41-.03.6-.08.19-.06.35-.14.49-.27.14-.12.25-.28.33-.49.08-.2.12-.45.12-.73v-.24l-1.62.24c-.22.04-.4.12-.55.25s-.22.31-.22.55c0 .2.08.38.23.54.15.15.36.23.62.23z" fill="#4b4b4b"/><path d="m311.53 374.74c-.15-.02-.31-.03-.45-.03-.44 0-.79.13-1.06.38s-.4.67-.4 1.25v2.66h-1.04v-5.32h1.02v.93c.1-.21.21-.37.34-.5s.26-.23.4-.31.28-.13.43-.16.29-.04.42-.04c.07 0 .14 0 .2.01s.11.02.14.02z" fill="#4b4b4b"/><path d="m314.91 374.48c-.21 0-.42.04-.61.12s-.36.19-.51.35-.27.35-.36.58-.13.5-.13.81c0 .3.04.57.13.8s.21.43.35.59c.15.16.32.28.52.36s.4.12.62.12c.25 0 .46-.04.64-.11.17-.07.32-.17.43-.28s.2-.23.27-.36.11-.24.14-.35l.92.4c-.07.19-.16.39-.29.58-.13.2-.29.37-.49.54s-.43.29-.7.39-.58.15-.92.15c-.39 0-.75-.07-1.08-.22-.33-.14-.61-.34-.85-.6-.24-.25-.42-.55-.56-.9-.14-.34-.2-.72-.2-1.12 0-.41.07-.79.2-1.14.14-.35.32-.64.56-.89s.52-.44.85-.58.68-.21 1.06-.21c.35 0 .66.05.93.15s.5.23.7.39.35.34.47.55c.12.2.21.4.27.6l-.94.4c-.04-.13-.09-.27-.15-.4-.07-.13-.16-.25-.27-.36s-.25-.2-.41-.27c-.17-.05-.36-.09-.59-.09z" fill="#4b4b4b"/><path d="m319.58 379h-1.04v-8h1.04v3.3c.19-.28.43-.48.72-.6s.59-.18.9-.18c.32 0 .59.05.83.16s.44.25.6.44.28.41.35.67c.08.26.12.53.12.83v3.38h-1.04v-3.19c0-.18-.02-.36-.06-.52s-.11-.3-.21-.43c-.1-.12-.23-.22-.39-.29s-.35-.1-.58-.1c-.2 0-.37.04-.52.11s-.28.17-.38.3-.18.27-.24.44-.09.35-.09.55v3.13z" fill="#4b4b4b"/><path d="m259.6 411.72v3.74h-1.26v-9.14h3.33c.42 0 .81.07 1.15.21.35.14.64.33.89.57.25.25.44.53.57.86.14.33.21.68.21 1.07s-.07.75-.21 1.08-.33.61-.57.85-.54.42-.89.56-.73.21-1.15.21h-2.07zm1.83-1.14c.55 0 .98-.14 1.3-.42.31-.28.47-.66.47-1.13 0-.49-.16-.88-.47-1.16s-.75-.43-1.3-.43h-1.83v3.13h1.83z" fill="#4b4b4b"/><path d="m269.16 410.48c-.18-.03-.36-.04-.53-.04-.51 0-.92.15-1.23.44-.31.3-.47.78-.47 1.46v3.11h-1.21v-6.2h1.19v1.08c.11-.24.24-.44.39-.59s.31-.27.47-.36.33-.15.5-.19c.17-.03.34-.05.49-.05.09 0 .17 0 .24.01s.13.02.16.03z" fill="#4b4b4b"/><path d="m272.91 409.06c.46 0 .89.08 1.28.25s.72.4 1.01.69c.28.29.5.64.66 1.04.15.4.23.84.23 1.31s-.08.91-.23 1.31-.37.75-.66 1.04c-.28.29-.62.52-1.01.69s-.81.25-1.28.25c-.46 0-.89-.08-1.28-.25s-.72-.4-1.01-.69c-.28-.29-.5-.64-.66-1.04-.15-.4-.23-.84-.23-1.31s.08-.91.23-1.31.37-.75.66-1.04c.28-.29.62-.52 1.01-.69.4-.17.82-.25 1.28-.25zm0 5.5c.26 0 .5-.05.73-.14s.44-.24.62-.43.32-.42.43-.7c.1-.28.15-.59.15-.95s-.05-.68-.15-.95-.25-.5-.43-.69-.39-.33-.62-.43c-.23-.09-.48-.14-.73-.14-.26 0-.5.05-.73.14s-.44.24-.62.43-.32.42-.43.69c-.1.27-.15.59-.15.95s.05.68.15.95c.1.28.25.51.43.7s.39.33.62.43.48.14.73.14z" fill="#4b4b4b"/><path d="m278.28 415.61c.02.19.07.37.15.54.09.17.2.32.34.46.14.13.31.24.52.32.2.08.43.12.68.12.58 0 1.04-.17 1.37-.5s.5-.84.5-1.54v-.86c-.15.28-.38.52-.71.72s-.72.3-1.19.3c-.41 0-.79-.08-1.14-.23s-.65-.36-.9-.62-.45-.58-.59-.95-.21-.77-.21-1.21c0-.42.07-.81.21-1.18.14-.36.33-.68.58-.95s.55-.49.9-.64c.35-.16.74-.24 1.17-.24.48 0 .88.09 1.2.26s.55.41.71.72v-.86h1.2v5.71c0 .4-.05.78-.16 1.15s-.28.71-.52 1-.56.53-.95.71-.87.27-1.44.27c-.41 0-.79-.06-1.13-.17-.34-.12-.63-.27-.88-.47s-.44-.43-.59-.7-.24-.56-.28-.86zm1.84-1.47c.52 0 .95-.18 1.28-.54s.49-.84.49-1.44-.16-1.08-.49-1.44-.75-.54-1.28-.54c-.54 0-.97.18-1.3.54s-.49.84-.49 1.44c0 .61.16 1.09.48 1.45.32.35.76.53 1.31.53z" fill="#4b4b4b"/><path d="m288.32 410.48c-.18-.03-.36-.04-.53-.04-.51 0-.92.15-1.23.44-.31.3-.47.78-.47 1.46v3.11h-1.21v-6.2h1.19v1.08c.11-.24.24-.44.39-.59s.31-.27.47-.36.33-.15.5-.19c.17-.03.34-.05.49-.05.09 0 .17 0 .24.01s.13.02.16.03z" fill="#4b4b4b"/><path d="m289.01 413.79c0-.27.05-.52.14-.74s.23-.41.39-.56c.17-.15.37-.28.6-.37s.48-.16.75-.21l1.68-.24c.19-.03.32-.08.38-.17s.1-.18.1-.3c0-.3-.11-.56-.32-.78s-.55-.33-1.02-.33c-.43 0-.76.12-.99.35-.23.24-.37.53-.41.9l-1.16-.27c.03-.29.12-.56.26-.81s.32-.46.55-.64c.22-.18.48-.31.78-.41s.61-.15.95-.15c.46 0 .86.06 1.19.19.33.12.59.29.8.5s.36.45.45.72c.09.28.14.56.14.86v3.11c0 .27.01.49.03.66.02.16.03.28.05.36h-1.19c-.02-.08-.03-.18-.05-.31-.01-.13-.02-.3-.02-.53-.07.11-.16.23-.27.35s-.25.23-.41.34c-.16.1-.35.19-.57.25s-.47.1-.74.1c-.32 0-.6-.05-.86-.15-.25-.1-.47-.24-.65-.41s-.32-.36-.42-.59c-.11-.23-.16-.47-.16-.72zm2.24.84c.25 0 .48-.03.7-.1s.41-.17.57-.31.29-.33.38-.57.14-.52.14-.86v-.28l-1.89.28c-.26.04-.47.14-.64.29s-.26.36-.26.64c0 .23.09.44.27.63s.42.28.73.28z" fill="#4b4b4b"/><path d="m296.04 415.45v-6.2h1.16v.82c.2-.34.47-.6.82-.76s.7-.24 1.06-.24c.39 0 .75.09 1.09.28s.59.49.77.89c.25-.45.56-.75.93-.92s.75-.25 1.15-.25c.27 0 .53.05.79.14s.49.24.69.43.36.44.48.73c.12.3.18.65.18 1.05v4.02h-1.2v-3.89c0-.4-.11-.74-.32-1.01s-.54-.41-1-.41c-.43 0-.78.15-1.04.44-.26.3-.39.67-.39 1.11v3.75h-1.21v-3.89c0-.4-.1-.74-.31-1.01s-.54-.41-1.01-.41c-.44 0-.79.15-1.05.44s-.39.67-.39 1.13v3.74h-1.2z" fill="#4b4b4b"/><path d="m307.52 413.46c.04.33.18.6.43.82.24.22.58.33 1.02.33.34 0 .61-.08.79-.24s.27-.36.27-.58c0-.2-.07-.37-.21-.5-.14-.14-.34-.24-.59-.3l-1.06-.23c-.49-.1-.87-.31-1.14-.62s-.41-.68-.41-1.12c0-.27.06-.52.17-.75.12-.24.27-.44.47-.63.2-.18.43-.32.7-.43.27-.1.56-.15.86-.15.42 0 .78.06 1.06.18.29.12.52.27.7.44.18.18.32.36.41.55s.15.35.19.49l-1.07.4c-.02-.08-.05-.18-.09-.3s-.11-.23-.21-.34c-.09-.11-.22-.2-.39-.28-.16-.08-.36-.12-.61-.12-.31 0-.56.08-.75.25s-.28.36-.28.57c0 .4.24.64.71.75l1.01.22c.57.12.99.34 1.28.66s.43.72.43 1.18c0 .22-.05.45-.14.67s-.23.43-.42.62c-.18.19-.42.34-.7.46s-.62.17-1.01.17c-.43 0-.8-.06-1.1-.18-.31-.12-.56-.27-.76-.45s-.36-.38-.46-.59c-.11-.21-.17-.41-.2-.59z" fill="#4b4b4b"/><path d="m315.41 411.37c0-.7.06-1.36.19-1.95.12-.6.3-1.15.52-1.65s.48-.96.78-1.39c.3-.42.62-.81.97-1.16l.73.64c-.66.74-1.18 1.56-1.57 2.46-.38.9-.57 1.91-.57 3.05 0 1.13.19 2.15.57 3.05s.9 1.72 1.57 2.45l-.73.64c-.34-.35-.67-.74-.97-1.16s-.56-.88-.78-1.39c-.22-.5-.39-1.05-.52-1.65-.13-.59-.19-1.24-.19-1.94z" fill="#4b4b4b"/><path d="m320.92 415.45v-6.61h-2.09v-.89c.29-.01.56-.06.81-.14.25-.09.47-.2.66-.35s.35-.32.48-.52c.12-.2.21-.41.26-.63h1.11v9.14z" fill="#4b4b4b"/><path d="m325.43 415.45v-6.61h-2.09v-.89c.29-.01.56-.06.81-.14.25-.09.47-.2.66-.35s.35-.32.48-.52c.12-.2.21-.41.26-.63h1.11v9.14z" fill="#4b4b4b"/><path d="m330.91 411.37c0 .7-.06 1.36-.19 1.95-.12.6-.3 1.15-.52 1.65s-.48.96-.78 1.39c-.3.42-.62.81-.97 1.16l-.73-.64c.65-.73 1.17-1.55 1.56-2.45s.58-1.92.58-3.05c0-.57-.05-1.1-.15-1.61s-.24-.99-.43-1.44c-.19-.46-.41-.89-.68-1.29s-.56-.79-.89-1.16l.73-.64c.34.35.67.74.97 1.16s.56.88.78 1.39c.22.5.39 1.05.52 1.65s.2 1.22.2 1.93z" fill="#4b4b4b"/><path d="m487.39 423.5h-33.8c-5.74 0-10.4-4.65-10.4-10.4 0-5.74 4.65-10.4 10.4-10.4h33.8c5.74 0 10.4 4.65 10.4 10.4 0 5.75-4.66 10.4-10.4 10.4z" fill="#d4d4d4"/><path d="m460.1 423.5h-6.5c-5.74 0-10.4-4.65-10.4-10.4 0-5.74 4.65-10.4 10.4-10.4h6.5c5.74 0 10.4 4.65 10.4 10.4-.01 5.75-4.66 10.4-10.4 10.4z"/><path d="m483.19 412.48h-4.17c-.19 0-.33-.14-.33-.33v-4.15c0-.19.14-.33.33-.33h4.16c.19 0 .33.14.33.33v4.16c.01.17-.14.32-.32.32zm-3.84-.65h3.5v-3.5h-3.5zm9.91.65h-4.16c-.19 0-.33-.14-.33-.33v-4.15c0-.19.14-.33.33-.33h4.16c.19 0 .33.14.33.33v4.16c0 .17-.16.32-.33.32zm-3.83-.65h3.5v-3.5h-3.5zm-2.24 6.72h-4.17c-.19 0-.33-.14-.33-.33v-4.16c0-.19.14-.33.33-.33h4.16c.19 0 .33.14.33.33v4.16c.01.19-.14.33-.32.33zm-3.84-.66h3.5v-3.5h-3.5zm9.91.66h-4.16c-.19 0-.33-.14-.33-.33v-4.16c0-.19.14-.33.33-.33h4.16c.19 0 .33.14.33.33v4.16c0 .19-.16.33-.33.33zm-3.83-.66h3.5v-3.5h-3.5z"/><path d="m451.25 410.88c-.73 0-1.32-.6-1.32-1.34s.6-1.32 1.32-1.32c.74 0 1.32.6 1.32 1.32.02.74-.58 1.34-1.32 1.34zm0-1.89c-.31 0-.56.25-.56.56s.25.56.56.56.56-.25.56-.56c.01-.31-.24-.56-.56-.56zm11 .94h-8.46c-.22 0-.38-.17-.38-.38 0-.22.17-.38.38-.38h8.46c.22 0 .38.17.38.38s-.16.38-.38.38zm-11 4.5c-.73 0-1.32-.6-1.32-1.34s.6-1.32 1.32-1.32c.74 0 1.32.6 1.32 1.32.02.74-.58 1.34-1.32 1.34zm0-1.89c-.31 0-.56.25-.56.56 0 .32.25.57.56.57s.56-.25.56-.56c.01-.32-.24-.57-.56-.57zm11 .94h-8.46c-.22 0-.38-.17-.38-.38s.17-.38.38-.38h8.46c.22 0 .38.17.38.38s-.16.38-.38.38zm-11 4.51c-.73 0-1.32-.6-1.32-1.34s.6-1.32 1.32-1.32c.74 0 1.32.6 1.32 1.32.02.74-.58 1.34-1.32 1.34zm0-1.89c-.31 0-.56.25-.56.56 0 .32.25.57.56.57s.56-.25.56-.56c.01-.32-.24-.57-.56-.57zm11 .94h-8.46c-.22 0-.38-.17-.38-.38s.17-.38.38-.38h8.46c.22 0 .38.17.38.38s-.16.38-.38.38z" fill="#fff"/><path d="m248.8 505.36h256.91" fill="none" stroke="#d5d5d5" stroke-miterlimit="10"/><path d="m248.8 591.82h256.91" fill="none" stroke="#d5d5d5" stroke-miterlimit="10"/><path d="m248.8 668.53h256.91" fill="none" stroke="#d5d5d5" stroke-miterlimit="10"/><path d="m248.8 754.55h256.91" fill="none" stroke="#d5d5d5" stroke-miterlimit="10"/><path d="m256.17 439.3h44.24v56.2h-44.24z" fill="#4b4b4b"/><path d="m256.17 439.3h44.24v56.2h-44.24z" fill="url(#a)" opacity=".25"/><path d="m312.29 441.75h183.78v10.56h-183.78z" fill="#4b4b4b"/><path d="m312.29 455.59h183.78" fill="none" stroke="#d5d5d5" stroke-miterlimit="10" stroke-width=".8755"/><path d="m312.53 464.58h35.56v5.43h-35.56z" fill="#d5d5d5"/><path d="m350.21 464.58h37.43v5.43h-37.43z"/><path d="m391.36 464.58h70.63v5.43h-70.63z"/><path d="m312.53 478.21h42.16v15.3h-42.16z" fill="#5b5b5b"/><path d="m291.19 492.64h-2.95c-2.86 0-5.2-2.34-5.2-5.2v-.55c0-2.86 2.34-5.2 5.2-5.2h2.95c2.86 0 5.2 2.34 5.2 5.2v.55c.01 2.85-2.33 5.2-5.2 5.2z" fill="#ed2024"/><path d="m256.17 520.49h44.24v56.2h-44.24z" fill="#4b4b4b"/><path d="m256.17 520.49h44.24v56.2h-44.24z" fill="url(#g)" opacity=".25"/><path d="m312.29 517.94h147.53v10.56h-147.53z" fill="#4b4b4b"/><path d="m312.29 531.79h147.53" fill="none" stroke="#d5d5d5" stroke-miterlimit="10" stroke-width=".7845"/><path d="m312.53 539.35h35.56v5.43h-35.56z" fill="#d5d5d5"/><path d="m350.21 539.35h24.47v5.43h-24.47z"/><path d="m377.26 539.35h39.06v5.43h-39.06z"/><path d="m419.77 539.35h39.06v5.43h-39.06z"/><path d="m393.39 551.98h49.81v5.43h-49.81z"/><path d="m312.53 551.98h75.11v5.43h-75.11z"/><path d="m312.53 566.18h32.23v15.3h-32.23z" fill="#5b5b5b"/><path d="m291.19 573.83h-2.95c-2.86 0-5.2-2.34-5.2-5.2v-.55c0-2.86 2.34-5.2 5.2-5.2h2.95c2.86 0 5.2 2.34 5.2 5.2v.55c.01 2.86-2.33 5.2-5.2 5.2z" fill="#ed2024"/><path d="m256.17 602.08h44.24v56.2h-44.24z" fill="#4b4b4b"/><path d="m256.17 602.08h44.24v56.2h-44.24z" fill="url(#h)" opacity=".25"/><path d="m312.29 604.53h54.86v10.56h-54.86z" fill="#4b4b4b"/><path d="m312.29 618.37h54.87" fill="none" stroke="#d5d5d5" stroke-miterlimit="10" stroke-width=".4784"/><path d="m312.53 627.36h35.56v5.43h-35.56z" fill="#d5d5d5"/><path d="m350.21 627.36h18.72v5.43h-18.72z"/><path d="m312.53 640.98h41.32v15.3h-41.32z" fill="#5b5b5b"/><path d="m291.19 655.41h-2.95c-2.86 0-5.2-2.34-5.2-5.2v-.55c0-2.86 2.34-5.2 5.2-5.2h2.95c2.86 0 5.2 2.34 5.2 5.2v.55c.01 2.86-2.33 5.2-5.2 5.2z" fill="#ed2024"/><path d="m256.17 683.44h44.24v56.2h-44.24z" fill="#4b4b4b"/><path d="m256.17 683.44h44.24v56.2h-44.24z" fill="url(#i)" opacity=".25"/><path d="m312.29 680.6h181.45v10.56h-181.45z" fill="#4b4b4b"/><path d="m312.29 694.45h181.45" fill="none" stroke="#d5d5d5" stroke-miterlimit="10" stroke-width=".87"/><path d="m312.41 702.7h35.56v5.43h-35.56z" fill="#d5d5d5"/><path d="m350.09 702.7h22.83v5.43h-22.83z"/><path d="m313.51 714.92h34.59v5.43h-34.59z"/><path d="m418.01 702.7h48.12v5.43h-48.12z"/><path d="m376.84 702.7h37.28v5.43h-37.28z"/><path d="m312.53 729.13h40.43v15.3h-40.43z" fill="#5b5b5b"/><path d="m291.19 736.78h-2.95c-2.86 0-5.2-2.34-5.2-5.2v-.55c0-2.86 2.34-5.2 5.2-5.2h2.95c2.86 0 5.2 2.34 5.2 5.2v.55c.01 2.86-2.33 5.2-5.2 5.2z" fill="#ed2024"/><path d="m256.17 770.3h44.24v10.33h-44.24z" fill="#4b4b4b"/><path d="m256.17 770.3h44.24v10.33h-44.24z" fill="url(#a)" opacity=".25"/><path d="m312.29 766.74h153.96v10.56h-153.96z" fill="#4b4b4b"/><path d="m242.44 780.63h270.92" fill="none" stroke="#d5d5d5" stroke-miterlimit="10"/></svg>