<svg enable-background="new 0 0 2466.14 1162.2" viewBox="0 0 2466.14 1162.2" xmlns="http://www.w3.org/2000/svg"><path d="m780.05 161.4h1458v836h-1458z" fill="#fff"/><path d="m1044.24 180.73h367v19.72h-367z" fill="#e0e0e0"/><path d="m2105.05 182.73h56.23v14h-56.23z" fill="#cecece"/><path d="m1935.27 182.73h84.28v14h-84.28z" fill="#cecece"/><path d="m2024.02 182.73h77v14h-77z" fill="#5f99cf" opacity=".5"/><path d="m780.13 471.44h1455.84v4.77h-1455.84z" fill="#ff4500"/><path d="m780.13 218.4h1455.84v4.77h-1455.84z" fill="#ff4500"/><path d="m844.16 276.85c.36.36.86.69 1.52 1 .65.31 1.52.46 2.6.46 1.8 0 3.29-.46 4.48-1.4 1.19-.93 1.79-2.23 1.79-3.9 0-1.21-.39-2.22-1.15-3.04-.77-.82-1.74-1.57-2.92-2.25-1.18-.69-2.43-1.36-3.77-2.03s-2.6-1.46-3.77-2.38-2.15-2-2.91-3.26c-.77-1.26-1.15-2.82-1.15-4.68 0-1.6.29-2.99.88-4.17s1.4-2.15 2.43-2.92 2.24-1.34 3.65-1.71c1.4-.38 2.92-.56 4.56-.56 1.99 0 3.85.14 5.56.42 1.72.28 3.26.71 4.63 1.3-.03.65-.09 1.4-.17 2.25s-.19 1.69-.32 2.52-.27 1.62-.42 2.35-.29 1.35-.42 1.84h-2.01l-2.27-6.71c-.39-.2-.98-.38-1.75-.54s-1.57-.24-2.39-.24c-1.38 0-2.54.36-3.49 1.08s-1.43 1.76-1.43 3.14c0 1.24.39 2.3 1.18 3.16.79.87 1.77 1.66 2.95 2.38s2.47 1.43 3.86 2.13 2.68 1.51 3.86 2.42c1.18.92 2.16 1.98 2.95 3.21s1.18 2.74 1.18 4.53c0 3.27-1.1 5.79-3.31 7.57-2.2 1.78-5.45 2.67-9.73 2.67-1.05 0-2.1-.07-3.16-.2s-2.07-.31-3.01-.54-1.79-.47-2.52-.73-1.28-.54-1.64-.83c.03-.75.11-1.56.24-2.43.13-.86.27-1.73.42-2.6.15-.86.3-1.69.47-2.48s.33-1.47.49-2.06h2.01z" fill="#333"/><path d="m865.62 268.67c0-1.99.3-3.78.91-5.37.6-1.58 1.47-2.93 2.6-4.04s2.49-1.96 4.09-2.55 3.41-.88 5.44-.88c2.29 0 4.26.32 5.9.96 1.65.64 3.01 1.52 4.07 2.65s1.84 2.48 2.33 4.07c.49 1.58.73 3.31.73 5.17 0 1.99-.29 3.78-.88 5.37s-1.45 2.93-2.57 4.04c-1.13 1.11-2.5 1.96-4.12 2.55s-3.44.88-5.46.88c-2.22 0-4.15-.32-5.78-.96-1.64-.64-2.99-1.52-4.07-2.65s-1.88-2.48-2.4-4.07c-.53-1.59-.79-3.31-.79-5.17zm7.59 0c0 1.47.09 2.82.27 4.04.18 1.23.5 2.26.96 3.11s1.08 1.51 1.86 1.98 1.8.71 3.04.71c.72 0 1.37-.17 1.96-.52.59-.34 1.09-.9 1.52-1.67.42-.77.74-1.78.96-3.04.21-1.26.32-2.8.32-4.63 0-1.5-.09-2.86-.27-4.07s-.49-2.24-.93-3.09-1.04-1.51-1.79-1.98-1.7-.71-2.84-.71c-.85 0-1.59.17-2.21.52-.62.34-1.14.9-1.57 1.67-.42.77-.74 1.78-.96 3.04-.21 1.26-.32 2.81-.32 4.64z" fill="#333"/><path d="m922.61 280.92h-12.25v-1.86c.33-.2.69-.4 1.1-.61s.86-.4 1.35-.57v-9.77c0-1.51-.04-2.78-.12-3.83s-.25-1.91-.52-2.58c-.26-.67-.62-1.16-1.08-1.47s-1.05-.47-1.76-.47c-1.05 0-1.95.4-2.72 1.2s-1.33 1.86-1.69 3.17v13.76c.88.26 1.7.65 2.45 1.18v1.86h-12.74v-1.86c.46-.23.96-.44 1.52-.64.55-.2 1.13-.38 1.72-.54v-18.02l-3.23-.39v-1.86c.52-.23 1.17-.44 1.94-.64s1.56-.37 2.38-.52 1.61-.27 2.38-.37 1.41-.18 1.94-.24h1.67v5.54h.05c.52-1.54 1.45-2.84 2.77-3.92s2.92-1.62 4.78-1.62c.78 0 1.55.08 2.3.24s1.45.46 2.08.91 1.18 1.05 1.64 1.84c.46.78.78 1.8.98 3.04.59-1.8 1.57-3.25 2.94-4.36s3.04-1.67 5-1.67c1.21 0 2.28.16 3.21.47s1.72.86 2.35 1.64c.64.79 1.12 1.85 1.44 3.19.33 1.34.49 3.04.49 5.11v11.64c1.11.2 2.19.59 3.23 1.18v1.86h-12.74v-1.86c.75-.49 1.57-.88 2.45-1.18v-10.66c0-2.55-.24-4.44-.71-5.65s-1.49-1.82-3.06-1.82c-1.18 0-2.1.44-2.77 1.33-.67.88-1.17 2.06-1.49 3.54v13.26c.55.16 1.05.35 1.49.54.44.2.86.41 1.25.64z" fill="#333"/><path d="m962.88 276.8c-.26.56-.68 1.12-1.25 1.69s-1.27 1.08-2.11 1.52-1.8.8-2.89 1.08-2.28.42-3.55.42c-2.03 0-3.82-.3-5.39-.91s-2.88-1.47-3.92-2.6c-1.05-1.13-1.84-2.48-2.38-4.04s-.81-3.33-.81-5.29c0-4.18 1.09-7.37 3.28-9.55 2.19-2.19 5.23-3.28 9.11-3.28 1.67 0 3.23.23 4.68.69s2.66 1.21 3.63 2.25c.96 1.05 1.63 2.42 2.01 4.12s.35 3.77-.07 6.22h-15.04c.03 2.58.69 4.64 1.98 6.17 1.29 1.54 3.19 2.3 5.71 2.3 1.08 0 2.2-.16 3.36-.49s2.07-.75 2.72-1.27zm-10.12-18.18c-.65 0-1.23.11-1.73.34s-.94.65-1.31 1.25c-.37.61-.67 1.42-.9 2.45s-.39 2.33-.49 3.9h7.84c.23-2.55.08-4.51-.44-5.88s-1.51-2.06-2.97-2.06z" fill="#333"/><path d="m992.13 255.83c2.12 0 3.89.22 5.29.66s2.47.99 3.19 1.64c1.54-1.67 3.3-2.83 5.29-3.48.23.16.46.4.69.71s.43.65.59 1.01.3.72.39 1.08c.1.36.15.65.15.88l-.64 1.18h-5.15c.36.46.69 1.05 1 1.79s.47 1.61.47 2.62c0 1.08-.23 2.09-.69 3.04s-1.15 1.79-2.08 2.52-2.11 1.32-3.53 1.74-3.08.64-4.97.64c-.56 0-1.05-.01-1.49-.02-.44-.02-.82-.06-1.15-.12-.13.2-.27.43-.42.71s-.22.55-.22.81c0 .56.39 1 1.18 1.32.78.33 1.78.62 2.99.88s2.51.56 3.9.88c1.39.33 2.69.76 3.9 1.3s2.22 1.24 3.04 2.11c.81.87 1.24 1.98 1.27 3.36.03 1.31-.29 2.47-.98 3.48s-1.63 1.87-2.82 2.57-2.6 1.24-4.21 1.62c-1.62.38-3.34.56-5.17.56-2.16 0-3.99-.17-5.51-.52-1.52-.34-2.75-.81-3.7-1.4s-1.64-1.26-2.08-2.01-.66-1.54-.66-2.35c0-.92.18-1.7.54-2.35s.86-1.23 1.52-1.71c.65-.49 1.41-.9 2.28-1.23.86-.33 1.82-.62 2.87-.88-.49-.13-.96-.29-1.42-.49s-.87-.43-1.23-.71-.65-.6-.88-.98-.34-.81-.34-1.3c0-.42.13-.84.39-1.25s.6-.78 1.03-1.13c.42-.34.88-.65 1.37-.93s.98-.51 1.47-.71c-2.06-.46-3.69-1.35-4.9-2.67s-1.81-3.01-1.81-5.07c0-2.45 1.01-4.36 3.04-5.73 2-1.39 4.74-2.07 8.2-2.07zm6.18 28.81c0-.88-.27-1.59-.81-2.13s-1.23-.98-2.08-1.32-1.81-.64-2.87-.88-2.11-.53-3.16-.86c-.85.65-1.45 1.31-1.81 1.96s-.54 1.44-.54 2.35c0 1.5.52 2.67 1.54 3.5 1.03.83 2.47 1.25 4.34 1.25 1.83 0 3.19-.39 4.07-1.15.88-.77 1.32-1.68 1.32-2.72zm-10.39-20.78c0 1.7.29 2.99.86 3.87s1.69 1.32 3.36 1.32c1.6 0 2.7-.45 3.31-1.35.6-.9.91-2.18.91-3.85 0-1.76-.31-3.08-.93-3.95-.62-.86-1.71-1.3-3.28-1.3-1.63 0-2.74.42-3.33 1.27-.61.87-.9 2.2-.9 3.99z" fill="#333"/><path d="m1010.61 271.19c0-2.06.05-3.98.15-5.74s.15-3.63.15-5.6l-3.23-.39v-1.86c.52-.2 1.17-.39 1.94-.59s1.56-.37 2.38-.51c.82-.15 1.61-.28 2.38-.39s1.41-.2 1.94-.27h1.67c0 2.45-.05 4.86-.15 7.23s-.15 4.7-.15 6.98c0 2.68.27 4.61.81 5.78.54 1.18 1.54 1.76 3.01 1.76 1.01 0 1.95-.38 2.82-1.15.86-.77 1.57-2.01 2.13-3.71v-12.87l-3.19-.39v-1.86c.49-.2 1.1-.39 1.84-.59.73-.2 1.5-.37 2.3-.51.8-.15 1.59-.28 2.38-.39.78-.11 1.47-.2 2.06-.27h1.67v21.61l3.23.39v1.71c-.46.2-1.03.39-1.71.59-.69.2-1.4.39-2.16.56-.75.18-1.49.33-2.23.44-.73.11-1.4.2-1.98.27h-1.67l-.34-5.83h-.2c-.16.69-.46 1.38-.88 2.08-.43.7-.97 1.34-1.64 1.91s-1.46 1.04-2.38 1.4-1.93.54-3.04.54c-1.24 0-2.34-.16-3.31-.47-.96-.31-1.79-.86-2.47-1.64-.69-.79-1.21-1.84-1.57-3.17s-.56-3.02-.56-5.05z" fill="#333"/><path d="m1039.76 259.46c-.49-.13-.94-.29-1.35-.49s-.82-.42-1.25-.69v-1.86h12.89v1.81c-.69.46-1.62.87-2.79 1.23l4.95 12.33.83 3.14h.1l.78-3.19 3.82-12.29c-.98-.2-1.88-.59-2.69-1.18v-1.86h9.46v1.86c-.69.46-1.62.85-2.79 1.18l-7.99 21.46c-.78 2.09-1.57 3.8-2.35 5.12s-1.57 2.38-2.35 3.16-1.57 1.33-2.35 1.64-1.57.52-2.35.61c-.33-.29-.62-.66-.88-1.1s-.49-.92-.69-1.42c-.19-.51-.36-1.02-.49-1.54s-.21-1.01-.24-1.47l.64-1.18h5.98c.29-.46.55-.95.76-1.47s.47-1.31.76-2.35z" fill="#333"/><path d="m1078.18 275.57c0-.85-.3-1.58-.91-2.2-.6-.62-1.35-1.19-2.25-1.71s-1.88-1.05-2.94-1.57-2.04-1.14-2.94-1.84-1.65-1.53-2.25-2.48-.91-2.11-.91-3.48c0-.98.23-1.87.69-2.67s1.08-1.48 1.86-2.03 1.72-.99 2.82-1.3c1.09-.31 2.28-.46 3.55-.46 1.76 0 3.41.14 4.93.42s2.85.66 3.99 1.15c-.13 1.05-.39 2.17-.78 3.36s-.77 2.28-1.13 3.26h-1.67l-2.06-5c-.39-.16-.8-.27-1.23-.32s-.9-.07-1.42-.07c-.98 0-1.72.29-2.23.86s-.76 1.22-.76 1.94c0 .82.3 1.53.91 2.13.6.61 1.35 1.17 2.25 1.69s1.88 1.05 2.94 1.57 2.04 1.12 2.94 1.79 1.65 1.46 2.25 2.38.91 2.01.91 3.28c0 2.25-.92 4.03-2.74 5.32-1.83 1.29-4.28 1.94-7.35 1.94-1.57 0-3.19-.16-4.85-.49s-3.1-.78-4.31-1.37c.06-1.18.34-2.37.83-3.58s1.01-2.29 1.57-3.23h1.67l2.4 5.34c.36.26.76.42 1.2.47s.86.07 1.25.07c.95 0 1.81-.28 2.6-.83.78-.59 1.17-1.36 1.17-2.34z" fill="#333"/><path d="m1129.14 280.92h-12.25v-1.86c.33-.2.69-.4 1.1-.61s.86-.4 1.35-.57v-9.77c0-1.51-.04-2.78-.12-3.83s-.25-1.91-.52-2.58c-.26-.67-.62-1.16-1.08-1.47s-1.05-.47-1.76-.47c-1.05 0-1.95.4-2.72 1.2s-1.33 1.86-1.69 3.17v13.76c.88.26 1.7.65 2.45 1.18v1.86h-12.74v-1.86c.46-.23.96-.44 1.52-.64s1.13-.38 1.71-.54v-18.02l-3.23-.39v-1.86c.52-.23 1.17-.44 1.94-.64s1.56-.37 2.38-.52c.81-.15 1.61-.27 2.38-.37s1.41-.18 1.94-.24h1.67v5.54h.05c.52-1.54 1.44-2.84 2.77-3.92 1.32-1.08 2.92-1.62 4.78-1.62.78 0 1.55.08 2.3.24s1.44.46 2.08.91 1.18 1.05 1.64 1.84c.46.78.78 1.8.98 3.04.59-1.8 1.57-3.25 2.94-4.36s3.04-1.67 5-1.67c1.21 0 2.28.16 3.21.47s1.72.86 2.35 1.64c.64.79 1.12 1.85 1.44 3.19.33 1.34.49 3.04.49 5.11v11.64c1.11.2 2.19.59 3.23 1.18v1.86h-12.74v-1.86c.75-.49 1.57-.88 2.45-1.18v-10.66c0-2.55-.24-4.44-.71-5.65s-1.49-1.82-3.06-1.82c-1.18 0-2.1.44-2.77 1.33-.67.88-1.17 2.06-1.49 3.54v13.26c.56.16 1.05.35 1.49.54.44.2.86.41 1.25.64z" fill="#333"/><path d="m1168.63 273.81c0 .72.01 1.34.02 1.86.02.52.06 1.08.12 1.67l3.38.49v1.71c-.39.2-.92.39-1.59.59s-1.37.39-2.11.56c-.73.18-1.46.33-2.18.44s-1.35.2-1.91.27h-1.67c-.33-.75-.52-1.5-.59-2.25-.06-.75-.11-1.67-.15-2.74h-.24c-.16.65-.44 1.28-.83 1.89s-.89 1.14-1.49 1.62c-.6.47-1.31.86-2.13 1.15s-1.73.44-2.74.44c-1.08 0-2.07-.16-2.99-.49s-1.71-.78-2.4-1.37-1.23-1.3-1.62-2.13-.59-1.77-.59-2.82c0-1.47.28-2.68.83-3.63.56-.95 1.43-1.72 2.62-2.33s2.73-1.05 4.61-1.35c1.88-.29 4.16-.51 6.83-.64.26-2.81.15-4.87-.34-6.17-.49-1.31-1.55-1.96-3.19-1.96-1.01 0-1.94.16-2.79.49l-2.3 5.88h-2.16c-.26-.39-.52-.84-.76-1.35s-.47-1.05-.69-1.62c-.21-.57-.39-1.15-.54-1.74s-.25-1.16-.32-1.71c1.24-.85 2.84-1.52 4.8-2.01s4.03-.73 6.22-.73c1.86 0 3.38.2 4.56.61s2.1.96 2.77 1.67c.67.7 1.14 1.53 1.4 2.48s.39 1.96.39 3.04c0 1.96-.04 3.73-.12 5.32-.07 1.57-.11 3.19-.11 4.86zm-11.02 3.77c.69 0 1.27-.13 1.76-.39s.91-.57 1.25-.93.6-.75.78-1.18c.18-.42.32-.8.42-1.13v-4.9c-1.54.03-2.79.13-3.77.29s-1.75.43-2.3.81c-.56.38-.94.85-1.15 1.42s-.32 1.27-.32 2.08c0 1.24.29 2.2.88 2.89s1.4 1.04 2.45 1.04z" fill="#333"/><path d="m1191.42 276.06c-.16.72-.46 1.4-.88 2.06-.43.65-.93 1.23-1.52 1.74s-1.26.91-2.01 1.2-1.55.44-2.4.44c-3.23 0-5.69-1.02-7.37-3.06s-2.52-5.17-2.52-9.38c0-2.16.3-4.04.88-5.66.59-1.62 1.41-2.98 2.47-4.09s2.34-1.94 3.85-2.5c1.5-.55 3.17-.83 5-.83.59 0 1.09.02 1.49.05.41.03.78.07 1.13.12.34.05.67.13.98.24s.66.24 1.05.37v-8.67l-3.72-.39v-1.86c.46-.2 1.08-.38 1.89-.54.8-.16 1.64-.32 2.52-.46.88-.15 1.75-.29 2.6-.42s1.55-.24 2.11-.34h1.67v33.37l3.23.39v1.71c-.46.23-1.05.44-1.76.64-.72.2-1.47.38-2.25.54s-1.54.3-2.28.42c-.73.11-1.35.2-1.84.27h-1.67l-.44-5.34zm-4.46 1.52c1.14 0 2.11-.36 2.89-1.08s1.35-1.94 1.71-3.67v-13.18c-.43-.26-.95-.47-1.59-.64-.64-.16-1.43-.24-2.38-.24-1.9 0-3.25.86-4.07 2.57s-1.22 4.21-1.22 7.47c0 2.65.36 4.77 1.08 6.37s1.91 2.4 3.58 2.4z" fill="#333"/><path d="m1226.65 276.8c-.26.56-.68 1.12-1.25 1.69s-1.27 1.08-2.11 1.52-1.8.8-2.89 1.08-2.28.42-3.55.42c-2.03 0-3.82-.3-5.39-.91s-2.88-1.47-3.92-2.6c-1.05-1.13-1.84-2.48-2.38-4.04s-.81-3.33-.81-5.29c0-4.18 1.09-7.37 3.28-9.55 2.19-2.19 5.23-3.28 9.11-3.28 1.67 0 3.23.23 4.68.69s2.66 1.21 3.63 2.25c.96 1.05 1.63 2.42 2.01 4.12s.35 3.77-.07 6.22h-15.04c.03 2.58.69 4.64 1.98 6.17 1.29 1.54 3.19 2.3 5.71 2.3 1.08 0 2.2-.16 3.36-.49s2.07-.75 2.72-1.27zm-10.12-18.18c-.65 0-1.23.11-1.73.34s-.94.65-1.31 1.25c-.37.61-.67 1.42-.9 2.45s-.39 2.33-.49 3.9h7.84c.23-2.55.08-4.51-.44-5.88s-1.51-2.06-2.97-2.06z" fill="#333"/><path d="m1265.99 273.81c0 .72.01 1.34.02 1.86.02.52.06 1.08.12 1.67l3.38.49v1.71c-.39.2-.92.39-1.59.59s-1.37.39-2.11.56c-.73.18-1.46.33-2.18.44s-1.35.2-1.91.27h-1.67c-.33-.75-.52-1.5-.59-2.25-.06-.75-.11-1.67-.15-2.74h-.24c-.16.65-.44 1.28-.83 1.89s-.89 1.14-1.49 1.62c-.6.47-1.31.86-2.13 1.15s-1.73.44-2.74.44c-1.08 0-2.07-.16-2.99-.49s-1.71-.78-2.4-1.37-1.23-1.3-1.62-2.13-.59-1.77-.59-2.82c0-1.47.28-2.68.83-3.63.56-.95 1.43-1.72 2.62-2.33s2.73-1.05 4.61-1.35c1.88-.29 4.16-.51 6.83-.64.26-2.81.15-4.87-.34-6.17-.49-1.31-1.55-1.96-3.19-1.96-1.01 0-1.94.16-2.79.49l-2.3 5.88h-2.16c-.26-.39-.52-.84-.76-1.35s-.47-1.05-.69-1.62c-.21-.57-.39-1.15-.54-1.74s-.25-1.16-.32-1.71c1.24-.85 2.84-1.52 4.8-2.01s4.03-.73 6.22-.73c1.86 0 3.38.2 4.56.61s2.1.96 2.77 1.67c.67.7 1.14 1.53 1.4 2.48s.39 1.96.39 3.04c0 1.96-.04 3.73-.12 5.32-.07 1.57-.11 3.19-.11 4.86zm-11.02 3.77c.69 0 1.27-.13 1.76-.39s.91-.57 1.25-.93.6-.75.78-1.18c.18-.42.32-.8.42-1.13v-4.9c-1.54.03-2.79.13-3.77.29s-1.75.43-2.3.81c-.56.38-.94.85-1.15 1.42s-.32 1.27-.32 2.08c0 1.24.29 2.2.88 2.89s1.4 1.04 2.45 1.04z" fill="#333"/><path d="m1293.87 281.5-7.69-22.05c-.46-.16-.91-.33-1.35-.52-.44-.18-.86-.4-1.25-.66v-1.86h12.4v1.81c-.46.26-.92.5-1.37.71-.46.21-.93.39-1.42.52l3.38 12.58.64 3.78h.1l.88-3.92 5.19-15.19 2.4-.29 5.59 15.53 1.03 3.87h.1l.78-3.83 2.94-12.53c-.36-.07-.78-.2-1.25-.39-.47-.2-.95-.46-1.44-.79v-1.86h9.46v1.86c-.69.46-1.62.85-2.79 1.18l-6.81 21.46-4.6.59-4.21-12.1-.93-4.07h-.15l-1.13 4.07-3.92 11.52z" fill="#333"/><path d="m1346.01 276.8c-.26.56-.68 1.12-1.25 1.69s-1.27 1.08-2.11 1.52-1.8.8-2.89 1.08-2.28.42-3.55.42c-2.03 0-3.82-.3-5.39-.91s-2.88-1.47-3.92-2.6c-1.05-1.13-1.84-2.48-2.38-4.04s-.81-3.33-.81-5.29c0-4.18 1.09-7.37 3.28-9.55 2.19-2.19 5.23-3.28 9.11-3.28 1.67 0 3.23.23 4.68.69s2.66 1.21 3.63 2.25c.96 1.05 1.63 2.42 2.01 4.12s.35 3.77-.07 6.22h-15.04c.03 2.58.69 4.64 1.98 6.17 1.29 1.54 3.19 2.3 5.71 2.3 1.08 0 2.2-.16 3.36-.49s2.07-.75 2.72-1.27zm-10.12-18.18c-.65 0-1.23.11-1.73.34s-.94.65-1.31 1.25c-.37.61-.67 1.42-.9 2.45s-.39 2.33-.49 3.9h7.84c.23-2.55.08-4.51-.44-5.88s-1.51-2.06-2.97-2.06z" fill="#333"/><path d="m1352.08 248.09-3.72-.39v-1.86c.49-.2 1.14-.39 1.94-.59s1.63-.37 2.5-.52 1.72-.28 2.55-.39 1.54-.2 2.13-.27h1.67v16.95h.1c.65-1.63 1.65-2.91 2.99-3.82 1.34-.92 2.92-1.37 4.75-1.37 2.87 0 5.11 1 6.71 2.99s2.4 5.02 2.4 9.07c0 4.48-1.19 7.84-3.55 10.09s-5.84 3.38-10.41 3.38c-.82 0-1.73-.06-2.74-.17-1.01-.12-1.99-.25-2.94-.42-.95-.16-1.82-.36-2.62-.59s-1.38-.46-1.74-.69zm11.72 11.66c-1.24 0-2.24.45-2.99 1.35s-1.31 2.03-1.67 3.4v12.98c.46.33 1.02.59 1.69.78.67.2 1.43.29 2.28.29 1.86 0 3.23-.83 4.09-2.5s1.3-4.28 1.3-7.84c0-2.58-.35-4.64-1.05-6.17-.71-1.52-1.92-2.29-3.65-2.29z" fill="#333"/><path d="m1392.02 275.57c0-.85-.3-1.58-.91-2.2-.6-.62-1.35-1.19-2.25-1.71s-1.88-1.05-2.94-1.57-2.04-1.14-2.94-1.84-1.65-1.53-2.25-2.48-.91-2.11-.91-3.48c0-.98.23-1.87.69-2.67s1.08-1.48 1.86-2.03 1.72-.99 2.82-1.3c1.09-.31 2.28-.46 3.55-.46 1.76 0 3.41.14 4.93.42s2.85.66 3.99 1.15c-.13 1.05-.39 2.17-.78 3.36s-.77 2.28-1.13 3.26h-1.67l-2.06-5c-.39-.16-.8-.27-1.23-.32s-.9-.07-1.42-.07c-.98 0-1.72.29-2.23.86s-.76 1.22-.76 1.94c0 .82.3 1.53.91 2.13.6.61 1.35 1.17 2.25 1.69s1.88 1.05 2.94 1.57 2.04 1.12 2.94 1.79 1.65 1.46 2.25 2.38.91 2.01.91 3.28c0 2.25-.92 4.03-2.74 5.32-1.83 1.29-4.28 1.94-7.35 1.94-1.57 0-3.19-.16-4.85-.49s-3.1-.78-4.31-1.37c.06-1.18.34-2.37.83-3.58s1.01-2.29 1.57-3.23h1.67l2.4 5.34c.36.26.76.42 1.2.47s.86.07 1.25.07c.95 0 1.81-.28 2.6-.83.78-.59 1.17-1.36 1.17-2.34z" fill="#333"/><path d="m1415.39 280.92h-13.52v-1.86c.49-.26 1-.48 1.52-.67.52-.18 1.09-.35 1.71-.52v-18.02l-3.23-.39v-1.86c.49-.2 1.1-.39 1.84-.59s1.51-.37 2.33-.51 1.62-.28 2.4-.39 1.47-.2 2.06-.27h1.67v22.05c.65.16 1.24.33 1.77.52.52.18 1.01.4 1.47.66zm-11.02-32.54c0-1.14.39-2.04 1.16-2.7.77-.65 1.78-.98 3-.98s2.23.33 3 .98c.78.65 1.16 1.55 1.16 2.7 0 1.11-.39 1.99-1.16 2.65-.77.65-1.78.98-3 .98s-2.23-.33-3-.98c-.78-.66-1.16-1.54-1.16-2.65z" fill="#333"/><path d="m1417.3 257.64c1.24-.81 2.55-1.38 3.92-1.71v-3.97c.2-.2.53-.38 1.01-.56s.98-.34 1.52-.49 1.07-.29 1.59-.42.95-.23 1.27-.29h1.67v6.22h6.47v3.18h-6.47v12.62c0 2.02.25 3.41.76 4.19s1.35 1.17 2.52 1.17c.59 0 1.25-.04 1.98-.12s1.41-.24 2.03-.46l.34 1.62c-.29.29-.73.61-1.3.93-.57.33-1.23.64-1.96.93s-1.54.54-2.4.73c-.87.2-1.77.29-2.72.29-2.12 0-3.71-.55-4.75-1.66-1.05-1.11-1.57-2.89-1.57-5.37v-14.87h-3.92z" fill="#333"/><path d="m1460.57 276.8c-.26.56-.68 1.12-1.25 1.69s-1.27 1.08-2.11 1.52-1.8.8-2.89 1.08-2.28.42-3.55.42c-2.03 0-3.82-.3-5.39-.91s-2.88-1.47-3.92-2.6c-1.05-1.13-1.84-2.48-2.38-4.04s-.81-3.33-.81-5.29c0-4.18 1.09-7.37 3.28-9.55 2.19-2.19 5.23-3.28 9.11-3.28 1.67 0 3.23.23 4.68.69s2.66 1.21 3.63 2.25c.96 1.05 1.63 2.42 2.01 4.12s.35 3.77-.07 6.22h-15.04c.03 2.58.69 4.64 1.98 6.17 1.29 1.54 3.19 2.3 5.71 2.3 1.08 0 2.2-.16 3.36-.49s2.07-.75 2.72-1.27zm-10.12-18.18c-.65 0-1.23.11-1.73.34s-.94.65-1.31 1.25c-.37.61-.67 1.42-.9 2.45s-.39 2.33-.49 3.9h7.84c.23-2.55.08-4.51-.44-5.88s-1.51-2.06-2.97-2.06z" fill="#333"/><path d="m1499.91 273.81c0 .72.01 1.34.02 1.86.02.52.06 1.08.12 1.67l3.38.49v1.71c-.39.2-.92.39-1.59.59s-1.37.39-2.11.56c-.73.18-1.46.33-2.18.44s-1.35.2-1.91.27h-1.67c-.33-.75-.52-1.5-.59-2.25-.06-.75-.11-1.67-.15-2.74h-.24c-.16.65-.44 1.28-.83 1.89s-.89 1.14-1.49 1.62c-.6.47-1.31.86-2.13 1.15s-1.73.44-2.74.44c-1.08 0-2.07-.16-2.99-.49s-1.71-.78-2.4-1.37-1.23-1.3-1.62-2.13-.59-1.77-.59-2.82c0-1.47.28-2.68.83-3.63.56-.95 1.43-1.72 2.62-2.33s2.73-1.05 4.61-1.35c1.88-.29 4.16-.51 6.83-.64.26-2.81.15-4.87-.34-6.17-.49-1.31-1.55-1.96-3.19-1.96-1.01 0-1.94.16-2.79.49l-2.3 5.88h-2.16c-.26-.39-.52-.84-.76-1.35s-.47-1.05-.69-1.62c-.21-.57-.39-1.15-.54-1.74s-.25-1.16-.32-1.71c1.24-.85 2.84-1.52 4.8-2.01s4.03-.73 6.22-.73c1.86 0 3.38.2 4.56.61s2.1.96 2.77 1.67c.67.7 1.14 1.53 1.4 2.48s.39 1.96.39 3.04c0 1.96-.04 3.73-.12 5.32-.07 1.57-.11 3.19-.11 4.86zm-11.02 3.77c.69 0 1.27-.13 1.76-.39s.91-.57 1.25-.93.6-.75.78-1.18c.18-.42.32-.8.42-1.13v-4.9c-1.54.03-2.79.13-3.77.29s-1.75.43-2.3.81c-.56.38-.94.85-1.15 1.42s-.32 1.27-.32 2.08c0 1.24.29 2.2.88 2.89s1.4 1.04 2.45 1.04z" fill="#333"/><path d="m1535.44 280.92h-12.98v-1.86c.42-.23.84-.43 1.25-.61s.89-.37 1.44-.57v-11.54c0-2.06-.29-3.68-.88-4.84s-1.63-1.74-3.14-1.74c-1.24 0-2.31.4-3.21 1.2s-1.58 1.89-2.03 3.27v13.66c.52.13.99.29 1.4.47s.84.42 1.3.71v1.86h-12.98v-1.86c.82-.43 1.9-.82 3.23-1.18v-18.02l-3.23-.39v-1.86c.42-.2.98-.38 1.67-.56s1.43-.35 2.23-.51 1.62-.3 2.45-.42c.83-.11 1.59-.2 2.28-.27h1.67v5.05h.05c.69-1.37 1.71-2.56 3.09-3.55 1.37-1 3.04-1.49 5-1.49 1.27 0 2.42.16 3.43.47s1.87.86 2.57 1.64c.7.79 1.24 1.84 1.62 3.17s.56 3 .56 5.03v11.74c1.31.23 2.38.62 3.23 1.18z" fill="#333"/><path d="m1554.55 276.06c-.16.72-.46 1.4-.88 2.06-.43.65-.93 1.23-1.52 1.74s-1.26.91-2.01 1.2-1.55.44-2.4.44c-3.23 0-5.69-1.02-7.37-3.06s-2.52-5.17-2.52-9.38c0-2.16.3-4.04.88-5.66.59-1.62 1.41-2.98 2.47-4.09s2.34-1.94 3.85-2.5c1.5-.55 3.17-.83 5-.83.59 0 1.09.02 1.49.05.41.03.78.07 1.13.12.34.05.67.13.98.24s.66.24 1.05.37v-8.67l-3.72-.39v-1.86c.46-.2 1.08-.38 1.89-.54.8-.16 1.64-.32 2.52-.46.88-.15 1.75-.29 2.6-.42s1.55-.24 2.11-.34h1.67v33.37l3.23.39v1.71c-.46.23-1.05.44-1.76.64-.72.2-1.47.38-2.25.54s-1.54.3-2.28.42c-.73.11-1.35.2-1.84.27h-1.67l-.44-5.34zm-4.46 1.52c1.14 0 2.11-.36 2.89-1.08s1.35-1.94 1.71-3.67v-13.18c-.43-.26-.95-.47-1.59-.64-.64-.16-1.43-.24-2.38-.24-1.9 0-3.25.86-4.07 2.57s-1.22 4.21-1.22 7.47c0 2.65.36 4.77 1.08 6.37s1.91 2.4 3.58 2.4z" fill="#333"/><path d="m1581.35 259.46c-.49-.13-.94-.29-1.35-.49s-.82-.42-1.25-.69v-1.86h12.89v1.81c-.69.46-1.62.87-2.79 1.23l4.95 12.33.83 3.14h.1l.78-3.19 3.82-12.29c-.98-.2-1.88-.59-2.69-1.18v-1.86h9.46v1.86c-.69.46-1.62.85-2.79 1.18l-7.99 21.46c-.78 2.09-1.57 3.8-2.35 5.12s-1.57 2.38-2.35 3.16-1.57 1.33-2.35 1.64-1.57.52-2.35.61c-.33-.29-.62-.66-.88-1.1s-.49-.92-.69-1.42c-.19-.51-.36-1.02-.49-1.54s-.21-1.01-.24-1.47l.64-1.18h5.98c.29-.46.55-.95.76-1.47s.47-1.31.76-2.35z" fill="#333"/><path d="m1606.44 268.67c0-1.99.3-3.78.91-5.37.6-1.58 1.47-2.93 2.6-4.04s2.49-1.96 4.09-2.55 3.41-.88 5.44-.88c2.29 0 4.26.32 5.9.96 1.65.64 3.01 1.52 4.07 2.65s1.84 2.48 2.33 4.07c.49 1.58.73 3.31.73 5.17 0 1.99-.29 3.78-.88 5.37s-1.44 2.93-2.57 4.04-2.5 1.96-4.12 2.55-3.44.88-5.46.88c-2.22 0-4.15-.32-5.78-.96-1.64-.64-2.99-1.52-4.07-2.65s-1.88-2.48-2.4-4.07c-.53-1.59-.79-3.31-.79-5.17zm7.6 0c0 1.47.09 2.82.27 4.04.18 1.23.5 2.26.95 3.11.46.85 1.08 1.51 1.86 1.98s1.8.71 3.04.71c.72 0 1.37-.17 1.96-.52.59-.34 1.09-.9 1.52-1.67s.74-1.78.96-3.04c.21-1.26.32-2.8.32-4.63 0-1.5-.09-2.86-.27-4.07s-.49-2.24-.93-3.09-1.04-1.51-1.79-1.98-1.7-.71-2.84-.71c-.85 0-1.58.17-2.2.52-.62.34-1.14.9-1.57 1.67s-.74 1.78-.95 3.04c-.23 1.26-.33 2.81-.33 4.64z" fill="#333"/><path d="m1637.8 271.19c0-2.06.05-3.98.15-5.74s.15-3.63.15-5.6l-3.23-.39v-1.86c.52-.2 1.17-.39 1.94-.59s1.56-.37 2.38-.51c.82-.15 1.61-.28 2.38-.39s1.41-.2 1.94-.27h1.67c0 2.45-.05 4.86-.15 7.23s-.15 4.7-.15 6.98c0 2.68.27 4.61.81 5.78.54 1.18 1.54 1.76 3.01 1.76 1.01 0 1.95-.38 2.82-1.15.86-.77 1.57-2.01 2.13-3.71v-12.87l-3.19-.39v-1.86c.49-.2 1.1-.39 1.84-.59.73-.2 1.5-.37 2.3-.51.8-.15 1.59-.28 2.38-.39.78-.11 1.47-.2 2.06-.27h1.67v21.61l3.23.39v1.71c-.46.2-1.03.39-1.71.59-.69.2-1.4.39-2.16.56-.75.18-1.49.33-2.23.44-.73.11-1.4.2-1.98.27h-1.67l-.34-5.83h-.2c-.16.69-.46 1.38-.88 2.08-.43.7-.97 1.34-1.64 1.91s-1.46 1.04-2.38 1.4-1.93.54-3.04.54c-1.24 0-2.34-.16-3.31-.47-.96-.31-1.79-.86-2.47-1.64-.69-.79-1.21-1.84-1.57-3.17s-.56-3.02-.56-5.05z" fill="#333"/><path d="m1688.42 281.5-7.69-22.05c-.46-.16-.91-.33-1.35-.52-.44-.18-.86-.4-1.25-.66v-1.86h12.4v1.81c-.46.26-.92.5-1.37.71-.46.21-.93.39-1.42.52l3.38 12.58.64 3.78h.1l.88-3.92 5.19-15.19 2.4-.29 5.59 15.53 1.03 3.87h.1l.78-3.83 2.94-12.53c-.36-.07-.78-.2-1.25-.39-.47-.2-.95-.46-1.44-.79v-1.86h9.46v1.86c-.69.46-1.62.85-2.79 1.18l-6.81 21.46-4.6.59-4.21-12.1-.93-4.07h-.15l-1.13 4.07-3.92 11.52z" fill="#333"/><path d="m1718.26 268.67c0-1.99.3-3.78.91-5.37.6-1.58 1.47-2.93 2.6-4.04s2.49-1.96 4.09-2.55 3.41-.88 5.44-.88c2.29 0 4.26.32 5.9.96 1.65.64 3.01 1.52 4.07 2.65s1.84 2.48 2.33 4.07c.49 1.58.73 3.31.73 5.17 0 1.99-.29 3.78-.88 5.37s-1.44 2.93-2.57 4.04-2.5 1.96-4.12 2.55-3.44.88-5.46.88c-2.22 0-4.15-.32-5.78-.96-1.64-.64-2.99-1.52-4.07-2.65s-1.88-2.48-2.4-4.07c-.53-1.59-.79-3.31-.79-5.17zm7.59 0c0 1.47.09 2.82.27 4.04.18 1.23.5 2.26.95 3.11.46.85 1.08 1.51 1.86 1.98s1.8.71 3.04.71c.72 0 1.37-.17 1.96-.52.59-.34 1.09-.9 1.52-1.67s.74-1.78.96-3.04c.21-1.26.32-2.8.32-4.63 0-1.5-.09-2.86-.27-4.07s-.49-2.24-.93-3.09-1.04-1.51-1.79-1.98-1.7-.71-2.84-.71c-.85 0-1.58.17-2.2.52-.62.34-1.14.9-1.57 1.67s-.74 1.78-.95 3.04c-.22 1.26-.33 2.81-.33 4.64z" fill="#333"/><path d="m1777.11 280.92h-12.98v-1.86c.42-.23.84-.43 1.25-.61s.89-.37 1.44-.57v-11.54c0-2.06-.29-3.68-.88-4.84s-1.63-1.74-3.14-1.74c-1.24 0-2.31.4-3.21 1.2s-1.58 1.89-2.03 3.27v13.66c.52.13.99.29 1.4.47s.84.42 1.3.71v1.86h-12.98v-1.86c.82-.43 1.9-.82 3.23-1.18v-18.02l-3.23-.39v-1.86c.42-.2.98-.38 1.67-.56s1.43-.35 2.23-.51 1.62-.3 2.45-.42c.83-.11 1.59-.2 2.28-.27h1.67v5.05h.05c.69-1.37 1.71-2.56 3.09-3.55 1.37-1 3.04-1.49 5-1.49 1.27 0 2.42.16 3.43.47s1.87.86 2.57 1.64c.7.79 1.24 1.84 1.62 3.17s.56 3 .56 5.03v11.74c1.31.23 2.38.62 3.23 1.18z" fill="#333"/><path d="m1781.17 248.09c.16-.42.55-.77 1.15-1.05s1.28-.42 2.03-.42c.69 0 1.35.12 1.98.37s1.04.61 1.2 1.1l-2.25 9.02h-1.86z" fill="#333"/><path d="m1790.43 257.64c1.24-.81 2.55-1.38 3.92-1.71v-3.97c.2-.2.53-.38 1.01-.56s.98-.34 1.52-.49 1.07-.29 1.59-.42.95-.23 1.27-.29h1.67v6.22h6.47v3.18h-6.47v12.62c0 2.02.25 3.41.76 4.19s1.35 1.17 2.52 1.17c.59 0 1.25-.04 1.98-.12s1.41-.24 2.03-.46l.34 1.62c-.29.29-.73.61-1.3.93-.57.33-1.23.64-1.96.93s-1.54.54-2.4.73c-.87.2-1.77.29-2.72.29-2.12 0-3.71-.55-4.75-1.66-1.05-1.11-1.57-2.89-1.57-5.37v-14.87h-3.92z" fill="#333"/><path d="m1824.39 280.92v-1.86c.62-.36 1.28-.67 1.98-.93s1.38-.42 2.03-.49v-27.74c-.65-.13-1.34-.32-2.06-.56s-1.37-.53-1.96-.86v-1.86h7.89c1.24 0 2.42-.05 3.53-.15s2.38-.15 3.82-.15c1.57 0 3.09.11 4.56.34s2.78.64 3.92 1.23 2.06 1.41 2.74 2.48 1.03 2.42 1.03 4.09c0 1.05-.19 2.02-.56 2.92-.38.9-.9 1.69-1.57 2.38s-1.45 1.26-2.35 1.71c-.9.46-1.87.78-2.92.98v.2c1.05.13 2.1.38 3.16.73 1.06.36 2.02.88 2.87 1.57s1.54 1.54 2.08 2.57.81 2.25.81 3.65c0 1.76-.39 3.28-1.18 4.56-.78 1.27-1.84 2.32-3.16 3.14s-2.83 1.41-4.53 1.79-3.46.56-5.29.56c-.69 0-1.44-.02-2.25-.05-.82-.03-1.63-.07-2.45-.1s-1.61-.07-2.38-.1-1.41-.05-1.94-.05zm12.64-19.02c.56 0 1.11-.02 1.67-.07s1.08-.11 1.57-.17c1.27-.52 2.3-1.33 3.09-2.43.78-1.09 1.18-2.34 1.18-3.75 0-2.06-.54-3.57-1.62-4.53s-2.47-1.45-4.17-1.45c-.72 0-1.34.02-1.86.05s-1 .08-1.42.15v12.2zm2.16 16.12c2.06 0 3.68-.61 4.85-1.84s1.76-2.85 1.76-4.88c0-1.24-.19-2.26-.59-3.06-.39-.8-.93-1.44-1.62-1.91s-1.5-.8-2.45-.98-1.98-.27-3.09-.27h-2.6v12.59c.46.1.94.18 1.44.24s1.28.11 2.3.11z" fill="#333"/><path d="m1882.26 246.62c-.06 1.47-.18 2.99-.34 4.56s-.38 3.04-.64 4.41h-2.01l-2.25-5.78h-9.16v12.01h5.98l2.16-3.77h1.57c.16 1.6.24 3.38.24 5.34s-.08 3.79-.24 5.49h-1.57l-2.16-3.87h-5.98v12.74h9.56l2.6-6.22h2.01c.13.62.26 1.32.39 2.11.13.78.24 1.59.32 2.42s.15 1.67.19 2.52c.05.85.07 1.63.07 2.35h-26.51v-1.86c.56-.29 1.18-.57 1.86-.83.69-.26 1.4-.46 2.16-.59v-27.75c-.65-.13-1.35-.32-2.08-.56s-1.38-.53-1.94-.86v-1.86z" fill="#333"/><path d="m1886.37 246.62h16.07v1.86c-.69.36-1.44.66-2.28.91-.83.24-1.64.42-2.43.52v27.83h9.46l3.28-8.77h2.01c.13.75.25 1.63.37 2.65.11 1.01.2 2.08.27 3.18.06 1.11.11 2.2.15 3.28.03 1.08.03 2.03 0 2.84h-26.9v-1.86c.75-.39 1.46-.7 2.13-.93s1.3-.39 1.89-.49v-27.74c-1.6-.26-2.94-.73-4.02-1.42z" fill="#333"/><path d="m1931.01 280.92h-15.29v-1.86c1.31-.72 2.63-1.19 3.97-1.42v-27.74c-.65-.1-1.34-.28-2.06-.54s-1.35-.55-1.91-.88v-1.86h15.29v1.86c-.59.36-1.23.66-1.94.91-.7.24-1.38.42-2.03.52v27.73c.65.13 1.33.31 2.03.54s1.35.52 1.94.88z" fill="#333"/><path d="m1959.53 246.62c-.06 1.47-.18 2.99-.34 4.56s-.38 3.04-.64 4.41h-2.01l-2.25-5.78h-9.16v12.01h5.98l2.16-3.77h1.57c.16 1.6.25 3.38.25 5.34s-.08 3.79-.25 5.49h-1.57l-2.16-3.87h-5.98v12.74h9.56l2.6-6.22h2.01c.13.62.26 1.32.39 2.11.13.78.24 1.59.32 2.42s.15 1.67.2 2.52.07 1.63.07 2.35h-26.51v-1.86c.56-.29 1.18-.57 1.86-.83.69-.26 1.4-.46 2.16-.59v-27.75c-.65-.13-1.35-.32-2.08-.56s-1.38-.53-1.94-.86v-1.86z" fill="#333"/><path d="m1990.3 249.9c-.78-.16-1.53-.38-2.23-.64s-1.33-.52-1.89-.78v-1.86h12.45v1.86c-.39.26-.91.52-1.54.78-.64.26-1.3.47-1.98.64l-11.27 31.02-4.85.59-12.64-31.61c-.65-.16-1.31-.37-1.96-.61s-1.23-.52-1.72-.81v-1.86h16.32v1.86c-.56.26-1.18.52-1.86.78-.69.26-1.41.47-2.16.64l6.86 19.31 1.13 4.61h.1l1.08-4.7z" fill="#333"/><path d="m2025.68 246.62c-.06 1.47-.18 2.99-.34 4.56s-.38 3.04-.64 4.41h-2.01l-2.25-5.78h-9.16v12.01h5.98l2.16-3.77h1.57c.16 1.6.25 3.38.25 5.34s-.08 3.79-.25 5.49h-1.57l-2.16-3.87h-5.98v12.74h9.56l2.6-6.22h2.01c.13.62.26 1.32.39 2.11.13.78.24 1.59.32 2.42s.15 1.67.2 2.52.07 1.63.07 2.35h-26.51v-1.86c.55-.29 1.18-.57 1.86-.83.69-.26 1.4-.46 2.16-.59v-27.75c-.65-.13-1.35-.32-2.08-.56s-1.38-.53-1.94-.86v-1.86z" fill="#333"/><path d="m2052.14 281.5-7.69-22.05c-.46-.16-.91-.33-1.35-.52-.44-.18-.86-.4-1.25-.66v-1.86h12.4v1.81c-.46.26-.92.5-1.37.71-.46.21-.93.39-1.42.52l3.38 12.58.64 3.78h.1l.88-3.92 5.19-15.19 2.4-.29 5.59 15.53 1.03 3.87h.1l.78-3.83 2.94-12.53c-.36-.07-.78-.2-1.25-.39-.47-.2-.96-.46-1.45-.79v-1.86h9.46v1.86c-.69.46-1.62.85-2.79 1.18l-6.81 21.46-4.6.59-4.21-12.1-.93-4.07h-.15l-1.13 4.07-3.92 11.52z" fill="#333"/><path d="m2111.82 280.92h-12.99v-1.86c.39-.23.8-.44 1.23-.64s.91-.38 1.47-.54v-9.92c0-2.82-.27-4.89-.81-6.21s-1.59-1.99-3.16-1.99c-1.31 0-2.42.45-3.33 1.35-.92.9-1.57 1.94-1.96 3.12v13.66c.52.13.99.28 1.4.44s.84.41 1.3.74v1.86h-12.99v-1.86c1.01-.52 2.09-.92 3.23-1.18v-29.79l-3.72-.39v-1.86c.49-.2 1.12-.39 1.89-.59s1.58-.37 2.43-.52 1.7-.28 2.55-.39 1.6-.2 2.25-.27h1.67v17.3h.05c.33-.75.77-1.46 1.32-2.13.56-.67 1.18-1.26 1.89-1.76.7-.51 1.46-.91 2.28-1.2s1.68-.44 2.6-.44c1.31 0 2.47.16 3.5.47s1.89.86 2.57 1.64c.69.79 1.21 1.84 1.57 3.17s.54 3 .54 5.03v11.74c.55.13 1.11.28 1.67.44.55.16 1.08.41 1.57.74v1.84z" fill="#333"/><path d="m2135.73 273.81c0 .72.01 1.34.02 1.86.02.52.06 1.08.12 1.67l3.38.49v1.71c-.39.2-.92.39-1.59.59s-1.37.39-2.11.56c-.74.18-1.46.33-2.18.44s-1.35.2-1.91.27h-1.67c-.33-.75-.52-1.5-.59-2.25-.06-.75-.11-1.67-.15-2.74h-.25c-.16.65-.44 1.28-.83 1.89s-.89 1.14-1.49 1.62c-.6.47-1.31.86-2.13 1.15s-1.73.44-2.74.44c-1.08 0-2.07-.16-2.99-.49s-1.72-.78-2.4-1.37c-.69-.59-1.23-1.3-1.62-2.13s-.59-1.77-.59-2.82c0-1.47.28-2.68.83-3.63s1.43-1.72 2.62-2.33 2.73-1.05 4.61-1.35 4.16-.51 6.83-.64c.26-2.81.15-4.87-.34-6.17-.49-1.31-1.55-1.96-3.19-1.96-1.01 0-1.94.16-2.79.49l-2.3 5.88h-2.16c-.26-.39-.51-.84-.76-1.35s-.47-1.05-.69-1.62c-.21-.57-.39-1.15-.54-1.74s-.25-1.16-.32-1.71c1.24-.85 2.84-1.52 4.8-2.01s4.03-.73 6.22-.73c1.86 0 3.38.2 4.56.61s2.1.96 2.77 1.67c.67.7 1.14 1.53 1.4 2.48s.39 1.96.39 3.04c0 1.96-.04 3.73-.12 5.32-.06 1.57-.1 3.19-.1 4.86zm-11.02 3.77c.69 0 1.27-.13 1.76-.39s.91-.57 1.25-.93.6-.75.78-1.18c.18-.42.32-.8.42-1.13v-4.9c-1.53.03-2.79.13-3.77.29s-1.75.43-2.3.81c-.56.38-.94.85-1.15 1.42s-.32 1.27-.32 2.08c0 1.24.29 2.2.88 2.89s1.4 1.04 2.45 1.04z" fill="#333"/><path d="m2140.68 257.64c1.24-.81 2.55-1.38 3.92-1.71v-3.97c.2-.2.53-.38 1-.56s.98-.34 1.52-.49 1.07-.29 1.59-.42.95-.23 1.27-.29h1.67v6.22h6.47v3.18h-6.47v12.62c0 2.02.25 3.41.76 4.19s1.35 1.17 2.52 1.17c.59 0 1.25-.04 1.98-.12s1.41-.24 2.03-.46l.34 1.62c-.29.29-.73.61-1.3.93-.57.33-1.23.64-1.96.93-.74.29-1.54.54-2.4.73-.87.2-1.77.29-2.72.29-2.12 0-3.71-.55-4.75-1.66-1.05-1.11-1.57-2.89-1.57-5.37v-14.87h-3.92z" fill="#333"/><path d="m851.51 339.71h-13.52v-1.86c.49-.26 1-.48 1.52-.67.52-.18 1.09-.35 1.72-.52v-18.02l-3.23-.39v-1.86c.49-.2 1.1-.39 1.84-.59s1.51-.37 2.33-.51c.82-.15 1.62-.28 2.4-.39s1.47-.2 2.06-.27h1.67v22.05c.65.16 1.24.33 1.77.52.52.18 1.01.4 1.47.66zm-11.03-32.53c0-1.14.39-2.04 1.16-2.7.77-.65 1.78-.98 3-.98s2.23.33 3 .98c.78.65 1.16 1.55 1.16 2.7 0 1.11-.39 1.99-1.16 2.65-.77.65-1.78.98-3 .98s-2.23-.33-3-.98c-.77-.66-1.16-1.54-1.16-2.65z" fill="#333"/><path d="m853.42 316.44c1.24-.81 2.55-1.38 3.92-1.71v-3.97c.2-.2.53-.38 1.01-.56s.98-.34 1.52-.49 1.07-.29 1.59-.42.95-.23 1.27-.29h1.67v6.22h6.47v3.18h-6.47v12.62c0 2.02.25 3.41.76 4.19s1.35 1.17 2.52 1.17c.59 0 1.25-.04 1.98-.12s1.41-.24 2.03-.46l.34 1.62c-.29.29-.73.61-1.3.93-.57.33-1.23.64-1.96.93s-1.54.54-2.4.73c-.87.2-1.77.29-2.72.29-2.12 0-3.71-.55-4.75-1.66-1.05-1.11-1.57-2.89-1.57-5.37v-14.87h-3.92z" fill="#333"/><path d="m904.62 334.86c-.16.72-.46 1.4-.88 2.06-.42.65-.93 1.23-1.52 1.74s-1.26.91-2.01 1.2-1.55.44-2.4.44c-3.23 0-5.69-1.02-7.37-3.06s-2.52-5.17-2.52-9.38c0-2.16.29-4.04.88-5.66s1.41-2.98 2.47-4.09 2.34-1.94 3.85-2.5c1.5-.55 3.17-.83 5-.83.59 0 1.09.02 1.49.05.41.03.78.07 1.13.12.34.05.67.13.98.24s.66.24 1.05.37v-8.67l-3.72-.39v-1.86c.46-.2 1.09-.38 1.89-.54s1.64-.32 2.52-.46c.88-.15 1.75-.29 2.6-.42s1.55-.24 2.11-.34h1.67v33.37l3.23.39v1.71c-.46.23-1.05.44-1.76.64-.72.2-1.47.38-2.25.54s-1.54.3-2.28.42c-.73.11-1.35.2-1.84.27h-1.67l-.44-5.34zm-4.46 1.52c1.14 0 2.11-.36 2.89-1.08s1.35-1.94 1.72-3.67v-13.18c-.42-.26-.96-.47-1.59-.64-.64-.16-1.43-.24-2.38-.24-1.9 0-3.25.86-4.07 2.57s-1.22 4.21-1.22 7.47c0 2.65.36 4.77 1.08 6.37.71 1.6 1.91 2.4 3.57 2.4z" fill="#333"/><path d="m917.56 327.46c0-1.99.3-3.78.91-5.37.6-1.58 1.47-2.93 2.6-4.04s2.49-1.96 4.09-2.55 3.41-.88 5.44-.88c2.29 0 4.26.32 5.9.96 1.65.64 3.01 1.52 4.07 2.65s1.84 2.48 2.33 4.07c.49 1.58.73 3.31.73 5.17 0 1.99-.29 3.78-.88 5.37s-1.44 2.93-2.57 4.04-2.5 1.96-4.12 2.55-3.44.88-5.46.88c-2.22 0-4.15-.32-5.78-.96-1.64-.64-2.99-1.52-4.07-2.65s-1.88-2.48-2.4-4.07c-.53-1.58-.79-3.3-.79-5.17zm7.59 0c0 1.47.09 2.82.27 4.04.18 1.23.5 2.26.96 3.11s1.08 1.51 1.86 1.98 1.8.71 3.04.71c.72 0 1.37-.17 1.96-.52.59-.34 1.09-.9 1.52-1.67s.74-1.78.96-3.04c.21-1.26.32-2.8.32-4.63 0-1.5-.09-2.86-.27-4.07s-.49-2.24-.93-3.09-1.04-1.51-1.79-1.98-1.7-.71-2.84-.71c-.85 0-1.58.17-2.2.52-.62.34-1.14.9-1.57 1.67-.42.77-.74 1.78-.96 3.04-.22 1.27-.33 2.82-.33 4.64z" fill="#333"/><path d="m969.25 335.6c-.26.56-.68 1.12-1.25 1.69s-1.27 1.08-2.11 1.52-1.8.8-2.89 1.08-2.28.42-3.55.42c-2.03 0-3.82-.3-5.39-.91s-2.88-1.47-3.92-2.6c-1.05-1.13-1.84-2.48-2.38-4.04s-.81-3.33-.81-5.29c0-4.18 1.09-7.37 3.28-9.55 2.19-2.19 5.23-3.28 9.11-3.28 1.67 0 3.23.23 4.68.69s2.66 1.21 3.63 2.25c.96 1.05 1.63 2.42 2.01 4.12s.35 3.77-.07 6.22h-15.04c.03 2.58.69 4.64 1.98 6.17 1.29 1.54 3.19 2.3 5.71 2.3 1.08 0 2.2-.16 3.36-.49s2.07-.75 2.72-1.27zm-10.12-18.18c-.65 0-1.23.11-1.73.34s-.94.65-1.31 1.25c-.37.61-.67 1.42-.9 2.45s-.39 2.33-.49 3.9h7.84c.23-2.55.08-4.51-.44-5.88s-1.51-2.06-2.97-2.06z" fill="#333"/><path d="m986.16 334.37c0-.85-.3-1.58-.91-2.2-.6-.62-1.35-1.19-2.25-1.71s-1.88-1.05-2.94-1.57-2.04-1.14-2.94-1.84-1.65-1.53-2.25-2.48-.91-2.11-.91-3.48c0-.98.23-1.87.69-2.67s1.08-1.48 1.86-2.03 1.72-.99 2.82-1.3c1.09-.31 2.28-.46 3.55-.46 1.76 0 3.41.14 4.93.42s2.85.66 3.99 1.15c-.13 1.05-.39 2.17-.78 3.36s-.77 2.28-1.13 3.26h-1.67l-2.06-5c-.39-.16-.8-.27-1.23-.32s-.9-.07-1.42-.07c-.98 0-1.72.29-2.23.86s-.76 1.22-.76 1.94c0 .82.3 1.53.91 2.13.6.61 1.35 1.17 2.25 1.69s1.88 1.05 2.94 1.57 2.04 1.12 2.94 1.79 1.65 1.46 2.25 2.38.91 2.01.91 3.28c0 2.25-.92 4.03-2.74 5.32-1.83 1.29-4.28 1.94-7.35 1.94-1.57 0-3.19-.16-4.85-.49s-3.1-.78-4.31-1.37c.06-1.18.34-2.37.83-3.58s1.01-2.29 1.57-3.23h1.67l2.4 5.34c.36.26.76.42 1.2.47s.86.07 1.25.07c.95 0 1.81-.28 2.6-.83.77-.59 1.17-1.36 1.17-2.34z" fill="#333"/><path d="m999.88 336.24c0-1.18.38-2.12 1.15-2.84.76-.72 1.76-1.08 3-1.08s2.24.36 3.02 1.08 1.17 1.67 1.17 2.84-.39 2.11-1.17 2.82-1.79 1.05-3.02 1.05-2.23-.35-3-1.05-1.15-1.65-1.15-2.82zm3.03-7.21-2.45-9.51v-13.62c.33-.2.82-.33 1.47-.42.65-.08 1.34-.12 2.06-.12s1.4.04 2.03.12c.64.08 1.14.22 1.49.42v13.62l-2.45 9.51z" fill="#333"/><path d="m834.71 365.23h1102.56v19.72h-1102.56z" fill="#c6c6c6"/><path d="m1038.18 407.73c1.56 0 2.83 1.27 2.83 2.83v36.01c0 1.55-1.27 2.83-2.83 2.83h-197.34c-1.55 0-2.83-1.27-2.83-2.83v-36.01c0-1.55 1.27-2.83 2.83-2.83zm0-2.69h-197.34c-3.04 0-5.51 2.47-5.51 5.51v36.01c0 3.04 2.47 5.51 5.51 5.51h197.35c3.04 0 5.51-2.47 5.51-5.51v-36.01c-.01-3.04-2.48-5.51-5.52-5.51z" fill="#ff4500"/><path d="m862.29 432.11c0-.56-.2-1-.59-1.3-.4-.3-1.11-.61-2.14-.92s-1.85-.66-2.46-1.04c-1.17-.73-1.75-1.69-1.75-2.86 0-1.03.42-1.88 1.26-2.55s1.93-1 3.28-1c.89 0 1.68.16 2.38.49s1.25.79 1.65 1.4c.4.6.6 1.28.6 2.02h-2.22c0-.66-.21-1.18-.63-1.56s-1.02-.56-1.8-.56c-.73 0-1.29.15-1.69.46s-.6.74-.6 1.3c0 .47.22.85.65 1.17s1.15.62 2.15.91 1.8.63 2.4 1.01 1.04.81 1.33 1.3.42 1.06.42 1.72c0 1.07-.41 1.91-1.23 2.54s-1.93.95-3.33.95c-.93 0-1.78-.17-2.55-.51-.78-.34-1.38-.82-1.81-1.42s-.65-1.31-.65-2.11h2.22c0 .73.24 1.29.72 1.69s1.17.6 2.06.6c.77 0 1.35-.16 1.74-.47.4-.33.59-.75.59-1.26z" fill="#ff4500"/><path d="m875.83 422.6v8.55c0 1.36-.44 2.44-1.31 3.23s-2.03 1.19-3.47 1.19c-1.47 0-2.63-.39-3.49-1.17s-1.29-1.87-1.29-3.26v-8.54h2.22v8.55c0 .85.22 1.51.65 1.96s1.07.68 1.92.68c1.71 0 2.57-.9 2.57-2.7v-8.48z" fill="#ff4500"/><path d="m878.2 435.4v-12.8h4.39c1.45 0 2.55.29 3.3.87s1.14 1.44 1.14 2.59c0 .59-.16 1.11-.47 1.58s-.78.83-1.39 1.09c.69.19 1.23.54 1.6 1.06.38.52.57 1.14.57 1.87 0 1.2-.39 2.12-1.15 2.77-.77.65-1.88.97-3.31.97zm2.22-7.41h2.18c.69 0 1.23-.16 1.62-.47s.58-.76.58-1.33c0-.63-.18-1.09-.54-1.37s-.92-.42-1.68-.42h-2.16zm0 1.64v3.98h2.47c.7 0 1.24-.17 1.64-.52.39-.34.59-.82.59-1.43 0-1.32-.68-2-2.04-2.03z" fill="#ff4500"/><path d="m892.44 422.6 3.69 9.81 3.68-9.81h2.88v12.8h-2.22v-4.22l.22-5.64-3.78 9.86h-1.59l-3.77-9.85.22 5.63v4.22h-2.22v-12.8z" fill="#ff4500"/><path d="m907.66 435.4h-2.22v-12.8h2.22z" fill="#ff4500"/><path d="m919.39 424.4h-3.99v11h-2.21v-11h-3.96v-1.79h10.15v1.79z" fill="#ff4500"/><path d="m932.18 432.42h-4.96l-1.04 2.98h-2.31l4.83-12.8h2l4.84 12.8h-2.32zm-4.33-1.79h3.71l-1.85-5.31z" fill="#ff4500"/><path d="m951.63 435.4h-2.22l-5.7-9.08v9.08h-2.22v-12.8h2.22l5.72 9.11v-9.11h2.2z" fill="#ff4500"/><path d="m961.74 429.69h-5.26v3.92h6.15v1.79h-8.37v-12.8h8.31v1.79h-6.08v3.53h5.26z" fill="#ff4500"/><path d="m974.48 432.24 1.97-9.63h2.2l-2.95 12.8h-2.13l-2.43-9.34-2.49 9.34h-2.14l-2.95-12.8h2.2l1.99 9.61 2.44-9.61h1.86z" fill="#ff4500"/><path d="m986.98 433.61h5.81v1.79h-8.03v-12.8h2.22z" fill="#ff4500"/><path d="m996.84 435.4h-2.21v-12.8h2.21z" fill="#ff4500"/><path d="m1009.73 435.4h-2.22l-5.7-9.08v9.08h-2.22v-12.8h2.22l5.72 9.11v-9.11h2.2z" fill="#ff4500"/><path d="m1016.03 429.87-1.45 1.54v3.99h-2.22v-12.8h2.22v6l1.23-1.52 3.74-4.48h2.69l-4.75 5.67 5.03 7.13h-2.64z" fill="#ff4500"/><path d="m835.05 161.44h1346v836.63h-1346z" fill="none"/><circle cx="859.73" cy="521.73" fill="#ffd105" r="25"/><path d="m853.23 550.52h13v19.72h-13z" fill="#d8d8d8"/><path d="m906.13 496.73h242.43v20h-242.43z" fill="#b7b7b7"/><path d="m906.13 525.5h121.21v20h-121.21z" fill="#828282"/><path d="m961.91 555.26h65.43v12h-65.43z" fill="#d8d8d8"/><path d="m1035.41 555.26h32.72v12h-32.72z" fill="#d8d8d8"/><path d="m1075.91 555.26h87.64v12h-87.64z" fill="#d8d8d8"/><path d="m1156.41 502.4h121.21v14.33h-121.21z" fill="#d8d8d8"/><path d="m906.13 555.26h48.13v12h-48.13z" fill="#5f99cf" opacity=".5"/><path d="m834.71 587.11h1346.34" fill="none" stroke="#e0e0e0"/><circle cx="859.73" cy="634.4" fill="#ed1c24" r="25"/><path d="m853.23 663.19h13v19.72h-13z" fill="#d8d8d8"/><path d="m906.13 609.4h963v20h-963z" fill="#b7b7b7"/><path d="m906.13 638.16h281.34v20h-281.34z" fill="#828282"/><path d="m961.91 667.92h65.43v12h-65.43z" fill="#d8d8d8"/><path d="m1035.41 667.92h32.72v12h-32.72z" fill="#d8d8d8"/><path d="m1075.91 667.92h87.64v12h-87.64z" fill="#d8d8d8"/><path d="m1876.99 615.06h121.21v14.33h-121.21z" fill="#d8d8d8"/><path d="m906.13 667.92h48.13v12h-48.13z" fill="#5f99cf" opacity=".5"/><path d="m834.71 699.77h1346.34" fill="none" stroke="#e0e0e0"/><circle cx="859.73" cy="747.06" fill="#54b948" r="25"/><path d="m853.23 775.85h13v19.72h-13z" fill="#d8d8d8"/><path d="m906.13 722.06h302.47v20h-302.47z" fill="#b7b7b7"/><path d="m906.13 750.82h181.26v20h-181.26z" fill="#828282"/><path d="m961.91 780.59h65.43v12h-65.43z" fill="#d8d8d8"/><path d="m1035.41 780.59h32.72v12h-32.72z" fill="#d8d8d8"/><path d="m1075.91 780.59h87.64v12h-87.64z" fill="#d8d8d8"/><path d="m1216.46 727.73h81.18v14.33h-81.18z" fill="#d8d8d8"/><path d="m906.13 780.59h48.13v12h-48.13z" fill="#5f99cf" opacity=".5"/><path d="m834.71 812.43h1346.34" fill="none" stroke="#e0e0e0"/><circle cx="859.73" cy="859.72" fill="#8967ac" r="25"/><path d="m853.23 888.51h13v19.72h-13z" fill="#d8d8d8"/><path d="m906.13 834.72h272.45v20h-272.45z" fill="#b7b7b7"/><path d="m906.13 863.48h321.37v20h-321.37z" fill="#828282"/><path d="m961.91 893.25h65.43v12h-65.43z" fill="#d8d8d8"/><path d="m1035.41 893.25h32.72v12h-32.72z" fill="#d8d8d8"/><path d="m1075.91 893.25h87.64v12h-87.64z" fill="#d8d8d8"/><path d="m1186.43 840.39h141.23v14.33h-141.23z" fill="#d8d8d8"/><path d="m906.13 893.25h48.13v12h-48.13z" fill="#5f99cf" opacity=".5"/><path d="m834.71 925.09h1346.34" fill="none" stroke="#e0e0e0"/><circle cx="859.73" cy="972.38" fill="#008bce" r="25"/><path d="m906.13 947.38h302.47v20h-302.47z" fill="#b7b7b7"/><path d="m906.13 976.15h81.18v20h-81.18z" fill="#828282"/><path d="m1216.46 953.05h71.17v14.33h-71.17z" fill="#d8d8d8"/><path d="m779.87 967.07h1458.59v30h-1458.59z" fill="#222"/><path d="m2068.05 976.9h101.02v11h-101.02z" fill="#fff" opacity=".6"/><path d="m839.04 976.9h188.3v11h-188.3z" fill="#fff" opacity=".6"/><path d="m1985.05 976.9h58.02v11h-58.02z" fill="#fff" opacity=".6"/><path d="m1906.55 976.9h58.02v11h-58.02z" fill="#fff" opacity=".6"/><path d="m1815.54 976.9h71.52v11h-71.52z" fill="#fff" opacity=".6"/><path d="m1758.55 976.9h38.51v11h-38.51z" fill="#fff" opacity=".6"/><path d="m1692.55 976.9h46.01v11h-46.01z" fill="#fff" opacity=".6"/><path d="m1574.55 967.07h94.01v30.66h-94.01z" fill="#fff"/><path d="m1585.55 976.9h72.51v11h-72.51z" fill="#222"/><path d="m880.53 195.84v-18.7h11.47c1.32 0 2.39 1.07 2.39 2.39v4.08c-.02 1.42-1.03 2.64-2.43 2.91 1.44.2 2.55 1.37 2.67 2.81v4.13c0 1.32-1.07 2.39-2.39 2.39h-11.71zm9.35-14.62c.01-.16-.1-.3-.26-.31-.01 0-.02 0-.02 0h-4.29v3.77h4.29c.14.02.27-.09.29-.23 0-.03 0-.05 0-.08v-3.15zm0 7.28c.01-.16-.1-.3-.26-.31-.01 0-.02 0-.02 0h-4.29v4.1h4.29c.14.01.27-.09.29-.24 0-.02 0-.03 0-.05v-3.5z" fill="#ff4500"/><path d="m913.89 195.84h-4.77v-4.77h-4.29v4.77h-4.77v-16.53c-.05-1.14.83-2.12 1.97-2.17h.2 9.54c1.14-.05 2.12.83 2.17 1.97v.2zm-4.77-8.65v-5.65c0-.33-.29-.55-.67-.55h-2.98c-.3-.05-.58.15-.64.44-.01.03-.01.07-.01.1v5.56z" fill="#ff4500"/><path d="m924.34 195.84h-4.77v-18.7h4.77z" fill="#ff4500"/><path d="m942.49 177.14v4.01h-4.27v14.69h-4.77v-14.69h-4.2v-4.01z" fill="#ff4500"/><path d="m961 188.69v4.77c-.01 1.19-.98 2.14-2.17 2.12h-9.35c-1.16.01-2.11-.92-2.12-2.07 0-.02 0-.03 0-.05v-14.31c.01-1.16.96-2.1 2.12-2.1h9.35c1.17 0 2.13.93 2.17 2.1v4.77h-4.77v-2.39c0-.15-.1-.28-.24-.31h-3.46c-.17 0-.31.14-.31.31v10.02c0 .16.13.29.29.29h.02 3.51c.14-.01.25-.14.24-.28v-2.86h4.72z" fill="#ff4500"/><path d="m966.44 177.12h4.77v14.6h5.94v4.13h-10.71z" fill="#ff4500"/><path d="m987.09 195.84h-4.77v-18.72h4.77z" fill="#ff4500"/><path d="m1006.36 188.81v4.77c-.01 1.19-.98 2.14-2.17 2.12h-9.37c-1.16.01-2.11-.92-2.12-2.07 0-.02 0-.03 0-.05v-14.43c.01-1.16.96-2.1 2.12-2.1h9.35c1.17 0 2.13.93 2.17 2.1v4.77h-4.77v-2.39c0-.15-.1-.28-.24-.31h-3.48c-.17 0-.31.14-.31.31v10.02c0 .16.13.29.29.29h.02 3.51c.14-.01.25-.14.24-.28v-2.74h4.76z" fill="#ff4500"/><path d="m1021.7 195.84-3.6-7.16-1.53 2.39v4.77h-4.77v-18.7h4.77v7.73l4.77-7.75h5.34l-5.29 8.09 5.58 10.64h-5.27z" fill="#ff4500"/><path d="m1029.52 200.52h-.1-148.87v4.77h151.5z" fill="#ff4500"/><path d="m852.95 204.88c2.66 4.55 8.5 6.08 13.05 3.42 4.13-2.42 5.83-7.52 3.98-11.93l-4.25-8.51v10.64l1.86-1.6.26.52c1.59 3.62-.05 7.84-3.67 9.43-3.37 1.48-7.31.17-9.11-3.04l-5.32-10.64c-.29-.59-.06-1.3.52-1.6l-4.25-8.51 4.77-1.07-12.76-9.56v15.98l3.72-3.22 4.27 8.51c.59-.29 1.3-.06 1.6.52z" fill="#ff4500"/><path d="m242.44 354.74h270.92v468.79h-270.92z" fill="#fff"/><circle cx="261.88" cy="681.88" fill="#ffd105" r="14"/><path d="m256.38 699.18h11v16.69h-11z" fill="#d8d8d8"/><path d="m288.96 669.87h132.93v12h-132.93z" fill="#b7b7b7"/><path d="m288.96 688.63h121.21v12h-121.21z" fill="#828282"/><path d="m342.21 708.87h65.43v10h-65.43z" fill="#d8d8d8"/><path d="m426.94 672.87h70.78v9h-70.78z" fill="#d8d8d8"/><path d="m288.75 708.87h48.13v10h-48.13z" fill="#5f99cf" opacity=".5"/><path d="m242.44 734.41h270.92" fill="none" stroke="#e0e0e0"/><circle cx="261.88" cy="758.88" fill="#ed1c24" r="14"/><path d="m256.38 776.18h11v16.69h-11z" fill="#d8d8d8"/><path d="m288.96 744.87h208.76v12h-208.76z" fill="#b7b7b7"/><path d="m288.96 760.53h200.09v12h-200.09z" fill="#b7b7b7"/><path d="m288.96 776.18h71.83v12h-71.83z" fill="#b7b7b7"/><path d="m288.96 795.65h121.21v12h-121.21z" fill="#828282"/><path d="m342.21 812.89h65.43v10h-65.43z" fill="#d8d8d8"/><path d="m363.41 779.18h78.64v9h-78.64z" fill="#d8d8d8"/><path d="m288.75 812.89h48.13v10h-48.13z" fill="#5f99cf" opacity=".5"/><path d="m242.44 650.68h270.92v3.3h-270.92z" fill="#ff4500"/><path d="m242.44 397.27h270.15v3.3h-270.15z" fill="#ff4500"/><path d="m258.46 527.49h212.03v14h-212.03z" fill="#c6c6c6"/><path d="m258.46 546.62h224.23v14h-224.23z" fill="#c6c6c6"/><path d="m258.46 565.76h212.03v14h-212.03z" fill="#c6c6c6"/><path d="m258.46 584.89h51.36v14h-51.36z" fill="#c6c6c6"/><path d="m377.75 611.96c.93 0 1.69.76 1.69 1.69v21.47c0 .93-.76 1.69-1.69 1.69h-117.65c-.93 0-1.69-.76-1.69-1.69v-21.47c0-.93.76-1.69 1.69-1.69zm0-1.6h-117.65c-1.81 0-3.28 1.47-3.28 3.28v21.47c0 1.81 1.47 3.28 3.28 3.28h117.66c1.81 0 3.28-1.47 3.28-3.28v-21.47c0-1.81-1.48-3.28-3.29-3.28z" fill="#ff4500"/><path d="m272.89 626.5c0-.34-.12-.59-.35-.78-.24-.18-.66-.36-1.28-.55s-1.1-.39-1.47-.62c-.7-.44-1.04-1.01-1.04-1.71 0-.61.25-1.12.75-1.52s1.15-.6 1.95-.6c.53 0 1 .1 1.42.29.42.2.74.47.98.84.24.36.36.76.36 1.2h-1.32c0-.39-.13-.7-.38-.93-.25-.22-.61-.34-1.07-.34-.43 0-.77.09-1.01.28-.24.18-.36.44-.36.77 0 .28.13.51.39.7s.68.37 1.28.54c.59.18 1.07.38 1.43.6s.62.48.79.78c.17.29.25.63.25 1.02 0 .64-.24 1.14-.73 1.52s-1.15.56-1.98.56c-.55 0-1.06-.1-1.52-.31s-.82-.49-1.08-.85-.39-.78-.39-1.26h1.33c0 .43.14.77.43 1.01s.7.36 1.23.36c.46 0 .81-.09 1.04-.28.23-.17.35-.42.35-.72z" fill="#ff4500"/><path d="m280.96 620.83v5.1c0 .81-.26 1.45-.78 1.93-.52.47-1.21.71-2.07.71-.87 0-1.57-.23-2.08-.7s-.77-1.11-.77-1.94v-5.09h1.32v5.1c0 .51.13.9.39 1.17s.64.4 1.14.4c1.02 0 1.53-.54 1.53-1.61v-5.05z" fill="#ff4500"/><path d="m282.37 628.46v-7.63h2.61c.86 0 1.52.17 1.97.52s.68.86.68 1.55c0 .35-.09.66-.28.94s-.46.5-.83.65c.41.11.73.32.96.63s.34.68.34 1.11c0 .72-.23 1.27-.69 1.65s-1.12.58-1.97.58zm1.33-4.42h1.3c.41 0 .73-.09.97-.28.23-.19.35-.45.35-.79 0-.38-.11-.65-.32-.82s-.55-.25-1-.25h-1.29zm0 .98v2.37h1.47c.42 0 .74-.1.97-.31s.35-.49.35-.86c0-.79-.41-1.19-1.22-1.21z" fill="#ff4500"/><path d="m290.86 620.83 2.2 5.85 2.2-5.85h1.71v7.63h-1.32v-2.52l.13-3.36-2.25 5.88h-.95l-2.25-5.87.13 3.36v2.52h-1.32v-7.63z" fill="#ff4500"/><path d="m299.94 628.46h-1.32v-7.63h1.32z" fill="#ff4500"/><path d="m306.93 621.9h-2.38v6.56h-1.32v-6.56h-2.36v-1.07h6.05v1.07z" fill="#ff4500"/><path d="m314.56 626.68h-2.96l-.62 1.78h-1.38l2.88-7.63h1.19l2.89 7.63h-1.38zm-2.59-1.06h2.21l-1.11-3.17z" fill="#ff4500"/><path d="m326.15 628.46h-1.33l-3.4-5.41v5.41h-1.33v-7.63h1.33l3.41 5.43v-5.43h1.31v7.63z" fill="#ff4500"/><path d="m332.18 625.06h-3.13v2.34h3.66v1.07h-4.99v-7.63h4.95v1.07h-3.63v2.11h3.13z" fill="#ff4500"/><path d="m339.77 626.57 1.17-5.74h1.31l-1.76 7.63h-1.27l-1.45-5.57-1.48 5.57h-1.27l-1.76-7.63h1.31l1.18 5.73 1.46-5.73h1.11z" fill="#ff4500"/><path d="m347.23 627.39h3.46v1.07h-4.79v-7.63h1.33z" fill="#ff4500"/><path d="m353.11 628.46h-1.32v-7.63h1.32z" fill="#ff4500"/><path d="m360.79 628.46h-1.33l-3.4-5.41v5.41h-1.33v-7.63h1.33l3.41 5.43v-5.43h1.31v7.63z" fill="#ff4500"/><path d="m364.55 625.17-.87.92v2.38h-1.33v-7.63h1.33v3.58l.73-.91 2.23-2.67h1.6l-2.83 3.38 3 4.25h-1.57z" fill="#ff4500"/><path d="m274.9 369.45v1.65c0 .22-.08.42-.25.58-.16.16-.36.25-.58.25h-18.19c-.22 0-.42-.08-.58-.25-.16-.16-.25-.36-.25-.58v-1.65c0-.22.08-.42.25-.58.16-.16.36-.25.58-.25h18.19c.22 0 .42.08.58.25s.25.35.25.58zm0 6.61v1.65c0 .22-.08.42-.25.58s-.36.25-.58.25h-18.19c-.22 0-.42-.08-.58-.25-.16-.16-.25-.36-.25-.58v-1.65c0-.22.08-.42.25-.58.16-.16.36-.25.58-.25h18.19c.22 0 .42.08.58.25.17.17.25.36.25.58zm0 6.62v1.65c0 .22-.08.42-.25.58-.16.16-.36.25-.58.25h-18.19c-.22 0-.42-.08-.58-.25-.16-.16-.25-.36-.25-.58v-1.65c0-.22.08-.42.25-.58.16-.16.36-.25.58-.25h18.19c.22 0 .42.08.58.25s.25.36.25.58z" fill="#ff4500"/><g fill="#333"><path d="m269.51 432.64h-7.58v-.84c.29-.12.63-.24 1-.36s.75-.22 1.14-.28v-12.52h-2.56l-1.41 3.77h-.9c-.06-.29-.12-.67-.18-1.12-.06-.46-.11-.93-.15-1.41-.04-.49-.08-.97-.11-1.44-.03-.48-.04-.88-.04-1.22h14.04c0 .35-.01.76-.04 1.23s-.07.95-.11 1.43-.1.95-.15 1.4c-.06.45-.12.83-.18 1.14h-.93l-1.41-3.77h-2.56v12.52c.38.07.76.16 1.14.26.37.1.71.23 1 .37v.84z"/><path d="m286.92 432.64h-5.84v-.84c.18-.1.36-.2.55-.29s.41-.17.66-.24v-4.46c0-1.27-.12-2.2-.36-2.8s-.72-.9-1.42-.9c-.59 0-1.09.2-1.5.61s-.71.87-.88 1.4v6.14c.23.06.44.13.63.2.18.07.38.18.58.33v.84h-5.84v-.84c.46-.24.94-.41 1.45-.53v-13.4l-1.68-.18v-.84c.22-.09.5-.18.85-.26.35-.09.71-.17 1.09-.23.38-.07.76-.12 1.15-.18.38-.05.72-.09 1.01-.12h.75v7.78h.02c.15-.34.34-.66.6-.96.25-.3.53-.57.85-.79.32-.23.66-.41 1.03-.54s.76-.2 1.17-.2c.59 0 1.11.07 1.58.21.46.14.85.39 1.16.74s.54.83.71 1.42c.16.6.24 1.35.24 2.26v5.28c.25.06.5.13.75.2s.48.18.71.33v.86z"/><path d="m293.95 432.64h-6.08v-.84c.22-.12.45-.22.68-.3s.49-.16.77-.23v-8.11l-1.45-.18v-.84c.22-.09.5-.18.83-.26.33-.09.68-.17 1.05-.23.37-.07.73-.12 1.08-.18.35-.05.66-.09.93-.12h.75v9.92c.29.07.56.15.79.23s.46.18.66.3v.84zm-4.96-14.64c0-.51.17-.92.52-1.21s.8-.44 1.35-.44 1 .15 1.35.44.52.7.52 1.21c0 .5-.17.9-.52 1.19s-.8.44-1.35.44-1-.15-1.35-.44c-.34-.29-.52-.69-.52-1.19z"/><path d="m300.85 430.24c0-.38-.14-.71-.41-.99s-.61-.54-1.01-.77-.85-.47-1.32-.71c-.48-.23-.92-.51-1.32-.83s-.74-.69-1.01-1.11-.41-.95-.41-1.57c0-.44.1-.84.31-1.2s.48-.66.84-.91c.35-.25.77-.44 1.27-.58.49-.14 1.02-.21 1.6-.21.79 0 1.53.06 2.22.19.68.12 1.28.3 1.8.52-.06.47-.18.97-.35 1.51s-.35 1.02-.51 1.47h-.75l-.93-2.25c-.18-.07-.36-.12-.55-.14s-.4-.03-.64-.03c-.44 0-.77.13-1 .39s-.34.55-.34.87c0 .37.14.69.41.96s.61.53 1.01.76.85.47 1.32.71c.48.24.92.5 1.32.8s.74.66 1.01 1.07.41.9.41 1.48c0 1.01-.41 1.81-1.23 2.39s-1.93.87-3.31.87c-.71 0-1.43-.07-2.18-.22s-1.4-.35-1.94-.62c.03-.53.15-1.07.37-1.61s.46-1.03.71-1.45h.75l1.08 2.4c.16.12.34.19.54.21s.39.03.56.03c.43 0 .82-.12 1.17-.37.34-.28.51-.62.51-1.06z"/><path d="m324.35 432.64h-5.84v-.84c.19-.1.38-.2.56-.28s.4-.17.65-.25v-5.19c0-.93-.13-1.65-.4-2.18-.26-.52-.73-.78-1.41-.78-.56 0-1.04.18-1.44.54s-.71.85-.91 1.47v6.14c.23.06.44.13.63.21.18.08.38.19.58.32v.84h-5.84v-.84c.37-.19.85-.37 1.45-.53v-8.11l-1.45-.18v-.84c.19-.09.44-.17.75-.25s.64-.16 1-.23.73-.14 1.1-.19.72-.09 1.02-.12h.75v2.27h.02c.31-.62.77-1.15 1.39-1.6s1.37-.67 2.25-.67c.57 0 1.09.07 1.54.21s.84.39 1.16.74.56.83.73 1.42c.17.6.25 1.35.25 2.26v5.28c.59.1 1.07.28 1.46.53z"/><path d="m335.33 430.79c-.12.25-.31.5-.56.76-.26.26-.57.49-.95.68s-.81.36-1.3.48-1.02.19-1.6.19c-.91 0-1.72-.14-2.43-.41s-1.29-.66-1.76-1.17-.83-1.11-1.07-1.82-.36-1.5-.36-2.38c0-1.88.49-3.31 1.48-4.3s2.35-1.48 4.1-1.48c.75 0 1.45.1 2.11.31.65.21 1.2.54 1.63 1.01s.73 1.09.9 1.85.16 1.7-.03 2.8h-6.77c.01 1.16.31 2.09.89 2.78s1.44 1.04 2.57 1.04c.48 0 .99-.07 1.51-.22s.93-.34 1.22-.57zm-4.55-8.18c-.29 0-.55.05-.78.15s-.42.29-.59.56-.3.64-.41 1.1c-.1.46-.18 1.05-.22 1.75h3.53c.1-1.15.04-2.03-.2-2.65-.23-.6-.68-.91-1.33-.91z"/><path d="m340.6 432.91-3.46-9.92c-.21-.07-.41-.15-.61-.23s-.39-.18-.56-.3v-.84h5.58v.82c-.21.12-.41.22-.62.32s-.42.17-.64.23l1.52 5.66.29 1.7h.04l.4-1.76 2.34-6.83 1.08-.13 2.51 6.99.46 1.74h.04l.35-1.72 1.32-5.64c-.16-.03-.35-.09-.56-.18s-.43-.21-.65-.35v-.84h4.25v.84c-.31.21-.73.38-1.26.53l-3.06 9.65-2.07.26-1.9-5.44-.42-1.83h-.07l-.51 1.83-1.76 5.18z"/><path d="m365.77 430.24c0-.38-.14-.71-.41-.99s-.61-.54-1.01-.77-.85-.47-1.32-.71c-.48-.23-.92-.51-1.32-.83s-.74-.69-1.01-1.11c-.27-.43-.41-.95-.41-1.57 0-.44.1-.84.31-1.2s.48-.66.84-.91c.35-.25.77-.44 1.27-.58.49-.14 1.03-.21 1.6-.21.79 0 1.53.06 2.22.19.68.12 1.28.3 1.8.52-.06.47-.18.97-.35 1.51-.18.54-.35 1.02-.51 1.47h-.75l-.93-2.25c-.18-.07-.36-.12-.55-.14s-.4-.03-.64-.03c-.44 0-.77.13-1 .39s-.34.55-.34.87c0 .37.14.69.41.96s.61.53 1.01.76.84.47 1.32.71.92.5 1.32.8.74.66 1.01 1.07.41.9.41 1.48c0 1.01-.41 1.81-1.23 2.39s-1.93.87-3.31.87c-.7 0-1.43-.07-2.18-.22s-1.4-.35-1.94-.62c.03-.53.15-1.07.37-1.61s.46-1.03.71-1.45h.75l1.08 2.4c.16.12.34.19.54.21s.39.03.56.03c.43 0 .82-.12 1.17-.37s.51-.62.51-1.06z"/><path d="m376.16 432.64h-6.08v-.84c.22-.12.45-.22.68-.3s.49-.16.77-.23v-8.11l-1.46-.18v-.84c.22-.09.5-.18.83-.26.33-.09.68-.17 1.05-.23.37-.07.73-.12 1.08-.18.35-.05.66-.09.93-.12h.75v9.92c.29.07.56.15.79.23s.45.18.66.3zm-4.96-14.64c0-.51.17-.92.52-1.21s.8-.44 1.35-.44 1 .15 1.35.44.52.7.52 1.21c0 .5-.17.9-.52 1.19s-.8.44-1.35.44-1-.15-1.35-.44-.52-.69-.52-1.19z"/><path d="m376.88 422.17c.56-.36 1.15-.62 1.76-.77v-1.79c.09-.09.24-.17.45-.25s.44-.15.68-.22.48-.13.72-.19c.23-.06.43-.1.57-.13h.75v2.8h2.91v1.43h-2.91v5.68c0 .91.11 1.54.34 1.89s.61.53 1.14.53c.26 0 .56-.02.89-.06s.64-.11.91-.21l.15.73c-.13.13-.33.27-.58.42-.26.15-.55.29-.88.42s-.69.24-1.08.33-.8.13-1.22.13c-.96 0-1.67-.25-2.14-.75s-.7-1.3-.7-2.41v-6.69h-1.76z"/><path d="m396.22 430.79c-.12.25-.31.5-.56.76-.26.26-.57.49-.95.68s-.81.36-1.3.48-1.02.19-1.6.19c-.91 0-1.72-.14-2.43-.41s-1.29-.66-1.76-1.17-.83-1.11-1.07-1.82-.36-1.5-.36-2.38c0-1.88.49-3.31 1.48-4.3s2.35-1.48 4.1-1.48c.75 0 1.45.1 2.11.31.65.21 1.2.54 1.63 1.01s.73 1.09.9 1.85.16 1.7-.03 2.8h-6.77c.01 1.16.31 2.09.89 2.78s1.44 1.04 2.57 1.04c.48 0 .99-.07 1.51-.22s.93-.34 1.22-.57zm-4.56-8.18c-.29 0-.55.05-.78.15s-.42.29-.59.56-.3.64-.41 1.1c-.1.46-.18 1.05-.22 1.75h3.53c.1-1.15.04-2.03-.2-2.65-.23-.6-.67-.91-1.33-.91z"/><path d="m407.7 432.91-3.46-9.92c-.21-.07-.41-.15-.61-.23s-.39-.18-.56-.3v-.84h5.58v.82c-.21.12-.41.22-.62.32s-.42.17-.64.23l1.52 5.66.29 1.7h.04l.4-1.76 2.34-6.83 1.08-.13 2.51 6.99.46 1.74h.04l.35-1.72 1.32-5.64c-.16-.03-.35-.09-.56-.18s-.43-.21-.65-.35v-.84h4.25v.84c-.31.21-.73.38-1.26.53l-3.06 9.65-2.07.26-1.9-5.44-.42-1.83h-.07l-.51 1.83-1.76 5.18z"/><path d="m427.34 432.64h-6.08v-.84c.22-.12.45-.22.68-.3s.49-.16.77-.23v-8.11l-1.46-.18v-.84c.22-.09.5-.18.83-.26.33-.09.68-.17 1.05-.23.37-.07.73-.12 1.08-.18.35-.05.66-.09.93-.12h.75v9.92c.29.07.56.15.79.23s.45.18.66.3zm-4.96-14.64c0-.51.17-.92.52-1.21s.8-.44 1.35-.44 1 .15 1.35.44.52.7.52 1.21c0 .5-.17.9-.52 1.19s-.8.44-1.35.44-1-.15-1.35-.44c-.34-.29-.52-.69-.52-1.19z"/><path d="m441.82 432.64h-5.84v-.84c.19-.1.38-.2.56-.28s.4-.17.65-.25v-5.19c0-.93-.13-1.65-.4-2.18-.26-.52-.73-.78-1.41-.78-.56 0-1.04.18-1.44.54s-.71.85-.91 1.47v6.14c.23.06.44.13.63.21.18.08.38.19.58.32v.84h-5.84v-.84c.37-.19.85-.37 1.45-.53v-8.11l-1.45-.18v-.84c.19-.09.44-.17.75-.25s.64-.16 1-.23.73-.14 1.1-.19.72-.09 1.02-.12h.75v2.27h.02c.31-.62.77-1.15 1.39-1.6s1.37-.67 2.25-.67c.57 0 1.09.07 1.54.21s.84.39 1.16.74.56.83.73 1.42c.17.6.25 1.35.25 2.26v5.28c.59.1 1.07.28 1.46.53z"/><path d="m448.44 430.24c0-.38-.14-.71-.41-.99s-.61-.54-1.01-.77-.85-.47-1.32-.71c-.48-.23-.92-.51-1.32-.83s-.74-.69-1.01-1.11c-.27-.43-.41-.95-.41-1.57 0-.44.1-.84.31-1.2s.48-.66.84-.91c.35-.25.77-.44 1.27-.58.49-.14 1.03-.21 1.6-.21.79 0 1.53.06 2.22.19.68.12 1.28.3 1.8.52-.06.47-.18.97-.35 1.51-.18.54-.35 1.02-.51 1.47h-.75l-.93-2.25c-.18-.07-.36-.12-.55-.14s-.4-.03-.64-.03c-.44 0-.77.13-1 .39s-.34.55-.34.87c0 .37.14.69.41.96s.61.53 1.01.76.84.47 1.32.71.92.5 1.32.8.74.66 1.01 1.07.41.9.41 1.48c0 1.01-.41 1.81-1.23 2.39s-1.93.87-3.31.87c-.7 0-1.43-.07-2.18-.22s-1.4-.35-1.94-.62c.03-.53.15-1.07.37-1.61s.46-1.03.71-1.45h.75l1.08 2.4c.16.12.34.19.54.21s.39.03.56.03c.43 0 .82-.12 1.17-.37.33-.28.51-.62.51-1.06z"/><path d="m258.55 448.62c.56-.36 1.15-.62 1.76-.77v-1.79c.09-.09.24-.17.45-.25s.44-.15.68-.22.48-.13.72-.19c.23-.06.43-.1.57-.13h.75v2.8h2.91v1.43h-2.91v5.68c0 .91.11 1.54.34 1.89s.61.53 1.14.53c.26 0 .56-.02.89-.06s.64-.11.91-.21l.15.73c-.13.13-.33.27-.58.42-.26.15-.55.29-.88.42s-.69.24-1.08.33-.8.13-1.22.13c-.96 0-1.67-.25-2.14-.75s-.71-1.3-.71-2.41v-6.69h-1.76v-.89z"/><path d="m281.01 459.09h-5.84v-.84c.18-.1.36-.2.55-.29s.41-.17.66-.24v-4.46c0-1.27-.12-2.2-.36-2.8s-.72-.9-1.42-.9c-.59 0-1.09.2-1.5.61s-.71.87-.88 1.4v6.14c.23.06.44.13.63.2.18.07.38.18.58.33v.84h-5.84v-.84c.46-.24.94-.41 1.45-.53v-13.4l-1.68-.18v-.84c.22-.09.5-.18.85-.26.35-.09.71-.17 1.09-.23.38-.07.76-.12 1.15-.18.38-.05.72-.09 1.01-.12h.75v7.78h.02c.15-.34.34-.66.6-.96.25-.3.53-.57.85-.79.32-.23.66-.41 1.03-.54s.76-.2 1.17-.2c.59 0 1.11.07 1.58.21.46.14.85.39 1.16.74s.54.83.71 1.42c.16.6.24 1.35.24 2.26v5.28c.25.06.5.13.75.2s.48.18.71.33v.86z"/><path d="m291.99 457.24c-.12.25-.31.5-.56.76-.26.26-.57.49-.95.68-.37.2-.81.36-1.3.48s-1.03.19-1.6.19c-.91 0-1.72-.14-2.43-.41s-1.29-.66-1.76-1.17-.83-1.11-1.07-1.82-.36-1.5-.36-2.38c0-1.88.49-3.31 1.48-4.3s2.35-1.48 4.1-1.48c.75 0 1.45.1 2.11.31.65.21 1.2.54 1.63 1.01s.73 1.09.9 1.85.16 1.7-.03 2.8h-6.77c.01 1.16.31 2.09.89 2.78s1.44 1.04 2.57 1.04c.48 0 .99-.07 1.51-.22s.93-.34 1.22-.57zm-4.55-8.18c-.29 0-.55.05-.78.15s-.42.29-.59.56-.3.64-.4 1.1-.18 1.05-.22 1.75h3.53c.1-1.15.04-2.03-.2-2.65-.24-.6-.68-.91-1.34-.91z"/><path d="m305.83 459.09h-6.08v-.84c.22-.12.45-.22.68-.3s.49-.16.77-.23v-8.11l-1.45-.18v-.84c.22-.09.5-.18.83-.26.33-.09.68-.17 1.05-.23.37-.07.73-.12 1.08-.18.35-.05.66-.09.93-.12h.75v9.92c.29.07.56.15.79.23s.45.18.66.3v.84zm-4.95-14.63c0-.51.17-.92.52-1.21s.8-.44 1.35-.44 1 .15 1.35.44.52.7.52 1.21c0 .5-.17.9-.52 1.19s-.8.44-1.35.44-1-.15-1.35-.44c-.35-.3-.52-.69-.52-1.19z"/><path d="m320.32 459.09h-5.84v-.84c.19-.1.38-.2.56-.28s.4-.17.65-.25v-5.19c0-.93-.13-1.65-.4-2.18-.26-.52-.73-.78-1.41-.78-.56 0-1.04.18-1.44.54s-.71.85-.91 1.47v6.14c.23.06.44.13.63.21.18.08.38.19.58.32v.84h-5.84v-.84c.37-.19.85-.37 1.45-.53v-8.11l-1.45-.18v-.84c.19-.09.44-.17.75-.25s.64-.16 1-.23.73-.14 1.1-.19.72-.09 1.02-.12h.75v2.27h.02c.31-.62.77-1.15 1.39-1.6s1.37-.67 2.25-.67c.57 0 1.09.07 1.54.21s.84.39 1.16.74.56.83.73 1.42c.17.6.25 1.35.25 2.26v5.28c.59.1 1.07.28 1.46.53z"/><path d="m320.76 448.62c.56-.36 1.15-.62 1.76-.77v-1.79c.09-.09.24-.17.45-.25s.44-.15.68-.22.48-.13.72-.19c.23-.06.43-.1.57-.13h.75v2.8h2.91v1.43h-2.91v5.68c0 .91.11 1.54.34 1.89s.61.53 1.14.53c.26 0 .56-.02.89-.06s.64-.11.91-.21l.15.73c-.13.13-.33.27-.58.42-.26.15-.55.29-.88.42s-.69.24-1.08.33-.8.13-1.22.13c-.96 0-1.67-.25-2.14-.75s-.7-1.3-.7-2.41v-6.69h-1.76z"/><path d="m340.09 457.24c-.12.25-.31.5-.56.76-.26.26-.57.49-.95.68s-.81.36-1.3.48-1.02.19-1.6.19c-.91 0-1.72-.14-2.43-.41s-1.29-.66-1.76-1.17-.83-1.11-1.07-1.82-.36-1.5-.36-2.38c0-1.88.49-3.31 1.48-4.3s2.35-1.48 4.1-1.48c.75 0 1.45.1 2.11.31.65.21 1.2.54 1.63 1.01s.73 1.09.9 1.85.16 1.7-.03 2.8h-6.77c.01 1.16.31 2.09.89 2.78s1.44 1.04 2.57 1.04c.48 0 .99-.07 1.51-.22s.93-.34 1.22-.57zm-4.55-8.18c-.29 0-.55.05-.78.15s-.42.29-.59.56-.3.64-.41 1.1c-.1.46-.18 1.05-.22 1.75h3.53c.1-1.15.04-2.03-.2-2.65-.23-.6-.68-.91-1.33-.91z"/><path d="m347.61 450.61c-.18.09-.38.24-.62.44-.24.21-.45.55-.64 1.02v5.66c.29.03.59.08.88.17.29.08.59.2.88.36v.84h-6.39v-.84c.26-.15.51-.26.75-.33.23-.07.47-.14.71-.2v-8.11l-1.45-.18v-.84c.23-.1.53-.2.87-.29.35-.09.7-.17 1.07-.23.37-.07.72-.12 1.07-.17.34-.04.64-.08.87-.11h.75v2.93h.09c.12-.32.29-.66.52-1.01s.5-.68.8-.97c.31-.29.65-.53 1.01-.71.37-.18.75-.26 1.15-.24.16.21.3.5.42.87s.21.73.29 1.07v.86h-3.03z"/><path d="m364.65 459.09h-5.84v-.84c.19-.1.38-.2.56-.28s.4-.17.65-.25v-5.19c0-.93-.13-1.65-.4-2.18-.26-.52-.73-.78-1.41-.78-.56 0-1.04.18-1.44.54s-.71.85-.91 1.47v6.14c.23.06.44.13.63.21.18.08.38.19.58.32v.84h-5.84v-.84c.37-.19.85-.37 1.45-.53v-8.11l-1.45-.18v-.84c.19-.09.44-.17.75-.25s.64-.16 1-.23.73-.14 1.1-.19.72-.09 1.02-.12h.75v2.27h.02c.31-.62.77-1.15 1.39-1.6s1.37-.67 2.25-.67c.57 0 1.09.07 1.54.21s.84.39 1.16.74.56.83.73 1.42c.17.6.25 1.35.25 2.26v5.28c.59.1 1.07.28 1.46.53z"/><path d="m375.63 457.24c-.12.25-.31.5-.56.76-.26.26-.57.49-.95.68s-.81.36-1.3.48-1.02.19-1.6.19c-.91 0-1.72-.14-2.43-.41s-1.29-.66-1.76-1.17-.83-1.11-1.07-1.82-.36-1.5-.36-2.38c0-1.88.49-3.31 1.48-4.3s2.35-1.48 4.1-1.48c.75 0 1.45.1 2.11.31.65.21 1.2.54 1.63 1.01s.73 1.09.9 1.85.16 1.7-.03 2.8h-6.77c.01 1.16.31 2.09.89 2.78s1.44 1.04 2.57 1.04c.48 0 .99-.07 1.51-.22s.93-.34 1.22-.57zm-4.56-8.18c-.29 0-.55.05-.78.15s-.42.29-.59.56-.3.64-.41 1.1c-.1.46-.18 1.05-.22 1.75h3.53c.1-1.15.04-2.03-.2-2.65-.23-.6-.67-.91-1.33-.91z"/><path d="m376.93 448.62c.56-.36 1.15-.62 1.76-.77v-1.79c.09-.09.24-.17.45-.25s.44-.15.68-.22.48-.13.72-.19c.23-.06.43-.1.57-.13h.75v2.8h2.91v1.43h-2.91v5.68c0 .91.11 1.54.34 1.89s.61.53 1.14.53c.26 0 .56-.02.89-.06s.64-.11.91-.21l.15.73c-.13.13-.33.27-.58.42-.26.15-.55.29-.88.42s-.69.24-1.08.33-.8.13-1.22.13c-.96 0-1.67-.25-2.14-.75s-.7-1.3-.7-2.41v-6.69h-1.76z"/><path d="m392.97 444.32-1.68-.18v-.84c.22-.09.51-.18.87-.26.36-.09.73-.17 1.12-.23.39-.07.77-.12 1.15-.18.38-.05.69-.09.96-.12h.75v7.63h.04c.29-.73.74-1.31 1.34-1.72s1.32-.62 2.14-.62c1.29 0 2.3.45 3.02 1.34.72.9 1.08 2.26 1.08 4.08 0 2.01-.53 3.53-1.6 4.54s-2.63 1.52-4.68 1.52c-.37 0-.78-.03-1.23-.08-.46-.05-.9-.11-1.32-.19-.43-.07-.82-.16-1.18-.26s-.62-.21-.78-.31zm5.27 5.25c-.56 0-1.01.2-1.35.61-.34.4-.59.91-.75 1.53v5.84c.21.15.46.26.76.35s.64.13 1.02.13c.84 0 1.45-.37 1.84-1.12s.58-1.93.58-3.53c0-1.16-.16-2.09-.47-2.78-.3-.68-.85-1.03-1.63-1.03z"/><path d="m404.97 449.44c-.22-.06-.42-.13-.61-.22-.18-.09-.37-.19-.56-.31v-.84h5.8v.82c-.31.21-.73.39-1.26.55l2.23 5.55.38 1.41h.04l.35-1.44 1.72-5.53c-.44-.09-.85-.27-1.21-.53v-.84h4.25v.84c-.31.21-.73.38-1.26.53l-3.59 9.65c-.35.94-.7 1.71-1.06 2.3-.35.6-.71 1.07-1.06 1.42s-.7.6-1.06.74c-.35.14-.71.23-1.06.28-.15-.13-.28-.3-.4-.5s-.22-.41-.31-.64-.16-.46-.22-.69c-.06-.24-.1-.46-.11-.66l.29-.53h2.69c.13-.21.25-.43.34-.66.1-.24.21-.59.34-1.06z"/><path d="m272.37 485.55h-5.97v-.84c.18-.1.38-.2.62-.3.23-.1.48-.17.73-.23v-8.22h-4.01v8.22c.29.03.58.1.87.2s.55.21.8.33v.84h-6.3v-.84c.46-.26.94-.44 1.45-.53v-8.22h-1.68v-.84c.51-.33 1.07-.57 1.68-.74v-.78c0-.92.17-1.68.51-2.28s.77-1.08 1.31-1.43 1.14-.59 1.81-.72 1.34-.2 2.02-.2c.38 0 .81.03 1.29.08s.94.12 1.4.21.87.19 1.26.3c.38.11.68.22.88.34-.04.48-.13.92-.26 1.31s-.27.73-.42 1.03h-1.85l-1.63-2.09c-.38 0-.76.04-1.14.12-.37.08-.71.24-1 .47s-.53.57-.72 1c-.18.43-.28 1-.28 1.69v1.1h2.12c.25 0 .57-.01.95-.03s.78-.04 1.2-.07.82-.05 1.21-.08.71-.06.96-.09h.75v9.92c.29.07.56.15.79.23s.46.18.66.3v.84z"/><path d="m278.74 474.26c.96 0 1.75.1 2.38.3s1.11.44 1.43.74c.69-.75 1.48-1.27 2.38-1.56.1.07.21.18.31.32s.19.29.26.45.13.32.18.49c.04.16.07.29.07.4l-.29.53h-2.31c.16.21.31.47.45.8s.21.72.21 1.18c0 .49-.1.94-.31 1.37s-.52.8-.94 1.14c-.42.33-.95.59-1.59.78s-1.39.29-2.24.29c-.25 0-.47 0-.67-.01s-.37-.03-.52-.06c-.06.09-.12.2-.19.32s-.1.25-.1.36c0 .25.18.45.53.6s.8.28 1.34.4 1.13.25 1.75.4 1.21.34 1.75.58 1 .56 1.37.95.56.89.57 1.51c.01.59-.13 1.11-.44 1.56-.31.46-.73.84-1.27 1.16s-1.17.56-1.9.73-1.5.25-2.33.25c-.97 0-1.8-.08-2.48-.23s-1.24-.36-1.66-.63c-.43-.26-.74-.57-.94-.9-.2-.34-.3-.69-.3-1.06 0-.41.08-.76.24-1.06.16-.29.39-.55.68-.77s.64-.4 1.02-.55c.39-.15.82-.28 1.29-.4-.22-.06-.43-.13-.64-.22s-.39-.19-.55-.32c-.16-.12-.29-.27-.4-.44-.1-.17-.15-.36-.15-.58 0-.19.06-.38.18-.56s.27-.35.46-.51c.19-.15.4-.29.62-.42.22-.12.44-.23.66-.32-.93-.2-1.66-.61-2.2-1.2-.54-.6-.82-1.36-.82-2.28 0-1.1.46-1.96 1.37-2.58.95-.64 2.19-.95 3.74-.95zm2.78 12.96c0-.4-.12-.72-.36-.96s-.55-.44-.94-.59c-.38-.15-.81-.29-1.29-.4s-.95-.24-1.42-.39c-.38.29-.65.59-.82.88-.16.29-.24.65-.24 1.06 0 .68.23 1.2.69 1.58.46.37 1.11.56 1.95.56.82 0 1.43-.17 1.83-.52.4-.34.6-.75.6-1.22zm-4.67-9.34c0 .76.13 1.35.39 1.74.26.4.76.59 1.51.59.72 0 1.22-.2 1.49-.61.27-.4.41-.98.41-1.73 0-.79-.14-1.39-.42-1.77-.28-.39-.77-.58-1.48-.58-.73 0-1.23.19-1.5.57s-.4.98-.4 1.79z"/><path d="m299.2 485.55h-5.84v-.84c.18-.1.36-.2.55-.29s.41-.17.66-.24v-4.46c0-1.27-.12-2.2-.36-2.8s-.72-.89-1.42-.89c-.59 0-1.09.2-1.5.61s-.71.87-.88 1.4v6.14c.23.06.44.13.63.2.18.07.38.18.58.33v.84h-5.84v-.84c.46-.24.94-.41 1.45-.53v-13.4l-1.68-.18v-.84c.22-.09.5-.18.85-.26.35-.09.71-.16 1.09-.23s.76-.12 1.15-.18c.38-.05.72-.09 1.01-.12h.75v7.78h.02c.15-.34.34-.66.6-.96.25-.3.53-.57.85-.79.32-.23.66-.41 1.03-.54s.76-.2 1.17-.2c.59 0 1.11.07 1.58.21.46.14.85.39 1.16.74s.54.83.71 1.43c.16.6.24 1.35.24 2.26v5.28c.25.06.5.12.75.2s.48.18.71.33v.84z"/><path d="m299.64 475.07c.56-.36 1.15-.62 1.76-.77v-1.78c.09-.09.24-.17.45-.25s.44-.15.68-.22.48-.13.72-.19c.23-.06.43-.1.57-.13h.75v2.8h2.91v1.43h-2.91v5.68c0 .91.11 1.54.34 1.89s.61.53 1.14.53c.26 0 .56-.02.89-.05.33-.04.64-.11.91-.21l.15.73c-.13.13-.33.27-.58.42-.26.15-.55.29-.88.42s-.69.24-1.08.33-.8.13-1.22.13c-.96 0-1.67-.25-2.14-.75s-.71-1.3-.71-2.41v-6.69h-1.76v-.91z"/><path d="m315.03 485.55h-6.08v-.84c.22-.12.45-.22.68-.3s.49-.16.77-.23v-8.11l-1.46-.18v-.84c.22-.09.5-.18.83-.26.33-.09.68-.17 1.05-.23.37-.07.73-.12 1.08-.18.35-.05.66-.09.93-.12h.75v9.92c.29.07.56.15.79.23s.45.18.66.3zm-4.96-14.64c0-.51.17-.92.52-1.21s.8-.44 1.35-.44 1 .15 1.35.44.52.7.52 1.21c0 .5-.17.9-.52 1.19s-.8.44-1.35.44-1-.15-1.35-.44-.52-.69-.52-1.19z"/><path d="m329.51 485.55h-5.84v-.84c.19-.1.38-.19.56-.28.18-.08.4-.17.65-.25v-5.19c0-.93-.13-1.65-.4-2.18-.26-.52-.73-.78-1.41-.78-.56 0-1.04.18-1.44.54s-.71.85-.91 1.47v6.14c.23.06.44.13.63.21.18.08.38.19.58.32v.84h-5.84v-.84c.37-.19.85-.37 1.45-.53v-8.11l-1.45-.18v-.84c.19-.09.44-.17.75-.25s.64-.16 1-.23.73-.14 1.1-.19.72-.09 1.02-.12h.75v2.27h.02c.31-.62.77-1.15 1.39-1.6s1.37-.67 2.25-.67c.57 0 1.09.07 1.54.21s.84.39 1.16.74.56.83.73 1.43.25 1.35.25 2.26v5.28c.59.1 1.07.28 1.46.53z"/><path d="m335.59 474.26c.95 0 1.75.1 2.38.3s1.11.44 1.43.74c.69-.75 1.48-1.27 2.38-1.56.1.07.21.18.31.32s.19.29.26.45.13.32.18.49c.04.16.07.29.07.4l-.29.53h-2.31c.16.21.31.47.45.8s.21.72.21 1.18c0 .49-.1.94-.31 1.37s-.52.8-.94 1.14c-.42.33-.95.59-1.59.78s-1.39.29-2.24.29c-.25 0-.47 0-.67-.01s-.37-.03-.52-.06c-.06.09-.12.2-.19.32s-.1.25-.1.36c0 .25.18.45.53.6s.8.28 1.35.4c.54.12 1.13.25 1.75.4s1.21.34 1.75.58 1 .56 1.37.95.56.89.57 1.51c.01.59-.13 1.11-.44 1.56-.31.46-.73.84-1.27 1.16s-1.17.56-1.9.73-1.5.25-2.32.25c-.97 0-1.8-.08-2.48-.23s-1.24-.36-1.66-.63c-.43-.26-.74-.57-.94-.9-.2-.34-.3-.69-.3-1.06 0-.41.08-.76.24-1.06.16-.29.39-.55.68-.77s.64-.4 1.02-.55c.39-.15.82-.28 1.29-.4-.22-.06-.43-.13-.64-.22s-.39-.19-.55-.32c-.16-.12-.29-.27-.4-.44-.1-.17-.15-.36-.15-.58 0-.19.06-.38.18-.56s.27-.35.46-.51c.19-.15.4-.29.62-.42.22-.12.44-.23.66-.32-.93-.2-1.66-.61-2.2-1.2-.54-.6-.82-1.36-.82-2.28 0-1.1.45-1.96 1.37-2.58.93-.64 2.17-.95 3.72-.95zm2.78 12.96c0-.4-.12-.72-.36-.96s-.56-.44-.94-.59-.81-.29-1.29-.4-.95-.24-1.42-.39c-.38.29-.65.59-.82.88-.16.29-.24.65-.24 1.06 0 .68.23 1.2.69 1.58.46.37 1.11.56 1.95.56.82 0 1.43-.17 1.83-.52.4-.34.6-.75.6-1.22zm-4.67-9.34c0 .76.13 1.35.39 1.74.26.4.76.59 1.51.59.72 0 1.22-.2 1.49-.61.27-.4.41-.98.41-1.73 0-.79-.14-1.39-.42-1.77-.28-.39-.77-.58-1.48-.58-.74 0-1.23.19-1.5.57s-.4.98-.4 1.79z"/><path d="m349.64 470.78-1.68-.18v-.84c.22-.09.51-.18.87-.26s.73-.16 1.12-.23.77-.12 1.15-.18c.38-.05.69-.09.96-.12h.75v7.63h.04c.29-.73.74-1.31 1.34-1.72s1.32-.62 2.14-.62c1.29 0 2.3.45 3.02 1.35s1.08 2.26 1.08 4.08c0 2.01-.53 3.53-1.6 4.54s-2.63 1.52-4.68 1.52c-.37 0-.78-.03-1.23-.08-.46-.05-.9-.12-1.32-.19-.43-.07-.82-.16-1.18-.26s-.62-.21-.78-.31zm5.26 5.24c-.56 0-1.01.2-1.35.61-.34.4-.59.92-.75 1.53v5.84c.21.15.46.26.76.35s.64.13 1.02.13c.84 0 1.45-.38 1.84-1.13s.58-1.92.58-3.53c0-1.16-.16-2.09-.47-2.78-.3-.67-.85-1.02-1.63-1.02z"/><path d="m371.48 482.35c0 .32 0 .6.01.84.01.23.03.48.06.75l1.52.22v.77c-.18.09-.42.18-.72.26-.3.09-.62.17-.95.25s-.66.15-.98.2-.61.09-.86.12h-.75c-.15-.34-.24-.68-.26-1.01-.03-.34-.05-.75-.07-1.23h-.11c-.07.29-.2.58-.38.85s-.4.51-.67.73c-.27.21-.59.39-.96.52s-.78.2-1.23.2c-.48 0-.93-.07-1.34-.22s-.77-.35-1.08-.62c-.31-.26-.55-.58-.73-.96-.18-.37-.26-.8-.26-1.27 0-.66.12-1.2.37-1.63s.64-.77 1.18-1.05c.54-.27 1.23-.47 2.07-.61.85-.13 1.87-.23 3.08-.29.12-1.26.07-2.19-.15-2.78s-.7-.88-1.43-.88c-.46 0-.87.07-1.26.22l-1.04 2.65h-.97c-.12-.18-.23-.38-.34-.61s-.21-.47-.31-.73-.18-.52-.24-.78c-.07-.26-.11-.52-.14-.77.56-.38 1.28-.68 2.16-.9s1.81-.33 2.8-.33c.84 0 1.52.09 2.05.28.53.18.94.43 1.25.75.3.32.51.69.63 1.11.12.43.18.88.18 1.37 0 .88-.02 1.68-.06 2.39-.05.71-.07 1.44-.07 2.19zm-4.96 1.7c.31 0 .57-.06.79-.18s.41-.26.56-.42.27-.34.35-.53.14-.36.19-.51v-2.21c-.69.01-1.26.06-1.7.13s-.79.19-1.04.36-.42.38-.52.64-.14.57-.14.94c0 .56.13.99.4 1.3.27.32.64.48 1.11.48z"/><path d="m383.45 483.76c-.1.29-.27.56-.51.8-.23.24-.52.46-.85.65s-.7.34-1.12.44-.86.15-1.31.15c-.97 0-1.8-.14-2.5-.41s-1.28-.66-1.73-1.17c-.46-.51-.79-1.12-1.01-1.83s-.33-1.5-.33-2.37c0-1.87.51-3.3 1.53-4.29s2.47-1.49 4.35-1.49c.72 0 1.38.08 1.98.23s1.1.33 1.5.54c-.03.25-.07.53-.12.83s-.11.6-.18.9-.14.59-.23.88-.18.53-.26.72h-1.08l-.93-2.62c-.1-.07-.21-.13-.33-.16-.12-.04-.29-.06-.53-.06-.38 0-.71.07-.99.21s-.52.38-.72.72-.35.79-.44 1.35c-.1.56-.14 1.25-.14 2.07 0 .6.07 1.16.2 1.66.13.51.33.95.61 1.32.27.37.61.67 1.02.88s.9.32 1.46.32c.51 0 .96-.07 1.35-.22.38-.15.7-.32.97-.53z"/><path d="m391.17 474.52h5.16v.84c-.28.12-.54.22-.78.31s-.51.16-.8.22c-.22.3-.46.59-.72.88s-.51.57-.77.83c-.26.27-.5.52-.74.77-.23.24-.45.46-.64.65.22.29.48.65.77 1.06s.61.85.95 1.32.69.94 1.07 1.42c.37.48.75.93 1.14 1.36l1.12.53v.84h-3.73l-.6-.53c-.34-.46-.64-.88-.89-1.28-.26-.4-.49-.78-.69-1.15-.21-.37-.4-.72-.6-1.07-.19-.35-.38-.69-.57-1.02l-.73-.22v3.9c.25.04.48.11.68.2s.43.2.66.33v.84h-5.97v-.84c.49-.24.97-.41 1.46-.53v-13.4l-1.68-.18v-.84c.21-.09.48-.18.84-.26.35-.09.73-.16 1.12-.23.4-.07.79-.12 1.17-.18.38-.05.71-.09.97-.12h.75v10.34h.57c.48-.52.94-1.09 1.36-1.71s.79-1.19 1.11-1.71c-.19-.06-.36-.13-.52-.22-.15-.09-.31-.19-.47-.31z"/><path d="m413.23 482.35c0 .32 0 .6.01.84.01.23.03.48.06.75l1.52.22v.77c-.18.09-.42.18-.72.26-.3.09-.62.17-.95.25s-.66.15-.98.2-.61.09-.86.12h-.75c-.15-.34-.24-.68-.26-1.01-.03-.34-.05-.75-.07-1.23h-.11c-.07.29-.2.58-.38.85s-.4.51-.67.73c-.27.21-.59.39-.96.52s-.78.2-1.23.2c-.48 0-.93-.07-1.34-.22s-.77-.35-1.08-.62c-.31-.26-.55-.58-.73-.96-.18-.37-.26-.8-.26-1.27 0-.66.12-1.2.37-1.63s.64-.77 1.18-1.05c.54-.27 1.23-.47 2.07-.61.85-.13 1.87-.23 3.08-.29.12-1.26.07-2.19-.15-2.78s-.7-.88-1.43-.88c-.46 0-.87.07-1.26.22l-1.04 2.65h-.97c-.12-.18-.23-.38-.34-.61s-.21-.47-.31-.73-.18-.52-.24-.78c-.07-.26-.11-.52-.14-.77.56-.38 1.28-.68 2.16-.9s1.81-.33 2.8-.33c.84 0 1.52.09 2.05.28.53.18.94.43 1.25.75.3.32.51.69.63 1.11.12.43.18.88.18 1.37 0 .88-.02 1.68-.06 2.39-.05.71-.07 1.44-.07 2.19zm-4.96 1.7c.31 0 .57-.06.79-.18s.41-.26.56-.42.27-.34.35-.53.14-.36.19-.51v-2.21c-.69.01-1.26.06-1.7.13s-.79.19-1.04.36-.42.38-.52.64-.14.57-.14.94c0 .56.13.99.4 1.3.28.32.64.48 1.11.48z"/><path d="m420.97 474.26c.95 0 1.75.1 2.38.3s1.11.44 1.43.74c.69-.75 1.48-1.27 2.38-1.56.1.07.21.18.31.32s.19.29.26.45.13.32.18.49c.04.16.07.29.07.4l-.29.53h-2.31c.16.21.31.47.45.8s.21.72.21 1.18c0 .49-.1.94-.31 1.37s-.52.8-.94 1.14c-.42.33-.95.59-1.59.78s-1.39.29-2.24.29c-.25 0-.47 0-.67-.01s-.37-.03-.52-.06c-.06.09-.12.2-.19.32s-.1.25-.1.36c0 .25.18.45.53.6s.8.28 1.35.4c.54.12 1.13.25 1.75.4s1.21.34 1.75.58 1 .56 1.37.95.56.89.57 1.51c.01.59-.13 1.11-.44 1.56-.31.46-.73.84-1.27 1.16s-1.17.56-1.9.73-1.5.25-2.32.25c-.97 0-1.8-.08-2.48-.23s-1.24-.36-1.66-.63c-.43-.26-.74-.57-.94-.9-.2-.34-.3-.69-.3-1.06 0-.41.08-.76.24-1.06.16-.29.39-.55.68-.77s.64-.4 1.02-.55c.39-.15.82-.28 1.29-.4-.22-.06-.43-.13-.64-.22s-.39-.19-.55-.32c-.16-.12-.29-.27-.4-.44-.1-.17-.15-.36-.15-.58 0-.19.06-.38.18-.56s.27-.35.46-.51c.19-.15.4-.29.62-.42.22-.12.44-.23.66-.32-.93-.2-1.66-.61-2.2-1.2s-.82-1.36-.82-2.28c0-1.1.45-1.96 1.37-2.58.93-.64 2.16-.95 3.72-.95zm2.78 12.96c0-.4-.12-.72-.36-.96s-.56-.44-.94-.59-.81-.29-1.29-.4-.95-.24-1.42-.39c-.38.29-.65.59-.82.88-.16.29-.24.65-.24 1.06 0 .68.23 1.2.69 1.58.46.37 1.11.56 1.95.56.82 0 1.43-.17 1.83-.52.4-.34.6-.75.6-1.22zm-4.68-9.34c0 .76.13 1.35.39 1.74.26.4.76.59 1.51.59.72 0 1.22-.2 1.49-.61.27-.4.41-.98.41-1.73 0-.79-.14-1.39-.42-1.77-.28-.39-.77-.58-1.48-.58-.74 0-1.23.19-1.5.57-.26.38-.4.98-.4 1.79z"/><path d="m437.94 482.35c0 .32 0 .6.01.84s.03.48.06.75l1.52.22v.77c-.18.09-.42.18-.72.26-.3.09-.62.17-.95.25s-.66.15-.98.2-.61.09-.86.12h-.75c-.15-.34-.24-.68-.26-1.01-.03-.34-.05-.75-.07-1.23h-.11c-.07.29-.2.58-.38.85s-.4.51-.67.73c-.27.21-.59.39-.96.52s-.78.2-1.23.2c-.48 0-.93-.07-1.34-.22s-.77-.35-1.08-.62c-.31-.26-.55-.58-.73-.96-.18-.37-.26-.8-.26-1.27 0-.66.12-1.2.37-1.63s.64-.77 1.18-1.05c.54-.27 1.23-.47 2.07-.61.85-.13 1.87-.23 3.08-.29.12-1.26.07-2.19-.15-2.78s-.7-.88-1.43-.88c-.46 0-.87.07-1.26.22l-1.04 2.65h-.97c-.12-.18-.23-.38-.34-.61s-.21-.47-.31-.73-.18-.52-.24-.78c-.07-.26-.11-.52-.14-.77.56-.38 1.28-.68 2.16-.9s1.81-.33 2.8-.33c.84 0 1.52.09 2.05.28.53.18.94.43 1.25.75.3.32.51.69.63 1.11.12.43.18.88.18 1.37 0 .88-.02 1.68-.06 2.39-.05.71-.07 1.44-.07 2.19zm-4.96 1.7c.31 0 .57-.06.79-.18s.41-.26.56-.42.27-.34.35-.53.14-.36.19-.51v-2.21c-.69.01-1.26.06-1.7.13s-.79.19-1.04.36-.42.38-.52.64-.14.57-.14.94c0 .56.13.99.4 1.3.28.32.64.48 1.11.48z"/><path d="m446.63 485.55h-6.08v-.84c.22-.12.45-.22.68-.3s.49-.16.77-.23v-8.11l-1.46-.18v-.84c.22-.09.5-.18.83-.26.33-.09.68-.17 1.05-.23.37-.07.73-.12 1.08-.18.35-.05.66-.09.93-.12h.75v9.92c.29.07.56.15.79.23s.45.18.66.3zm-4.96-14.64c0-.51.17-.92.52-1.21s.8-.44 1.35-.44 1 .15 1.35.44.52.7.52 1.21c0 .5-.17.9-.52 1.19s-.8.44-1.35.44-1-.15-1.35-.44-.52-.69-.52-1.19z"/><path d="m461.11 485.55h-5.84v-.84c.19-.1.38-.19.56-.28.18-.08.4-.17.65-.25v-5.19c0-.93-.13-1.65-.4-2.18-.26-.52-.73-.78-1.41-.78-.56 0-1.04.18-1.44.54s-.71.85-.91 1.47v6.14c.23.06.44.13.63.21.18.08.38.19.58.32v.84h-5.84v-.84c.37-.19.85-.37 1.45-.53v-8.11l-1.45-.18v-.84c.19-.09.44-.17.75-.25s.64-.16 1-.23.73-.14 1.1-.19.72-.09 1.02-.12h.75v2.27h.02c.31-.62.77-1.15 1.39-1.6s1.37-.67 2.25-.67c.57 0 1.09.07 1.54.21s.84.39 1.16.74.56.83.73 1.43.25 1.35.25 2.26v5.28c.59.1 1.07.28 1.46.53z"/><path d="m467.72 483.14c0-.38-.14-.71-.41-.99s-.61-.54-1.01-.77-.85-.47-1.32-.71c-.48-.23-.92-.51-1.32-.83s-.74-.69-1.01-1.11c-.27-.43-.41-.95-.41-1.56 0-.44.1-.84.31-1.2s.48-.67.84-.92c.35-.25.77-.44 1.27-.58.49-.14 1.03-.21 1.6-.21.79 0 1.53.06 2.22.19.68.12 1.28.3 1.8.52-.06.47-.18.97-.35 1.51-.18.54-.35 1.03-.51 1.47h-.75l-.93-2.25c-.18-.07-.36-.12-.55-.14s-.4-.03-.64-.03c-.44 0-.77.13-1 .39s-.34.55-.34.87c0 .37.14.69.41.96s.61.53 1.01.76c.4.24.84.47 1.32.71.48.23.92.5 1.32.8s.74.66 1.01 1.07.41.9.41 1.48c0 1.01-.41 1.81-1.23 2.39s-1.93.87-3.31.87c-.7 0-1.43-.07-2.18-.22s-1.4-.35-1.94-.62c.03-.53.15-1.07.37-1.61s.46-1.03.71-1.45h.75l1.08 2.4c.16.12.34.19.54.21s.39.03.56.03c.43 0 .82-.12 1.17-.37.34-.27.51-.62.51-1.06z"/><path d="m471.52 475.07c.56-.36 1.15-.62 1.76-.77v-1.78c.09-.09.24-.17.45-.25s.44-.15.68-.22.48-.13.72-.19c.23-.06.43-.1.57-.13h.75v2.8h2.91v1.43h-2.91v5.68c0 .91.11 1.54.34 1.89s.61.53 1.14.53c.26 0 .56-.02.89-.05.33-.04.64-.11.91-.21l.15.73c-.13.13-.33.27-.58.42-.26.15-.55.29-.88.42s-.69.24-1.08.33-.8.13-1.22.13c-.96 0-1.67-.25-2.14-.75s-.7-1.3-.7-2.41v-6.69h-1.76z"/><path d="m259.85 497.23-1.68-.18v-.84c.22-.09.51-.18.87-.26.36-.09.73-.16 1.12-.23s.77-.12 1.15-.18c.37-.05.69-.09.96-.12h.75v7.63h.04c.29-.73.74-1.31 1.34-1.72s1.32-.62 2.14-.62c1.29 0 2.3.45 3.02 1.35s1.08 2.26 1.08 4.08c0 2.01-.53 3.53-1.6 4.54s-2.63 1.52-4.68 1.52c-.37 0-.78-.03-1.23-.08-.46-.05-.9-.12-1.32-.19-.43-.07-.82-.16-1.18-.26s-.62-.21-.78-.31zm5.27 5.25c-.56 0-1.01.2-1.35.61-.34.4-.59.92-.75 1.53v5.84c.21.15.46.26.76.35s.64.13 1.02.13c.84 0 1.45-.38 1.84-1.13s.58-1.92.58-3.53c0-1.16-.16-2.09-.47-2.78-.3-.68-.85-1.02-1.63-1.02z"/><path d="m281.7 508.8c0 .32 0 .6.01.84.01.23.03.48.06.75l1.52.22v.77c-.18.09-.42.18-.72.26-.3.09-.62.17-.95.25s-.66.15-.98.2-.61.09-.86.12h-.75c-.15-.34-.23-.68-.26-1.01-.03-.34-.05-.75-.07-1.23h-.11c-.07.29-.2.58-.37.85-.18.27-.4.51-.67.73-.27.21-.59.39-.96.52s-.78.2-1.23.2c-.48 0-.93-.07-1.34-.22s-.77-.35-1.08-.62c-.31-.26-.55-.58-.73-.96-.18-.37-.26-.8-.26-1.27 0-.66.12-1.2.37-1.63s.64-.77 1.18-1.05c.54-.27 1.23-.47 2.07-.61.85-.13 1.87-.23 3.08-.29.12-1.26.07-2.19-.15-2.78s-.7-.88-1.43-.88c-.46 0-.87.07-1.26.22l-1.04 2.65h-.97c-.12-.18-.23-.38-.34-.61s-.21-.47-.31-.73-.18-.52-.24-.78c-.07-.26-.11-.52-.14-.77.56-.38 1.28-.68 2.16-.9s1.81-.33 2.8-.33c.84 0 1.52.09 2.05.28.53.18.94.43 1.25.75.3.32.51.69.63 1.11.12.43.18.88.18 1.37 0 .88-.02 1.68-.05 2.39-.07.71-.09 1.44-.09 2.19zm-4.96 1.7c.31 0 .57-.06.79-.18s.41-.26.56-.42.27-.34.35-.53.14-.36.19-.51v-2.21c-.69.01-1.26.06-1.7.13s-.79.19-1.04.36-.42.38-.52.64-.14.57-.14.94c0 .56.13.99.4 1.3.27.33.64.48 1.11.48z"/><path d="m291.82 509.82c-.07.32-.21.63-.4.93-.19.29-.42.55-.68.78s-.57.41-.9.54c-.34.13-.7.2-1.08.2-1.45 0-2.56-.46-3.32-1.38s-1.14-2.33-1.14-4.22c0-.97.13-1.82.4-2.55.26-.73.64-1.34 1.11-1.84.48-.5 1.05-.87 1.73-1.13.68-.25 1.43-.37 2.25-.37.26 0 .49.01.67.02s.35.03.51.05c.15.02.3.06.44.11s.3.11.47.17v-3.9l-1.68-.18v-.84c.21-.09.49-.17.85-.24s.74-.14 1.13-.21c.4-.07.79-.13 1.17-.19s.7-.11.95-.15h.75v15.01l1.45.18v.77c-.21.1-.47.2-.79.29s-.66.17-1.01.24-.69.14-1.02.19-.61.09-.83.12h-.75l-.2-2.4zm-2.01.68c.51 0 .95-.16 1.3-.48s.61-.87.77-1.65v-5.93c-.19-.12-.43-.21-.72-.29-.29-.07-.64-.11-1.07-.11-.85 0-1.46.39-1.83 1.16s-.55 1.89-.55 3.36c0 1.19.16 2.15.49 2.87.32.71.86 1.07 1.61 1.07z"/><path d="m316.62 512h-5.84v-.84c.18-.1.36-.2.55-.29s.41-.17.66-.24v-4.46c0-1.27-.12-2.2-.36-2.8s-.72-.89-1.42-.89c-.59 0-1.09.2-1.5.61s-.7.87-.88 1.4v6.14c.23.06.44.13.63.2.18.07.38.18.58.33v.84h-5.84v-.84c.46-.24.94-.41 1.46-.53v-13.4l-1.68-.18v-.84c.22-.09.5-.18.85-.26.34-.09.71-.16 1.09-.23s.76-.12 1.15-.18c.38-.05.72-.09 1.01-.12h.75v7.78h.02c.15-.34.35-.66.6-.96s.53-.57.85-.79c.32-.23.66-.41 1.02-.54.37-.13.76-.2 1.17-.2.59 0 1.11.07 1.58.21.46.14.85.39 1.16.74s.54.83.71 1.43c.16.6.24 1.35.24 2.26v5.28c.25.06.5.12.75.2.25.07.48.18.71.33v.84z"/><path d="m327.59 510.15c-.12.25-.31.5-.56.76-.26.26-.57.48-.95.68s-.81.36-1.3.48c-.49.13-1.02.19-1.6.19-.91 0-1.72-.14-2.43-.41s-1.29-.66-1.76-1.17-.83-1.11-1.07-1.82-.36-1.5-.36-2.38c0-1.88.49-3.31 1.48-4.3.98-.98 2.35-1.48 4.1-1.48.75 0 1.45.1 2.11.31.65.21 1.2.54 1.63 1.01s.73 1.09.9 1.85.16 1.7-.03 2.8h-6.77c.01 1.16.31 2.09.89 2.78s1.44 1.04 2.57 1.04c.48 0 .99-.07 1.51-.22s.93-.34 1.22-.57zm-4.55-8.18c-.29 0-.55.05-.78.15s-.42.29-.59.56-.3.64-.41 1.1c-.1.46-.18 1.05-.22 1.75h3.53c.1-1.15.04-2.03-.2-2.65-.23-.6-.67-.91-1.33-.91z"/><path d="m339.08 508.8c0 .32 0 .6.01.84.01.23.03.48.06.75l1.52.22v.77c-.18.09-.42.18-.72.26-.3.09-.62.17-.95.25s-.66.15-.98.2-.61.09-.86.12h-.75c-.15-.34-.24-.68-.26-1.01-.03-.34-.05-.75-.07-1.23h-.11c-.07.29-.2.58-.38.85s-.4.51-.67.73c-.27.21-.59.39-.96.52s-.78.2-1.23.2c-.48 0-.93-.07-1.34-.22s-.77-.35-1.08-.62c-.31-.26-.55-.58-.73-.96-.18-.37-.26-.8-.26-1.27 0-.66.12-1.2.37-1.63s.64-.77 1.18-1.05c.54-.27 1.23-.47 2.07-.61.85-.13 1.87-.23 3.08-.29.12-1.26.07-2.19-.15-2.78s-.7-.88-1.43-.88c-.46 0-.87.07-1.26.22l-1.04 2.65h-.97c-.12-.18-.23-.38-.34-.61s-.21-.47-.31-.73-.18-.52-.24-.78c-.07-.26-.11-.52-.14-.77.56-.38 1.28-.68 2.16-.9s1.81-.33 2.8-.33c.84 0 1.52.09 2.05.28.53.18.94.43 1.25.75.3.32.51.69.63 1.11.12.43.18.88.18 1.37 0 .88-.02 1.68-.06 2.39-.05.71-.07 1.44-.07 2.19zm-4.96 1.7c.31 0 .57-.06.79-.18s.41-.26.56-.42.27-.34.35-.53.14-.36.19-.51v-2.21c-.69.01-1.26.06-1.7.13s-.79.19-1.04.36-.42.38-.52.64-.14.57-.14.94c0 .56.13.99.4 1.3.27.33.64.48 1.11.48z"/><path d="m349.2 509.82c-.07.32-.21.63-.4.93-.19.29-.42.55-.68.78s-.57.41-.9.54c-.34.13-.7.2-1.08.2-1.46 0-2.56-.46-3.32-1.38s-1.14-2.33-1.14-4.22c0-.97.13-1.82.4-2.55.26-.73.64-1.34 1.11-1.84s1.05-.87 1.73-1.13c.68-.25 1.43-.37 2.25-.37.26 0 .49.01.67.02s.35.03.51.05c.15.02.3.06.44.11s.3.11.47.17v-3.9l-1.68-.18v-.84c.21-.09.49-.17.85-.24s.74-.14 1.14-.21.79-.13 1.17-.19.7-.11.95-.15h.75v15.01l1.46.18v.77c-.21.1-.47.2-.79.29s-.66.17-1.01.24-.69.14-1.03.19c-.33.05-.61.09-.83.12h-.75l-.2-2.4zm-2.01.68c.51 0 .95-.16 1.3-.48s.61-.87.77-1.65v-5.93c-.19-.12-.43-.21-.72-.29-.29-.07-.64-.11-1.07-.11-.85 0-1.46.39-1.83 1.16s-.55 1.89-.55 3.36c0 1.19.16 2.15.48 2.87.33.71.87 1.07 1.62 1.07z"/><path d="m360.97 512h-6.08v-.84c.48-.24.97-.41 1.46-.53v-13.4l-1.68-.18v-.84c.19-.09.45-.18.79-.26s.7-.16 1.09-.23.78-.12 1.17-.18c.39-.05.74-.09 1.05-.12h.75v15.21c.48.12.97.29 1.45.53z"/><path d="m368.29 512h-6.08v-.84c.22-.12.45-.22.68-.3s.49-.16.77-.23v-8.11l-1.46-.18v-.84c.22-.09.5-.18.83-.26.33-.09.68-.17 1.05-.23.37-.07.73-.12 1.08-.18.35-.05.66-.09.93-.12h.75v9.92c.29.07.56.15.79.23s.45.18.66.3zm-4.96-14.64c0-.51.17-.92.52-1.21s.8-.44 1.35-.44 1 .15 1.35.44.52.7.52 1.21c0 .5-.17.9-.52 1.19s-.8.44-1.35.44-1-.15-1.35-.44-.52-.69-.52-1.19z"/><path d="m382.77 512h-5.84v-.84c.19-.1.38-.19.56-.28.18-.08.4-.17.65-.25v-5.19c0-.93-.13-1.65-.4-2.18-.26-.52-.73-.78-1.41-.78-.56 0-1.04.18-1.44.54s-.71.85-.91 1.47v6.14c.23.06.44.13.63.21.18.08.38.19.58.32v.84h-5.84v-.84c.37-.19.85-.37 1.45-.53v-8.11l-1.45-.18v-.84c.19-.09.44-.17.75-.25s.64-.16 1-.23.73-.14 1.1-.19.72-.09 1.02-.12h.75v2.27h.02c.31-.62.77-1.15 1.39-1.6s1.37-.67 2.25-.67c.57 0 1.09.07 1.54.21s.84.39 1.16.74.56.83.73 1.43.25 1.35.25 2.26v5.28c.59.1 1.07.28 1.46.53z"/><path d="m393.75 510.15c-.12.25-.31.5-.56.76-.26.26-.57.48-.95.68s-.81.36-1.3.48c-.49.13-1.02.19-1.6.19-.91 0-1.72-.14-2.43-.41s-1.29-.66-1.76-1.17-.83-1.11-1.07-1.82-.36-1.5-.36-2.38c0-1.88.49-3.31 1.48-4.3.98-.98 2.35-1.48 4.1-1.48.75 0 1.45.1 2.11.31.65.21 1.2.54 1.63 1.01s.73 1.09.9 1.85.16 1.7-.03 2.8h-6.77c.01 1.16.31 2.09.89 2.78s1.44 1.04 2.57 1.04c.48 0 .99-.07 1.51-.22s.93-.34 1.22-.57zm-4.56-8.18c-.29 0-.55.05-.78.15s-.42.29-.59.56-.3.64-.41 1.1c-.1.46-.18 1.05-.22 1.75h3.53c.1-1.15.04-2.03-.2-2.65-.23-.6-.67-.91-1.33-.91z"/><path d="m401.22 509.6c0-.38-.14-.71-.41-.99s-.61-.54-1.01-.77-.85-.47-1.32-.71c-.48-.23-.92-.51-1.32-.83s-.74-.69-1.01-1.11c-.27-.43-.41-.95-.41-1.56 0-.44.1-.84.31-1.2s.48-.67.84-.92.77-.44 1.27-.58c.49-.14 1.03-.21 1.6-.21.79 0 1.53.06 2.22.19.68.12 1.28.3 1.8.52-.06.47-.18.97-.35 1.51-.18.54-.35 1.03-.51 1.47h-.75l-.93-2.25c-.18-.07-.36-.12-.55-.14s-.4-.03-.64-.03c-.44 0-.77.13-1 .39s-.34.55-.34.87c0 .37.14.69.41.96s.61.53 1.01.76c.4.24.84.47 1.32.71.48.23.92.5 1.32.8s.74.66 1.01 1.07.41.9.41 1.48c0 1.01-.41 1.81-1.23 2.39s-1.93.87-3.31.87c-.7 0-1.43-.07-2.18-.22s-1.4-.35-1.94-.62c.03-.53.15-1.07.37-1.61s.46-1.03.71-1.45h.75l1.08 2.4c.16.12.34.19.54.21s.39.03.56.03c.43 0 .82-.12 1.17-.37s.51-.62.51-1.06z"/><path d="m406.22 510.44c0-.53.17-.96.51-1.28s.79-.48 1.35-.48 1.01.16 1.37.48c.35.32.53.75.53 1.28s-.18.95-.53 1.27-.81.47-1.37.47-1.01-.16-1.35-.47c-.34-.32-.51-.75-.51-1.27z"/></g><path d="m337.39 381.6v-12.92h7.92c.91 0 1.65.74 1.65 1.65v2.82c-.01.98-.71 1.82-1.68 2.01.99.14 1.76.94 1.85 1.94v2.85c0 .91-.74 1.65-1.65 1.65zm6.46-10.1c.01-.11-.07-.2-.18-.21-.01 0-.01 0-.02 0h-2.97v2.6h2.97c.1.01.19-.06.2-.16 0-.02 0-.04 0-.05zm0 5.03c.01-.11-.07-.2-.18-.21-.01 0-.01 0-.02 0h-2.97v2.83h2.97c.1.01.19-.06.2-.16 0-.01 0-.02 0-.03z" fill="#ff4500"/><path d="m360.44 381.6h-3.29v-3.29h-2.97v3.29h-3.29v-11.42c-.04-.79.57-1.46 1.36-1.5h.13 6.59c.79-.04 1.46.57 1.5 1.36v.13zm-3.3-5.98v-3.9c0-.23-.2-.38-.46-.38h-2.06c-.21-.04-.4.1-.44.31 0 .02-.01.05-.01.07v3.84z" fill="#ff4500"/><path d="m367.65 381.6h-3.29v-12.92h3.29z" fill="#ff4500"/><path d="m380.19 368.68v2.77h-2.95v10.15h-3.29v-10.15h-2.9v-2.77z" fill="#ff4500"/><path d="m392.97 376.66v3.29c-.01.82-.68 1.48-1.5 1.47h-6.46c-.8.01-1.46-.63-1.47-1.43 0-.01 0-.02 0-.03v-9.88c.01-.8.66-1.45 1.47-1.45h6.46c.81 0 1.47.64 1.5 1.45v3.29h-3.29v-1.65c0-.1-.07-.19-.16-.21h-2.39c-.12 0-.21.1-.21.21v6.92c0 .11.09.2.2.2h.02 2.42c.1-.01.17-.1.16-.2v-1.98z" fill="#ff4500"/><path d="m396.73 368.67h3.29v10.08h4.1v2.85h-7.4v-12.93z" fill="#ff4500"/><path d="m410.99 381.6h-3.29v-12.93h3.29z" fill="#ff4500"/><path d="m424.31 376.74v3.29c-.01.82-.68 1.48-1.5 1.47h-6.47c-.8.01-1.46-.63-1.47-1.43 0-.01 0-.02 0-.03v-9.97c.01-.8.66-1.45 1.47-1.45h6.46c.81 0 1.47.64 1.5 1.45v3.29h-3.29v-1.65c0-.1-.07-.19-.16-.21h-2.41c-.12 0-.21.1-.21.21v6.92c0 .11.09.2.2.2h.02 2.42c.1-.01.17-.1.16-.2v-1.89z" fill="#ff4500"/><path d="m434.9 381.6-2.49-4.94-1.05 1.65v3.29h-3.29v-12.92h3.29v5.34l3.29-5.35h3.69l-3.66 5.58 3.85 7.35z" fill="#ff4500"/><path d="m440.3 384.83h-.06-102.84v3.29h104.65z" fill="#ff4500"/><path d="m318.34 387.84c1.84 3.14 5.87 4.2 9.02 2.36 2.85-1.67 4.03-5.19 2.75-8.24l-2.93-5.88v7.35l1.28-1.1.18.36c1.1 2.5-.04 5.41-2.54 6.51-2.33 1.02-5.05.12-6.29-2.1l-3.67-7.35c-.2-.4-.04-.9.36-1.1l-2.93-5.88 3.29-.74-8.81-6.61v11.04l2.57-2.22 2.95 5.88c.4-.2.9-.04 1.1.36z" fill="#ff4500"/></svg>