<?xml version="1.0" encoding="utf-8"?>
<!-- Generator: Adobe Illustrator 23.0.3, SVG Export Plug-In . SVG Version: 6.00 Build 0)  -->
<svg version="1.1" id="Layer_1" xmlns="http://www.w3.org/2000/svg" xmlns:xlink="http://www.w3.org/1999/xlink" x="0px" y="0px"
	 viewBox="0 0 2466.14 1162.2" style="enable-background:new 0 0 2466.14 1162.2;" xml:space="preserve">
	<path vector-effect="non-scaling-stroke" class="device-path" d="M242.44,340.64v14.09h270.92v-14.09H242.44z M248.8,350.02
		c-1.17,0-2.12-0.95-2.12-2.12s0.95-2.12,2.12-2.12s2.12,0.95,2.12,2.12S249.97,350.02,248.8,350.02z M254.05,350.02
		c-1.17,0-2.12-0.95-2.12-2.12s0.95-2.12,2.12-2.12s2.12,0.95,2.12,2.12S255.22,350.02,254.05,350.02z M259.3,350.02
		c-1.17,0-2.12-0.95-2.12-2.12s0.95-2.12,2.12-2.12s2.12,0.95,2.12,2.12S260.47,350.02,259.3,350.02z M264.55,350.02
		c-1.17,0-2.12-0.95-2.12-2.12s0.95-2.12,2.12-2.12s2.12,0.95,2.12,2.12S265.72,350.02,264.55,350.02z M269.55,350.02
		c-1.17,0-2.12-0.95-2.12-2.12s0.95-2.12,2.12-2.12s2.12,0.95,2.12,2.12S270.72,350.02,269.55,350.02z M300.72,350.61h-25.17v-5.54
		h25.17V350.61z M398.05,350.61h-39v-5.54h39V350.61z M509.38,350.61h-39v-5.54h39V350.61z"/>
	<path vector-effect="non-scaling-stroke" class="device-path" d="M778.87,125.84h1458.59 M799.91,114.23c-4.28,0-7.74-3.58-7.74-7.99
		c0-4.41,3.47-7.99,7.74-7.99c4.28-0.01,7.74,3.58,7.74,7.99C807.65,110.65,804.18,114.23,799.91,114.23z M826.14,114.23
		c-4.28,0-7.75-3.58-7.75-7.99c0-4.41,3.47-7.99,7.75-7.99c4.28-0.01,7.74,3.58,7.74,7.99S830.4,114.23,826.14,114.23z
		M852.48,114.23c-4.28,0-7.74-3.58-7.74-7.99c0-4.41,3.47-7.99,7.74-7.99c4.28-0.01,7.75,3.58,7.75,7.99
		C860.24,110.65,856.76,114.23,852.48,114.23z"/>
	<path vector-effect="non-scaling-stroke" class="device-path" d="M1570.07,125.84c-8.46,0-8.04-26.12-18.19-26.11l-96.79-0.01
		c-4.35,0-6.36,6.92-8.66,13.63c-2.28-6.71-4.7-13.62-9.92-13.62l-96.79-0.01c-4.04,0-6.05,5.95-8.16,12.16
		c-2.14-6.22-4.58-12.16-9.42-12.15l-96.79-0.01c-4.05,0-6.06,5.97-8.17,12.21c-2.15-6.23-4.58-12.2-9.44-12.2l-96.79-0.01
		c-4.06,0-6.07,6-8.19,12.25c-2.15-6.25-4.59-12.25-9.45-12.24l-96.79-0.01c-4.14,0-6.37,6.84-8.54,13.23 M1548.3,109.19
		c2.78,0,5.03,2.25,5.03,5.03s-2.25,5.03-5.03,5.03s-5.03-2.25-5.03-5.03S1545.52,109.19,1548.3,109.19z M1084.7,114.22
		c0-2.78,2.25-5.03,5.03-5.03s5.03,2.25,5.03,5.03s-2.25,5.03-5.03,5.03S1084.7,117,1084.7,114.22z M1199.13,114.22
		c0-2.78,2.25-5.03,5.03-5.03s5.03,2.25,5.03,5.03s-2.25,5.03-5.03,5.03S1199.13,117,1199.13,114.22z M1313.53,114.22
		c0-2.78,2.25-5.03,5.03-5.03s5.03,2.25,5.03,5.03s-2.25,5.03-5.03,5.03S1313.53,117,1313.53,114.22z M1432.93,119.25
		c-2.78,0-5.03-2.25-5.03-5.03s2.25-5.03,5.03-5.03s5.03,2.25,5.03,5.03C1437.96,117,1435.71,119.25,1432.93,119.25z"/>
	<path vector-effect="non-scaling-stroke" class="device-path" d="M996.44,125.84c-8.46,0-8.04-26.12-18.19-26.11l-96.79-0.01
		c-8.46,0-8.04,26.11-18.19,26.11 M973.98,119.08c-2.78,0-5.03-2.25-5.03-5.03s2.25-5.03,5.03-5.03s5.03,2.25,5.03,5.03
		S976.76,119.08,973.98,119.08z"/>
	<path vector-effect="non-scaling-stroke" class="device-path" d="M778.87,161.44h1458.59 M807.98,148.87c0.64,0.72,0.59,1.53,0,2.11
		c-0.6,0.58-1.6,0.54-2.16,0s-6.02-6.28-6.02-6.28c-0.3-0.29-0.45-0.67-0.45-1.05c0-0.39,0.15-0.77,0.45-1.06
		c0,0,5.46-5.74,6.02-6.28c0.56-0.55,1.56-0.59,2.16-0.01s0.64,1.4,0,2.11l-5.01,5.23L807.98,148.87z M836.02,144.7
		c0,0-5.46,5.73-6.02,6.28c-0.56,0.54-1.57,0.58-2.16,0.01c-0.59-0.58-0.64-1.4,0-2.11l5.01-5.23l-5.01-5.23
		c-0.64-0.72-0.59-1.53,0-2.11s1.6-0.55,2.16,0c0.56,0.54,6.02,6.28,6.02,6.28c0.3,0.3,0.45,0.68,0.45,1.06
		S836.32,144.41,836.02,144.7z M866.31,147.86l-4.37-4.88h3.12l-0.04-0.24c-0.43-2.38-2.5-4.11-4.92-4.11
		c-2.77,0-5.01,2.25-5.01,5.02s2.25,5.02,5.01,5.02c1.07,0,2.1-0.33,2.96-0.97l0.35-0.26l1.91,2.04l-0.41,0.32
		c-1.38,1.09-3.04,1.66-4.8,1.66c-4.3,0-7.8-3.51-7.8-7.82s3.5-7.82,7.8-7.82c4,0,7.33,2.99,7.75,6.97l0.02,0.19h2.82L866.31,147.86z
		M2194.43,154.94c0.01,0.94-0.85,1.7-1.9,1.7H879.52c-1.05,0-1.9-0.77-1.9-1.7v-22.59c0-0.94,0.86-1.7,1.9-1.7h1313.02
		c1.04,0,1.9,0.77,1.9,1.7v22.59H2194.43z M2213.78,154.57h-0.44c-1.03,0-1.86-0.97-1.86-2.18c0-1.21,0.83-2.18,1.86-2.18h0.44
		c1.03,0,1.86,0.99,1.86,2.18C2215.64,153.59,2214.8,154.57,2213.78,154.57z M2213.78,145.83h-0.44c-1.03,0-1.86-0.97-1.86-2.18
		c0-1.21,0.83-2.18,1.86-2.18h0.44c1.03,0,1.86,0.97,1.86,2.18C2215.64,144.85,2214.8,145.83,2213.78,145.83z M2213.78,137.08h-0.44
		c-1.03,0-1.86-0.97-1.86-2.18c0-1.22,0.83-2.2,1.86-2.2h0.44c1.03,0,1.86,0.99,1.86,2.2S2214.8,137.08,2213.78,137.08z"/>
	<g id="Device">
		<path vector-effect="non-scaling-stroke" class="device-path" d="M231.06,487.71h-0.31c-0.94,0-1.04-0.35-1.04-1.01v-40.36
			c0-0.66,0.12-1.34,1.04-1.34h0.31"/>
		<path vector-effect="non-scaling-stroke" class="device-path" d="M231.06,372.1h-0.31c-0.94,0-1.04-0.27-1.04-0.75v-29.5
			c0-0.48,0.12-1.32,1.04-1.32h0.31"/>
		<path vector-effect="non-scaling-stroke" class="device-path" d="M231.06,430.38h-0.31c-0.94,0-1.04-0.75-1.04-1.41v-40.36
			c0-0.66,0.12-1.65,1.04-1.65h0.31"/>
		<path vector-effect="non-scaling-stroke" class="device-path" d="M242.44,340.64h270.92v482.88H242.44V340.64z"/>
		<path vector-effect="non-scaling-stroke" class="device-path" d="M2310.93,67.69c0-35.79-29.01-64.79-64.79-64.79L770.21,5.07
			c-35.79,0-64.8,29.01-64.8,64.79v0.28v1011.94h35.52h1534.49h35.52V70.14h-0.03L2310.93,67.69z"/>
		<path vector-effect="non-scaling-stroke" class="device-path" d="M2408.5,1082.08h-0.62h-96.95c-0.03,0-0.06,0-0.09,0h-375.52h-356.47
			h-155.2H608.47h-0.62c-31.53-0.03-47.55,4.2-47.55,4.2v31.03l2.07,0.09l52.36,2.46h100.32h1081.16h505.07h2.68h48.58h5.85h43.23
			l52.36-2.46l2.07-0.09v-31.03C2456.05,1086.28,2440.03,1082.06,2408.5,1082.08L2408.5,1082.08z"/>
		<path vector-effect="non-scaling-stroke" class="device-path" d="M2412.08,1119.44l-18.27,0.42h-92.53h-877.64H715.05h-92.53l-18.27-0.42
			l-42.2-1.7c0,0,8.06,10.47,52.66,12.42h100.34h1081.16h91.71h413.36h100.34c44.6-1.95,52.66-12.42,52.66-12.42L2412.08,1119.44z"/>
		<path vector-effect="non-scaling-stroke" class="device-path" d="M778.87,87.15h1458.59v910.92H778.87V87.15z"/>
		<path vector-effect="non-scaling-stroke" class="device-path" d="M1360.99,1082.07c-0.02,0.43-0.04,0.86-0.04,1.29v4.76
			c0,13.01,10.54,23.55,23.55,23.55h247.34c13.01,0,23.55-10.54,23.55-23.55v-4.76c0-0.43-0.01-0.86-0.03-1.29H1360.99z"/>
		<path vector-effect="non-scaling-stroke" class="device-path" d="M527.53,428.91c0,0.67-0.82,1.58-1.7,1.58h-0.29
			c-0.88,0-1.03-0.91-1.03-1.58v-40.46c0-0.66,0.14-1.38,1.03-1.38h0.29c0.88,0,1.7,0.72,1.7,1.38V428.91z"/>
		<path vector-effect="non-scaling-stroke" class="device-path" d="M478.76,269.1l-204.69,0.39c-26.02,0-42.48,20.88-42.48,40.45l0.38,545.83
			c0,11.91-0.38,40.99,45.49,40.99h201.19c40.65,0,44.82-20.61,44.82-40.02l1.08-547.37C524.55,289.58,514.68,269.1,478.76,269.1z
			M350.91,310.36c-2.09,0-3.79-1.7-3.79-3.79s1.7-3.79,3.79-3.79s3.79,1.7,3.79,3.79S353,310.36,350.91,310.36z M378.41,879.32
			c-10.75,0-19.47-8.72-19.47-19.47s8.72-19.47,19.47-19.47c10.76,0,19.47,8.72,19.47,19.47S389.17,879.32,378.41,879.32z
			M407.59,308.72h-35.31c-0.79,0-1.43-0.89-1.43-2.04c0-1.14,0.64-2.03,1.43-2.03h35.31c0.79,0,1.43,0.88,1.43,2.03
			C409.02,307.82,408.38,308.71,407.59,308.72z"/>
	</g>
</svg>
