<svg xmlns="http://www.w3.org/2000/svg" viewBox="0 0 2662.045 1497.401"><style>.a{fill:#FFF;}.b{fill:#EF4923;}.c{fill:#CECECE;}.d{fill:#5F99CF;opacity:0.5;}.e{fill:#FF4500;}.f{fill:#333;}.g{fill:#C6C6C6;}.h{fill:#D8D8D8;}.i{fill:#B7B7B7;}.j{fill:#828282;}.k{fill:none;stroke:#E0E0E0;}.l{fill:#222;}.m{fill:#FFF;opacity:0.6;}.n{fill:#BABABA;}.o{fill:#8E8E8E;}.p{fill:#C8C8C8;}.q{fill:#E6E6E6;}.r{fill:none;stroke-width:2.6648;stroke:#FFF;}</style><rect x="878.081" y="329.043" width="1457.328" height="836.627" class="a"/><path d="M962.928 369.934c2.315 4.632 7.947 6.509 12.578 4.193 4.631-2.316 6.509-7.947 4.193-12.578l-4.193-8.385v10.482l1.834-1.573 0.262 0.524c1.737 3.474 0.328 7.697-3.145 9.434 -3.474 1.736-7.697 0.329-9.434-3.145l-5.241-10.482c-0.289-0.579-0.055-1.283 0.524-1.572l-4.193-8.386 4.717-1.049 -12.578-9.433v15.722l3.668-3.145 4.192 8.385c0.58-0.289 1.283-0.054 1.573 0.525L962.928 369.934z" class="b"/><path d="M989.705 368.051v-19.724h6.097c0.983 0 1.867 0.108 2.648 0.325 0.78 0.217 1.442 0.548 1.984 0.996 0.542 0.447 0.955 1.009 1.239 1.687 0.285 0.677 0.427 1.477 0.427 2.398 0 0.452-0.047 0.885-0.142 1.301 -0.096 0.415-0.244 0.804-0.447 1.165 -0.203 0.361-0.461 0.688-0.773 0.982 -0.312 0.293-0.685 0.534-1.117 0.725 0.505 0.143 0.935 0.362 1.286 0.655 0.352 0.294 0.637 0.635 0.854 1.023s0.375 0.81 0.475 1.267c0.1 0.456 0.148 0.924 0.148 1.402 0 1.914-0.525 3.359-1.578 4.335 -1.052 0.976-2.576 1.463-4.572 1.463H989.705zM993.688 356.577h2.072c0.795 0 1.384-0.205 1.768-0.616 0.384-0.411 0.576-1.014 0.576-1.809 0-0.894-0.181-1.535-0.542-1.924 -0.361-0.388-0.948-0.582-1.761-0.582h-2.113V356.577zM993.688 359.476v5.27h2.546c0.389 0 0.721-0.063 0.996-0.189 0.275-0.126 0.501-0.305 0.678-0.535 0.176-0.23 0.305-0.499 0.386-0.806 0.081-0.308 0.122-0.646 0.122-1.017 0-0.84-0.156-1.504-0.468-1.991 -0.311-0.487-0.838-0.731-1.578-0.731H993.688z" class="b"/><path d="M1015.072 364.014h-5.432l-1.058 4.037h-4.213l6.164-19.724h3.645l6.204 19.724h-4.254L1015.072 364.014zM1010.507 360.694h3.686l-1.843-7.03L1010.507 360.694z" class="b"/><path d="M1027.772 368.051h-3.983v-19.724h3.983V368.051z" class="b"/><path d="M1044.888 351.645h-4.877v16.405h-3.997v-16.405h-4.796v-3.319h13.67V351.645z" class="b"/><path d="M1061.613 361.48c-0.1 2.249-0.73 3.951-1.896 5.107 -1.164 1.156-2.809 1.733-4.931 1.733 -1.093 0-2.068-0.181-2.927-0.541 -0.858-0.361-1.58-0.899-2.167-1.612 -0.587-0.714-1.036-1.597-1.349-2.648 -0.311-1.053-0.467-2.265-0.467-3.638v-3.359c0-1.373 0.16-2.588 0.481-3.645 0.32-1.057 0.783-1.941 1.389-2.655 0.605-0.713 1.337-1.253 2.195-1.619 0.857-0.366 1.824-0.549 2.898-0.549 2.15 0 3.782 0.601 4.897 1.802 1.115 1.201 1.75 2.926 1.903 5.175h-3.996c-0.018-0.705-0.079-1.294-0.184-1.768 -0.104-0.474-0.264-0.851-0.48-1.131 -0.217-0.28-0.499-0.478-0.847-0.596 -0.348-0.117-0.778-0.176-1.294-0.176 -0.533 0-0.986 0.09-1.361 0.271 -0.375 0.181-0.68 0.472-0.914 0.874 -0.235 0.402-0.408 0.93-0.521 1.585 -0.113 0.655-0.17 1.457-0.17 2.405v3.386c0 0.921 0.045 1.707 0.136 2.358 0.091 0.65 0.249 1.181 0.474 1.592 0.227 0.411 0.524 0.711 0.894 0.9 0.37 0.19 0.84 0.285 1.409 0.285 0.487 0 0.905-0.052 1.253-0.156 0.348-0.104 0.635-0.286 0.86-0.549 0.226-0.262 0.397-0.623 0.515-1.084 0.117-0.46 0.189-1.043 0.217-1.747H1061.613z" class="b"/><path d="M1069.435 364.745h6.99v3.306h-10.973v-19.724h3.982V364.745z" class="b"/><path d="M1084.275 368.051h-3.982v-19.724h3.982V368.051z" class="b"/><path d="M1102.379 361.48c-0.1 2.249-0.73 3.951-1.896 5.107 -1.164 1.156-2.809 1.733-4.932 1.733 -1.092 0-2.068-0.181-2.926-0.541 -0.857-0.361-1.58-0.899-2.168-1.612 -0.586-0.714-1.035-1.597-1.348-2.648 -0.311-1.053-0.467-2.265-0.467-3.638v-3.359c0-1.373 0.16-2.588 0.48-3.645 0.32-1.057 0.783-1.941 1.389-2.655 0.605-0.713 1.336-1.253 2.195-1.619 0.857-0.366 1.824-0.549 2.898-0.549 2.15 0 3.781 0.601 4.898 1.802 1.115 1.201 1.748 2.926 1.902 5.175h-3.996c-0.017-0.705-0.08-1.294-0.183-1.768 -0.104-0.474-0.264-0.851-0.48-1.131 -0.217-0.28-0.498-0.478-0.846-0.596 -0.348-0.117-0.779-0.176-1.295-0.176 -0.533 0-0.986 0.09-1.361 0.271 -0.375 0.181-0.68 0.472-0.914 0.874 -0.234 0.402-0.408 0.93-0.521 1.585 -0.113 0.655-0.17 1.457-0.17 2.405v3.386c0 0.921 0.045 1.707 0.137 2.358 0.09 0.65 0.248 1.181 0.473 1.592 0.227 0.411 0.523 0.711 0.895 0.9 0.371 0.19 0.84 0.285 1.408 0.285 0.488 0 0.906-0.052 1.254-0.156 0.348-0.104 0.635-0.286 0.859-0.549 0.227-0.262 0.398-0.623 0.516-1.084 0.117-0.46 0.189-1.043 0.217-1.747H1102.379z" class="b"/><path d="M1111.773 360.437l-1.571 1.978v5.636h-3.983v-19.724h3.983v8.603l1.26-2.127 3.671-6.476h4.877l-5.65 8.67 5.744 11.054h-4.728L1111.773 360.437z" class="b"/><rect x="1142.193" y="348.327" width="367" height="19.724" fill="#E0E0E0"/><rect x="2203" y="350.327" width="56.225" height="14" class="c"/><rect x="2033.224" y="350.327" width="84.276" height="14" class="c"/><rect x="2121.976" y="350.327" width="77" height="14" class="d"/><rect x="878.081" y="639.042" width="1455.837" height="3" class="e"/><rect x="878.081" y="386" width="1455.837" height="3" class="e"/><path d="M942.111 444.448c0.358 0.36 0.865 0.694 1.519 1.004 0.653 0.311 1.52 0.465 2.597 0.465 1.797 0 3.291-0.465 4.484-1.396 1.191-0.931 1.788-2.229 1.788-3.896 0-1.208-0.385-2.221-1.151-3.038 -0.769-0.816-1.739-1.568-2.916-2.254 -1.176-0.686-2.434-1.363-3.772-2.033 -1.34-0.669-2.598-1.462-3.773-2.376s-2.148-2.001-2.915-3.259c-0.769-1.257-1.151-2.817-1.151-4.679 0-1.601 0.294-2.989 0.882-4.165 0.588-1.176 1.396-2.148 2.426-2.916 1.028-0.767 2.245-1.339 3.65-1.715 1.403-0.375 2.923-0.563 4.557-0.563 1.992 0 3.847 0.14 5.562 0.417 1.715 0.278 3.259 0.71 4.631 1.299 -0.033 0.654-0.091 1.405-0.172 2.254 -0.082 0.85-0.188 1.69-0.318 2.523 -0.131 0.833-0.27 1.617-0.417 2.352 -0.146 0.735-0.286 1.348-0.416 1.837h-2.009l-2.265-6.713c-0.394-0.196-0.976-0.375-1.747-0.539 -0.771-0.163-1.566-0.245-2.386-0.245 -1.379 0-2.544 0.36-3.495 1.078 -0.951 0.719-1.427 1.764-1.427 3.136 0 1.242 0.393 2.295 1.179 3.16 0.786 0.866 1.77 1.659 2.949 2.376 1.18 0.719 2.467 1.43 3.859 2.132 1.392 0.703 2.678 1.511 3.857 2.425 1.18 0.915 2.163 1.984 2.949 3.209s1.18 2.736 1.18 4.533c0 3.267-1.103 5.79-3.308 7.57 -2.204 1.781-5.447 2.67-9.726 2.67 -1.046 0-2.1-0.066-3.161-0.196 -1.062-0.131-2.066-0.311-3.014-0.539s-1.788-0.473-2.523-0.735c-0.734-0.261-1.282-0.539-1.642-0.833 0.032-0.751 0.114-1.56 0.245-2.426 0.131-0.865 0.27-1.731 0.417-2.597 0.146-0.865 0.302-1.691 0.465-2.475 0.163-0.784 0.326-1.47 0.49-2.058h2.009L942.111 444.448z" class="f"/><path d="M963.572 436.265c0-1.992 0.302-3.781 0.907-5.366 0.604-1.584 1.47-2.931 2.597-4.042 1.127-1.11 2.49-1.96 4.092-2.548 1.6-0.588 3.413-0.882 5.438-0.882 2.286 0 4.255 0.318 5.904 0.956 1.649 0.637 3.006 1.519 4.067 2.646s1.838 2.483 2.327 4.067c0.49 1.585 0.735 3.308 0.735 5.169 0 1.993-0.294 3.781-0.882 5.366s-1.445 2.932-2.572 4.042c-1.127 1.111-2.499 1.96-4.116 2.548s-3.438 0.882-5.464 0.882c-2.222 0-4.148-0.318-5.781-0.956 -1.635-0.637-2.989-1.519-4.067-2.646s-1.879-2.482-2.401-4.067C963.834 439.85 963.572 438.126 963.572 436.265zM971.168 436.265c0 1.47 0.089 2.817 0.27 4.042 0.179 1.225 0.497 2.262 0.955 3.111 0.457 0.85 1.078 1.512 1.862 1.985 0.784 0.474 1.796 0.71 3.038 0.71 0.718 0 1.372-0.171 1.96-0.515 0.588-0.343 1.094-0.898 1.519-1.666 0.425-0.767 0.743-1.78 0.956-3.038 0.212-1.257 0.318-2.8 0.318-4.63 0-1.502-0.091-2.858-0.27-4.067 -0.18-1.208-0.49-2.237-0.932-3.087 -0.44-0.849-1.037-1.511-1.788-1.985 -0.752-0.473-1.699-0.71-2.842-0.71 -0.85 0-1.585 0.171-2.205 0.515 -0.621 0.343-1.144 0.899-1.568 1.666 -0.425 0.768-0.743 1.781-0.955 3.038C971.273 432.892 971.168 434.436 971.168 436.265z" class="f"/><path d="M1020.56 448.515h-12.25v-1.862c0.326-0.196 0.693-0.401 1.103-0.614 0.407-0.213 0.857-0.401 1.347-0.565v-9.775c0-1.507-0.041-2.784-0.122-3.832 -0.082-1.047-0.254-1.907-0.515-2.579 -0.262-0.671-0.621-1.163-1.078-1.474 -0.458-0.311-1.046-0.467-1.764-0.467 -1.046 0-1.952 0.401-2.72 1.204s-1.331 1.859-1.69 3.168v13.755c0.882 0.262 1.698 0.655 2.45 1.179v1.862h-12.74v-1.862c0.457-0.23 0.963-0.443 1.52-0.64 0.555-0.197 1.127-0.377 1.715-0.542v-18.024l-3.234-0.394v-1.862c0.522-0.228 1.168-0.441 1.936-0.637 0.768-0.196 1.56-0.368 2.377-0.515 0.815-0.147 1.608-0.27 2.376-0.367 0.768-0.098 1.413-0.179 1.936-0.245h1.666v5.537h0.049c0.522-1.535 1.445-2.842 2.769-3.92 1.323-1.078 2.916-1.617 4.777-1.617 0.784 0 1.552 0.082 2.304 0.245 0.751 0.164 1.445 0.465 2.082 0.906s1.184 1.054 1.642 1.837c0.457 0.784 0.784 1.797 0.979 3.038 0.589-1.796 1.568-3.25 2.94-4.361 1.372-1.11 3.038-1.666 4.998-1.666 1.208 0 2.278 0.156 3.209 0.467 0.932 0.311 1.716 0.859 2.353 1.645 0.637 0.786 1.118 1.85 1.445 3.192 0.326 1.342 0.49 3.044 0.49 5.107v11.637c1.11 0.197 2.188 0.59 3.234 1.179v1.862h-12.74v-1.862c0.751-0.491 1.567-0.884 2.45-1.179v-10.66c0-2.554-0.237-4.438-0.711-5.65 -0.474-1.211-1.494-1.817-3.063-1.817 -1.176 0-2.1 0.442-2.769 1.327 -0.67 0.884-1.168 2.063-1.494 3.537v13.264c0.555 0.164 1.053 0.345 1.494 0.541 0.441 0.197 0.857 0.41 1.25 0.639V448.515z" class="f"/><path d="M1060.837 444.398c-0.263 0.556-0.679 1.12-1.25 1.691 -0.572 0.572-1.274 1.078-2.107 1.519 -0.833 0.441-1.797 0.801-2.891 1.078 -1.095 0.277-2.278 0.417-3.553 0.417 -2.025 0-3.821-0.302-5.39-0.906s-2.875-1.47-3.92-2.597c-1.046-1.127-1.838-2.475-2.377-4.042s-0.809-3.332-0.809-5.292c0-4.181 1.095-7.366 3.283-9.555 2.188-2.188 5.227-3.283 9.114-3.283 1.666 0 3.226 0.229 4.68 0.686 1.453 0.458 2.662 1.209 3.626 2.254 0.963 1.046 1.633 2.418 2.009 4.116 0.375 1.699 0.351 3.773-0.073 6.223h-15.043c0.032 2.581 0.693 4.639 1.984 6.174 1.29 1.536 3.192 2.303 5.708 2.303 1.078 0 2.197-0.163 3.356-0.49 1.159-0.326 2.066-0.751 2.72-1.274L1060.837 444.398zM1050.715 426.22c-0.649 0-1.226 0.115-1.729 0.343 -0.504 0.229-0.942 0.646-1.315 1.25 -0.374 0.605-0.674 1.421-0.9 2.45 -0.228 1.029-0.39 2.328-0.487 3.896h7.84c0.229-2.548 0.083-4.508-0.437-5.88C1053.166 426.906 1052.176 426.22 1050.715 426.22z" class="f"/><path d="M1090.088 423.427c2.123 0 3.888 0.22 5.292 0.662 1.404 0.441 2.467 0.988 3.186 1.641 1.535-1.666 3.299-2.825 5.292-3.479 0.229 0.164 0.457 0.4 0.686 0.71 0.229 0.311 0.425 0.646 0.588 1.005 0.163 0.36 0.295 0.719 0.393 1.078 0.098 0.36 0.146 0.654 0.146 0.882l-0.637 1.176h-5.145c0.358 0.458 0.693 1.054 1.004 1.789s0.466 1.609 0.466 2.622c0 1.078-0.229 2.091-0.687 3.038 -0.457 0.948-1.151 1.789-2.082 2.523s-2.107 1.315-3.528 1.739c-1.421 0.425-3.079 0.637-4.974 0.637 -0.556 0-1.053-0.008-1.494-0.024 -0.44-0.016-0.825-0.057-1.151-0.123 -0.131 0.196-0.27 0.433-0.417 0.71 -0.146 0.278-0.22 0.547-0.22 0.809 0 0.556 0.392 0.997 1.176 1.323 0.784 0.327 1.78 0.621 2.989 0.882 1.208 0.262 2.506 0.556 3.896 0.882 1.388 0.327 2.687 0.759 3.896 1.298 1.208 0.539 2.221 1.242 3.038 2.107 0.815 0.866 1.24 1.985 1.273 3.356 0.032 1.306-0.294 2.466-0.979 3.479 -0.687 1.012-1.626 1.87-2.818 2.573 -1.192 0.702-2.597 1.241-4.214 1.617 -1.616 0.375-3.34 0.563-5.169 0.563 -2.156 0-3.994-0.172-5.513-0.515 -1.519-0.343-2.753-0.809-3.699-1.396 -0.948-0.588-1.642-1.258-2.083-2.009 -0.44-0.751-0.661-1.536-0.661-2.352 0-0.915 0.179-1.699 0.539-2.352 0.358-0.654 0.865-1.225 1.519-1.715 0.653-0.49 1.413-0.898 2.278-1.225 0.865-0.326 1.821-0.621 2.867-0.882 -0.49-0.13-0.964-0.294-1.421-0.49 -0.458-0.196-0.866-0.433-1.226-0.71 -0.359-0.277-0.653-0.604-0.882-0.98s-0.343-0.809-0.343-1.299c0-0.424 0.13-0.84 0.392-1.25 0.262-0.408 0.604-0.784 1.029-1.127 0.424-0.343 0.882-0.653 1.372-0.931 0.49-0.277 0.979-0.514 1.47-0.71 -2.058-0.457-3.691-1.347-4.9-2.67 -1.208-1.323-1.813-3.013-1.813-5.071 0-2.45 1.012-4.361 3.038-5.733C1083.882 424.113 1086.625 423.427 1090.088 423.427zM1096.263 452.239c0-0.882-0.27-1.593-0.809-2.132 -0.539-0.539-1.233-0.98-2.083-1.323 -0.85-0.343-1.805-0.637-2.866-0.882 -1.062-0.245-2.115-0.531-3.16-0.858 -0.851 0.654-1.454 1.307-1.813 1.96 -0.359 0.653-0.539 1.437-0.539 2.352 0 1.502 0.515 2.671 1.544 3.504 1.028 0.833 2.475 1.25 4.336 1.25 1.829 0 3.186-0.385 4.067-1.152C1095.821 454.19 1096.263 453.284 1096.263 452.239zM1085.874 431.463c0 1.699 0.286 2.989 0.857 3.871 0.571 0.882 1.69 1.323 3.356 1.323 1.601 0 2.703-0.449 3.308-1.348 0.604-0.898 0.907-2.181 0.907-3.846 0-1.764-0.312-3.079-0.932-3.945 -0.621-0.865-1.715-1.298-3.283-1.298 -1.634 0-2.743 0.425-3.332 1.274C1086.168 428.343 1085.874 429.667 1085.874 431.463z" class="f"/><path d="M1108.561 438.79c0-2.063 0.05-3.977 0.147-5.745s0.147-3.634 0.147-5.599l-3.234-0.393v-1.862c0.522-0.196 1.168-0.392 1.936-0.588 0.767-0.196 1.56-0.367 2.376-0.514 0.816-0.147 1.609-0.277 2.377-0.392 0.768-0.114 1.412-0.204 1.936-0.27h1.666c0 2.45-0.049 4.859-0.147 7.228 -0.098 2.369-0.146 4.696-0.146 6.982 0 2.679 0.27 4.606 0.809 5.782 0.539 1.176 1.543 1.764 3.014 1.764 1.012 0 1.951-0.384 2.817-1.154 0.865-0.77 1.575-2.006 2.131-3.709v-12.874l-3.185-0.393v-1.862c0.49-0.196 1.103-0.392 1.838-0.588 0.734-0.196 1.502-0.367 2.303-0.514 0.8-0.147 1.592-0.277 2.376-0.392 0.784-0.114 1.471-0.204 2.059-0.27h1.666v21.609l3.233 0.392v1.715c-0.458 0.196-1.028 0.392-1.715 0.588 -0.686 0.196-1.404 0.385-2.156 0.563 -0.751 0.18-1.494 0.326-2.229 0.441 -0.734 0.114-1.396 0.204-1.984 0.27h-1.666l-0.343-5.831h-0.196c-0.163 0.686-0.457 1.38-0.882 2.083 -0.425 0.703-0.973 1.34-1.642 1.911 -0.67 0.572-1.462 1.038-2.376 1.396 -0.915 0.359-1.928 0.539-3.038 0.539 -1.242 0-2.345-0.156-3.308-0.466 -0.964-0.311-1.788-0.86-2.475-1.645 -0.686-0.786-1.209-1.841-1.568-3.167S1108.561 440.82 1108.561 438.79z" class="f"/><path d="M1137.716 427.055c-0.49-0.13-0.939-0.294-1.348-0.491 -0.409-0.196-0.825-0.425-1.25-0.688v-1.862h12.888v1.813c-0.687 0.459-1.617 0.869-2.793 1.229l4.948 12.335 0.833 3.145h0.099l0.784-3.194 3.821-12.286c-0.979-0.197-1.879-0.59-2.694-1.18v-1.862h9.457v1.862c-0.687 0.459-1.617 0.852-2.793 1.179l-7.987 21.459c-0.784 2.09-1.568 3.797-2.353 5.121 -0.783 1.323-1.567 2.376-2.352 3.16 -0.784 0.784-1.568 1.331-2.352 1.642 -0.784 0.31-1.568 0.515-2.353 0.613 -0.327-0.294-0.621-0.662-0.882-1.103 -0.262-0.441-0.49-0.915-0.687-1.421 -0.195-0.507-0.359-1.021-0.489-1.544 -0.131-0.522-0.213-1.013-0.245-1.47l0.637-1.176h5.979c0.294-0.458 0.546-0.948 0.759-1.47 0.212-0.523 0.466-1.307 0.76-2.352L1137.716 427.055z" class="f"/><path d="M1176.132 443.174c0-0.849-0.303-1.584-0.907-2.205 -0.604-0.62-1.355-1.192-2.254-1.715 -0.898-0.522-1.879-1.045-2.939-1.568 -1.063-0.522-2.042-1.135-2.94-1.837 -0.898-0.702-1.649-1.527-2.254-2.475 -0.604-0.947-0.906-2.107-0.906-3.479 0-0.98 0.228-1.87 0.686-2.67 0.457-0.8 1.078-1.478 1.862-2.034 0.784-0.555 1.723-0.987 2.817-1.298 1.094-0.31 2.278-0.465 3.553-0.465 1.764 0 3.405 0.139 4.925 0.417 1.519 0.278 2.85 0.662 3.993 1.151 -0.131 1.046-0.392 2.165-0.784 3.356 -0.392 1.193-0.768 2.279-1.127 3.259h-1.666l-2.058-4.998c-0.393-0.163-0.801-0.27-1.226-0.319 -0.425-0.049-0.898-0.073-1.421-0.073 -0.979 0-1.724 0.286-2.229 0.857 -0.507 0.572-0.76 1.217-0.76 1.936 0 0.817 0.302 1.527 0.907 2.131 0.604 0.605 1.354 1.168 2.254 1.69 0.897 0.523 1.878 1.046 2.939 1.568 1.062 0.523 2.042 1.119 2.94 1.788 0.898 0.67 1.649 1.462 2.254 2.377s0.906 2.009 0.906 3.283c0 2.254-0.915 4.026-2.744 5.316 -1.829 1.291-4.279 1.936-7.35 1.936 -1.568 0-3.185-0.164-4.851-0.49s-3.104-0.784-4.313-1.372c0.065-1.176 0.343-2.368 0.833-3.577 0.49-1.208 1.013-2.286 1.568-3.234h1.666l2.4 5.341c0.359 0.262 0.76 0.417 1.201 0.466 0.44 0.049 0.857 0.073 1.249 0.073 0.947 0 1.813-0.277 2.597-0.833C1175.739 444.921 1176.132 444.154 1176.132 443.174z" class="f"/><path d="M1227.092 448.515h-12.25v-1.862c0.326-0.196 0.693-0.401 1.103-0.614 0.407-0.213 0.857-0.401 1.347-0.565v-9.775c0-1.507-0.041-2.784-0.122-3.832 -0.082-1.047-0.254-1.907-0.515-2.579 -0.262-0.671-0.621-1.163-1.078-1.474 -0.458-0.311-1.046-0.467-1.764-0.467 -1.046 0-1.952 0.401-2.72 1.204s-1.331 1.859-1.69 3.168v13.755c0.882 0.262 1.698 0.655 2.45 1.179v1.862h-12.74v-1.862c0.457-0.23 0.963-0.443 1.52-0.64 0.555-0.197 1.127-0.377 1.715-0.542v-18.024l-3.234-0.394v-1.862c0.522-0.228 1.168-0.441 1.936-0.637 0.768-0.196 1.56-0.368 2.377-0.515 0.815-0.147 1.608-0.27 2.376-0.367 0.768-0.098 1.413-0.179 1.936-0.245h1.666v5.537h0.049c0.522-1.535 1.445-2.842 2.769-3.92 1.323-1.078 2.916-1.617 4.777-1.617 0.784 0 1.552 0.082 2.304 0.245 0.751 0.164 1.445 0.465 2.082 0.906s1.184 1.054 1.642 1.837c0.457 0.784 0.784 1.797 0.979 3.038 0.589-1.796 1.568-3.25 2.94-4.361 1.372-1.11 3.038-1.666 4.998-1.666 1.208 0 2.278 0.156 3.209 0.467 0.932 0.311 1.716 0.859 2.353 1.645 0.637 0.786 1.118 1.85 1.445 3.192 0.326 1.342 0.49 3.044 0.49 5.107v11.637c1.11 0.197 2.188 0.59 3.234 1.179v1.862h-12.74v-1.862c0.751-0.491 1.567-0.884 2.45-1.179v-10.66c0-2.554-0.237-4.438-0.711-5.65 -0.474-1.211-1.494-1.817-3.063-1.817 -1.176 0-2.1 0.442-2.769 1.327 -0.67 0.884-1.168 2.063-1.494 3.537v13.264c0.555 0.164 1.053 0.345 1.494 0.541 0.441 0.197 0.857 0.41 1.25 0.639V448.515z" class="f"/><path d="M1266.585 441.41c0 0.719 0.008 1.34 0.024 1.862 0.016 0.523 0.057 1.078 0.122 1.666l3.381 0.49v1.715c-0.392 0.196-0.923 0.392-1.592 0.588 -0.67 0.196-1.372 0.385-2.107 0.563 -0.735 0.18-1.462 0.326-2.181 0.441 -0.719 0.114-1.355 0.204-1.911 0.27h-1.666c-0.326-0.751-0.522-1.502-0.588-2.254 -0.065-0.751-0.114-1.666-0.146-2.744h-0.245c-0.164 0.654-0.441 1.282-0.833 1.886 -0.392 0.605-0.891 1.144-1.494 1.617 -0.605 0.474-1.315 0.857-2.132 1.151 -0.817 0.294-1.732 0.441-2.744 0.441 -1.078 0-2.075-0.164-2.989-0.49 -0.915-0.326-1.715-0.784-2.4-1.372 -0.687-0.588-1.226-1.298-1.617-2.131 -0.393-0.833-0.588-1.772-0.588-2.818 0-1.47 0.277-2.678 0.833-3.626 0.555-0.947 1.429-1.723 2.621-2.327s2.728-1.054 4.606-1.348c1.878-0.294 4.156-0.506 6.835-0.637 0.262-2.809 0.147-4.867-0.343-6.174 -0.49-1.306-1.552-1.96-3.185-1.96 -1.014 0-1.944 0.164-2.793 0.49l-2.304 5.88h-2.155c-0.263-0.392-0.515-0.841-0.76-1.348 -0.245-0.506-0.474-1.045-0.687-1.617 -0.213-0.571-0.392-1.151-0.539-1.739 -0.146-0.588-0.253-1.159-0.318-1.715 1.241-0.849 2.842-1.519 4.803-2.009 1.96-0.49 4.033-0.735 6.223-0.735 1.862 0 3.381 0.204 4.557 0.612 1.176 0.409 2.099 0.964 2.769 1.666 0.669 0.703 1.135 1.527 1.396 2.475 0.262 0.948 0.393 1.96 0.393 3.038 0 1.96-0.042 3.732-0.123 5.316C1266.625 438.119 1266.585 439.744 1266.585 441.41zM1255.56 445.183c0.687 0 1.274-0.13 1.764-0.392 0.49-0.261 0.907-0.571 1.25-0.931 0.343-0.359 0.604-0.751 0.784-1.176 0.179-0.424 0.318-0.8 0.416-1.127v-4.9c-1.535 0.033-2.793 0.131-3.772 0.294 -0.98 0.164-1.748 0.433-2.304 0.809 -0.556 0.376-0.939 0.85-1.151 1.421 -0.213 0.572-0.318 1.266-0.318 2.083 0 1.242 0.294 2.205 0.882 2.891S1254.514 445.183 1255.56 445.183z" class="f"/><path d="M1289.369 443.664c-0.163 0.719-0.457 1.405-0.882 2.058 -0.425 0.654-0.931 1.233-1.519 1.739 -0.588 0.507-1.258 0.907-2.009 1.201 -0.752 0.294-1.553 0.441-2.401 0.441 -3.234 0-5.692-1.021-7.374-3.063 -1.684-2.041-2.524-5.169-2.524-9.383 0-2.156 0.295-4.042 0.883-5.66 0.588-1.617 1.412-2.98 2.475-4.091 1.061-1.11 2.343-1.943 3.846-2.499 1.503-0.555 3.169-0.833 4.998-0.833 0.588 0 1.086 0.017 1.495 0.049 0.408 0.033 0.783 0.074 1.127 0.123 0.343 0.049 0.669 0.131 0.979 0.245 0.311 0.115 0.662 0.237 1.054 0.367v-8.67l-3.724-0.395v-1.862c0.457-0.196 1.085-0.375 1.886-0.539 0.801-0.163 1.642-0.318 2.523-0.465 0.883-0.147 1.748-0.286 2.598-0.417 0.849-0.13 1.551-0.245 2.106-0.343h1.666v33.369l3.234 0.392v1.715c-0.458 0.229-1.046 0.441-1.764 0.637 -0.72 0.196-1.471 0.376-2.254 0.539 -0.784 0.164-1.544 0.301-2.279 0.417 -0.734 0.114-1.347 0.204-1.837 0.27h-1.666l-0.441-5.341H1289.369zM1284.91 445.183c1.144 0 2.107-0.359 2.892-1.078 0.784-0.718 1.355-1.943 1.715-3.675v-13.181c-0.425-0.261-0.955-0.473-1.593-0.637 -0.637-0.163-1.429-0.245-2.376-0.245 -1.896 0-3.251 0.857-4.067 2.572 -0.816 1.715-1.225 4.207-1.225 7.473 0 2.646 0.358 4.77 1.078 6.37C1282.052 444.383 1283.244 445.183 1284.91 445.183z" class="f"/><path d="M1324.601 444.398c-0.263 0.556-0.679 1.12-1.25 1.691 -0.572 0.572-1.274 1.078-2.107 1.519 -0.833 0.441-1.797 0.801-2.891 1.078 -1.095 0.277-2.278 0.417-3.553 0.417 -2.025 0-3.821-0.302-5.39-0.906s-2.875-1.47-3.92-2.597c-1.046-1.127-1.838-2.475-2.377-4.042s-0.809-3.332-0.809-5.292c0-4.181 1.095-7.366 3.283-9.555 2.188-2.188 5.227-3.283 9.114-3.283 1.666 0 3.226 0.229 4.68 0.686 1.453 0.458 2.662 1.209 3.626 2.254 0.963 1.046 1.633 2.418 2.009 4.116 0.375 1.699 0.351 3.773-0.073 6.223H1309.9c0.032 2.581 0.693 4.639 1.984 6.174 1.29 1.536 3.192 2.303 5.708 2.303 1.078 0 2.197-0.163 3.356-0.49 1.159-0.326 2.066-0.751 2.72-1.274L1324.601 444.398zM1314.479 426.22c-0.649 0-1.226 0.115-1.729 0.343 -0.504 0.229-0.942 0.646-1.315 1.25 -0.374 0.605-0.674 1.421-0.9 2.45 -0.228 1.029-0.39 2.328-0.487 3.896h7.84c0.229-2.548 0.083-4.508-0.437-5.88C1316.93 426.906 1315.939 426.22 1314.479 426.22z" class="f"/><path d="M1363.946 441.41c0 0.719 0.008 1.34 0.024 1.862 0.016 0.523 0.057 1.078 0.122 1.666l3.381 0.49v1.715c-0.392 0.196-0.923 0.392-1.592 0.588 -0.67 0.196-1.372 0.385-2.107 0.563 -0.735 0.18-1.462 0.326-2.181 0.441 -0.719 0.114-1.355 0.204-1.911 0.27h-1.666c-0.326-0.751-0.522-1.502-0.588-2.254 -0.065-0.751-0.114-1.666-0.146-2.744h-0.245c-0.164 0.654-0.441 1.282-0.833 1.886 -0.392 0.605-0.891 1.144-1.494 1.617 -0.605 0.474-1.315 0.857-2.132 1.151 -0.817 0.294-1.732 0.441-2.744 0.441 -1.078 0-2.075-0.164-2.989-0.49 -0.915-0.326-1.715-0.784-2.4-1.372 -0.687-0.588-1.226-1.298-1.617-2.131 -0.393-0.833-0.588-1.772-0.588-2.818 0-1.47 0.277-2.678 0.833-3.626 0.555-0.947 1.429-1.723 2.621-2.327s2.728-1.054 4.606-1.348c1.878-0.294 4.156-0.506 6.835-0.637 0.262-2.809 0.147-4.867-0.343-6.174 -0.49-1.306-1.552-1.96-3.185-1.96 -1.014 0-1.944 0.164-2.793 0.49l-2.304 5.88h-2.155c-0.263-0.392-0.515-0.841-0.76-1.348 -0.245-0.506-0.474-1.045-0.687-1.617 -0.213-0.571-0.392-1.151-0.539-1.739 -0.146-0.588-0.253-1.159-0.318-1.715 1.241-0.849 2.842-1.519 4.803-2.009 1.96-0.49 4.033-0.735 6.223-0.735 1.862 0 3.381 0.204 4.557 0.612 1.176 0.409 2.099 0.964 2.769 1.666 0.669 0.703 1.135 1.527 1.396 2.475 0.262 0.948 0.393 1.96 0.393 3.038 0 1.96-0.042 3.732-0.123 5.316C1363.986 438.119 1363.946 439.744 1363.946 441.41zM1352.921 445.183c0.687 0 1.274-0.13 1.764-0.392 0.49-0.261 0.907-0.571 1.25-0.931 0.343-0.359 0.604-0.751 0.784-1.176 0.179-0.424 0.318-0.8 0.416-1.127v-4.9c-1.535 0.033-2.793 0.131-3.772 0.294 -0.98 0.164-1.748 0.433-2.304 0.809 -0.556 0.376-0.939 0.85-1.151 1.421 -0.213 0.572-0.318 1.266-0.318 2.083 0 1.242 0.294 2.205 0.882 2.891S1351.875 445.183 1352.921 445.183z" class="f"/><path d="M1391.826 449.103l-7.692-22.047c-0.458-0.163-0.907-0.335-1.348-0.516 -0.441-0.18-0.857-0.401-1.25-0.663v-1.862h12.397v1.813c-0.458 0.262-0.915 0.5-1.372 0.713 -0.458 0.213-0.932 0.385-1.421 0.515l3.381 12.579 0.637 3.784h0.099l0.882-3.92 5.193-15.19 2.401-0.294 5.586 15.533 1.029 3.871h0.098l0.784-3.833 2.939-12.53c-0.359-0.065-0.776-0.196-1.249-0.393 -0.474-0.196-0.955-0.459-1.445-0.787v-1.862h9.457v1.862c-0.687 0.459-1.617 0.852-2.793 1.179l-6.812 21.458 -4.605 0.589L1402.509 437l-0.932-4.067h-0.146l-1.127 4.067 -3.92 11.515L1391.826 449.103z" class="f"/><path d="M1443.963 444.398c-0.263 0.556-0.679 1.12-1.25 1.691 -0.572 0.572-1.274 1.078-2.107 1.519 -0.833 0.441-1.797 0.801-2.891 1.078 -1.095 0.277-2.278 0.417-3.553 0.417 -2.025 0-3.821-0.302-5.39-0.906s-2.875-1.47-3.92-2.597c-1.046-1.127-1.838-2.475-2.377-4.042s-0.809-3.332-0.809-5.292c0-4.181 1.095-7.366 3.283-9.555 2.188-2.188 5.227-3.283 9.114-3.283 1.666 0 3.226 0.229 4.68 0.686 1.453 0.458 2.662 1.209 3.626 2.254 0.963 1.046 1.633 2.418 2.009 4.116 0.375 1.699 0.351 3.773-0.073 6.223h-15.043c0.032 2.581 0.693 4.639 1.984 6.174 1.29 1.536 3.192 2.303 5.708 2.303 1.078 0 2.197-0.163 3.356-0.49 1.159-0.326 2.066-0.751 2.72-1.274L1443.963 444.398zM1433.841 426.22c-0.649 0-1.226 0.115-1.729 0.343 -0.504 0.229-0.942 0.646-1.315 1.25 -0.374 0.605-0.674 1.421-0.9 2.45 -0.228 1.029-0.39 2.328-0.487 3.896h7.84c0.229-2.548 0.083-4.508-0.437-5.88C1436.292 426.906 1435.302 426.22 1433.841 426.22z" class="f"/><path d="M1450.038 415.686l-3.725-0.393v-1.862c0.49-0.196 1.135-0.392 1.936-0.588 0.801-0.196 1.634-0.368 2.499-0.515s1.716-0.277 2.548-0.392c0.833-0.114 1.544-0.204 2.132-0.27h1.666v16.954h0.098c0.653-1.633 1.649-2.907 2.989-3.822 1.339-0.915 2.924-1.372 4.753-1.372 2.874 0 5.112 0.997 6.713 2.989 1.601 1.993 2.401 5.015 2.401 9.065 0 4.476-1.185 7.84-3.553 10.094s-5.839 3.381-10.412 3.381c-0.817 0-1.732-0.057-2.744-0.171 -1.013-0.116-1.993-0.254-2.94-0.417 -0.947-0.164-1.821-0.36-2.621-0.588 -0.801-0.229-1.381-0.458-1.739-0.688V415.686zM1461.749 427.347c-1.242 0-2.238 0.449-2.989 1.348 -0.752 0.898-1.307 2.033-1.666 3.405v12.985c0.457 0.327 1.021 0.588 1.69 0.784 0.669 0.196 1.429 0.294 2.278 0.294 1.862 0 3.226-0.833 4.092-2.499 0.865-1.666 1.299-4.279 1.299-7.84 0-2.58-0.352-4.638-1.054-6.174C1464.696 428.115 1463.479 427.347 1461.749 427.347z" class="f"/><path d="M1489.973 443.174c0-0.849-0.303-1.584-0.907-2.205 -0.604-0.62-1.355-1.192-2.254-1.715 -0.898-0.522-1.879-1.045-2.939-1.568 -1.063-0.522-2.042-1.135-2.94-1.837 -0.898-0.702-1.649-1.527-2.254-2.475 -0.604-0.947-0.906-2.107-0.906-3.479 0-0.98 0.228-1.87 0.686-2.67 0.457-0.8 1.078-1.478 1.862-2.034 0.784-0.555 1.723-0.987 2.817-1.298 1.094-0.31 2.278-0.465 3.553-0.465 1.764 0 3.405 0.139 4.925 0.417 1.519 0.278 2.85 0.662 3.993 1.151 -0.131 1.046-0.392 2.165-0.784 3.356 -0.392 1.193-0.768 2.279-1.127 3.259h-1.666l-2.058-4.998c-0.393-0.163-0.801-0.27-1.226-0.319 -0.425-0.049-0.898-0.073-1.421-0.073 -0.979 0-1.724 0.286-2.229 0.857 -0.507 0.572-0.76 1.217-0.76 1.936 0 0.817 0.302 1.527 0.907 2.131 0.604 0.605 1.354 1.168 2.254 1.69 0.897 0.523 1.878 1.046 2.939 1.568 1.062 0.523 2.042 1.119 2.94 1.788 0.898 0.67 1.649 1.462 2.254 2.377s0.906 2.009 0.906 3.283c0 2.254-0.915 4.026-2.744 5.316 -1.829 1.291-4.279 1.936-7.35 1.936 -1.568 0-3.185-0.164-4.851-0.49s-3.104-0.784-4.313-1.372c0.065-1.176 0.343-2.368 0.833-3.577 0.49-1.208 1.013-2.286 1.568-3.234h1.666l2.4 5.341c0.359 0.262 0.76 0.417 1.201 0.466 0.44 0.049 0.857 0.073 1.249 0.073 0.947 0 1.813-0.277 2.597-0.833C1489.58 444.921 1489.973 444.154 1489.973 443.174z" class="f"/><path d="M1513.345 448.515h-13.524v-1.862c0.49-0.263 0.996-0.484 1.52-0.665 0.522-0.181 1.094-0.353 1.715-0.518v-18.024l-3.234-0.394v-1.862c0.49-0.196 1.103-0.392 1.838-0.588 0.735-0.196 1.511-0.367 2.327-0.514 0.816-0.147 1.617-0.277 2.401-0.392 0.784-0.114 1.47-0.204 2.058-0.27h1.666v22.047c0.653 0.164 1.241 0.335 1.765 0.516 0.521 0.181 1.012 0.401 1.47 0.663V448.515zM1502.319 415.979c0-1.143 0.388-2.041 1.163-2.695 0.774-0.653 1.775-0.98 3.002-0.98s2.229 0.327 3.003 0.98c0.775 0.654 1.162 1.552 1.162 2.695 0 1.111-0.387 1.993-1.162 2.646 -0.774 0.654-1.776 0.98-3.003 0.98s-2.228-0.326-3.002-0.98C1502.707 417.972 1502.319 417.089 1502.319 415.979z" class="f"/><path d="M1515.255 425.237c1.241-0.806 2.549-1.376 3.92-1.712v-3.969c0.196-0.196 0.531-0.384 1.005-0.563 0.474-0.179 0.98-0.343 1.52-0.49 0.538-0.147 1.069-0.285 1.592-0.417 0.522-0.13 0.947-0.228 1.274-0.294h1.666v6.223h6.468v3.185h-6.468v12.622c0 2.015 0.253 3.413 0.76 4.192 0.506 0.779 1.347 1.169 2.523 1.169 0.588 0 1.249-0.041 1.984-0.123 0.734-0.081 1.412-0.236 2.033-0.465l0.343 1.617c-0.294 0.294-0.728 0.605-1.298 0.931 -0.572 0.327-1.226 0.637-1.96 0.931 -0.735 0.294-1.536 0.539-2.401 0.735 -0.866 0.196-1.772 0.294-2.72 0.294 -2.124 0-3.708-0.553-4.753-1.658 -1.046-1.105-1.568-2.895-1.568-5.366V427.2h-3.92V425.237z" class="f"/><path d="M1558.522 444.398c-0.263 0.556-0.679 1.12-1.25 1.691 -0.572 0.572-1.274 1.078-2.107 1.519 -0.833 0.441-1.797 0.801-2.891 1.078 -1.095 0.277-2.278 0.417-3.553 0.417 -2.025 0-3.821-0.302-5.39-0.906s-2.875-1.47-3.92-2.597c-1.046-1.127-1.838-2.475-2.377-4.042s-0.809-3.332-0.809-5.292c0-4.181 1.095-7.366 3.283-9.555 2.188-2.188 5.227-3.283 9.114-3.283 1.666 0 3.226 0.229 4.68 0.686 1.453 0.458 2.662 1.209 3.626 2.254 0.963 1.046 1.633 2.418 2.009 4.116 0.375 1.699 0.351 3.773-0.073 6.223h-15.043c0.032 2.581 0.693 4.639 1.984 6.174 1.29 1.536 3.192 2.303 5.708 2.303 1.078 0 2.197-0.163 3.356-0.49 1.159-0.326 2.066-0.751 2.72-1.274L1558.522 444.398zM1548.4 426.22c-0.649 0-1.226 0.115-1.729 0.343 -0.504 0.229-0.942 0.646-1.315 1.25 -0.374 0.605-0.674 1.421-0.9 2.45 -0.228 1.029-0.39 2.328-0.487 3.896h7.84c0.229-2.548 0.083-4.508-0.437-5.88C1550.852 426.906 1549.861 426.22 1548.4 426.22z" class="f"/><path d="M1597.868 441.41c0 0.719 0.008 1.34 0.024 1.862 0.016 0.523 0.057 1.078 0.122 1.666l3.381 0.49v1.715c-0.392 0.196-0.923 0.392-1.592 0.588 -0.67 0.196-1.372 0.385-2.107 0.563 -0.735 0.18-1.462 0.326-2.181 0.441 -0.719 0.114-1.355 0.204-1.911 0.27h-1.666c-0.326-0.751-0.522-1.502-0.588-2.254 -0.065-0.751-0.114-1.666-0.146-2.744h-0.245c-0.164 0.654-0.441 1.282-0.833 1.886 -0.392 0.605-0.891 1.144-1.494 1.617 -0.605 0.474-1.315 0.857-2.132 1.151 -0.817 0.294-1.732 0.441-2.744 0.441 -1.078 0-2.075-0.164-2.989-0.49 -0.915-0.326-1.715-0.784-2.4-1.372 -0.687-0.588-1.226-1.298-1.617-2.131 -0.393-0.833-0.588-1.772-0.588-2.818 0-1.47 0.277-2.678 0.833-3.626 0.555-0.947 1.429-1.723 2.621-2.327s2.728-1.054 4.606-1.348c1.878-0.294 4.156-0.506 6.835-0.637 0.262-2.809 0.147-4.867-0.343-6.174 -0.49-1.306-1.552-1.96-3.185-1.96 -1.014 0-1.944 0.164-2.793 0.49l-2.304 5.88h-2.155c-0.263-0.392-0.515-0.841-0.76-1.348 -0.245-0.506-0.474-1.045-0.687-1.617 -0.213-0.571-0.392-1.151-0.539-1.739 -0.146-0.588-0.253-1.159-0.318-1.715 1.241-0.849 2.842-1.519 4.803-2.009 1.96-0.49 4.033-0.735 6.223-0.735 1.862 0 3.381 0.204 4.557 0.612 1.176 0.409 2.099 0.964 2.769 1.666 0.669 0.703 1.135 1.527 1.396 2.475 0.262 0.948 0.393 1.96 0.393 3.038 0 1.96-0.042 3.732-0.123 5.316C1597.908 438.119 1597.868 439.744 1597.868 441.41zM1586.843 445.183c0.687 0 1.274-0.13 1.764-0.392 0.49-0.261 0.907-0.571 1.25-0.931 0.343-0.359 0.604-0.751 0.784-1.176 0.179-0.424 0.318-0.8 0.416-1.127v-4.9c-1.535 0.033-2.793 0.131-3.772 0.294 -0.98 0.164-1.748 0.433-2.304 0.809 -0.556 0.376-0.939 0.85-1.151 1.421 -0.213 0.572-0.318 1.266-0.318 2.083 0 1.242 0.294 2.205 0.882 2.891S1585.797 445.183 1586.843 445.183z" class="f"/><path d="M1633.393 448.515h-12.984v-1.862c0.424-0.229 0.84-0.434 1.249-0.614 0.408-0.18 0.89-0.368 1.445-0.565V433.93c0-2.063-0.294-3.676-0.882-4.839 -0.588-1.162-1.634-1.744-3.136-1.744 -1.242 0-2.312 0.401-3.21 1.204s-1.576 1.892-2.033 3.267v13.657c0.522 0.132 0.987 0.287 1.396 0.467 0.408 0.181 0.841 0.418 1.299 0.712v1.862h-12.985v-1.862c0.816-0.427 1.895-0.821 3.234-1.182v-18.024l-3.234-0.394v-1.862c0.424-0.196 0.98-0.383 1.666-0.563 0.686-0.179 1.429-0.351 2.229-0.514 0.8-0.163 1.617-0.302 2.45-0.417 0.833-0.114 1.593-0.204 2.278-0.27h1.666v5.047h0.049c0.687-1.372 1.715-2.556 3.087-3.552 1.372-0.996 3.038-1.495 4.998-1.495 1.274 0 2.417 0.156 3.431 0.467 1.012 0.311 1.869 0.859 2.572 1.645 0.702 0.786 1.241 1.841 1.617 3.167 0.375 1.326 0.563 3.003 0.563 5.033v11.736c1.306 0.23 2.384 0.623 3.233 1.179V448.515z" class="f"/><path d="M1652.503 443.664c-0.163 0.719-0.457 1.405-0.882 2.058 -0.425 0.654-0.931 1.233-1.519 1.739 -0.588 0.507-1.258 0.907-2.009 1.201 -0.752 0.294-1.553 0.441-2.401 0.441 -3.234 0-5.692-1.021-7.374-3.063 -1.684-2.041-2.524-5.169-2.524-9.383 0-2.156 0.295-4.042 0.883-5.66 0.588-1.617 1.412-2.98 2.475-4.091 1.061-1.11 2.343-1.943 3.846-2.499 1.503-0.555 3.169-0.833 4.998-0.833 0.588 0 1.086 0.017 1.495 0.049 0.408 0.033 0.783 0.074 1.127 0.123 0.343 0.049 0.669 0.131 0.979 0.245 0.311 0.115 0.662 0.237 1.054 0.367v-8.67l-3.724-0.395v-1.862c0.457-0.196 1.085-0.375 1.886-0.539 0.801-0.163 1.642-0.318 2.523-0.465 0.883-0.147 1.748-0.286 2.598-0.417 0.849-0.13 1.551-0.245 2.106-0.343h1.666v33.369l3.234 0.392v1.715c-0.458 0.229-1.046 0.441-1.764 0.637 -0.72 0.196-1.471 0.376-2.254 0.539 -0.784 0.164-1.544 0.301-2.279 0.417 -0.734 0.114-1.347 0.204-1.837 0.27h-1.666l-0.441-5.341H1652.503zM1648.044 445.183c1.144 0 2.107-0.359 2.892-1.078 0.784-0.718 1.355-1.943 1.715-3.675v-13.181c-0.425-0.261-0.955-0.473-1.593-0.637 -0.637-0.163-1.429-0.245-2.376-0.245 -1.896 0-3.251 0.857-4.067 2.572 -0.816 1.715-1.225 4.207-1.225 7.473 0 2.646 0.358 4.77 1.078 6.37C1645.186 444.383 1646.378 445.183 1648.044 445.183z" class="f"/><path d="M1679.306 427.055c-0.49-0.13-0.939-0.294-1.348-0.491 -0.409-0.196-0.825-0.425-1.25-0.688v-1.862h12.888v1.813c-0.687 0.459-1.617 0.869-2.793 1.229l4.948 12.335 0.833 3.145h0.099l0.784-3.194 3.821-12.286c-0.979-0.197-1.879-0.59-2.694-1.18v-1.862h9.457v1.862c-0.687 0.459-1.617 0.852-2.793 1.179l-7.987 21.459c-0.784 2.09-1.568 3.797-2.353 5.121 -0.783 1.323-1.567 2.376-2.352 3.16 -0.784 0.784-1.568 1.331-2.352 1.642 -0.784 0.31-1.568 0.515-2.353 0.613 -0.327-0.294-0.621-0.662-0.882-1.103 -0.262-0.441-0.49-0.915-0.687-1.421 -0.195-0.507-0.359-1.021-0.489-1.544 -0.131-0.522-0.213-1.013-0.245-1.47l0.637-1.176h5.979c0.294-0.458 0.546-0.948 0.759-1.47 0.212-0.523 0.466-1.307 0.76-2.352L1679.306 427.055z" class="f"/><path d="M1704.394 436.265c0-1.992 0.302-3.781 0.907-5.366 0.604-1.584 1.47-2.931 2.597-4.042 1.127-1.11 2.49-1.96 4.092-2.548 1.6-0.588 3.413-0.882 5.438-0.882 2.286 0 4.255 0.318 5.904 0.956 1.649 0.637 3.006 1.519 4.067 2.646s1.838 2.483 2.327 4.067c0.49 1.585 0.735 3.308 0.735 5.169 0 1.993-0.294 3.781-0.882 5.366s-1.445 2.932-2.572 4.042c-1.127 1.111-2.499 1.96-4.116 2.548s-3.438 0.882-5.464 0.882c-2.222 0-4.148-0.318-5.781-0.956 -1.635-0.637-2.989-1.519-4.067-2.646s-1.879-2.482-2.401-4.067C1704.655 439.85 1704.394 438.126 1704.394 436.265zM1711.989 436.265c0 1.47 0.089 2.817 0.27 4.042 0.179 1.225 0.497 2.262 0.955 3.111 0.457 0.85 1.078 1.512 1.862 1.985 0.784 0.474 1.796 0.71 3.038 0.71 0.718 0 1.372-0.171 1.96-0.515 0.588-0.343 1.094-0.898 1.519-1.666 0.425-0.767 0.743-1.78 0.956-3.038 0.212-1.257 0.318-2.8 0.318-4.63 0-1.502-0.091-2.858-0.27-4.067 -0.18-1.208-0.49-2.237-0.932-3.087 -0.44-0.849-1.037-1.511-1.788-1.985 -0.752-0.473-1.699-0.71-2.842-0.71 -0.85 0-1.585 0.171-2.205 0.515 -0.621 0.343-1.144 0.899-1.568 1.666 -0.425 0.768-0.743 1.781-0.955 3.038C1712.095 432.892 1711.989 434.436 1711.989 436.265z" class="f"/><path d="M1735.753 438.79c0-2.063 0.05-3.977 0.147-5.745s0.147-3.634 0.147-5.599l-3.234-0.393v-1.862c0.522-0.196 1.168-0.392 1.936-0.588 0.767-0.196 1.56-0.367 2.376-0.514 0.816-0.147 1.609-0.277 2.377-0.392 0.768-0.114 1.412-0.204 1.936-0.27h1.666c0 2.45-0.049 4.859-0.147 7.228 -0.098 2.369-0.146 4.696-0.146 6.982 0 2.679 0.27 4.606 0.809 5.782 0.539 1.176 1.543 1.764 3.014 1.764 1.012 0 1.951-0.384 2.817-1.154 0.865-0.77 1.575-2.006 2.131-3.709v-12.874l-3.185-0.393v-1.862c0.49-0.196 1.103-0.392 1.838-0.588 0.734-0.196 1.502-0.367 2.303-0.514 0.8-0.147 1.592-0.277 2.376-0.392 0.784-0.114 1.471-0.204 2.059-0.27h1.666v21.609l3.233 0.392v1.715c-0.458 0.196-1.028 0.392-1.715 0.588 -0.686 0.196-1.404 0.385-2.156 0.563 -0.751 0.18-1.494 0.326-2.229 0.441 -0.734 0.114-1.396 0.204-1.984 0.27h-1.666l-0.343-5.831h-0.196c-0.163 0.686-0.457 1.38-0.882 2.083 -0.425 0.703-0.973 1.34-1.642 1.911 -0.67 0.572-1.462 1.038-2.376 1.396 -0.915 0.359-1.928 0.539-3.038 0.539 -1.242 0-2.345-0.156-3.308-0.466 -0.964-0.311-1.788-0.86-2.475-1.645 -0.686-0.786-1.209-1.841-1.568-3.167S1735.753 440.82 1735.753 438.79z" class="f"/><path d="M1786.369 449.103l-7.692-22.047c-0.458-0.163-0.907-0.335-1.348-0.516 -0.441-0.18-0.857-0.401-1.25-0.663v-1.862h12.397v1.813c-0.458 0.262-0.915 0.5-1.372 0.713 -0.458 0.213-0.932 0.385-1.421 0.515l3.381 12.579 0.637 3.784h0.099l0.882-3.92 5.193-15.19 2.401-0.294 5.586 15.533 1.029 3.871h0.098l0.784-3.833 2.939-12.53c-0.359-0.065-0.776-0.196-1.249-0.393 -0.474-0.196-0.955-0.459-1.445-0.787v-1.862h9.457v1.862c-0.687 0.459-1.617 0.852-2.793 1.179l-6.812 21.458 -4.605 0.589L1797.052 437l-0.932-4.067h-0.146l-1.127 4.067 -3.92 11.515L1786.369 449.103z" class="f"/><path d="M1816.21 436.265c0-1.992 0.302-3.781 0.907-5.366 0.604-1.584 1.47-2.931 2.597-4.042 1.127-1.11 2.49-1.96 4.092-2.548 1.6-0.588 3.413-0.882 5.438-0.882 2.286 0 4.255 0.318 5.904 0.956 1.649 0.637 3.006 1.519 4.067 2.646s1.838 2.483 2.327 4.067c0.49 1.585 0.735 3.308 0.735 5.169 0 1.993-0.294 3.781-0.882 5.366s-1.445 2.932-2.572 4.042c-1.127 1.111-2.499 1.96-4.116 2.548s-3.438 0.882-5.464 0.882c-2.222 0-4.148-0.318-5.781-0.956 -1.635-0.637-2.989-1.519-4.067-2.646s-1.879-2.482-2.401-4.067C1816.472 439.85 1816.21 438.126 1816.21 436.265zM1823.806 436.265c0 1.47 0.089 2.817 0.27 4.042 0.179 1.225 0.497 2.262 0.955 3.111 0.457 0.85 1.078 1.512 1.862 1.985 0.784 0.474 1.796 0.71 3.038 0.71 0.718 0 1.372-0.171 1.96-0.515 0.588-0.343 1.094-0.898 1.519-1.666 0.425-0.767 0.743-1.78 0.956-3.038 0.212-1.257 0.318-2.8 0.318-4.63 0-1.502-0.091-2.858-0.27-4.067 -0.18-1.208-0.49-2.237-0.932-3.087 -0.44-0.849-1.037-1.511-1.788-1.985 -0.752-0.473-1.699-0.71-2.842-0.71 -0.85 0-1.585 0.171-2.205 0.515 -0.621 0.343-1.144 0.899-1.568 1.666 -0.425 0.768-0.743 1.781-0.955 3.038C1823.911 432.892 1823.806 434.436 1823.806 436.265z" class="f"/><path d="M1875.059 448.515h-12.984v-1.862c0.424-0.229 0.84-0.434 1.249-0.614 0.408-0.18 0.89-0.368 1.445-0.565V433.93c0-2.063-0.294-3.676-0.882-4.839 -0.588-1.162-1.634-1.744-3.136-1.744 -1.242 0-2.312 0.401-3.21 1.204s-1.576 1.892-2.033 3.267v13.657c0.522 0.132 0.987 0.287 1.396 0.467 0.408 0.181 0.841 0.418 1.299 0.712v1.862h-12.985v-1.862c0.816-0.427 1.895-0.821 3.234-1.182v-18.024l-3.234-0.394v-1.862c0.424-0.196 0.98-0.383 1.666-0.563 0.686-0.179 1.429-0.351 2.229-0.514 0.8-0.163 1.617-0.302 2.45-0.417 0.833-0.114 1.593-0.204 2.278-0.27h1.666v5.047h0.049c0.687-1.372 1.715-2.556 3.087-3.552 1.372-0.996 3.038-1.495 4.998-1.495 1.274 0 2.417 0.156 3.431 0.467 1.012 0.311 1.869 0.859 2.572 1.645 0.702 0.786 1.241 1.841 1.617 3.167 0.375 1.326 0.563 3.003 0.563 5.033v11.736c1.306 0.23 2.384 0.623 3.233 1.179V448.515z" class="f"/><path d="M1879.125 415.685c0.163-0.424 0.547-0.775 1.152-1.053 0.604-0.277 1.281-0.417 2.033-0.417 0.686 0 1.348 0.122 1.984 0.367s1.037 0.613 1.2 1.103l-2.254 9.016h-1.861L1879.125 415.685z" class="f"/><path d="M1888.386 425.237c1.241-0.806 2.549-1.376 3.92-1.712v-3.969c0.196-0.196 0.531-0.384 1.005-0.563 0.474-0.179 0.98-0.343 1.52-0.49 0.538-0.147 1.069-0.285 1.592-0.417 0.522-0.13 0.947-0.228 1.274-0.294h1.666v6.223h6.468v3.185h-6.468v12.622c0 2.015 0.253 3.413 0.76 4.192 0.506 0.779 1.347 1.169 2.523 1.169 0.588 0 1.249-0.041 1.984-0.123 0.734-0.081 1.412-0.236 2.033-0.465l0.343 1.617c-0.294 0.294-0.728 0.605-1.298 0.931 -0.572 0.327-1.226 0.637-1.96 0.931 -0.735 0.294-1.536 0.539-2.401 0.735 -0.866 0.196-1.772 0.294-2.72 0.294 -2.124 0-3.708-0.553-4.753-1.658 -1.046-1.105-1.568-2.895-1.568-5.366V427.2h-3.92V425.237z" class="f"/><path d="M1922.343 448.515v-1.862c0.62-0.359 1.281-0.669 1.984-0.931 0.702-0.261 1.379-0.424 2.033-0.49v-27.734c-0.654-0.13-1.34-0.318-2.058-0.563 -0.72-0.245-1.372-0.53-1.96-0.857v-1.862h7.889c1.241 0 2.417-0.049 3.528-0.147 1.109-0.098 2.384-0.147 3.821-0.147 1.568 0 3.087 0.115 4.558 0.343 1.47 0.229 2.775 0.637 3.92 1.225 1.143 0.588 2.058 1.413 2.744 2.475 0.686 1.062 1.028 2.425 1.028 4.091 0 1.046-0.188 2.018-0.563 2.916 -0.376 0.899-0.898 1.69-1.567 2.376 -0.67 0.686-1.454 1.258-2.353 1.715 -0.898 0.458-1.87 0.784-2.915 0.98v0.196c1.045 0.131 2.099 0.376 3.16 0.735 1.062 0.36 2.017 0.882 2.866 1.568s1.544 1.543 2.083 2.573c0.539 1.029 0.809 2.246 0.809 3.65 0 1.764-0.393 3.283-1.177 4.557 -0.783 1.274-1.837 2.32-3.16 3.136 -1.323 0.817-2.834 1.414-4.532 1.789 -1.699 0.375-3.463 0.563-5.292 0.563 -0.687 0-1.438-0.017-2.254-0.049 -0.817-0.033-1.634-0.066-2.45-0.098 -0.817-0.033-1.609-0.066-2.377-0.098 -0.768-0.033-1.413-0.049-1.936-0.049H1922.343zM1934.984 429.502c0.555 0 1.11-0.024 1.666-0.073 0.555-0.049 1.078-0.105 1.568-0.171 1.273-0.522 2.303-1.331 3.087-2.426 0.783-1.094 1.176-2.343 1.176-3.749 0-2.058-0.539-3.568-1.617-4.532 -1.078-0.963-2.467-1.446-4.165-1.446 -0.719 0-1.34 0.017-1.862 0.049 -0.522 0.033-0.996 0.082-1.421 0.147v12.201H1934.984zM1937.141 445.624c2.058 0 3.675-0.612 4.851-1.837s1.764-2.85 1.764-4.875c0-1.241-0.195-2.262-0.588-3.063 -0.392-0.8-0.931-1.437-1.616-1.911 -0.687-0.473-1.503-0.8-2.45-0.98 -0.948-0.179-1.978-0.27-3.087-0.27h-2.598v12.593c0.457 0.098 0.938 0.18 1.445 0.245S1936.127 445.624 1937.141 445.624z" class="f"/><path d="M1980.211 414.215c-0.065 1.47-0.18 2.989-0.343 4.557 -0.164 1.568-0.376 3.038-0.637 4.41h-2.01l-2.254-5.782h-9.163v12.005h5.979l2.156-3.773h1.567c0.163 1.601 0.245 3.381 0.245 5.341s-0.082 3.79-0.245 5.488h-1.567l-2.156-3.871h-5.979v12.74h9.556l2.597-6.223h2.009c0.13 0.621 0.262 1.323 0.393 2.107 0.13 0.784 0.236 1.592 0.318 2.425 0.081 0.833 0.146 1.674 0.195 2.523 0.05 0.85 0.074 1.634 0.074 2.352h-26.509v-1.862c0.555-0.294 1.176-0.571 1.861-0.833 0.687-0.261 1.404-0.457 2.156-0.588v-27.734c-0.654-0.13-1.348-0.318-2.083-0.563 -0.734-0.245-1.38-0.53-1.935-0.857v-1.862H1980.211z" class="f"/><path d="M1984.327 414.215h16.071v1.862c-0.686 0.36-1.445 0.662-2.278 0.906 -0.833 0.245-1.642 0.417-2.426 0.515v27.832h9.457l3.283-8.771h2.009c0.131 0.752 0.253 1.634 0.368 2.646 0.113 1.013 0.203 2.075 0.27 3.185 0.064 1.111 0.113 2.205 0.146 3.283 0.032 1.078 0.032 2.026 0 2.842h-26.9v-1.862c0.751-0.392 1.461-0.702 2.131-0.931 0.669-0.228 1.299-0.392 1.887-0.49v-27.734c-1.601-0.261-2.94-0.735-4.018-1.421V414.215z" class="f"/><path d="M2028.965 448.515h-15.288v-1.862c1.307-0.718 2.63-1.192 3.97-1.421v-27.734c-0.654-0.098-1.34-0.277-2.059-0.539 -0.719-0.261-1.355-0.555-1.911-0.882v-1.862h15.288v1.862c-0.588 0.36-1.233 0.662-1.936 0.906 -0.702 0.245-1.38 0.417-2.033 0.515v27.734c0.653 0.131 1.331 0.311 2.033 0.539 0.702 0.229 1.348 0.523 1.936 0.882V448.515z" class="f"/><path d="M2057.482 414.215c-0.065 1.47-0.18 2.989-0.343 4.557 -0.164 1.568-0.376 3.038-0.637 4.41h-2.01l-2.254-5.782h-9.163v12.005h5.979l2.156-3.773h1.567c0.163 1.601 0.245 3.381 0.245 5.341s-0.082 3.79-0.245 5.488h-1.567l-2.156-3.871h-5.979v12.74h9.556l2.597-6.223h2.009c0.13 0.621 0.262 1.323 0.393 2.107 0.13 0.784 0.236 1.592 0.318 2.425 0.081 0.833 0.146 1.674 0.195 2.523 0.05 0.85 0.074 1.634 0.074 2.352h-26.509v-1.862c0.555-0.294 1.176-0.571 1.861-0.833 0.687-0.261 1.404-0.457 2.156-0.588v-27.734c-0.654-0.13-1.348-0.318-2.083-0.563 -0.734-0.245-1.38-0.53-1.935-0.857v-1.862H2057.482z" class="f"/><path d="M2088.254 417.498c-0.784-0.163-1.527-0.375-2.229-0.637 -0.702-0.261-1.331-0.522-1.887-0.784v-1.862h12.446v1.862c-0.392 0.262-0.906 0.523-1.543 0.784 -0.638 0.262-1.299 0.474-1.984 0.637l-11.271 31.017 -4.851 0.588 -12.643-31.605c-0.653-0.163-1.307-0.367-1.96-0.612s-1.225-0.515-1.715-0.809v-1.862h16.317v1.862c-0.557 0.262-1.177 0.523-1.862 0.784 -0.687 0.262-1.405 0.474-2.156 0.637l6.86 19.306 1.127 4.606h0.098l1.078-4.704L2088.254 417.498z" class="f"/><path d="M2123.633 414.215c-0.065 1.47-0.18 2.989-0.343 4.557 -0.164 1.568-0.376 3.038-0.637 4.41h-2.01l-2.254-5.782h-9.163v12.005h5.979l2.156-3.773h1.567c0.163 1.601 0.245 3.381 0.245 5.341s-0.082 3.79-0.245 5.488h-1.567l-2.156-3.871h-5.979v12.74h9.556l2.597-6.223h2.009c0.13 0.621 0.262 1.323 0.393 2.107 0.13 0.784 0.236 1.592 0.318 2.425 0.081 0.833 0.146 1.674 0.195 2.523 0.05 0.85 0.074 1.634 0.074 2.352h-26.509v-1.862c0.555-0.294 1.176-0.571 1.861-0.833 0.687-0.261 1.404-0.457 2.156-0.588v-27.734c-0.654-0.13-1.348-0.318-2.083-0.563 -0.734-0.245-1.38-0.53-1.935-0.857v-1.862H2123.633z" class="f"/><path d="M2150.092 449.103l-7.692-22.047c-0.458-0.163-0.907-0.335-1.348-0.516 -0.441-0.18-0.857-0.401-1.25-0.663v-1.862h12.397v1.813c-0.458 0.262-0.915 0.5-1.372 0.713 -0.458 0.213-0.932 0.385-1.421 0.515l3.381 12.579 0.637 3.784h0.099l0.882-3.92 5.193-15.19 2.401-0.294 5.586 15.533 1.029 3.871h0.098l0.784-3.833 2.939-12.53c-0.359-0.065-0.776-0.196-1.249-0.393 -0.474-0.196-0.955-0.459-1.445-0.787v-1.862h9.457v1.862c-0.687 0.459-1.617 0.852-2.793 1.179l-6.812 21.458 -4.605 0.589L2160.774 437l-0.932-4.067h-0.146l-1.127 4.067 -3.92 11.515L2150.092 449.103z" class="f"/><path d="M2209.774 448.515h-12.985v-1.862c0.392-0.229 0.8-0.442 1.225-0.639 0.425-0.196 0.914-0.377 1.471-0.541v-9.923c0-2.816-0.27-4.888-0.809-6.214s-1.593-1.99-3.161-1.99c-1.307 0-2.418 0.451-3.332 1.351 -0.915 0.9-1.567 1.94-1.96 3.119v13.657c0.522 0.132 0.988 0.279 1.396 0.442 0.408 0.164 0.841 0.409 1.299 0.737v1.862h-12.985v-1.862c1.013-0.524 2.091-0.917 3.234-1.18v-29.787l-3.724-0.394v-1.862c0.489-0.196 1.118-0.392 1.886-0.588 0.768-0.196 1.576-0.368 2.426-0.515s1.698-0.277 2.548-0.392c0.85-0.114 1.601-0.204 2.254-0.27h1.666v17.297h0.049c0.326-0.751 0.768-1.462 1.323-2.132 0.556-0.669 1.184-1.257 1.887-1.764 0.702-0.506 1.462-0.907 2.278-1.201s1.683-0.441 2.598-0.441c1.306 0 2.474 0.156 3.503 0.467 1.029 0.311 1.887 0.859 2.572 1.645 0.687 0.786 1.208 1.841 1.568 3.167 0.359 1.326 0.539 3.003 0.539 5.033v11.736c0.555 0.131 1.11 0.278 1.666 0.442 0.555 0.164 1.078 0.41 1.568 0.737V448.515z" class="f"/><path d="M2233.687 441.41c0 0.719 0.008 1.34 0.024 1.862 0.016 0.523 0.057 1.078 0.122 1.666l3.381 0.49v1.715c-0.392 0.196-0.923 0.392-1.592 0.588 -0.67 0.196-1.372 0.385-2.107 0.563 -0.735 0.18-1.462 0.326-2.181 0.441 -0.719 0.114-1.355 0.204-1.911 0.27h-1.666c-0.326-0.751-0.522-1.502-0.588-2.254 -0.065-0.751-0.114-1.666-0.146-2.744h-0.245c-0.164 0.654-0.441 1.282-0.833 1.886 -0.392 0.605-0.891 1.144-1.494 1.617 -0.605 0.474-1.315 0.857-2.132 1.151 -0.817 0.294-1.732 0.441-2.744 0.441 -1.078 0-2.075-0.164-2.989-0.49 -0.915-0.326-1.715-0.784-2.4-1.372 -0.687-0.588-1.226-1.298-1.617-2.131 -0.393-0.833-0.588-1.772-0.588-2.818 0-1.47 0.277-2.678 0.833-3.626 0.555-0.947 1.429-1.723 2.621-2.327s2.728-1.054 4.606-1.348c1.878-0.294 4.156-0.506 6.835-0.637 0.262-2.809 0.147-4.867-0.343-6.174 -0.49-1.306-1.552-1.96-3.185-1.96 -1.014 0-1.944 0.164-2.793 0.49l-2.304 5.88h-2.155c-0.263-0.392-0.515-0.841-0.76-1.348 -0.245-0.506-0.474-1.045-0.687-1.617 -0.213-0.571-0.392-1.151-0.539-1.739 -0.146-0.588-0.253-1.159-0.318-1.715 1.241-0.849 2.842-1.519 4.803-2.009 1.96-0.49 4.033-0.735 6.223-0.735 1.862 0 3.381 0.204 4.557 0.612 1.176 0.409 2.099 0.964 2.769 1.666 0.669 0.703 1.135 1.527 1.396 2.475 0.262 0.948 0.393 1.96 0.393 3.038 0 1.96-0.042 3.732-0.123 5.316C2233.727 438.119 2233.687 439.744 2233.687 441.41zM2222.661 445.183c0.687 0 1.274-0.13 1.764-0.392 0.49-0.261 0.907-0.571 1.25-0.931 0.343-0.359 0.604-0.751 0.784-1.176 0.179-0.424 0.318-0.8 0.416-1.127v-4.9c-1.535 0.033-2.793 0.131-3.772 0.294 -0.98 0.164-1.748 0.433-2.304 0.809 -0.556 0.376-0.939 0.85-1.151 1.421 -0.213 0.572-0.318 1.266-0.318 2.083 0 1.242 0.294 2.205 0.882 2.891S2221.615 445.183 2222.661 445.183z" class="f"/><path d="M2238.635 425.237c1.241-0.806 2.549-1.376 3.92-1.712v-3.969c0.196-0.196 0.531-0.384 1.005-0.563 0.474-0.179 0.98-0.343 1.52-0.49 0.538-0.147 1.069-0.285 1.592-0.417 0.522-0.13 0.947-0.228 1.274-0.294h1.666v6.223h6.468v3.185h-6.468v12.622c0 2.015 0.253 3.413 0.76 4.192 0.506 0.779 1.347 1.169 2.523 1.169 0.588 0 1.249-0.041 1.984-0.123 0.734-0.081 1.412-0.236 2.033-0.465l0.343 1.617c-0.294 0.294-0.728 0.605-1.298 0.931 -0.572 0.327-1.226 0.637-1.96 0.931 -0.735 0.294-1.536 0.539-2.401 0.735 -0.866 0.196-1.772 0.294-2.72 0.294 -2.124 0-3.708-0.553-4.753-1.658 -1.046-1.105-1.568-2.895-1.568-5.366V427.2h-3.92V425.237z" class="f"/><path d="M949.461 507.314h-13.524v-1.862c0.49-0.263 0.996-0.484 1.52-0.665 0.522-0.181 1.094-0.353 1.715-0.518v-18.024l-3.234-0.394v-1.862c0.49-0.196 1.103-0.392 1.838-0.588 0.735-0.196 1.511-0.367 2.327-0.514 0.816-0.147 1.617-0.277 2.401-0.392 0.784-0.114 1.47-0.204 2.058-0.27h1.666v22.047c0.653 0.164 1.241 0.335 1.765 0.516 0.521 0.181 1.012 0.401 1.47 0.663V507.314zM938.436 474.778c0-1.143 0.388-2.041 1.163-2.695 0.774-0.653 1.775-0.98 3.002-0.98s2.229 0.327 3.003 0.98c0.775 0.654 1.162 1.552 1.162 2.695 0 1.111-0.387 1.993-1.162 2.646 -0.774 0.654-1.776 0.98-3.003 0.98s-2.228-0.326-3.002-0.98C938.823 476.771 938.436 475.889 938.436 474.778z" class="f"/><path d="M951.371 484.037c1.241-0.806 2.549-1.376 3.92-1.712v-3.969c0.196-0.196 0.531-0.384 1.005-0.563 0.474-0.179 0.98-0.343 1.52-0.49 0.538-0.147 1.069-0.285 1.592-0.417 0.522-0.13 0.947-0.228 1.274-0.294h1.666v6.223h6.468V486h-6.468v12.622c0 2.015 0.253 3.413 0.76 4.192 0.506 0.779 1.347 1.169 2.523 1.169 0.588 0 1.249-0.041 1.984-0.123 0.734-0.081 1.412-0.236 2.033-0.465l0.343 1.617c-0.294 0.294-0.728 0.605-1.298 0.931 -0.572 0.327-1.226 0.637-1.96 0.931 -0.735 0.294-1.536 0.539-2.401 0.735 -0.866 0.196-1.772 0.294-2.72 0.294 -2.124 0-3.708-0.553-4.753-1.658 -1.046-1.105-1.568-2.895-1.568-5.366V486h-3.92V484.037z" class="f"/><path d="M1002.575 502.463c-0.163 0.719-0.457 1.405-0.882 2.058 -0.425 0.654-0.931 1.233-1.519 1.739 -0.588 0.507-1.258 0.907-2.009 1.201 -0.752 0.294-1.553 0.441-2.401 0.441 -3.234 0-5.692-1.021-7.374-3.063 -1.684-2.041-2.524-5.169-2.524-9.383 0-2.156 0.295-4.042 0.883-5.66 0.588-1.617 1.412-2.98 2.475-4.091 1.061-1.11 2.343-1.943 3.846-2.499 1.503-0.555 3.169-0.833 4.998-0.833 0.588 0 1.086 0.017 1.495 0.049 0.408 0.033 0.783 0.074 1.127 0.123 0.343 0.049 0.669 0.131 0.979 0.245 0.311 0.115 0.662 0.237 1.054 0.367v-8.67l-3.724-0.395v-1.862c0.457-0.196 1.085-0.375 1.886-0.539 0.801-0.163 1.642-0.318 2.523-0.465 0.883-0.147 1.748-0.286 2.598-0.417 0.849-0.13 1.551-0.245 2.106-0.343h1.666v33.369l3.234 0.392v1.715c-0.458 0.229-1.046 0.441-1.764 0.637 -0.72 0.196-1.471 0.376-2.254 0.539 -0.784 0.164-1.544 0.301-2.279 0.417 -0.734 0.114-1.347 0.204-1.837 0.27h-1.666l-0.441-5.341H1002.575zM998.116 503.982c1.144 0 2.107-0.359 2.892-1.078 0.784-0.718 1.355-1.943 1.715-3.675v-13.181c-0.425-0.261-0.955-0.473-1.593-0.637 -0.637-0.163-1.429-0.245-2.376-0.245 -1.896 0-3.251 0.857-4.067 2.572 -0.816 1.715-1.225 4.207-1.225 7.473 0 2.646 0.358 4.77 1.078 6.37C995.258 503.183 996.45 503.982 998.116 503.982z" class="f"/><path d="M1015.511 495.064c0-1.992 0.302-3.781 0.907-5.366 0.604-1.584 1.47-2.931 2.597-4.042 1.127-1.11 2.49-1.96 4.092-2.548 1.6-0.588 3.413-0.882 5.438-0.882 2.286 0 4.255 0.318 5.904 0.956 1.649 0.637 3.006 1.519 4.067 2.646s1.838 2.483 2.327 4.067c0.49 1.585 0.735 3.308 0.735 5.169 0 1.993-0.294 3.781-0.882 5.366s-1.445 2.932-2.572 4.042c-1.127 1.111-2.499 1.96-4.116 2.548s-3.438 0.882-5.464 0.882c-2.222 0-4.148-0.318-5.781-0.956 -1.635-0.637-2.989-1.519-4.067-2.646s-1.879-2.482-2.401-4.067C1015.772 498.65 1015.511 496.926 1015.511 495.064zM1023.106 495.064c0 1.47 0.089 2.817 0.27 4.042 0.179 1.225 0.497 2.262 0.955 3.111 0.457 0.85 1.078 1.512 1.862 1.985 0.784 0.474 1.796 0.71 3.038 0.71 0.718 0 1.372-0.171 1.96-0.515 0.588-0.343 1.094-0.898 1.519-1.666 0.425-0.767 0.743-1.78 0.956-3.038 0.212-1.257 0.318-2.8 0.318-4.63 0-1.502-0.091-2.858-0.27-4.067 -0.18-1.208-0.49-2.237-0.932-3.087 -0.44-0.849-1.037-1.511-1.788-1.985 -0.752-0.473-1.699-0.71-2.842-0.71 -0.85 0-1.585 0.171-2.205 0.515 -0.621 0.343-1.144 0.899-1.568 1.666 -0.425 0.768-0.743 1.781-0.955 3.038C1023.212 491.692 1023.106 493.235 1023.106 495.064z" class="f"/><path d="M1067.206 503.198c-0.263 0.556-0.679 1.12-1.25 1.691 -0.572 0.572-1.274 1.078-2.107 1.519 -0.833 0.441-1.797 0.801-2.891 1.078 -1.095 0.277-2.278 0.417-3.553 0.417 -2.025 0-3.821-0.302-5.39-0.906s-2.875-1.47-3.92-2.597c-1.046-1.127-1.838-2.475-2.377-4.042s-0.809-3.332-0.809-5.292c0-4.181 1.095-7.366 3.283-9.555 2.188-2.188 5.227-3.283 9.114-3.283 1.666 0 3.226 0.229 4.68 0.686 1.453 0.458 2.662 1.209 3.626 2.254 0.963 1.046 1.633 2.418 2.009 4.116 0.375 1.699 0.351 3.773-0.073 6.223h-15.043c0.032 2.581 0.693 4.639 1.984 6.174 1.29 1.536 3.192 2.303 5.708 2.303 1.078 0 2.197-0.163 3.356-0.49 1.159-0.326 2.066-0.751 2.72-1.274L1067.206 503.198zM1057.084 485.02c-0.649 0-1.226 0.115-1.729 0.343 -0.504 0.229-0.942 0.646-1.315 1.25 -0.374 0.605-0.674 1.421-0.9 2.45 -0.228 1.029-0.39 2.328-0.487 3.896h7.84c0.229-2.548 0.083-4.508-0.437-5.88C1059.535 485.706 1058.545 485.02 1057.084 485.02z" class="f"/><path d="M1084.11 501.974c0-0.849-0.303-1.584-0.907-2.205 -0.604-0.62-1.355-1.192-2.254-1.715 -0.898-0.522-1.879-1.045-2.939-1.568 -1.063-0.522-2.042-1.135-2.94-1.837 -0.898-0.702-1.649-1.527-2.254-2.475 -0.604-0.947-0.906-2.107-0.906-3.479 0-0.98 0.228-1.87 0.686-2.67 0.457-0.8 1.078-1.478 1.862-2.034 0.784-0.555 1.723-0.987 2.817-1.298 1.094-0.31 2.278-0.465 3.553-0.465 1.764 0 3.405 0.139 4.925 0.417 1.519 0.278 2.85 0.662 3.993 1.151 -0.131 1.046-0.392 2.165-0.784 3.356 -0.392 1.193-0.768 2.279-1.127 3.259h-1.666l-2.058-4.998c-0.393-0.163-0.801-0.27-1.226-0.319 -0.425-0.049-0.898-0.073-1.421-0.073 -0.979 0-1.724 0.286-2.229 0.857 -0.507 0.572-0.76 1.217-0.76 1.936 0 0.817 0.302 1.527 0.907 2.131 0.604 0.605 1.354 1.168 2.254 1.69 0.897 0.523 1.878 1.046 2.939 1.568 1.062 0.523 2.042 1.119 2.94 1.788 0.898 0.67 1.649 1.462 2.254 2.377s0.906 2.009 0.906 3.283c0 2.254-0.915 4.026-2.744 5.316 -1.829 1.291-4.279 1.936-7.35 1.936 -1.568 0-3.185-0.164-4.851-0.49s-3.104-0.784-4.313-1.372c0.065-1.176 0.343-2.368 0.833-3.577 0.49-1.208 1.013-2.286 1.568-3.234h1.666l2.4 5.341c0.359 0.262 0.76 0.417 1.201 0.466 0.44 0.049 0.857 0.073 1.249 0.073 0.947 0 1.813-0.277 2.597-0.833C1083.718 503.721 1084.11 502.954 1084.11 501.974z" class="f"/><path d="M1097.829 503.835c0-1.176 0.382-2.123 1.145-2.842 0.763-0.718 1.762-1.078 2.996-1.078s2.241 0.36 3.021 1.078c0.779 0.719 1.169 1.666 1.169 2.842s-0.39 2.115-1.169 2.817 -1.786 1.054-3.021 1.054 -2.233-0.352-2.996-1.054S1097.829 505.011 1097.829 503.835zM1100.867 496.632l-2.45-9.506v-13.622c0.326-0.196 0.816-0.334 1.471-0.417 0.653-0.081 1.339-0.123 2.058-0.123s1.396 0.042 2.033 0.123c0.638 0.082 1.135 0.221 1.495 0.417v13.622l-2.45 9.506H1100.867z" class="f"/><rect x="932.664" y="532.829" width="1102.562" height="19.724" class="g"/><path d="M1136.137 575.325c1.555 0 2.827 1.272 2.827 2.827v36.013c0 1.555-1.272 2.827-2.827 2.827H938.791c-1.555 0-2.827-1.272-2.827-2.827v-36.013c0-1.555 1.272-2.827 2.827-2.827H1136.137M1136.137 572.643H938.791c-3.037 0-5.508 2.471-5.508 5.508v36.013c0 3.037 2.471 5.508 5.508 5.508h197.347c3.037 0 5.508-2.471 5.508-5.508v-36.013C1141.645 575.114 1139.174 572.643 1136.137 572.643L1136.137 572.643z" class="e"/><path d="M960.246 599.705c0-0.563-0.199-0.996-0.594-1.301 -0.396-0.305-1.109-0.612-2.141-0.923s-1.852-0.656-2.461-1.037c-1.166-0.732-1.748-1.688-1.748-2.865 0-1.031 0.42-1.881 1.26-2.549 0.842-0.668 1.934-1.002 3.275-1.002 0.891 0 1.684 0.164 2.381 0.492s1.246 0.795 1.645 1.402c0.398 0.605 0.598 1.278 0.598 2.017h-2.215c0-0.662-0.211-1.181-0.629-1.556 -0.42-0.375-1.018-0.563-1.797-0.563 -0.727 0-1.291 0.154-1.693 0.464 -0.4 0.31-0.602 0.741-0.602 1.296 0 0.467 0.217 0.855 0.65 1.168s1.148 0.616 2.145 0.91c0.996 0.295 1.797 0.631 2.4 1.01 0.604 0.377 1.045 0.812 1.326 1.301s0.422 1.062 0.422 1.718c0 1.066-0.408 1.915-1.227 2.544 -0.816 0.631-1.926 0.945-3.326 0.945 -0.926 0-1.777-0.172-2.553-0.514 -0.777-0.344-1.381-0.816-1.811-1.42 -0.432-0.604-0.646-1.307-0.646-2.109h2.225c0 0.727 0.24 1.289 0.721 1.688s1.168 0.598 2.064 0.598c0.773 0 1.355-0.156 1.744-0.471C960.05 600.636 960.246 600.221 960.246 599.705z" class="e"/><path d="M973.781 590.204v8.552c0 1.359-0.436 2.437-1.307 3.229 -0.869 0.795-2.027 1.191-3.475 1.191 -1.465 0-2.629-0.391-3.49-1.174 -0.861-0.781-1.291-1.867-1.291-3.256v-8.543h2.215v8.547c0 0.854 0.217 1.507 0.65 1.957s1.072 0.676 1.916 0.676c1.711 0 2.566-0.9 2.566-2.703v-8.477H973.781z" class="e"/><path d="M976.154 603.001v-12.797h4.385c1.447 0 2.549 0.29 3.305 0.87s1.135 1.444 1.135 2.593c0 0.586-0.158 1.113-0.475 1.582s-0.779 0.832-1.389 1.09c0.691 0.188 1.227 0.541 1.604 1.059 0.379 0.52 0.566 1.142 0.566 1.868 0 1.201-0.385 2.124-1.154 2.769 -0.771 0.645-1.875 0.967-3.311 0.967H976.154zM978.377 595.592h2.18c0.691 0 1.232-0.156 1.623-0.47 0.389-0.313 0.584-0.758 0.584-1.332 0-0.633-0.18-1.09-0.541-1.371 -0.359-0.281-0.922-0.422-1.684-0.422h-2.162V595.592zM978.377 597.227v3.981h2.471c0.697 0 1.242-0.172 1.635-0.517 0.393-0.344 0.588-0.822 0.588-1.435 0-1.324-0.68-2.001-2.039-2.03H978.377z" class="e"/><path d="M990.392 590.204l3.691 9.809 3.682-9.809h2.875v12.797h-2.215v-4.219l0.219-5.643 -3.779 9.861h-1.59l-3.771-9.853 0.221 5.634v4.219h-2.215v-12.797H990.392z" class="e"/><path d="M1005.615 603.001h-2.215v-12.797h2.215V603.001z" class="e"/><path d="M1017.339 591.997h-3.99v11.004h-2.207v-11.004h-3.955v-1.793h10.152V591.997z" class="e"/><path d="M1030.136 600.021h-4.957l-1.037 2.979h-2.313l4.834-12.797h1.996l4.842 12.797h-2.32L1030.136 600.021zM1025.802 598.229h3.709l-1.854-5.309L1025.802 598.229z" class="e"/><path d="M1049.586 603.001h-2.223l-5.705-9.079v9.079h-2.223v-12.797h2.223l5.723 9.114v-9.114h2.205V603.001z" class="e"/><path d="M1059.693 597.288h-5.256v3.92h6.145v1.793h-8.367v-12.797h8.305v1.793h-6.082v3.533h5.256V597.288z" class="e"/><path d="M1072.429 599.837l1.969-9.633h2.205l-2.953 12.797h-2.127l-2.434-9.343 -2.488 9.343h-2.135l-2.953-12.797h2.205l1.986 9.615 2.443-9.615h1.863L1072.429 599.837z" class="e"/><path d="M1084.935 601.208h5.811v1.793h-8.033v-12.797h2.223V601.208z" class="e"/><path d="M1094.797 603.001h-2.215v-12.797h2.215V603.001z" class="e"/><path d="M1107.681 603.001h-2.223l-5.705-9.079v9.079h-2.223v-12.797h2.223l5.723 9.114v-9.114h2.205V603.001z" class="e"/><path d="M1113.984 597.473l-1.451 1.538v3.99h-2.223v-12.797h2.223v6.003l1.23-1.521 3.744-4.482h2.689l-4.754 5.669 5.027 7.128h-2.637L1113.984 597.473z" class="e"/><rect x="933" y="329.043" width="1346" height="836.627" fill="none"/><circle cx="957.687" cy="689.333" r="25" fill="#FFD105"/><rect x="951.187" y="718.124" width="13" height="19.724" class="h"/><rect x="1004.083" y="664.333" width="242.425" height="20" class="i"/><rect x="1004.083" y="693.097" width="121.213" height="20" class="j"/><rect x="1059.864" y="722.861" width="65.431" height="12" class="h"/><rect x="1133.364" y="722.861" width="32.716" height="12" class="h"/><rect x="1173.864" y="722.861" width="87.636" height="12" class="h"/><rect x="1254.364" y="670" width="121.213" height="14.333" class="h"/><rect x="1004.083" y="722.861" width="48.132" height="12" class="d"/><line x1="932.664" y1="754.705" x2="2279" y2="754.705" class="k"/><circle cx="957.687" cy="801.996" r="25" fill="#ED1C24"/><rect x="951.187" y="830.787" width="13" height="19.724" class="h"/><rect x="1004.083" y="776.996" width="963.001" height="20" class="i"/><rect x="1004.083" y="805.759" width="281.341" height="20" class="j"/><rect x="1059.864" y="835.524" width="65.431" height="12" class="h"/><rect x="1133.364" y="835.524" width="32.716" height="12" class="h"/><rect x="1173.864" y="835.524" width="87.636" height="12" class="h"/><rect x="1974.94" y="782.663" width="121.213" height="14.333" class="h"/><rect x="1004.083" y="835.524" width="48.132" height="12" class="d"/><line x1="932.664" y1="867.368" x2="2279" y2="867.368" class="k"/><circle cx="957.687" cy="914.658" r="25" fill="#54B948"/><rect x="951.187" y="943.449" width="13" height="19.724" class="h"/><rect x="1004.083" y="889.658" width="302.473" height="20" class="i"/><rect x="1004.083" y="918.422" width="181.261" height="20" class="j"/><rect x="1059.864" y="948.186" width="65.431" height="12" class="h"/><rect x="1133.364" y="948.186" width="32.716" height="12" class="h"/><rect x="1173.864" y="948.186" width="87.636" height="12" class="h"/><rect x="1314.412" y="895.325" width="81.181" height="14.333" class="h"/><rect x="1004.083" y="948.186" width="48.132" height="12" class="d"/><line x1="932.664" y1="980.03" x2="2279" y2="980.03" class="k"/><circle cx="957.687" cy="1027.321" r="25" fill="#8967AC"/><rect x="951.187" y="1056.112" width="13" height="19.724" class="h"/><rect x="1004.083" y="1002.321" width="272.449" height="20" class="i"/><rect x="1004.083" y="1031.084" width="321.373" height="20" class="j"/><rect x="1059.864" y="1060.849" width="65.431" height="12" class="h"/><rect x="1133.364" y="1060.849" width="32.716" height="12" class="h"/><rect x="1173.864" y="1060.849" width="87.636" height="12" class="h"/><rect x="1284.388" y="1007.988" width="141.229" height="14.333" class="h"/><rect x="1004.083" y="1060.849" width="48.132" height="12" class="d"/><line x1="932.664" y1="1092.693" x2="2279" y2="1092.693" class="k"/><circle cx="957.687" cy="1139.984" r="25" fill="#008BCE"/><rect x="1004.083" y="1114.984" width="302.473" height="20" class="i"/><rect x="1004.083" y="1143.747" width="81.181" height="20" class="j"/><rect x="1314.412" y="1120.65" width="71.173" height="14.333" class="h"/><rect x="877.823" y="1134.669" width="1458.588" height="30" class="l"/><rect x="2166" y="1144.501" width="101.024" height="11" class="m"/><rect x="936.997" y="1144.501" width="188.298" height="11" class="m"/><rect x="2083" y="1144.501" width="58.016" height="11" class="m"/><rect x="2004.502" y="1144.501" width="58.016" height="11" class="m"/><rect x="1913.498" y="1144.501" width="71.516" height="11" class="m"/><rect x="1856.5" y="1144.501" width="38.514" height="11" class="m"/><rect x="1790.5" y="1144.501" width="46.014" height="11" class="m"/><rect x="1672.5" y="1134.669" width="94.014" height="30.663" class="a"/><rect x="1683.499" y="1144.501" width="72.514" height="11" class="l"/><rect x="340.388" y="508.242" width="270.924" height="14.091" fill="#F5F5F5"/><rect x="457" y="512.667" width="39" height="5.542" class="n"/><rect x="568.333" y="512.667" width="39" height="5.542" class="n"/><rect x="373.5" y="512.667" width="25.167" height="5.542" class="n"/><circle cx="346.75" cy="515.5" r="2.125" class="o"/><circle cx="352" cy="515.5" r="2.125" class="o"/><circle cx="357.25" cy="515.5" r="2.125" class="o"/><circle cx="362.5" cy="515.5" r="2.125" class="o"/><circle cx="367.5" cy="515.5" r="2.125" class="o"/><path d="M2327.027 256H884.972c-1.597 0-5.496 0-6.891 0v37.441h1455.836V256C2332.208 256 2330.834 256 2327.027 256" class="p"/><path d="M994.542 293.551c10.151 0.003 9.729-26.113 18.191-26.113l96.795 0.009c10.149-0.007 9.729 26.111 18.193 26.111L994.542 293.551z" fill="#D6D6D6"/><path d="M879.476 293.723c10.153 0.003 9.73-26.111 18.193-26.111l96.793 0.008c10.152-0.006 9.73 26.11 18.193 26.11L879.476 293.723z" class="q"/><path d="M2269.434 274.467c0 4.271-3.461 7.733-7.734 7.733 -4.268 0-7.732-3.462-7.732-7.733 0-4.269 3.465-7.733 7.732-7.733C2265.973 266.734 2269.434 270.198 2269.434 274.467" fill="#70B34A"/><path d="M2295.619 274.467c0 4.271-3.467 7.733-7.734 7.733 -4.271 0-7.736-3.462-7.736-7.733 0-4.269 3.465-7.733 7.736-7.733C2292.152 266.734 2295.619 270.198 2295.619 274.467" fill="#DDAA54"/><path d="M2321.926 274.467c0 4.271-3.467 7.733-7.738 7.733 -4.27 0-7.732-3.462-7.732-7.733 0-4.269 3.463-7.733 7.732-7.733C2318.459 266.734 2321.926 270.198 2321.926 274.467" fill="#D5655D"/><g opacity="0.9"><defs><rect x="984.269" y="276.913" width="10.061" height="10.059"/></defs><clipPath><use xlink:href="#SVGID_1_"/></clipPath><path d="M994.33 281.942c0-2.779-2.254-5.029-5.03-5.029 -2.778 0-5.03 2.251-5.03 5.029 0 2.779 2.252 5.029 5.03 5.029C992.076 286.972 994.33 284.722 994.33 281.942" style="clip-path:url(#SVGID_2_);fill:#D5D5D5"/></g><path d="M1110.083 281.942c0-2.779-2.252-5.029-5.029-5.029 -2.779 0-5.03 2.251-5.03 5.029 0 2.779 2.251 5.029 5.03 5.029C1107.832 286.972 1110.083 284.722 1110.083 281.942" class="g"/><rect x="878.081" y="293.442" width="1455.837" height="35.601" class="q"/><path d="M927.947 318.58c0.56-0.547 6.024-6.282 6.024-6.282 0.296-0.294 0.446-0.674 0.446-1.054 0-0.384-0.15-0.765-0.446-1.056 0 0-5.465-5.737-6.024-6.281 -0.558-0.547-1.565-0.583-2.161 0 -0.595 0.581-0.643 1.393 0 2.108l5.014 5.23 -5.014 5.227c-0.643 0.714-0.595 1.527 0 2.109C926.381 319.161 927.389 319.125 927.947 318.58" class="p"/><path d="M903.77 303.906c-0.56 0.544-6.022 6.282-6.022 6.282 -0.3 0.29-0.449 0.672-0.449 1.056 0 0.38 0.15 0.76 0.449 1.054 0 0 5.463 5.736 6.022 6.284 0.558 0.542 1.564 0.579 2.162 0 0.595-0.582 0.642-1.395-0.001-2.11l-5.014-5.228 5.014-5.23c0.642-0.714 0.596-1.526 0.001-2.108C905.334 303.322 904.328 303.359 903.77 303.906" class="p"/><path d="M968.648 310.577h-2.82l-0.019-0.185c-0.421-3.976-3.755-6.972-7.751-6.972 -4.302 0-7.803 3.51-7.803 7.822 0 4.314 3.501 7.822 7.803 7.822 1.757 0 3.419-0.573 4.802-1.66l0.412-0.322 -1.908-2.045 -0.347 0.256c-0.864 0.636-1.89 0.973-2.959 0.973 -2.763 0-5.007-2.254-5.007-5.023s2.244-5.021 5.007-5.021c2.423 0 4.494 1.73 4.921 4.113l0.043 0.243H959.9l4.374 4.876L968.648 310.577z" class="p"/><path d="M2316.057 309.648h-16.146c-0.746 0-1.346 0.714-1.346 1.595 0 0.88 0.6 1.593 1.346 1.593h16.146c0.744 0 1.346-0.713 1.346-1.593C2317.402 310.362 2316.801 309.648 2316.057 309.648M2299.91 306.462h16.146c0.744 0 1.346-0.713 1.346-1.592 0-0.882-0.602-1.597-1.346-1.597h-16.146c-0.746 0-1.346 0.715-1.346 1.597C2298.564 305.749 2299.164 306.462 2299.91 306.462M2316.057 316.023h-16.146c-0.746 0-1.346 0.712-1.346 1.595 0 0.879 0.6 1.593 1.346 1.593h16.146c0.744 0 1.346-0.714 1.346-1.593C2317.402 316.735 2316.801 316.023 2316.057 316.023" class="p"/><path d="M2289.084 324.242H978.542c-1.047 0-1.903-0.765-1.903-1.704v-22.592c0-0.938 0.856-1.705 1.903-1.705h1310.542c1.045 0 1.902 0.767 1.902 1.705v22.592C2290.986 323.477 2290.129 324.242 2289.084 324.242" class="a"/><polygon points="2275.918 315.559 2281.375 319.814 2279.098 313.202 2284.744 309.219 2277.883 309.388 2275.918 302.671 2273.955 309.388 2267.09 309.219 2272.742 313.202 2270.465 319.814 " fill="#FBB03B"/><path d="M2408.876 235.294c0-35.786-29.009-64.793-64.794-64.793l-1475.929 2.167c-35.789 0-64.797 29.005-64.797 64.792l0.004 0.282h-0.004v1011.943h35.516 1534.489 35.516V237.743h-0.027L2408.876 235.294z" class="r"/><path d="M2506.445 1249.683h-0.622 -96.949c-0.029 0-0.059-0.001-0.089-0.001l-375.523 0.001h-356.465 -155.204l0 0 -815.183 0.002h-0.622c-31.534-0.029-47.553 4.195-47.553 4.195v31.027l2.066 0.091 52.361 2.461h100.337l1081.164-0.001h505.073 2.677 48.583l-0.004 0.001 5.849 0.002v-0.004h43.231l52.359-2.463 2.069-0.09v-31.028C2554 1253.879 2537.979 1249.656 2506.445 1249.683z" class="r"/><path d="M2510.031 1287.036l-18.271 0.423h-92.525 -877.642l0 0 -708.594 0.001h-92.526l-18.268-0.42 -42.198-1.699c0 0 8.058 10.475 52.656 12.42h100.337 1081.164 91.71l0 0h413.363 100.337c44.598-1.948 52.656-12.422 52.656-12.422L2510.031 1287.036z" class="r"/><rect x="876.822" y="254.747" width="1458.588" height="910.924" class="r"/><path d="M1458.935 1249.668c-0.021 0.428-0.037 0.857-0.037 1.292v4.762c0 13.005 10.544 23.545 23.548 23.545h247.341c13.006 0 23.545-10.54 23.545-23.545v-4.762c0-0.435-0.013-0.864-0.034-1.292H1458.935z" class="r"/><path d="M576.715 436.704c35.917 0 45.786 20.475 45.786 40.266l-1.079 547.371c0 19.406-4.17 40.024-44.817 40.024H375.412c-45.869 0-45.487-29.077-45.487-40.994l-0.381-545.832c0-19.572 16.456-40.453 42.479-40.453L576.715 436.704z" class="r"/><path d="M625.482 596.508c0 0.666-0.824 1.575-1.705 1.575h-0.288c-0.884 0-1.026-0.909-1.026-1.575v-40.456c0-0.664 0.143-1.38 1.026-1.38h0.288c0.88 0 1.705 0.716 1.705 1.38V596.508z" class="a"/><path d="M328.57 539.064c0 0.483-0.27 0.751-0.727 0.751h-0.15c-0.458 0-0.514-0.268-0.514-0.751v-29.501c0-0.483 0.056-1.321 0.514-1.321h0.15c0.456 0 0.727 0.838 0.727 1.321V539.064z" class="a"/><path d="M328.57 654.411c0 0.662-0.27 1.015-0.727 1.015h-0.15c-0.458 0-0.514-0.352-0.514-1.015v-40.359c0-0.662 0.056-1.342 0.514-1.342h0.15c0.456 0 0.727 0.68 0.727 1.342V654.411z" class="a"/><path d="M328.57 596.677c0 0.661-0.27 1.406-0.727 1.406h-0.15c-0.458 0-0.514-0.746-0.514-1.406v-40.358c0-0.663 0.056-1.646 0.514-1.646h0.15c0.456 0 0.727 0.984 0.727 1.646V596.677z" class="a"/><rect x="340.388" y="508.241" width="270.924" height="482.879" class="r"/><circle cx="476.363" cy="1027.452" r="19.468" style="fill:none;stroke-width:5.3295;stroke:#FFF"/><path d="M452.647 474.17c0 2.091-1.698 3.788-3.789 3.788 -2.091 0-3.788-1.697-3.788-3.788 0-2.093 1.697-3.788 3.788-3.788C450.949 470.383 452.647 472.077 452.647 474.17" class="a"/><path d="M506.974 474.277c0-1.148-0.642-2.034-1.431-2.034h-35.307c-0.79 0-1.43 0.886-1.43 2.034 0 1.146 0.64 2.035 1.43 2.035h35.307C506.332 476.312 506.974 475.423 506.974 474.277z" class="a"/></svg>