<svg viewBox="0 0 2662.045 1497.401" xmlns="http://www.w3.org/2000/svg"><path d="m878.081 329.043h1457.328v836.627h-1457.328z" fill="#fff"/><path d="m962.928 369.934c2.315 4.632 7.947 6.509 12.578 4.193s6.509-7.947 4.193-12.578l-4.193-8.385v10.482l1.834-1.573.262.524c1.737 3.474.328 7.697-3.145 9.434-3.474 1.736-7.697.329-9.434-3.145l-5.241-10.482c-.289-.579-.055-1.283.524-1.572l-4.193-8.386 4.717-1.049-12.578-9.433v15.722l3.668-3.145 4.192 8.385c.58-.289 1.283-.054 1.573.525z" fill="#ef4923"/><path d="m989.705 368.051v-19.724h6.097c.983 0 1.867.108 2.648.325.78.217 1.442.548 1.984.996.542.447.955 1.009 1.239 1.687.285.677.427 1.477.427 2.398 0 .452-.047.885-.142 1.301-.096.415-.244.804-.447 1.165s-.461.688-.773.982c-.312.293-.685.534-1.117.725.505.143.935.362 1.286.655.352.294.637.635.854 1.023s.375.81.475 1.267c.1.456.148.924.148 1.402 0 1.914-.525 3.359-1.578 4.335-1.052.976-2.576 1.463-4.572 1.463zm3.983-11.474h2.072c.795 0 1.384-.205 1.768-.616s.576-1.014.576-1.809c0-.894-.181-1.535-.542-1.924-.361-.388-.948-.582-1.761-.582h-2.113zm0 2.899v5.27h2.546c.389 0 .721-.063.996-.189s.501-.305.678-.535c.176-.23.305-.499.386-.806.081-.308.122-.646.122-1.017 0-.84-.156-1.504-.468-1.991-.311-.487-.838-.731-1.578-.731h-2.682z" fill="#ef4923"/><path d="m1015.072 364.014h-5.432l-1.058 4.037h-4.213l6.164-19.724h3.645l6.204 19.724h-4.254zm-4.565-3.32h3.686l-1.843-7.03z" fill="#ef4923"/><path d="m1027.772 368.051h-3.983v-19.724h3.983z" fill="#ef4923"/><path d="m1044.888 351.645h-4.877v16.405h-3.997v-16.405h-4.796v-3.319h13.67z" fill="#ef4923"/><path d="m1061.613 361.48c-.1 2.249-.73 3.951-1.896 5.107-1.164 1.156-2.809 1.733-4.931 1.733-1.093 0-2.068-.181-2.927-.541-.858-.361-1.58-.899-2.167-1.612-.587-.714-1.036-1.597-1.349-2.648-.311-1.053-.467-2.265-.467-3.638v-3.359c0-1.373.16-2.588.481-3.645.32-1.057.783-1.941 1.389-2.655.605-.713 1.337-1.253 2.195-1.619.857-.366 1.824-.549 2.898-.549 2.15 0 3.782.601 4.897 1.802s1.75 2.926 1.903 5.175h-3.996c-.018-.705-.079-1.294-.184-1.768-.104-.474-.264-.851-.48-1.131-.217-.28-.499-.478-.847-.596-.348-.117-.778-.176-1.294-.176-.533 0-.986.09-1.361.271s-.68.472-.914.874c-.235.402-.408.93-.521 1.585s-.17 1.457-.17 2.405v3.386c0 .921.045 1.707.136 2.358.091.65.249 1.181.474 1.592.227.411.524.711.894.9.37.19.84.285 1.409.285.487 0 .905-.052 1.253-.156s.635-.286.86-.549c.226-.262.397-.623.515-1.084.117-.46.189-1.043.217-1.747z" fill="#ef4923"/><path d="m1069.435 364.745h6.99v3.306h-10.973v-19.724h3.982v16.418z" fill="#ef4923"/><path d="m1084.275 368.051h-3.982v-19.724h3.982z" fill="#ef4923"/><path d="m1102.379 361.48c-.1 2.249-.73 3.951-1.896 5.107-1.164 1.156-2.809 1.733-4.932 1.733-1.092 0-2.068-.181-2.926-.541-.857-.361-1.58-.899-2.168-1.612-.586-.714-1.035-1.597-1.348-2.648-.311-1.053-.467-2.265-.467-3.638v-3.359c0-1.373.16-2.588.48-3.645s.783-1.941 1.389-2.655c.605-.713 1.336-1.253 2.195-1.619.857-.366 1.824-.549 2.898-.549 2.15 0 3.781.601 4.898 1.802 1.115 1.201 1.748 2.926 1.902 5.175h-3.996c-.017-.705-.08-1.294-.183-1.768-.104-.474-.264-.851-.48-1.131-.217-.28-.498-.478-.846-.596-.348-.117-.779-.176-1.295-.176-.533 0-.986.09-1.361.271s-.68.472-.914.874-.408.93-.521 1.585-.17 1.457-.17 2.405v3.386c0 .921.045 1.707.137 2.358.09.65.248 1.181.473 1.592.227.411.523.711.895.9.371.19.84.285 1.408.285.488 0 .906-.052 1.254-.156s.635-.286.859-.549c.227-.262.398-.623.516-1.084.117-.46.189-1.043.217-1.747z" fill="#ef4923"/><path d="m1111.773 360.437-1.571 1.978v5.636h-3.983v-19.724h3.983v8.603l1.26-2.127 3.671-6.476h4.877l-5.65 8.67 5.744 11.054h-4.728z" fill="#ef4923"/><path d="m1142.193 348.327h367v19.724h-367z" fill="#e0e0e0"/><path d="m2203 350.327h56.225v14h-56.225z" fill="#cecece"/><path d="m2033.224 350.327h84.276v14h-84.276z" fill="#cecece"/><path d="m2121.976 350.327h77v14h-77z" fill="#5f99cf" opacity=".5"/><path d="m878.081 639.042h1455.837v3h-1455.837z" fill="#ff4500"/><path d="m878.081 386h1455.837v3h-1455.837z" fill="#ff4500"/><g fill="#333"><path d="m942.111 444.448c.358.36.865.694 1.519 1.004.653.311 1.52.465 2.597.465 1.797 0 3.291-.465 4.484-1.396 1.191-.931 1.788-2.229 1.788-3.896 0-1.208-.385-2.221-1.151-3.038-.769-.816-1.739-1.568-2.916-2.254-1.176-.686-2.434-1.363-3.772-2.033-1.34-.669-2.598-1.462-3.773-2.376s-2.148-2.001-2.915-3.259c-.769-1.257-1.151-2.817-1.151-4.679 0-1.601.294-2.989.882-4.165s1.396-2.148 2.426-2.916c1.028-.767 2.245-1.339 3.65-1.715 1.403-.375 2.923-.563 4.557-.563 1.992 0 3.847.14 5.562.417 1.715.278 3.259.71 4.631 1.299-.033.654-.091 1.405-.172 2.254-.082.85-.188 1.69-.318 2.523-.131.833-.27 1.617-.417 2.352-.146.735-.286 1.348-.416 1.837h-2.009l-2.265-6.713c-.394-.196-.976-.375-1.747-.539-.771-.163-1.566-.245-2.386-.245-1.379 0-2.544.36-3.495 1.078-.951.719-1.427 1.764-1.427 3.136 0 1.242.393 2.295 1.179 3.16.786.866 1.77 1.659 2.949 2.376 1.18.719 2.467 1.43 3.859 2.132 1.392.703 2.678 1.511 3.857 2.425 1.18.915 2.163 1.984 2.949 3.209s1.18 2.736 1.18 4.533c0 3.267-1.103 5.79-3.308 7.57-2.204 1.781-5.447 2.67-9.726 2.67-1.046 0-2.1-.066-3.161-.196-1.062-.131-2.066-.311-3.014-.539s-1.788-.473-2.523-.735c-.734-.261-1.282-.539-1.642-.833.032-.751.114-1.56.245-2.426.131-.865.27-1.731.417-2.597.146-.865.302-1.691.465-2.475s.326-1.47.49-2.058h2.009z"/><path d="m963.572 436.265c0-1.992.302-3.781.907-5.366.604-1.584 1.47-2.931 2.597-4.042 1.127-1.11 2.49-1.96 4.092-2.548 1.6-.588 3.413-.882 5.438-.882 2.286 0 4.255.318 5.904.956 1.649.637 3.006 1.519 4.067 2.646s1.838 2.483 2.327 4.067c.49 1.585.735 3.308.735 5.169 0 1.993-.294 3.781-.882 5.366s-1.445 2.932-2.572 4.042c-1.127 1.111-2.499 1.96-4.116 2.548s-3.438.882-5.464.882c-2.222 0-4.148-.318-5.781-.956-1.635-.637-2.989-1.519-4.067-2.646s-1.879-2.482-2.401-4.067c-.522-1.584-.784-3.308-.784-5.169zm7.596 0c0 1.47.089 2.817.27 4.042.179 1.225.497 2.262.955 3.111.457.85 1.078 1.512 1.862 1.985.784.474 1.796.71 3.038.71.718 0 1.372-.171 1.96-.515.588-.343 1.094-.898 1.519-1.666.425-.767.743-1.78.956-3.038.212-1.257.318-2.8.318-4.63 0-1.502-.091-2.858-.27-4.067-.18-1.208-.49-2.237-.932-3.087-.44-.849-1.037-1.511-1.788-1.985-.752-.473-1.699-.71-2.842-.71-.85 0-1.585.171-2.205.515-.621.343-1.144.899-1.568 1.666-.425.768-.743 1.781-.955 3.038-.213 1.258-.318 2.802-.318 4.631z"/><path d="m1020.56 448.515h-12.25v-1.862c.326-.196.693-.401 1.103-.614.407-.213.857-.401 1.347-.565v-9.775c0-1.507-.041-2.784-.122-3.832-.082-1.047-.254-1.907-.515-2.579-.262-.671-.621-1.163-1.078-1.474-.458-.311-1.046-.467-1.764-.467-1.046 0-1.952.401-2.72 1.204s-1.331 1.859-1.69 3.168v13.755c.882.262 1.698.655 2.45 1.179v1.862h-12.74v-1.862c.457-.23.963-.443 1.52-.64.555-.197 1.127-.377 1.715-.542v-18.024l-3.234-.394v-1.862c.522-.228 1.168-.441 1.936-.637s1.56-.368 2.377-.515c.815-.147 1.608-.27 2.376-.367.768-.098 1.413-.179 1.936-.245h1.666v5.537h.049c.522-1.535 1.445-2.842 2.769-3.92 1.323-1.078 2.916-1.617 4.777-1.617.784 0 1.552.082 2.304.245.751.164 1.445.465 2.082.906s1.184 1.054 1.642 1.837c.457.784.784 1.797.979 3.038.589-1.796 1.568-3.25 2.94-4.361 1.372-1.11 3.038-1.666 4.998-1.666 1.208 0 2.278.156 3.209.467.932.311 1.716.859 2.353 1.645s1.118 1.85 1.445 3.192c.326 1.342.49 3.044.49 5.107v11.637c1.11.197 2.188.59 3.234 1.179v1.862h-12.74v-1.862c.751-.491 1.567-.884 2.45-1.179v-10.66c0-2.554-.237-4.438-.711-5.65-.474-1.211-1.494-1.817-3.063-1.817-1.176 0-2.1.442-2.769 1.327-.67.884-1.168 2.063-1.494 3.537v13.264c.555.164 1.053.345 1.494.541.441.197.857.41 1.25.639v1.86z"/><path d="m1060.837 444.398c-.263.556-.679 1.12-1.25 1.691-.572.572-1.274 1.078-2.107 1.519s-1.797.801-2.891 1.078c-1.095.277-2.278.417-3.553.417-2.025 0-3.821-.302-5.39-.906s-2.875-1.47-3.92-2.597c-1.046-1.127-1.838-2.475-2.377-4.042s-.809-3.332-.809-5.292c0-4.181 1.095-7.366 3.283-9.555 2.188-2.188 5.227-3.283 9.114-3.283 1.666 0 3.226.229 4.68.686 1.453.458 2.662 1.209 3.626 2.254.963 1.046 1.633 2.418 2.009 4.116.375 1.699.351 3.773-.073 6.223h-15.043c.032 2.581.693 4.639 1.984 6.174 1.29 1.536 3.192 2.303 5.708 2.303 1.078 0 2.197-.163 3.356-.49 1.159-.326 2.066-.751 2.72-1.274zm-10.122-18.178c-.649 0-1.226.115-1.729.343-.504.229-.942.646-1.315 1.25-.374.605-.674 1.421-.9 2.45-.228 1.029-.39 2.328-.487 3.896h7.84c.229-2.548.083-4.508-.437-5.88-.521-1.373-1.511-2.059-2.972-2.059z"/><path d="m1090.088 423.427c2.123 0 3.888.22 5.292.662 1.404.441 2.467.988 3.186 1.641 1.535-1.666 3.299-2.825 5.292-3.479.229.164.457.4.686.71.229.311.425.646.588 1.005.163.36.295.719.393 1.078.098.36.146.654.146.882l-.637 1.176h-5.145c.358.458.693 1.054 1.004 1.789s.466 1.609.466 2.622c0 1.078-.229 2.091-.687 3.038-.457.948-1.151 1.789-2.082 2.523s-2.107 1.315-3.528 1.739c-1.421.425-3.079.637-4.974.637-.556 0-1.053-.008-1.494-.024-.44-.016-.825-.057-1.151-.123-.131.196-.27.433-.417.71-.146.278-.22.547-.22.809 0 .556.392.997 1.176 1.323.784.327 1.78.621 2.989.882 1.208.262 2.506.556 3.896.882 1.388.327 2.687.759 3.896 1.298 1.208.539 2.221 1.242 3.038 2.107.815.866 1.24 1.985 1.273 3.356.032 1.306-.294 2.466-.979 3.479-.687 1.012-1.626 1.87-2.818 2.573-1.192.702-2.597 1.241-4.214 1.617-1.616.375-3.34.563-5.169.563-2.156 0-3.994-.172-5.513-.515s-2.753-.809-3.699-1.396c-.948-.588-1.642-1.258-2.083-2.009-.44-.751-.661-1.536-.661-2.352 0-.915.179-1.699.539-2.352.358-.654.865-1.225 1.519-1.715.653-.49 1.413-.898 2.278-1.225.865-.326 1.821-.621 2.867-.882-.49-.13-.964-.294-1.421-.49-.458-.196-.866-.433-1.226-.71-.359-.277-.653-.604-.882-.98s-.343-.809-.343-1.299c0-.424.13-.84.392-1.25.262-.408.604-.784 1.029-1.127.424-.343.882-.653 1.372-.931.49-.277.979-.514 1.47-.71-2.058-.457-3.691-1.347-4.9-2.67-1.208-1.323-1.813-3.013-1.813-5.071 0-2.45 1.012-4.361 3.038-5.733 2.025-1.372 4.768-2.058 8.231-2.058zm6.175 28.812c0-.882-.27-1.593-.809-2.132s-1.233-.98-2.083-1.323-1.805-.637-2.866-.882c-1.062-.245-2.115-.531-3.16-.858-.851.654-1.454 1.307-1.813 1.96s-.539 1.437-.539 2.352c0 1.502.515 2.671 1.544 3.504 1.028.833 2.475 1.25 4.336 1.25 1.829 0 3.186-.385 4.067-1.152.881-.768 1.323-1.674 1.323-2.719zm-10.389-20.776c0 1.699.286 2.989.857 3.871s1.69 1.323 3.356 1.323c1.601 0 2.703-.449 3.308-1.348.604-.898.907-2.181.907-3.846 0-1.764-.312-3.079-.932-3.945-.621-.865-1.715-1.298-3.283-1.298-1.634 0-2.743.425-3.332 1.274-.587.849-.881 2.173-.881 3.969z"/><path d="m1108.561 438.79c0-2.063.05-3.977.147-5.745s.147-3.634.147-5.599l-3.234-.393v-1.862c.522-.196 1.168-.392 1.936-.588.767-.196 1.56-.367 2.376-.514s1.609-.277 2.377-.392c.768-.114 1.412-.204 1.936-.27h1.666c0 2.45-.049 4.859-.147 7.228s-.146 4.696-.146 6.982c0 2.679.27 4.606.809 5.782s1.543 1.764 3.014 1.764c1.012 0 1.951-.384 2.817-1.154.865-.77 1.575-2.006 2.131-3.709v-12.874l-3.185-.393v-1.862c.49-.196 1.103-.392 1.838-.588.734-.196 1.502-.367 2.303-.514.8-.147 1.592-.277 2.376-.392.784-.114 1.471-.204 2.059-.27h1.666v21.609l3.233.392v1.715c-.458.196-1.028.392-1.715.588-.686.196-1.404.385-2.156.563-.751.18-1.494.326-2.229.441-.734.114-1.396.204-1.984.27h-1.666l-.343-5.831h-.196c-.163.686-.457 1.38-.882 2.083s-.973 1.34-1.642 1.911c-.67.572-1.462 1.038-2.376 1.396-.915.359-1.928.539-3.038.539-1.242 0-2.345-.156-3.308-.466-.964-.311-1.788-.86-2.475-1.645-.686-.786-1.209-1.841-1.568-3.167s-.541-3.005-.541-5.035z"/><path d="m1137.716 427.055c-.49-.13-.939-.294-1.348-.491-.409-.196-.825-.425-1.25-.688v-1.862h12.888v1.813c-.687.459-1.617.869-2.793 1.229l4.948 12.335.833 3.145h.099l.784-3.194 3.821-12.286c-.979-.197-1.879-.59-2.694-1.18v-1.862h9.457v1.862c-.687.459-1.617.852-2.793 1.179l-7.987 21.459c-.784 2.09-1.568 3.797-2.353 5.121-.783 1.323-1.567 2.376-2.352 3.16-.784.784-1.568 1.331-2.352 1.642-.784.31-1.568.515-2.353.613-.327-.294-.621-.662-.882-1.103-.262-.441-.49-.915-.687-1.421-.195-.507-.359-1.021-.489-1.544-.131-.522-.213-1.013-.245-1.47l.637-1.176h5.979c.294-.458.546-.948.759-1.47.212-.523.466-1.307.76-2.352z"/><path d="m1176.132 443.174c0-.849-.303-1.584-.907-2.205-.604-.62-1.355-1.192-2.254-1.715-.898-.522-1.879-1.045-2.939-1.568-1.063-.522-2.042-1.135-2.94-1.837s-1.649-1.527-2.254-2.475c-.604-.947-.906-2.107-.906-3.479 0-.98.228-1.87.686-2.67.457-.8 1.078-1.478 1.862-2.034.784-.555 1.723-.987 2.817-1.298 1.094-.31 2.278-.465 3.553-.465 1.764 0 3.405.139 4.925.417 1.519.278 2.85.662 3.993 1.151-.131 1.046-.392 2.165-.784 3.356-.392 1.193-.768 2.279-1.127 3.259h-1.666l-2.058-4.998c-.393-.163-.801-.27-1.226-.319s-.898-.073-1.421-.073c-.979 0-1.724.286-2.229.857-.507.572-.76 1.217-.76 1.936 0 .817.302 1.527.907 2.131.604.605 1.354 1.168 2.254 1.69.897.523 1.878 1.046 2.939 1.568 1.062.523 2.042 1.119 2.94 1.788.898.67 1.649 1.462 2.254 2.377s.906 2.009.906 3.283c0 2.254-.915 4.026-2.744 5.316-1.829 1.291-4.279 1.936-7.35 1.936-1.568 0-3.185-.164-4.851-.49s-3.104-.784-4.313-1.372c.065-1.176.343-2.368.833-3.577.49-1.208 1.013-2.286 1.568-3.234h1.666l2.4 5.341c.359.262.76.417 1.201.466.44.049.857.073 1.249.073.947 0 1.813-.277 2.597-.833.786-.556 1.179-1.323 1.179-2.303z"/><path d="m1227.092 448.515h-12.25v-1.862c.326-.196.693-.401 1.103-.614.407-.213.857-.401 1.347-.565v-9.775c0-1.507-.041-2.784-.122-3.832-.082-1.047-.254-1.907-.515-2.579-.262-.671-.621-1.163-1.078-1.474-.458-.311-1.046-.467-1.764-.467-1.046 0-1.952.401-2.72 1.204s-1.331 1.859-1.69 3.168v13.755c.882.262 1.698.655 2.45 1.179v1.862h-12.74v-1.862c.457-.23.963-.443 1.52-.64.555-.197 1.127-.377 1.715-.542v-18.024l-3.234-.394v-1.862c.522-.228 1.168-.441 1.936-.637s1.56-.368 2.377-.515c.815-.147 1.608-.27 2.376-.367.768-.098 1.413-.179 1.936-.245h1.666v5.537h.049c.522-1.535 1.445-2.842 2.769-3.92 1.323-1.078 2.916-1.617 4.777-1.617.784 0 1.552.082 2.304.245.751.164 1.445.465 2.082.906s1.184 1.054 1.642 1.837c.457.784.784 1.797.979 3.038.589-1.796 1.568-3.25 2.94-4.361 1.372-1.11 3.038-1.666 4.998-1.666 1.208 0 2.278.156 3.209.467.932.311 1.716.859 2.353 1.645s1.118 1.85 1.445 3.192c.326 1.342.49 3.044.49 5.107v11.637c1.11.197 2.188.59 3.234 1.179v1.862h-12.74v-1.862c.751-.491 1.567-.884 2.45-1.179v-10.66c0-2.554-.237-4.438-.711-5.65-.474-1.211-1.494-1.817-3.063-1.817-1.176 0-2.1.442-2.769 1.327-.67.884-1.168 2.063-1.494 3.537v13.264c.555.164 1.053.345 1.494.541.441.197.857.41 1.25.639v1.86z"/><path d="m1266.585 441.41c0 .719.008 1.34.024 1.862.016.523.057 1.078.122 1.666l3.381.49v1.715c-.392.196-.923.392-1.592.588-.67.196-1.372.385-2.107.563-.735.18-1.462.326-2.181.441-.719.114-1.355.204-1.911.27h-1.666c-.326-.751-.522-1.502-.588-2.254-.065-.751-.114-1.666-.146-2.744h-.245c-.164.654-.441 1.282-.833 1.886-.392.605-.891 1.144-1.494 1.617-.605.474-1.315.857-2.132 1.151s-1.732.441-2.744.441c-1.078 0-2.075-.164-2.989-.49-.915-.326-1.715-.784-2.4-1.372-.687-.588-1.226-1.298-1.617-2.131-.393-.833-.588-1.772-.588-2.818 0-1.47.277-2.678.833-3.626.555-.947 1.429-1.723 2.621-2.327s2.728-1.054 4.606-1.348 4.156-.506 6.835-.637c.262-2.809.147-4.867-.343-6.174-.49-1.306-1.552-1.96-3.185-1.96-1.014 0-1.944.164-2.793.49l-2.304 5.88h-2.155c-.263-.392-.515-.841-.76-1.348-.245-.506-.474-1.045-.687-1.617-.213-.571-.392-1.151-.539-1.739-.146-.588-.253-1.159-.318-1.715 1.241-.849 2.842-1.519 4.803-2.009 1.96-.49 4.033-.735 6.223-.735 1.862 0 3.381.204 4.557.612 1.176.409 2.099.964 2.769 1.666.669.703 1.135 1.527 1.396 2.475.262.948.393 1.96.393 3.038 0 1.96-.042 3.732-.123 5.316-.083 1.586-.123 3.211-.123 4.877zm-11.025 3.773c.687 0 1.274-.13 1.764-.392.49-.261.907-.571 1.25-.931.343-.359.604-.751.784-1.176.179-.424.318-.8.416-1.127v-4.9c-1.535.033-2.793.131-3.772.294-.98.164-1.748.433-2.304.809s-.939.85-1.151 1.421c-.213.572-.318 1.266-.318 2.083 0 1.242.294 2.205.882 2.891s1.403 1.028 2.449 1.028z"/><path d="m1289.369 443.664c-.163.719-.457 1.405-.882 2.058-.425.654-.931 1.233-1.519 1.739-.588.507-1.258.907-2.009 1.201-.752.294-1.553.441-2.401.441-3.234 0-5.692-1.021-7.374-3.063-1.684-2.041-2.524-5.169-2.524-9.383 0-2.156.295-4.042.883-5.66.588-1.617 1.412-2.98 2.475-4.091 1.061-1.11 2.343-1.943 3.846-2.499 1.503-.555 3.169-.833 4.998-.833.588 0 1.086.017 1.495.049.408.033.783.074 1.127.123.343.049.669.131.979.245.311.115.662.237 1.054.367v-8.67l-3.724-.395v-1.862c.457-.196 1.085-.375 1.886-.539.801-.163 1.642-.318 2.523-.465.883-.147 1.748-.286 2.598-.417.849-.13 1.551-.245 2.106-.343h1.666v33.369l3.234.392v1.715c-.458.229-1.046.441-1.764.637-.72.196-1.471.376-2.254.539-.784.164-1.544.301-2.279.417-.734.114-1.347.204-1.837.27h-1.666l-.441-5.341h-.196zm-4.459 1.519c1.144 0 2.107-.359 2.892-1.078.784-.718 1.355-1.943 1.715-3.675v-13.181c-.425-.261-.955-.473-1.593-.637-.637-.163-1.429-.245-2.376-.245-1.896 0-3.251.857-4.067 2.572s-1.225 4.207-1.225 7.473c0 2.646.358 4.77 1.078 6.37.718 1.601 1.91 2.401 3.576 2.401z"/><path d="m1324.601 444.398c-.263.556-.679 1.12-1.25 1.691-.572.572-1.274 1.078-2.107 1.519s-1.797.801-2.891 1.078c-1.095.277-2.278.417-3.553.417-2.025 0-3.821-.302-5.39-.906s-2.875-1.47-3.92-2.597c-1.046-1.127-1.838-2.475-2.377-4.042s-.809-3.332-.809-5.292c0-4.181 1.095-7.366 3.283-9.555 2.188-2.188 5.227-3.283 9.114-3.283 1.666 0 3.226.229 4.68.686 1.453.458 2.662 1.209 3.626 2.254.963 1.046 1.633 2.418 2.009 4.116.375 1.699.351 3.773-.073 6.223h-15.043c.032 2.581.693 4.639 1.984 6.174 1.29 1.536 3.192 2.303 5.708 2.303 1.078 0 2.197-.163 3.356-.49 1.159-.326 2.066-.751 2.72-1.274zm-10.122-18.178c-.649 0-1.226.115-1.729.343-.504.229-.942.646-1.315 1.25-.374.605-.674 1.421-.9 2.45-.228 1.029-.39 2.328-.487 3.896h7.84c.229-2.548.083-4.508-.437-5.88-.521-1.373-1.512-2.059-2.972-2.059z"/><path d="m1363.946 441.41c0 .719.008 1.34.024 1.862.016.523.057 1.078.122 1.666l3.381.49v1.715c-.392.196-.923.392-1.592.588-.67.196-1.372.385-2.107.563-.735.18-1.462.326-2.181.441-.719.114-1.355.204-1.911.27h-1.666c-.326-.751-.522-1.502-.588-2.254-.065-.751-.114-1.666-.146-2.744h-.245c-.164.654-.441 1.282-.833 1.886-.392.605-.891 1.144-1.494 1.617-.605.474-1.315.857-2.132 1.151s-1.732.441-2.744.441c-1.078 0-2.075-.164-2.989-.49-.915-.326-1.715-.784-2.4-1.372-.687-.588-1.226-1.298-1.617-2.131-.393-.833-.588-1.772-.588-2.818 0-1.47.277-2.678.833-3.626.555-.947 1.429-1.723 2.621-2.327s2.728-1.054 4.606-1.348 4.156-.506 6.835-.637c.262-2.809.147-4.867-.343-6.174-.49-1.306-1.552-1.96-3.185-1.96-1.014 0-1.944.164-2.793.49l-2.304 5.88h-2.155c-.263-.392-.515-.841-.76-1.348-.245-.506-.474-1.045-.687-1.617-.213-.571-.392-1.151-.539-1.739-.146-.588-.253-1.159-.318-1.715 1.241-.849 2.842-1.519 4.803-2.009 1.96-.49 4.033-.735 6.223-.735 1.862 0 3.381.204 4.557.612 1.176.409 2.099.964 2.769 1.666.669.703 1.135 1.527 1.396 2.475.262.948.393 1.96.393 3.038 0 1.96-.042 3.732-.123 5.316-.083 1.586-.123 3.211-.123 4.877zm-11.025 3.773c.687 0 1.274-.13 1.764-.392.49-.261.907-.571 1.25-.931.343-.359.604-.751.784-1.176.179-.424.318-.8.416-1.127v-4.9c-1.535.033-2.793.131-3.772.294-.98.164-1.748.433-2.304.809s-.939.85-1.151 1.421c-.213.572-.318 1.266-.318 2.083 0 1.242.294 2.205.882 2.891s1.403 1.028 2.449 1.028z"/><path d="m1391.826 449.103-7.692-22.047c-.458-.163-.907-.335-1.348-.516-.441-.18-.857-.401-1.25-.663v-1.862h12.397v1.813c-.458.262-.915.5-1.372.713-.458.213-.932.385-1.421.515l3.381 12.579.637 3.784h.099l.882-3.92 5.193-15.19 2.401-.294 5.586 15.533 1.029 3.871h.098l.784-3.833 2.939-12.53c-.359-.065-.776-.196-1.249-.393-.474-.196-.955-.459-1.445-.787v-1.862h9.457v1.862c-.687.459-1.617.852-2.793 1.179l-6.812 21.458-4.605.589-4.213-12.102-.932-4.067h-.146l-1.127 4.067-3.92 11.515z"/><path d="m1443.963 444.398c-.263.556-.679 1.12-1.25 1.691-.572.572-1.274 1.078-2.107 1.519s-1.797.801-2.891 1.078c-1.095.277-2.278.417-3.553.417-2.025 0-3.821-.302-5.39-.906s-2.875-1.47-3.92-2.597c-1.046-1.127-1.838-2.475-2.377-4.042s-.809-3.332-.809-5.292c0-4.181 1.095-7.366 3.283-9.555 2.188-2.188 5.227-3.283 9.114-3.283 1.666 0 3.226.229 4.68.686 1.453.458 2.662 1.209 3.626 2.254.963 1.046 1.633 2.418 2.009 4.116.375 1.699.351 3.773-.073 6.223h-15.043c.032 2.581.693 4.639 1.984 6.174 1.29 1.536 3.192 2.303 5.708 2.303 1.078 0 2.197-.163 3.356-.49 1.159-.326 2.066-.751 2.72-1.274zm-10.122-18.178c-.649 0-1.226.115-1.729.343-.504.229-.942.646-1.315 1.25-.374.605-.674 1.421-.9 2.45-.228 1.029-.39 2.328-.487 3.896h7.84c.229-2.548.083-4.508-.437-5.88-.521-1.373-1.511-2.059-2.972-2.059z"/><path d="m1450.038 415.686-3.725-.393v-1.862c.49-.196 1.135-.392 1.936-.588s1.634-.368 2.499-.515 1.716-.277 2.548-.392c.833-.114 1.544-.204 2.132-.27h1.666v16.954h.098c.653-1.633 1.649-2.907 2.989-3.822 1.339-.915 2.924-1.372 4.753-1.372 2.874 0 5.112.997 6.713 2.989 1.601 1.993 2.401 5.015 2.401 9.065 0 4.476-1.185 7.84-3.553 10.094s-5.839 3.381-10.412 3.381c-.817 0-1.732-.057-2.744-.171-1.013-.116-1.993-.254-2.94-.417-.947-.164-1.821-.36-2.621-.588-.801-.229-1.381-.458-1.739-.688v-31.405zm11.711 11.661c-1.242 0-2.238.449-2.989 1.348-.752.898-1.307 2.033-1.666 3.405v12.985c.457.327 1.021.588 1.69.784s1.429.294 2.278.294c1.862 0 3.226-.833 4.092-2.499.865-1.666 1.299-4.279 1.299-7.84 0-2.58-.352-4.638-1.054-6.174-.703-1.535-1.92-2.303-3.65-2.303z"/><path d="m1489.973 443.174c0-.849-.303-1.584-.907-2.205-.604-.62-1.355-1.192-2.254-1.715-.898-.522-1.879-1.045-2.939-1.568-1.063-.522-2.042-1.135-2.94-1.837s-1.649-1.527-2.254-2.475c-.604-.947-.906-2.107-.906-3.479 0-.98.228-1.87.686-2.67.457-.8 1.078-1.478 1.862-2.034.784-.555 1.723-.987 2.817-1.298 1.094-.31 2.278-.465 3.553-.465 1.764 0 3.405.139 4.925.417 1.519.278 2.85.662 3.993 1.151-.131 1.046-.392 2.165-.784 3.356-.392 1.193-.768 2.279-1.127 3.259h-1.666l-2.058-4.998c-.393-.163-.801-.27-1.226-.319s-.898-.073-1.421-.073c-.979 0-1.724.286-2.229.857-.507.572-.76 1.217-.76 1.936 0 .817.302 1.527.907 2.131.604.605 1.354 1.168 2.254 1.69.897.523 1.878 1.046 2.939 1.568 1.062.523 2.042 1.119 2.94 1.788.898.67 1.649 1.462 2.254 2.377s.906 2.009.906 3.283c0 2.254-.915 4.026-2.744 5.316-1.829 1.291-4.279 1.936-7.35 1.936-1.568 0-3.185-.164-4.851-.49s-3.104-.784-4.313-1.372c.065-1.176.343-2.368.833-3.577.49-1.208 1.013-2.286 1.568-3.234h1.666l2.4 5.341c.359.262.76.417 1.201.466.44.049.857.073 1.249.073.947 0 1.813-.277 2.597-.833.786-.556 1.179-1.323 1.179-2.303z"/><path d="m1513.345 448.515h-13.524v-1.862c.49-.263.996-.484 1.52-.665.522-.181 1.094-.353 1.715-.518v-18.024l-3.234-.394v-1.862c.49-.196 1.103-.392 1.838-.588s1.511-.367 2.327-.514 1.617-.277 2.401-.392c.784-.114 1.47-.204 2.058-.27h1.666v22.047c.653.164 1.241.335 1.765.516.521.181 1.012.401 1.47.663v1.863zm-11.026-32.536c0-1.143.388-2.041 1.163-2.695.774-.653 1.775-.98 3.002-.98s2.229.327 3.003.98c.775.654 1.162 1.552 1.162 2.695 0 1.111-.387 1.993-1.162 2.646-.774.654-1.776.98-3.003.98s-2.228-.326-3.002-.98c-.775-.653-1.163-1.536-1.163-2.646z"/><path d="m1515.255 425.237c1.241-.806 2.549-1.376 3.92-1.712v-3.969c.196-.196.531-.384 1.005-.563s.98-.343 1.52-.49c.538-.147 1.069-.285 1.592-.417.522-.13.947-.228 1.274-.294h1.666v6.223h6.468v3.185h-6.468v12.622c0 2.015.253 3.413.76 4.192.506.779 1.347 1.169 2.523 1.169.588 0 1.249-.041 1.984-.123.734-.081 1.412-.236 2.033-.465l.343 1.617c-.294.294-.728.605-1.298.931-.572.327-1.226.637-1.96.931-.735.294-1.536.539-2.401.735-.866.196-1.772.294-2.72.294-2.124 0-3.708-.553-4.753-1.658-1.046-1.105-1.568-2.895-1.568-5.366v-14.879h-3.92z"/><path d="m1558.522 444.398c-.263.556-.679 1.12-1.25 1.691-.572.572-1.274 1.078-2.107 1.519s-1.797.801-2.891 1.078c-1.095.277-2.278.417-3.553.417-2.025 0-3.821-.302-5.39-.906s-2.875-1.47-3.92-2.597c-1.046-1.127-1.838-2.475-2.377-4.042s-.809-3.332-.809-5.292c0-4.181 1.095-7.366 3.283-9.555 2.188-2.188 5.227-3.283 9.114-3.283 1.666 0 3.226.229 4.68.686 1.453.458 2.662 1.209 3.626 2.254.963 1.046 1.633 2.418 2.009 4.116.375 1.699.351 3.773-.073 6.223h-15.043c.032 2.581.693 4.639 1.984 6.174 1.29 1.536 3.192 2.303 5.708 2.303 1.078 0 2.197-.163 3.356-.49 1.159-.326 2.066-.751 2.72-1.274zm-10.122-18.178c-.649 0-1.226.115-1.729.343-.504.229-.942.646-1.315 1.25-.374.605-.674 1.421-.9 2.45-.228 1.029-.39 2.328-.487 3.896h7.84c.229-2.548.083-4.508-.437-5.88-.52-1.373-1.511-2.059-2.972-2.059z"/><path d="m1597.868 441.41c0 .719.008 1.34.024 1.862.016.523.057 1.078.122 1.666l3.381.49v1.715c-.392.196-.923.392-1.592.588-.67.196-1.372.385-2.107.563-.735.18-1.462.326-2.181.441-.719.114-1.355.204-1.911.27h-1.666c-.326-.751-.522-1.502-.588-2.254-.065-.751-.114-1.666-.146-2.744h-.245c-.164.654-.441 1.282-.833 1.886-.392.605-.891 1.144-1.494 1.617-.605.474-1.315.857-2.132 1.151s-1.732.441-2.744.441c-1.078 0-2.075-.164-2.989-.49-.915-.326-1.715-.784-2.4-1.372-.687-.588-1.226-1.298-1.617-2.131-.393-.833-.588-1.772-.588-2.818 0-1.47.277-2.678.833-3.626.555-.947 1.429-1.723 2.621-2.327s2.728-1.054 4.606-1.348 4.156-.506 6.835-.637c.262-2.809.147-4.867-.343-6.174-.49-1.306-1.552-1.96-3.185-1.96-1.014 0-1.944.164-2.793.49l-2.304 5.88h-2.155c-.263-.392-.515-.841-.76-1.348-.245-.506-.474-1.045-.687-1.617-.213-.571-.392-1.151-.539-1.739-.146-.588-.253-1.159-.318-1.715 1.241-.849 2.842-1.519 4.803-2.009 1.96-.49 4.033-.735 6.223-.735 1.862 0 3.381.204 4.557.612 1.176.409 2.099.964 2.769 1.666.669.703 1.135 1.527 1.396 2.475.262.948.393 1.96.393 3.038 0 1.96-.042 3.732-.123 5.316-.083 1.586-.123 3.211-.123 4.877zm-11.025 3.773c.687 0 1.274-.13 1.764-.392.49-.261.907-.571 1.25-.931.343-.359.604-.751.784-1.176.179-.424.318-.8.416-1.127v-4.9c-1.535.033-2.793.131-3.772.294-.98.164-1.748.433-2.304.809s-.939.85-1.151 1.421c-.213.572-.318 1.266-.318 2.083 0 1.242.294 2.205.882 2.891s1.403 1.028 2.449 1.028z"/><path d="m1633.393 448.515h-12.984v-1.862c.424-.229.84-.434 1.249-.614.408-.18.89-.368 1.445-.565v-11.544c0-2.063-.294-3.676-.882-4.839-.588-1.162-1.634-1.744-3.136-1.744-1.242 0-2.312.401-3.21 1.204s-1.576 1.892-2.033 3.267v13.657c.522.132.987.287 1.396.467.408.181.841.418 1.299.712v1.862h-12.985v-1.862c.816-.427 1.895-.821 3.234-1.182v-18.024l-3.234-.394v-1.862c.424-.196.98-.383 1.666-.563.686-.179 1.429-.351 2.229-.514s1.617-.302 2.45-.417c.833-.114 1.593-.204 2.278-.27h1.666v5.047h.049c.687-1.372 1.715-2.556 3.087-3.552s3.038-1.495 4.998-1.495c1.274 0 2.417.156 3.431.467 1.012.311 1.869.859 2.572 1.645.702.786 1.241 1.841 1.617 3.167.375 1.326.563 3.003.563 5.033v11.736c1.306.23 2.384.623 3.233 1.179v1.86z"/><path d="m1652.503 443.664c-.163.719-.457 1.405-.882 2.058-.425.654-.931 1.233-1.519 1.739-.588.507-1.258.907-2.009 1.201-.752.294-1.553.441-2.401.441-3.234 0-5.692-1.021-7.374-3.063-1.684-2.041-2.524-5.169-2.524-9.383 0-2.156.295-4.042.883-5.66.588-1.617 1.412-2.98 2.475-4.091 1.061-1.11 2.343-1.943 3.846-2.499 1.503-.555 3.169-.833 4.998-.833.588 0 1.086.017 1.495.049.408.033.783.074 1.127.123.343.049.669.131.979.245.311.115.662.237 1.054.367v-8.67l-3.724-.395v-1.862c.457-.196 1.085-.375 1.886-.539.801-.163 1.642-.318 2.523-.465.883-.147 1.748-.286 2.598-.417.849-.13 1.551-.245 2.106-.343h1.666v33.369l3.234.392v1.715c-.458.229-1.046.441-1.764.637-.72.196-1.471.376-2.254.539-.784.164-1.544.301-2.279.417-.734.114-1.347.204-1.837.27h-1.666l-.441-5.341h-.196zm-4.459 1.519c1.144 0 2.107-.359 2.892-1.078.784-.718 1.355-1.943 1.715-3.675v-13.181c-.425-.261-.955-.473-1.593-.637-.637-.163-1.429-.245-2.376-.245-1.896 0-3.251.857-4.067 2.572s-1.225 4.207-1.225 7.473c0 2.646.358 4.77 1.078 6.37.718 1.601 1.91 2.401 3.576 2.401z"/><path d="m1679.306 427.055c-.49-.13-.939-.294-1.348-.491-.409-.196-.825-.425-1.25-.688v-1.862h12.888v1.813c-.687.459-1.617.869-2.793 1.229l4.948 12.335.833 3.145h.099l.784-3.194 3.821-12.286c-.979-.197-1.879-.59-2.694-1.18v-1.862h9.457v1.862c-.687.459-1.617.852-2.793 1.179l-7.987 21.459c-.784 2.09-1.568 3.797-2.353 5.121-.783 1.323-1.567 2.376-2.352 3.16-.784.784-1.568 1.331-2.352 1.642-.784.31-1.568.515-2.353.613-.327-.294-.621-.662-.882-1.103-.262-.441-.49-.915-.687-1.421-.195-.507-.359-1.021-.489-1.544-.131-.522-.213-1.013-.245-1.47l.637-1.176h5.979c.294-.458.546-.948.759-1.47.212-.523.466-1.307.76-2.352z"/><path d="m1704.394 436.265c0-1.992.302-3.781.907-5.366.604-1.584 1.47-2.931 2.597-4.042 1.127-1.11 2.49-1.96 4.092-2.548 1.6-.588 3.413-.882 5.438-.882 2.286 0 4.255.318 5.904.956 1.649.637 3.006 1.519 4.067 2.646s1.838 2.483 2.327 4.067c.49 1.585.735 3.308.735 5.169 0 1.993-.294 3.781-.882 5.366s-1.445 2.932-2.572 4.042c-1.127 1.111-2.499 1.96-4.116 2.548s-3.438.882-5.464.882c-2.222 0-4.148-.318-5.781-.956-1.635-.637-2.989-1.519-4.067-2.646s-1.879-2.482-2.401-4.067c-.523-1.584-.784-3.308-.784-5.169zm7.595 0c0 1.47.089 2.817.27 4.042.179 1.225.497 2.262.955 3.111.457.85 1.078 1.512 1.862 1.985.784.474 1.796.71 3.038.71.718 0 1.372-.171 1.96-.515.588-.343 1.094-.898 1.519-1.666.425-.767.743-1.78.956-3.038.212-1.257.318-2.8.318-4.63 0-1.502-.091-2.858-.27-4.067-.18-1.208-.49-2.237-.932-3.087-.44-.849-1.037-1.511-1.788-1.985-.752-.473-1.699-.71-2.842-.71-.85 0-1.585.171-2.205.515-.621.343-1.144.899-1.568 1.666-.425.768-.743 1.781-.955 3.038-.212 1.258-.318 2.802-.318 4.631z"/><path d="m1735.753 438.79c0-2.063.05-3.977.147-5.745s.147-3.634.147-5.599l-3.234-.393v-1.862c.522-.196 1.168-.392 1.936-.588.767-.196 1.56-.367 2.376-.514s1.609-.277 2.377-.392c.768-.114 1.412-.204 1.936-.27h1.666c0 2.45-.049 4.859-.147 7.228s-.146 4.696-.146 6.982c0 2.679.27 4.606.809 5.782s1.543 1.764 3.014 1.764c1.012 0 1.951-.384 2.817-1.154.865-.77 1.575-2.006 2.131-3.709v-12.874l-3.185-.393v-1.862c.49-.196 1.103-.392 1.838-.588.734-.196 1.502-.367 2.303-.514.8-.147 1.592-.277 2.376-.392.784-.114 1.471-.204 2.059-.27h1.666v21.609l3.233.392v1.715c-.458.196-1.028.392-1.715.588-.686.196-1.404.385-2.156.563-.751.18-1.494.326-2.229.441-.734.114-1.396.204-1.984.27h-1.666l-.343-5.831h-.196c-.163.686-.457 1.38-.882 2.083s-.973 1.34-1.642 1.911c-.67.572-1.462 1.038-2.376 1.396-.915.359-1.928.539-3.038.539-1.242 0-2.345-.156-3.308-.466-.964-.311-1.788-.86-2.475-1.645-.686-.786-1.209-1.841-1.568-3.167s-.541-3.005-.541-5.035z"/><path d="m1786.369 449.103-7.692-22.047c-.458-.163-.907-.335-1.348-.516-.441-.18-.857-.401-1.25-.663v-1.862h12.397v1.813c-.458.262-.915.5-1.372.713-.458.213-.932.385-1.421.515l3.381 12.579.637 3.784h.099l.882-3.92 5.193-15.19 2.401-.294 5.586 15.533 1.029 3.871h.098l.784-3.833 2.939-12.53c-.359-.065-.776-.196-1.249-.393-.474-.196-.955-.459-1.445-.787v-1.862h9.457v1.862c-.687.459-1.617.852-2.793 1.179l-6.812 21.458-4.605.589-4.213-12.102-.932-4.067h-.146l-1.127 4.067-3.92 11.515z"/><path d="m1816.21 436.265c0-1.992.302-3.781.907-5.366.604-1.584 1.47-2.931 2.597-4.042 1.127-1.11 2.49-1.96 4.092-2.548 1.6-.588 3.413-.882 5.438-.882 2.286 0 4.255.318 5.904.956 1.649.637 3.006 1.519 4.067 2.646s1.838 2.483 2.327 4.067c.49 1.585.735 3.308.735 5.169 0 1.993-.294 3.781-.882 5.366s-1.445 2.932-2.572 4.042c-1.127 1.111-2.499 1.96-4.116 2.548s-3.438.882-5.464.882c-2.222 0-4.148-.318-5.781-.956-1.635-.637-2.989-1.519-4.067-2.646s-1.879-2.482-2.401-4.067c-.522-1.584-.784-3.308-.784-5.169zm7.596 0c0 1.47.089 2.817.27 4.042.179 1.225.497 2.262.955 3.111.457.85 1.078 1.512 1.862 1.985.784.474 1.796.71 3.038.71.718 0 1.372-.171 1.96-.515.588-.343 1.094-.898 1.519-1.666.425-.767.743-1.78.956-3.038.212-1.257.318-2.8.318-4.63 0-1.502-.091-2.858-.27-4.067-.18-1.208-.49-2.237-.932-3.087-.44-.849-1.037-1.511-1.788-1.985-.752-.473-1.699-.71-2.842-.71-.85 0-1.585.171-2.205.515-.621.343-1.144.899-1.568 1.666-.425.768-.743 1.781-.955 3.038-.213 1.258-.318 2.802-.318 4.631z"/><path d="m1875.059 448.515h-12.984v-1.862c.424-.229.84-.434 1.249-.614.408-.18.89-.368 1.445-.565v-11.544c0-2.063-.294-3.676-.882-4.839-.588-1.162-1.634-1.744-3.136-1.744-1.242 0-2.312.401-3.21 1.204s-1.576 1.892-2.033 3.267v13.657c.522.132.987.287 1.396.467.408.181.841.418 1.299.712v1.862h-12.985v-1.862c.816-.427 1.895-.821 3.234-1.182v-18.024l-3.234-.394v-1.862c.424-.196.98-.383 1.666-.563.686-.179 1.429-.351 2.229-.514s1.617-.302 2.45-.417c.833-.114 1.593-.204 2.278-.27h1.666v5.047h.049c.687-1.372 1.715-2.556 3.087-3.552s3.038-1.495 4.998-1.495c1.274 0 2.417.156 3.431.467 1.012.311 1.869.859 2.572 1.645.702.786 1.241 1.841 1.617 3.167.375 1.326.563 3.003.563 5.033v11.736c1.306.23 2.384.623 3.233 1.179v1.86z"/><path d="m1879.125 415.685c.163-.424.547-.775 1.152-1.053.604-.277 1.281-.417 2.033-.417.686 0 1.348.122 1.984.367s1.037.613 1.2 1.103l-2.254 9.016h-1.861z"/><path d="m1888.386 425.237c1.241-.806 2.549-1.376 3.92-1.712v-3.969c.196-.196.531-.384 1.005-.563s.98-.343 1.52-.49c.538-.147 1.069-.285 1.592-.417.522-.13.947-.228 1.274-.294h1.666v6.223h6.468v3.185h-6.468v12.622c0 2.015.253 3.413.76 4.192.506.779 1.347 1.169 2.523 1.169.588 0 1.249-.041 1.984-.123.734-.081 1.412-.236 2.033-.465l.343 1.617c-.294.294-.728.605-1.298.931-.572.327-1.226.637-1.96.931-.735.294-1.536.539-2.401.735-.866.196-1.772.294-2.72.294-2.124 0-3.708-.553-4.753-1.658-1.046-1.105-1.568-2.895-1.568-5.366v-14.879h-3.92z"/><path d="m1922.343 448.515v-1.862c.62-.359 1.281-.669 1.984-.931.702-.261 1.379-.424 2.033-.49v-27.734c-.654-.13-1.34-.318-2.058-.563-.72-.245-1.372-.53-1.96-.857v-1.862h7.889c1.241 0 2.417-.049 3.528-.147 1.109-.098 2.384-.147 3.821-.147 1.568 0 3.087.115 4.558.343 1.47.229 2.775.637 3.92 1.225 1.143.588 2.058 1.413 2.744 2.475s1.028 2.425 1.028 4.091c0 1.046-.188 2.018-.563 2.916-.376.899-.898 1.69-1.567 2.376-.67.686-1.454 1.258-2.353 1.715-.898.458-1.87.784-2.915.98v.196c1.045.131 2.099.376 3.16.735 1.062.36 2.017.882 2.866 1.568s1.544 1.543 2.083 2.573c.539 1.029.809 2.246.809 3.65 0 1.764-.393 3.283-1.177 4.557-.783 1.274-1.837 2.32-3.16 3.136-1.323.817-2.834 1.414-4.532 1.789-1.699.375-3.463.563-5.292.563-.687 0-1.438-.017-2.254-.049-.817-.033-1.634-.066-2.45-.098-.817-.033-1.609-.066-2.377-.098-.768-.033-1.413-.049-1.936-.049h-5.829zm12.641-19.013c.555 0 1.11-.024 1.666-.073.555-.049 1.078-.105 1.568-.171 1.273-.522 2.303-1.331 3.087-2.426.783-1.094 1.176-2.343 1.176-3.749 0-2.058-.539-3.568-1.617-4.532-1.078-.963-2.467-1.446-4.165-1.446-.719 0-1.34.017-1.862.049-.522.033-.996.082-1.421.147v12.201zm2.157 16.122c2.058 0 3.675-.612 4.851-1.837s1.764-2.85 1.764-4.875c0-1.241-.195-2.262-.588-3.063-.392-.8-.931-1.437-1.616-1.911-.687-.473-1.503-.8-2.45-.98-.948-.179-1.978-.27-3.087-.27h-2.598v12.593c.457.098.938.18 1.445.245s1.265.098 2.279.098z"/><path d="m1980.211 414.215c-.065 1.47-.18 2.989-.343 4.557-.164 1.568-.376 3.038-.637 4.41h-2.01l-2.254-5.782h-9.163v12.005h5.979l2.156-3.773h1.567c.163 1.601.245 3.381.245 5.341s-.082 3.79-.245 5.488h-1.567l-2.156-3.871h-5.979v12.74h9.556l2.597-6.223h2.009c.13.621.262 1.323.393 2.107.13.784.236 1.592.318 2.425.081.833.146 1.674.195 2.523.05.85.074 1.634.074 2.352h-26.509v-1.862c.555-.294 1.176-.571 1.861-.833.687-.261 1.404-.457 2.156-.588v-27.734c-.654-.13-1.348-.318-2.083-.563-.734-.245-1.38-.53-1.935-.857v-1.862z"/><path d="m1984.327 414.215h16.071v1.862c-.686.36-1.445.662-2.278.906-.833.245-1.642.417-2.426.515v27.832h9.457l3.283-8.771h2.009c.131.752.253 1.634.368 2.646.113 1.013.203 2.075.27 3.185.064 1.111.113 2.205.146 3.283.032 1.078.032 2.026 0 2.842h-26.9v-1.862c.751-.392 1.461-.702 2.131-.931.669-.228 1.299-.392 1.887-.49v-27.734c-1.601-.261-2.94-.735-4.018-1.421z"/><path d="m2028.965 448.515h-15.288v-1.862c1.307-.718 2.63-1.192 3.97-1.421v-27.734c-.654-.098-1.34-.277-2.059-.539-.719-.261-1.355-.555-1.911-.882v-1.862h15.288v1.862c-.588.36-1.233.662-1.936.906-.702.245-1.38.417-2.033.515v27.734c.653.131 1.331.311 2.033.539.702.229 1.348.523 1.936.882z"/><path d="m2057.482 414.215c-.065 1.47-.18 2.989-.343 4.557-.164 1.568-.376 3.038-.637 4.41h-2.01l-2.254-5.782h-9.163v12.005h5.979l2.156-3.773h1.567c.163 1.601.245 3.381.245 5.341s-.082 3.79-.245 5.488h-1.567l-2.156-3.871h-5.979v12.74h9.556l2.597-6.223h2.009c.13.621.262 1.323.393 2.107.13.784.236 1.592.318 2.425.081.833.146 1.674.195 2.523.05.85.074 1.634.074 2.352h-26.509v-1.862c.555-.294 1.176-.571 1.861-.833.687-.261 1.404-.457 2.156-.588v-27.734c-.654-.13-1.348-.318-2.083-.563-.734-.245-1.38-.53-1.935-.857v-1.862z"/><path d="m2088.254 417.498c-.784-.163-1.527-.375-2.229-.637-.702-.261-1.331-.522-1.887-.784v-1.862h12.446v1.862c-.392.262-.906.523-1.543.784-.638.262-1.299.474-1.984.637l-11.271 31.017-4.851.588-12.643-31.605c-.653-.163-1.307-.367-1.96-.612s-1.225-.515-1.715-.809v-1.862h16.317v1.862c-.557.262-1.177.523-1.862.784-.687.262-1.405.474-2.156.637l6.86 19.306 1.127 4.606h.098l1.078-4.704z"/><path d="m2123.633 414.215c-.065 1.47-.18 2.989-.343 4.557-.164 1.568-.376 3.038-.637 4.41h-2.01l-2.254-5.782h-9.163v12.005h5.979l2.156-3.773h1.567c.163 1.601.245 3.381.245 5.341s-.082 3.79-.245 5.488h-1.567l-2.156-3.871h-5.979v12.74h9.556l2.597-6.223h2.009c.13.621.262 1.323.393 2.107.13.784.236 1.592.318 2.425.081.833.146 1.674.195 2.523.05.85.074 1.634.074 2.352h-26.509v-1.862c.555-.294 1.176-.571 1.861-.833.687-.261 1.404-.457 2.156-.588v-27.734c-.654-.13-1.348-.318-2.083-.563-.734-.245-1.38-.53-1.935-.857v-1.862z"/><path d="m2150.092 449.103-7.692-22.047c-.458-.163-.907-.335-1.348-.516-.441-.18-.857-.401-1.25-.663v-1.862h12.397v1.813c-.458.262-.915.5-1.372.713-.458.213-.932.385-1.421.515l3.381 12.579.637 3.784h.099l.882-3.92 5.193-15.19 2.401-.294 5.586 15.533 1.029 3.871h.098l.784-3.833 2.939-12.53c-.359-.065-.776-.196-1.249-.393-.474-.196-.955-.459-1.445-.787v-1.862h9.457v1.862c-.687.459-1.617.852-2.793 1.179l-6.812 21.458-4.605.589-4.214-12.102-.932-4.067h-.146l-1.127 4.067-3.92 11.515z"/><path d="m2209.774 448.515h-12.985v-1.862c.392-.229.8-.442 1.225-.639.425-.196.914-.377 1.471-.541v-9.923c0-2.816-.27-4.888-.809-6.214s-1.593-1.99-3.161-1.99c-1.307 0-2.418.451-3.332 1.351-.915.9-1.567 1.94-1.96 3.119v13.657c.522.132.988.279 1.396.442.408.164.841.409 1.299.737v1.862h-12.985v-1.862c1.013-.524 2.091-.917 3.234-1.18v-29.787l-3.724-.394v-1.862c.489-.196 1.118-.392 1.886-.588s1.576-.368 2.426-.515 1.698-.277 2.548-.392c.85-.114 1.601-.204 2.254-.27h1.666v17.297h.049c.326-.751.768-1.462 1.323-2.132.556-.669 1.184-1.257 1.887-1.764.702-.506 1.462-.907 2.278-1.201s1.683-.441 2.598-.441c1.306 0 2.474.156 3.503.467s1.887.859 2.572 1.645c.687.786 1.208 1.841 1.568 3.167.359 1.326.539 3.003.539 5.033v11.736c.555.131 1.11.278 1.666.442.555.164 1.078.41 1.568.737z"/><path d="m2233.687 441.41c0 .719.008 1.34.024 1.862.016.523.057 1.078.122 1.666l3.381.49v1.715c-.392.196-.923.392-1.592.588-.67.196-1.372.385-2.107.563-.735.18-1.462.326-2.181.441-.719.114-1.355.204-1.911.27h-1.666c-.326-.751-.522-1.502-.588-2.254-.065-.751-.114-1.666-.146-2.744h-.245c-.164.654-.441 1.282-.833 1.886-.392.605-.891 1.144-1.494 1.617-.605.474-1.315.857-2.132 1.151s-1.732.441-2.744.441c-1.078 0-2.075-.164-2.989-.49-.915-.326-1.715-.784-2.4-1.372-.687-.588-1.226-1.298-1.617-2.131-.393-.833-.588-1.772-.588-2.818 0-1.47.277-2.678.833-3.626.555-.947 1.429-1.723 2.621-2.327s2.728-1.054 4.606-1.348 4.156-.506 6.835-.637c.262-2.809.147-4.867-.343-6.174-.49-1.306-1.552-1.96-3.185-1.96-1.014 0-1.944.164-2.793.49l-2.304 5.88h-2.155c-.263-.392-.515-.841-.76-1.348-.245-.506-.474-1.045-.687-1.617-.213-.571-.392-1.151-.539-1.739-.146-.588-.253-1.159-.318-1.715 1.241-.849 2.842-1.519 4.803-2.009 1.96-.49 4.033-.735 6.223-.735 1.862 0 3.381.204 4.557.612 1.176.409 2.099.964 2.769 1.666.669.703 1.135 1.527 1.396 2.475.262.948.393 1.96.393 3.038 0 1.96-.042 3.732-.123 5.316-.083 1.586-.123 3.211-.123 4.877zm-11.026 3.773c.687 0 1.274-.13 1.764-.392.49-.261.907-.571 1.25-.931.343-.359.604-.751.784-1.176.179-.424.318-.8.416-1.127v-4.9c-1.535.033-2.793.131-3.772.294-.98.164-1.748.433-2.304.809s-.939.85-1.151 1.421c-.213.572-.318 1.266-.318 2.083 0 1.242.294 2.205.882 2.891s1.403 1.028 2.449 1.028z"/><path d="m2238.635 425.237c1.241-.806 2.549-1.376 3.92-1.712v-3.969c.196-.196.531-.384 1.005-.563s.98-.343 1.52-.49c.538-.147 1.069-.285 1.592-.417.522-.13.947-.228 1.274-.294h1.666v6.223h6.468v3.185h-6.468v12.622c0 2.015.253 3.413.76 4.192.506.779 1.347 1.169 2.523 1.169.588 0 1.249-.041 1.984-.123.734-.081 1.412-.236 2.033-.465l.343 1.617c-.294.294-.728.605-1.298.931-.572.327-1.226.637-1.96.931-.735.294-1.536.539-2.401.735-.866.196-1.772.294-2.72.294-2.124 0-3.708-.553-4.753-1.658-1.046-1.105-1.568-2.895-1.568-5.366v-14.879h-3.92z"/><path d="m949.461 507.314h-13.524v-1.862c.49-.263.996-.484 1.52-.665.522-.181 1.094-.353 1.715-.518v-18.024l-3.234-.394v-1.862c.49-.196 1.103-.392 1.838-.588s1.511-.367 2.327-.514 1.617-.277 2.401-.392c.784-.114 1.47-.204 2.058-.27h1.666v22.047c.653.164 1.241.335 1.765.516.521.181 1.012.401 1.47.663v1.863zm-11.025-32.536c0-1.143.388-2.041 1.163-2.695.774-.653 1.775-.98 3.002-.98s2.229.327 3.003.98c.775.654 1.162 1.552 1.162 2.695 0 1.111-.387 1.993-1.162 2.646-.774.654-1.776.98-3.003.98s-2.228-.326-3.002-.98c-.776-.653-1.163-1.535-1.163-2.646z"/><path d="m951.371 484.037c1.241-.806 2.549-1.376 3.92-1.712v-3.969c.196-.196.531-.384 1.005-.563s.98-.343 1.52-.49c.538-.147 1.069-.285 1.592-.417.522-.13.947-.228 1.274-.294h1.666v6.223h6.468v3.185h-6.468v12.622c0 2.015.253 3.413.76 4.192.506.779 1.347 1.169 2.523 1.169.588 0 1.249-.041 1.984-.123.734-.081 1.412-.236 2.033-.465l.343 1.617c-.294.294-.728.605-1.298.931-.572.327-1.226.637-1.96.931-.735.294-1.536.539-2.401.735-.866.196-1.772.294-2.72.294-2.124 0-3.708-.553-4.753-1.658-1.046-1.105-1.568-2.895-1.568-5.366v-14.879h-3.92z"/><path d="m1002.575 502.463c-.163.719-.457 1.405-.882 2.058-.425.654-.931 1.233-1.519 1.739-.588.507-1.258.907-2.009 1.201-.752.294-1.553.441-2.401.441-3.234 0-5.692-1.021-7.374-3.063-1.684-2.041-2.524-5.169-2.524-9.383 0-2.156.295-4.042.883-5.66.588-1.617 1.412-2.98 2.475-4.091 1.061-1.11 2.343-1.943 3.846-2.499 1.503-.555 3.169-.833 4.998-.833.588 0 1.086.017 1.495.049.408.033.783.074 1.127.123.343.049.669.131.979.245.311.115.662.237 1.054.367v-8.67l-3.724-.395v-1.862c.457-.196 1.085-.375 1.886-.539.801-.163 1.642-.318 2.523-.465.883-.147 1.748-.286 2.598-.417.849-.13 1.551-.245 2.106-.343h1.666v33.369l3.234.392v1.715c-.458.229-1.046.441-1.764.637-.72.196-1.471.376-2.254.539-.784.164-1.544.301-2.279.417-.734.114-1.347.204-1.837.27h-1.666l-.441-5.341h-.196zm-4.459 1.519c1.144 0 2.107-.359 2.892-1.078.784-.718 1.355-1.943 1.715-3.675v-13.181c-.425-.261-.955-.473-1.593-.637-.637-.163-1.429-.245-2.376-.245-1.896 0-3.251.857-4.067 2.572s-1.225 4.207-1.225 7.473c0 2.646.358 4.77 1.078 6.37.718 1.602 1.91 2.401 3.576 2.401z"/><path d="m1015.511 495.064c0-1.992.302-3.781.907-5.366.604-1.584 1.47-2.931 2.597-4.042 1.127-1.11 2.49-1.96 4.092-2.548 1.6-.588 3.413-.882 5.438-.882 2.286 0 4.255.318 5.904.956 1.649.637 3.006 1.519 4.067 2.646s1.838 2.483 2.327 4.067c.49 1.585.735 3.308.735 5.169 0 1.993-.294 3.781-.882 5.366s-1.445 2.932-2.572 4.042c-1.127 1.111-2.499 1.96-4.116 2.548s-3.438.882-5.464.882c-2.222 0-4.148-.318-5.781-.956-1.635-.637-2.989-1.519-4.067-2.646s-1.879-2.482-2.401-4.067c-.523-1.583-.784-3.307-.784-5.169zm7.595 0c0 1.47.089 2.817.27 4.042.179 1.225.497 2.262.955 3.111.457.85 1.078 1.512 1.862 1.985.784.474 1.796.71 3.038.71.718 0 1.372-.171 1.96-.515.588-.343 1.094-.898 1.519-1.666.425-.767.743-1.78.956-3.038.212-1.257.318-2.8.318-4.63 0-1.502-.091-2.858-.27-4.067-.18-1.208-.49-2.237-.932-3.087-.44-.849-1.037-1.511-1.788-1.985-.752-.473-1.699-.71-2.842-.71-.85 0-1.585.171-2.205.515-.621.343-1.144.899-1.568 1.666-.425.768-.743 1.781-.955 3.038-.212 1.259-.318 2.802-.318 4.631z"/><path d="m1067.206 503.198c-.263.556-.679 1.12-1.25 1.691-.572.572-1.274 1.078-2.107 1.519s-1.797.801-2.891 1.078c-1.095.277-2.278.417-3.553.417-2.025 0-3.821-.302-5.39-.906s-2.875-1.47-3.92-2.597c-1.046-1.127-1.838-2.475-2.377-4.042s-.809-3.332-.809-5.292c0-4.181 1.095-7.366 3.283-9.555 2.188-2.188 5.227-3.283 9.114-3.283 1.666 0 3.226.229 4.68.686 1.453.458 2.662 1.209 3.626 2.254.963 1.046 1.633 2.418 2.009 4.116.375 1.699.351 3.773-.073 6.223h-15.043c.032 2.581.693 4.639 1.984 6.174 1.29 1.536 3.192 2.303 5.708 2.303 1.078 0 2.197-.163 3.356-.49 1.159-.326 2.066-.751 2.72-1.274zm-10.122-18.178c-.649 0-1.226.115-1.729.343-.504.229-.942.646-1.315 1.25-.374.605-.674 1.421-.9 2.45-.228 1.029-.39 2.328-.487 3.896h7.84c.229-2.548.083-4.508-.437-5.88-.521-1.373-1.511-2.059-2.972-2.059z"/><path d="m1084.11 501.974c0-.849-.303-1.584-.907-2.205-.604-.62-1.355-1.192-2.254-1.715-.898-.522-1.879-1.045-2.939-1.568-1.063-.522-2.042-1.135-2.94-1.837s-1.649-1.527-2.254-2.475c-.604-.947-.906-2.107-.906-3.479 0-.98.228-1.87.686-2.67.457-.8 1.078-1.478 1.862-2.034.784-.555 1.723-.987 2.817-1.298 1.094-.31 2.278-.465 3.553-.465 1.764 0 3.405.139 4.925.417 1.519.278 2.85.662 3.993 1.151-.131 1.046-.392 2.165-.784 3.356-.392 1.193-.768 2.279-1.127 3.259h-1.666l-2.058-4.998c-.393-.163-.801-.27-1.226-.319s-.898-.073-1.421-.073c-.979 0-1.724.286-2.229.857-.507.572-.76 1.217-.76 1.936 0 .817.302 1.527.907 2.131.604.605 1.354 1.168 2.254 1.69.897.523 1.878 1.046 2.939 1.568 1.062.523 2.042 1.119 2.94 1.788.898.67 1.649 1.462 2.254 2.377s.906 2.009.906 3.283c0 2.254-.915 4.026-2.744 5.316-1.829 1.291-4.279 1.936-7.35 1.936-1.568 0-3.185-.164-4.851-.49s-3.104-.784-4.313-1.372c.065-1.176.343-2.368.833-3.577.49-1.208 1.013-2.286 1.568-3.234h1.666l2.4 5.341c.359.262.76.417 1.201.466.44.049.857.073 1.249.073.947 0 1.813-.277 2.597-.833.787-.556 1.179-1.323 1.179-2.303z"/><path d="m1097.829 503.835c0-1.176.382-2.123 1.145-2.842.763-.718 1.762-1.078 2.996-1.078s2.241.36 3.021 1.078c.779.719 1.169 1.666 1.169 2.842s-.39 2.115-1.169 2.817-1.786 1.054-3.021 1.054-2.233-.352-2.996-1.054-1.145-1.641-1.145-2.817zm3.038-7.203-2.45-9.506v-13.622c.326-.196.816-.334 1.471-.417.653-.081 1.339-.123 2.058-.123s1.396.042 2.033.123c.638.082 1.135.221 1.495.417v13.622l-2.45 9.506z"/></g><path d="m932.664 532.829h1102.562v19.724h-1102.562z" fill="#c6c6c6"/><path d="m1136.137 575.325c1.555 0 2.827 1.272 2.827 2.827v36.013c0 1.555-1.272 2.827-2.827 2.827h-197.346c-1.555 0-2.827-1.272-2.827-2.827v-36.013c0-1.555 1.272-2.827 2.827-2.827zm0-2.682h-197.346c-3.037 0-5.508 2.471-5.508 5.508v36.013c0 3.037 2.471 5.508 5.508 5.508h197.347c3.037 0 5.508-2.471 5.508-5.508v-36.013c-.001-3.037-2.472-5.508-5.509-5.508z" fill="#ff4500"/><path d="m960.246 599.705c0-.563-.199-.996-.594-1.301-.396-.305-1.109-.612-2.141-.923s-1.852-.656-2.461-1.037c-1.166-.732-1.748-1.688-1.748-2.865 0-1.031.42-1.881 1.26-2.549.842-.668 1.934-1.002 3.275-1.002.891 0 1.684.164 2.381.492s1.246.795 1.645 1.402c.398.605.598 1.278.598 2.017h-2.215c0-.662-.211-1.181-.629-1.556-.42-.375-1.018-.563-1.797-.563-.727 0-1.291.154-1.693.464-.4.31-.602.741-.602 1.296 0 .467.217.855.65 1.168s1.148.616 2.145.91c.996.295 1.797.631 2.4 1.01.604.377 1.045.812 1.326 1.301s.422 1.062.422 1.718c0 1.066-.408 1.915-1.227 2.544-.816.631-1.926.945-3.326.945-.926 0-1.777-.172-2.553-.514-.777-.344-1.381-.816-1.811-1.42-.432-.604-.646-1.307-.646-2.109h2.225c0 .727.24 1.289.721 1.688s1.168.598 2.064.598c.773 0 1.355-.156 1.744-.471.391-.312.587-.727.587-1.243z" fill="#ff4500"/><path d="m973.781 590.204v8.552c0 1.359-.436 2.437-1.307 3.229-.869.795-2.027 1.191-3.475 1.191-1.465 0-2.629-.391-3.49-1.174-.861-.781-1.291-1.867-1.291-3.256v-8.543h2.215v8.547c0 .854.217 1.507.65 1.957s1.072.676 1.916.676c1.711 0 2.566-.9 2.566-2.703v-8.477h2.216z" fill="#ff4500"/><path d="m976.154 603.001v-12.797h4.385c1.447 0 2.549.29 3.305.87s1.135 1.444 1.135 2.593c0 .586-.158 1.113-.475 1.582s-.779.832-1.389 1.09c.691.188 1.227.541 1.604 1.059.379.52.566 1.142.566 1.868 0 1.201-.385 2.124-1.154 2.769-.771.645-1.875.967-3.311.967h-4.666zm2.223-7.409h2.18c.691 0 1.232-.156 1.623-.47.389-.313.584-.758.584-1.332 0-.633-.18-1.09-.541-1.371-.359-.281-.922-.422-1.684-.422h-2.162zm0 1.635v3.981h2.471c.697 0 1.242-.172 1.635-.517.393-.344.588-.822.588-1.435 0-1.324-.68-2.001-2.039-2.03h-2.655z" fill="#ff4500"/><path d="m990.392 590.204 3.691 9.809 3.682-9.809h2.875v12.797h-2.215v-4.219l.219-5.643-3.779 9.861h-1.59l-3.771-9.853.221 5.634v4.219h-2.215v-12.797h2.882z" fill="#ff4500"/><path d="m1005.615 603.001h-2.215v-12.797h2.215z" fill="#ff4500"/><path d="m1017.339 591.997h-3.99v11.004h-2.207v-11.004h-3.955v-1.793h10.152z" fill="#ff4500"/><path d="m1030.136 600.021h-4.957l-1.037 2.979h-2.313l4.834-12.797h1.996l4.842 12.797h-2.32zm-4.334-1.792h3.709l-1.854-5.309z" fill="#ff4500"/><path d="m1049.586 603.001h-2.223l-5.705-9.079v9.079h-2.223v-12.797h2.223l5.723 9.114v-9.114h2.205z" fill="#ff4500"/><path d="m1059.693 597.288h-5.256v3.92h6.145v1.793h-8.367v-12.797h8.305v1.793h-6.082v3.533h5.256v1.758z" fill="#ff4500"/><path d="m1072.429 599.837 1.969-9.633h2.205l-2.953 12.797h-2.127l-2.434-9.343-2.488 9.343h-2.135l-2.953-12.797h2.205l1.986 9.615 2.443-9.615h1.863z" fill="#ff4500"/><path d="m1084.935 601.208h5.811v1.793h-8.033v-12.797h2.223v11.004z" fill="#ff4500"/><path d="m1094.797 603.001h-2.215v-12.797h2.215z" fill="#ff4500"/><path d="m1107.681 603.001h-2.223l-5.705-9.079v9.079h-2.223v-12.797h2.223l5.723 9.114v-9.114h2.205z" fill="#ff4500"/><path d="m1113.984 597.473-1.451 1.538v3.99h-2.223v-12.797h2.223v6.003l1.23-1.521 3.744-4.482h2.689l-4.754 5.669 5.027 7.128h-2.637z" fill="#ff4500"/><path d="m933 329.043h1346v836.627h-1346z" fill="none"/><circle cx="957.687" cy="689.333" fill="#ffd105" r="25"/><path d="m951.187 718.124h13v19.724h-13z" fill="#d8d8d8"/><path d="m1004.083 664.333h242.425v20h-242.425z" fill="#b7b7b7"/><path d="m1004.083 693.097h121.213v20h-121.213z" fill="#828282"/><path d="m1059.864 722.861h65.431v12h-65.431z" fill="#d8d8d8"/><path d="m1133.364 722.861h32.716v12h-32.716z" fill="#d8d8d8"/><path d="m1173.864 722.861h87.636v12h-87.636z" fill="#d8d8d8"/><path d="m1254.364 670h121.213v14.333h-121.213z" fill="#d8d8d8"/><path d="m1004.083 722.861h48.132v12h-48.132z" fill="#5f99cf" opacity=".5"/><path d="m932.664 754.705h1346.336" fill="none" stroke="#e0e0e0"/><circle cx="957.687" cy="801.996" fill="#ed1c24" r="25"/><path d="m951.187 830.787h13v19.724h-13z" fill="#d8d8d8"/><path d="m1004.083 776.996h963.001v20h-963.001z" fill="#b7b7b7"/><path d="m1004.083 805.759h281.341v20h-281.341z" fill="#828282"/><path d="m1059.864 835.524h65.431v12h-65.431z" fill="#d8d8d8"/><path d="m1133.364 835.524h32.716v12h-32.716z" fill="#d8d8d8"/><path d="m1173.864 835.524h87.636v12h-87.636z" fill="#d8d8d8"/><path d="m1974.94 782.663h121.213v14.333h-121.213z" fill="#d8d8d8"/><path d="m1004.083 835.524h48.132v12h-48.132z" fill="#5f99cf" opacity=".5"/><path d="m932.664 867.368h1346.336" fill="none" stroke="#e0e0e0"/><circle cx="957.687" cy="914.658" fill="#54b948" r="25"/><path d="m951.187 943.449h13v19.724h-13z" fill="#d8d8d8"/><path d="m1004.083 889.658h302.473v20h-302.473z" fill="#b7b7b7"/><path d="m1004.083 918.422h181.261v20h-181.261z" fill="#828282"/><path d="m1059.864 948.186h65.431v12h-65.431z" fill="#d8d8d8"/><path d="m1133.364 948.186h32.716v12h-32.716z" fill="#d8d8d8"/><path d="m1173.864 948.186h87.636v12h-87.636z" fill="#d8d8d8"/><path d="m1314.412 895.325h81.181v14.333h-81.181z" fill="#d8d8d8"/><path d="m1004.083 948.186h48.132v12h-48.132z" fill="#5f99cf" opacity=".5"/><path d="m932.664 980.03h1346.336" fill="none" stroke="#e0e0e0"/><circle cx="957.687" cy="1027.321" fill="#8967ac" r="25"/><path d="m951.187 1056.112h13v19.724h-13z" fill="#d8d8d8"/><path d="m1004.083 1002.321h272.449v20h-272.449z" fill="#b7b7b7"/><path d="m1004.083 1031.084h321.373v20h-321.373z" fill="#828282"/><path d="m1059.864 1060.849h65.431v12h-65.431z" fill="#d8d8d8"/><path d="m1133.364 1060.849h32.716v12h-32.716z" fill="#d8d8d8"/><path d="m1173.864 1060.849h87.636v12h-87.636z" fill="#d8d8d8"/><path d="m1284.388 1007.988h141.229v14.333h-141.229z" fill="#d8d8d8"/><path d="m1004.083 1060.849h48.132v12h-48.132z" fill="#5f99cf" opacity=".5"/><path d="m932.664 1092.693h1346.336" fill="none" stroke="#e0e0e0"/><circle cx="957.687" cy="1139.984" fill="#008bce" r="25"/><path d="m1004.083 1114.984h302.473v20h-302.473z" fill="#b7b7b7"/><path d="m1004.083 1143.747h81.181v20h-81.181z" fill="#828282"/><path d="m1314.412 1120.65h71.173v14.333h-71.173z" fill="#d8d8d8"/><path d="m877.823 1134.669h1458.588v30h-1458.588z" fill="#222"/><path d="m2166 1144.501h101.024v11h-101.024z" fill="#fff" opacity=".6"/><path d="m936.997 1144.501h188.298v11h-188.298z" fill="#fff" opacity=".6"/><path d="m2083 1144.501h58.016v11h-58.016z" fill="#fff" opacity=".6"/><path d="m2004.502 1144.501h58.016v11h-58.016z" fill="#fff" opacity=".6"/><path d="m1913.498 1144.501h71.516v11h-71.516z" fill="#fff" opacity=".6"/><path d="m1856.5 1144.501h38.514v11h-38.514z" fill="#fff" opacity=".6"/><path d="m1790.5 1144.501h46.014v11h-46.014z" fill="#fff" opacity=".6"/><path d="m1672.5 1134.669h94.014v30.663h-94.014z" fill="#fff"/><path d="m1683.499 1144.501h72.514v11h-72.514z" fill="#222"/><path d="m340.388 508.242h270.924v14.091h-270.924z" fill="#f5f5f5"/><path d="m457 512.667h39v5.542h-39z" fill="#bababa"/><path d="m568.333 512.667h39v5.542h-39z" fill="#bababa"/><path d="m373.5 512.667h25.167v5.542h-25.167z" fill="#bababa"/><circle cx="346.75" cy="515.5" fill="#8e8e8e" r="2.125"/><circle cx="352" cy="515.5" fill="#8e8e8e" r="2.125"/><circle cx="357.25" cy="515.5" fill="#8e8e8e" r="2.125"/><circle cx="362.5" cy="515.5" fill="#8e8e8e" r="2.125"/><circle cx="367.5" cy="515.5" fill="#8e8e8e" r="2.125"/><path d="m2327.027 256h-1442.055c-1.597 0-5.496 0-6.891 0v37.441h1455.836v-37.441c-1.709 0-3.083 0-6.89 0" fill="#c8c8c8"/><path d="m994.542 293.551c10.151.003 9.729-26.113 18.191-26.113l96.795.009c10.149-.007 9.729 26.111 18.193 26.111z" fill="#d6d6d6"/><path d="m879.476 293.723c10.153.003 9.73-26.111 18.193-26.111l96.793.008c10.152-.006 9.73 26.11 18.193 26.11z" fill="#e6e6e6"/><path d="m2269.434 274.467c0 4.271-3.461 7.733-7.734 7.733-4.268 0-7.732-3.462-7.732-7.733 0-4.269 3.465-7.733 7.732-7.733 4.273 0 7.734 3.464 7.734 7.733" fill="#70b34a"/><path d="m2295.619 274.467c0 4.271-3.467 7.733-7.734 7.733-4.271 0-7.736-3.462-7.736-7.733 0-4.269 3.465-7.733 7.736-7.733 4.267 0 7.734 3.464 7.734 7.733" fill="#ddaa54"/><path d="m2321.926 274.467c0 4.271-3.467 7.733-7.738 7.733-4.27 0-7.732-3.462-7.732-7.733 0-4.269 3.463-7.733 7.732-7.733 4.271 0 7.738 3.464 7.738 7.733" fill="#d5655d"/><path d="m994.33 281.942c0-2.779-2.254-5.029-5.03-5.029-2.778 0-5.03 2.251-5.03 5.029 0 2.779 2.252 5.029 5.03 5.029 2.776.001 5.03-2.249 5.03-5.029" fill="#d5d5d5" opacity=".9"/><path d="m1110.083 281.942c0-2.779-2.252-5.029-5.029-5.029-2.779 0-5.03 2.251-5.03 5.029 0 2.779 2.251 5.029 5.03 5.029 2.778.001 5.029-2.249 5.029-5.029" fill="#c6c6c6"/><path d="m878.081 293.442h1455.837v35.601h-1455.837z" fill="#e6e6e6"/><path d="m927.947 318.58c.56-.547 6.024-6.282 6.024-6.282.296-.294.446-.674.446-1.054 0-.384-.15-.765-.446-1.056 0 0-5.465-5.737-6.024-6.281-.558-.547-1.565-.583-2.161 0-.595.581-.643 1.393 0 2.108l5.014 5.23-5.014 5.227c-.643.714-.595 1.527 0 2.109.595.58 1.603.544 2.161-.001" fill="#c8c8c8"/><path d="m903.77 303.906c-.56.544-6.022 6.282-6.022 6.282-.3.29-.449.672-.449 1.056 0 .38.15.76.449 1.054 0 0 5.463 5.736 6.022 6.284.558.542 1.564.579 2.162 0 .595-.582.642-1.395-.001-2.11l-5.014-5.228 5.014-5.23c.642-.714.596-1.526.001-2.108-.598-.584-1.604-.547-2.162 0" fill="#c8c8c8"/><path d="m968.648 310.577h-2.82l-.019-.185c-.421-3.976-3.755-6.972-7.751-6.972-4.302 0-7.803 3.51-7.803 7.822 0 4.314 3.501 7.822 7.803 7.822 1.757 0 3.419-.573 4.802-1.66l.412-.322-1.908-2.045-.347.256c-.864.636-1.89.973-2.959.973-2.763 0-5.007-2.254-5.007-5.023s2.244-5.021 5.007-5.021c2.423 0 4.494 1.73 4.921 4.113l.043.243h-3.122l4.374 4.876z" fill="#c8c8c8"/><path d="m2316.057 309.648h-16.146c-.746 0-1.346.714-1.346 1.595 0 .88.6 1.593 1.346 1.593h16.146c.744 0 1.346-.713 1.346-1.593-.001-.881-.602-1.595-1.346-1.595m-16.147-3.186h16.146c.744 0 1.346-.713 1.346-1.592 0-.882-.602-1.597-1.346-1.597h-16.146c-.746 0-1.346.715-1.346 1.597 0 .879.6 1.592 1.346 1.592m16.147 9.561h-16.146c-.746 0-1.346.712-1.346 1.595 0 .879.6 1.593 1.346 1.593h16.146c.744 0 1.346-.714 1.346-1.593-.001-.883-.602-1.595-1.346-1.595" fill="#c8c8c8"/><path d="m2289.084 324.242h-1310.542c-1.047 0-1.903-.765-1.903-1.704v-22.592c0-.938.856-1.705 1.903-1.705h1310.542c1.045 0 1.902.767 1.902 1.705v22.592c0 .939-.857 1.704-1.902 1.704" fill="#fff"/><path d="m2275.918 315.559 5.457 4.255-2.277-6.612 5.646-3.983-6.861.169-1.965-6.717-1.963 6.717-6.865-.169 5.652 3.983-2.277 6.612z" fill="#fbb03b"/><path d="m2408.876 235.294c0-35.786-29.009-64.793-64.794-64.793l-1475.929 2.167c-35.789 0-64.797 29.005-64.797 64.792l.004.282h-.004v1011.943h35.516 1534.489 35.516v-1011.942h-.027z" fill="none" stroke="#fff" stroke-width="2.6648"/><path d="m2506.445 1249.683h-.622-96.949c-.029 0-.059-.001-.089-.001l-375.523.001h-356.465-155.204l-815.183.002h-.622c-31.534-.029-47.553 4.195-47.553 4.195v31.027l2.066.091 52.361 2.461h100.337l1081.164-.001h505.073 2.677 48.583l-.004.001 5.849.002v-.004h43.231l52.359-2.463 2.069-.09v-31.028c0 .003-16.021-4.22-47.555-4.193z" fill="none" stroke="#fff" stroke-width="2.6648"/><path d="m2510.031 1287.036-18.271.423h-92.525-877.642l-708.594.001h-92.526l-18.268-.42-42.198-1.699s8.058 10.475 52.656 12.42h100.337 1081.164 91.71 413.363 100.337c44.598-1.948 52.656-12.422 52.656-12.422z" fill="none" stroke="#fff" stroke-width="2.6648"/><path d="m876.822 254.747h1458.588v910.924h-1458.588z" fill="none" stroke="#fff" stroke-width="2.6648"/><path d="m1458.935 1249.668c-.021.428-.037.857-.037 1.292v4.762c0 13.005 10.544 23.545 23.548 23.545h247.341c13.006 0 23.545-10.54 23.545-23.545v-4.762c0-.435-.013-.864-.034-1.292z" fill="none" stroke="#fff" stroke-width="2.6648"/><path d="m576.715 436.704c35.917 0 45.786 20.475 45.786 40.266l-1.079 547.371c0 19.406-4.17 40.024-44.817 40.024h-201.193c-45.869 0-45.487-29.077-45.487-40.994l-.381-545.832c0-19.572 16.456-40.453 42.479-40.453z" fill="none" stroke="#fff" stroke-width="2.6648"/><path d="m625.482 596.508c0 .666-.824 1.575-1.705 1.575h-.288c-.884 0-1.026-.909-1.026-1.575v-40.456c0-.664.143-1.38 1.026-1.38h.288c.88 0 1.705.716 1.705 1.38z" fill="#fff"/><path d="m328.57 539.064c0 .483-.27.751-.727.751h-.15c-.458 0-.514-.268-.514-.751v-29.501c0-.483.056-1.321.514-1.321h.15c.456 0 .727.838.727 1.321z" fill="#fff"/><path d="m328.57 654.411c0 .662-.27 1.015-.727 1.015h-.15c-.458 0-.514-.352-.514-1.015v-40.359c0-.662.056-1.342.514-1.342h.15c.456 0 .727.68.727 1.342z" fill="#fff"/><path d="m328.57 596.677c0 .661-.27 1.406-.727 1.406h-.15c-.458 0-.514-.746-.514-1.406v-40.358c0-.663.056-1.646.514-1.646h.15c.456 0 .727.984.727 1.646z" fill="#fff"/><path d="m340.388 508.241h270.924v482.879h-270.924z" fill="none" stroke="#fff" stroke-width="2.6648"/><circle cx="476.363" cy="1027.452" fill="none" r="19.468" stroke="#fff" stroke-width="5.3295"/><path d="m452.647 474.17c0 2.091-1.698 3.788-3.789 3.788s-3.788-1.697-3.788-3.788c0-2.093 1.697-3.788 3.788-3.788 2.091.001 3.789 1.695 3.789 3.788" fill="#fff"/><path d="m506.974 474.277c0-1.148-.642-2.034-1.431-2.034h-35.307c-.79 0-1.43.886-1.43 2.034 0 1.146.64 2.035 1.43 2.035h35.307c.789 0 1.431-.889 1.431-2.035z" fill="#fff"/></svg>